G04 #@! TF.GenerationSoftware,KiCad,Pcbnew,9.0.3*
G04 #@! TF.CreationDate,2025-09-18T14:31:52+02:00*
G04 #@! TF.ProjectId,CacophonyV3,4361636f-7068-46f6-9e79-56332e6b6963,rev?*
G04 #@! TF.SameCoordinates,Original*
G04 #@! TF.FileFunction,Copper,L1,Top*
G04 #@! TF.FilePolarity,Positive*
%FSLAX46Y46*%
G04 Gerber Fmt 4.6, Leading zero omitted, Abs format (unit mm)*
G04 Created by KiCad (PCBNEW 9.0.3) date 2025-09-18 14:31:52*
%MOMM*%
%LPD*%
G01*
G04 APERTURE LIST*
G04 Aperture macros list*
%AMRoundRect*
0 Rectangle with rounded corners*
0 $1 Rounding radius*
0 $2 $3 $4 $5 $6 $7 $8 $9 X,Y pos of 4 corners*
0 Add a 4 corners polygon primitive as box body*
4,1,4,$2,$3,$4,$5,$6,$7,$8,$9,$2,$3,0*
0 Add four circle primitives for the rounded corners*
1,1,$1+$1,$2,$3*
1,1,$1+$1,$4,$5*
1,1,$1+$1,$6,$7*
1,1,$1+$1,$8,$9*
0 Add four rect primitives between the rounded corners*
20,1,$1+$1,$2,$3,$4,$5,0*
20,1,$1+$1,$4,$5,$6,$7,0*
20,1,$1+$1,$6,$7,$8,$9,0*
20,1,$1+$1,$8,$9,$2,$3,0*%
G04 Aperture macros list end*
G04 #@! TA.AperFunction,SMDPad,CuDef*
%ADD10RoundRect,0.147500X-0.147500X-0.172500X0.147500X-0.172500X0.147500X0.172500X-0.147500X0.172500X0*%
G04 #@! TD*
G04 #@! TA.AperFunction,ComponentPad*
%ADD11C,2.500000*%
G04 #@! TD*
G04 #@! TA.AperFunction,SMDPad,CuDef*
%ADD12RoundRect,0.250000X-0.650000X1.000000X-0.650000X-1.000000X0.650000X-1.000000X0.650000X1.000000X0*%
G04 #@! TD*
G04 #@! TA.AperFunction,SMDPad,CuDef*
%ADD13RoundRect,0.135000X0.135000X0.185000X-0.135000X0.185000X-0.135000X-0.185000X0.135000X-0.185000X0*%
G04 #@! TD*
G04 #@! TA.AperFunction,SMDPad,CuDef*
%ADD14RoundRect,0.250000X0.650000X-1.000000X0.650000X1.000000X-0.650000X1.000000X-0.650000X-1.000000X0*%
G04 #@! TD*
G04 #@! TA.AperFunction,SMDPad,CuDef*
%ADD15RoundRect,0.135000X-0.135000X-0.185000X0.135000X-0.185000X0.135000X0.185000X-0.135000X0.185000X0*%
G04 #@! TD*
G04 #@! TA.AperFunction,SMDPad,CuDef*
%ADD16RoundRect,0.135000X-0.185000X0.135000X-0.185000X-0.135000X0.185000X-0.135000X0.185000X0.135000X0*%
G04 #@! TD*
G04 #@! TA.AperFunction,SMDPad,CuDef*
%ADD17RoundRect,0.135000X0.185000X-0.135000X0.185000X0.135000X-0.185000X0.135000X-0.185000X-0.135000X0*%
G04 #@! TD*
G04 #@! TA.AperFunction,ComponentPad*
%ADD18RoundRect,0.250000X0.600000X0.725000X-0.600000X0.725000X-0.600000X-0.725000X0.600000X-0.725000X0*%
G04 #@! TD*
G04 #@! TA.AperFunction,ComponentPad*
%ADD19O,1.700000X1.950000*%
G04 #@! TD*
G04 #@! TA.AperFunction,SMDPad,CuDef*
%ADD20RoundRect,0.140000X-0.140000X-0.170000X0.140000X-0.170000X0.140000X0.170000X-0.140000X0.170000X0*%
G04 #@! TD*
G04 #@! TA.AperFunction,ComponentPad*
%ADD21RoundRect,0.250000X-0.725000X0.600000X-0.725000X-0.600000X0.725000X-0.600000X0.725000X0.600000X0*%
G04 #@! TD*
G04 #@! TA.AperFunction,ComponentPad*
%ADD22O,1.950000X1.700000*%
G04 #@! TD*
G04 #@! TA.AperFunction,ComponentPad*
%ADD23C,2.000000*%
G04 #@! TD*
G04 #@! TA.AperFunction,ComponentPad*
%ADD24RoundRect,0.250000X-0.600000X-0.725000X0.600000X-0.725000X0.600000X0.725000X-0.600000X0.725000X0*%
G04 #@! TD*
G04 #@! TA.AperFunction,ComponentPad*
%ADD25RoundRect,0.250000X-0.750000X0.600000X-0.750000X-0.600000X0.750000X-0.600000X0.750000X0.600000X0*%
G04 #@! TD*
G04 #@! TA.AperFunction,ComponentPad*
%ADD26O,2.000000X1.700000*%
G04 #@! TD*
G04 #@! TA.AperFunction,ComponentPad*
%ADD27C,1.000000*%
G04 #@! TD*
G04 #@! TA.AperFunction,ViaPad*
%ADD28C,0.600000*%
G04 #@! TD*
G04 #@! TA.AperFunction,Conductor*
%ADD29C,0.254000*%
G04 #@! TD*
G04 #@! TA.AperFunction,Conductor*
%ADD30C,0.508000*%
G04 #@! TD*
G04 APERTURE END LIST*
D10*
X75615000Y-69000000D03*
X76585000Y-69000000D03*
D11*
X56700000Y-77600000D03*
X56700000Y-68400000D03*
X71900000Y-77600000D03*
X71900000Y-68400000D03*
D12*
X75800000Y-73400000D03*
X75800000Y-77400000D03*
D13*
X74000000Y-99900000D03*
X72980000Y-99900000D03*
X51810000Y-90700000D03*
X50790000Y-90700000D03*
D14*
X75600000Y-95800000D03*
X75600000Y-91800000D03*
D15*
X75590000Y-70300000D03*
X76610000Y-70300000D03*
D16*
X96000000Y-88490000D03*
X96000000Y-89510000D03*
D11*
X56700000Y-91400000D03*
X56700000Y-82200000D03*
X71900000Y-91400000D03*
X71900000Y-82200000D03*
D13*
X74010000Y-98600000D03*
X72990000Y-98600000D03*
D17*
X100100000Y-73910000D03*
X100100000Y-72890000D03*
D15*
X74790000Y-80000000D03*
X75810000Y-80000000D03*
D17*
X96000000Y-92010000D03*
X96000000Y-90990000D03*
D18*
X92000000Y-91000000D03*
D19*
X89500000Y-91000000D03*
X87000000Y-91000000D03*
X84500000Y-91000000D03*
D20*
X76720000Y-98600000D03*
X77680000Y-98600000D03*
D10*
X76715000Y-99900000D03*
X77685000Y-99900000D03*
D17*
X105100000Y-76510000D03*
X105100000Y-75490000D03*
D13*
X77910000Y-80000000D03*
X76890000Y-80000000D03*
D18*
X93400000Y-99200000D03*
D19*
X90900000Y-99200000D03*
X88400000Y-99200000D03*
X85900000Y-99200000D03*
X83400000Y-99200000D03*
D21*
X51225000Y-79400000D03*
D22*
X51225000Y-81900000D03*
X51225000Y-84400000D03*
D23*
X80350000Y-63500000D03*
X80350000Y-66040000D03*
X80350000Y-68580000D03*
X80350000Y-71120000D03*
X80350000Y-73660000D03*
X80350000Y-76200000D03*
X80350000Y-78740000D03*
X80380000Y-81280000D03*
X80380000Y-83820000D03*
X95650000Y-63500000D03*
X95650000Y-66040000D03*
X95650000Y-68580000D03*
X95650000Y-71120000D03*
X95650000Y-73660000D03*
X95650000Y-76200000D03*
X95650000Y-78740000D03*
X95620000Y-81280000D03*
X95620000Y-83820000D03*
D24*
X63100000Y-97900000D03*
D19*
X65600000Y-97900000D03*
X68100000Y-97900000D03*
D17*
X97200000Y-99710000D03*
X97200000Y-98690000D03*
D25*
X51200000Y-68800000D03*
D26*
X51200000Y-71300000D03*
D24*
X50197500Y-97900000D03*
D19*
X52697500Y-97900000D03*
X55197500Y-97900000D03*
D13*
X51810000Y-92600000D03*
X50790000Y-92600000D03*
D27*
X101500000Y-66200000D03*
X101500000Y-100700000D03*
D23*
X102500000Y-79360000D03*
X102500000Y-81900000D03*
X102500000Y-84440000D03*
X102500000Y-86980000D03*
X102500000Y-89520000D03*
X102500000Y-92060000D03*
X102500000Y-94600000D03*
X102500000Y-69200000D03*
X102500000Y-71740000D03*
X102500000Y-74280000D03*
X102500000Y-76820000D03*
X102500000Y-97140000D03*
D28*
X73000000Y-97600000D03*
X106200000Y-61500000D03*
X78300000Y-82000000D03*
X55550000Y-100650000D03*
D29*
X72990000Y-98600000D02*
X72990000Y-99890000D01*
X71900000Y-68400000D02*
X75015000Y-68400000D01*
X72990000Y-98600000D02*
X72990000Y-97610000D01*
X75200000Y-82200000D02*
X76890000Y-80510000D01*
X73500000Y-100800000D02*
X76100000Y-100800000D01*
X50790000Y-90700000D02*
X50790000Y-92600000D01*
X50790000Y-92600000D02*
X50790000Y-93090000D01*
X72990000Y-97610000D02*
X73000000Y-97600000D01*
X76715000Y-100185000D02*
X76715000Y-99900000D01*
X72980000Y-100280000D02*
X73500000Y-100800000D01*
X75015000Y-68400000D02*
X75615000Y-69000000D01*
X72990000Y-99890000D02*
X72980000Y-99900000D01*
X50197500Y-93682500D02*
X50197500Y-97900000D01*
X76890000Y-80510000D02*
X76890000Y-80000000D01*
X72980000Y-99900000D02*
X72980000Y-100280000D01*
X71900000Y-82200000D02*
X75200000Y-82200000D01*
X76100000Y-100800000D02*
X76715000Y-100185000D01*
X50790000Y-93090000D02*
X50197500Y-93682500D01*
X59100000Y-80000000D02*
X56700000Y-77600000D01*
X74790000Y-80000000D02*
X59100000Y-80000000D01*
X95650000Y-66040000D02*
X100100000Y-70490000D01*
X100100000Y-70490000D02*
X100100000Y-72890000D01*
X96000000Y-88490000D02*
X93010000Y-88490000D01*
X92000000Y-84900000D02*
X95620000Y-81280000D01*
X92000000Y-91000000D02*
X92000000Y-89500000D01*
X92000000Y-89500000D02*
X92000000Y-84900000D01*
X93010000Y-88490000D02*
X92000000Y-89500000D01*
D30*
X82350000Y-61500000D02*
X80350000Y-63500000D01*
D29*
X51810000Y-92600000D02*
X51810000Y-92810000D01*
D30*
X106200000Y-61500000D02*
X82350000Y-61500000D01*
X75600000Y-95800000D02*
X78300000Y-93100000D01*
D29*
X52697500Y-93697500D02*
X52697500Y-97900000D01*
X51810000Y-90700000D02*
X51810000Y-92600000D01*
D30*
X78300000Y-93100000D02*
X78300000Y-82000000D01*
D29*
X51810000Y-92810000D02*
X52697500Y-93697500D01*
X105100000Y-66000000D02*
X102600000Y-63500000D01*
X105100000Y-75490000D02*
X105100000Y-66000000D01*
X102600000Y-63500000D02*
X95650000Y-63500000D01*
X89500000Y-84890000D02*
X95650000Y-78740000D01*
X95010000Y-93000000D02*
X90500000Y-93000000D01*
X89500000Y-92000000D02*
X89500000Y-91000000D01*
X90500000Y-93000000D02*
X89500000Y-92000000D01*
X89500000Y-91000000D02*
X89500000Y-84890000D01*
X96000000Y-92010000D02*
X95010000Y-93000000D01*
X97500000Y-102500000D02*
X98800000Y-101200000D01*
X68100000Y-97900000D02*
X72700000Y-102500000D01*
X98800000Y-76300000D02*
X96160000Y-73660000D01*
X72700000Y-102500000D02*
X97500000Y-102500000D01*
X98800000Y-101200000D02*
X98800000Y-76300000D01*
X96160000Y-73660000D02*
X95650000Y-73660000D01*
X76100000Y-79200000D02*
X75810000Y-79490000D01*
X77910000Y-79200000D02*
X76100000Y-79200000D01*
X77910000Y-76100000D02*
X77910000Y-79200000D01*
X80350000Y-73660000D02*
X77910000Y-76100000D01*
X75810000Y-79490000D02*
X75810000Y-80000000D01*
X77910000Y-79200000D02*
X77910000Y-80000000D01*
X99622000Y-75092000D02*
X99622000Y-101078000D01*
X91500000Y-103500000D02*
X91400000Y-103400000D01*
X97200000Y-103500000D02*
X91500000Y-103500000D01*
X99622000Y-101078000D02*
X97200000Y-103500000D01*
X95650000Y-71120000D02*
X99622000Y-75092000D01*
X91400000Y-103400000D02*
X58300000Y-103400000D01*
X58300000Y-103400000D02*
X55550000Y-100650000D01*
X102500000Y-76820000D02*
X104790000Y-76820000D01*
X104790000Y-76820000D02*
X105100000Y-76510000D01*
X102130000Y-73910000D02*
X102500000Y-74280000D01*
X100100000Y-73910000D02*
X102130000Y-73910000D01*
X88400000Y-99200000D02*
X83000000Y-93800000D01*
X83000000Y-81390000D02*
X80350000Y-78740000D01*
X83000000Y-93800000D02*
X83000000Y-81390000D01*
X83400000Y-100200000D02*
X83400000Y-99200000D01*
X80380000Y-83820000D02*
X80380000Y-96180000D01*
X85000000Y-101800000D02*
X83400000Y-100200000D01*
X97200000Y-99710000D02*
X97200000Y-101300000D01*
X80380000Y-96180000D02*
X83400000Y-99200000D01*
X96700000Y-101800000D02*
X85000000Y-101800000D01*
X97200000Y-101300000D02*
X96700000Y-101800000D01*
X82000000Y-82900000D02*
X80380000Y-81280000D01*
X82000000Y-95300000D02*
X82000000Y-82900000D01*
X85900000Y-99200000D02*
X82000000Y-95300000D01*
D30*
X51225000Y-71325000D02*
X51200000Y-71300000D01*
X51225000Y-79400000D02*
X51225000Y-71325000D01*
X71900000Y-91400000D02*
X75200000Y-91400000D01*
X75200000Y-91400000D02*
X75600000Y-91800000D01*
X71900000Y-77600000D02*
X75600000Y-77600000D01*
X75600000Y-77600000D02*
X75800000Y-77400000D01*
D29*
X77680000Y-99895000D02*
X77685000Y-99900000D01*
X77680000Y-98600000D02*
X77680000Y-99895000D01*
X76610000Y-70300000D02*
X76610000Y-69025000D01*
X76610000Y-69025000D02*
X76585000Y-69000000D01*
G04 #@! TA.AperFunction,Conductor*
G36*
X49513039Y-94219685D02*
G01*
X49558794Y-94272489D01*
X49570000Y-94324000D01*
X49570000Y-96310223D01*
X49550315Y-96377262D01*
X49497511Y-96423017D01*
X49458603Y-96433581D01*
X49444702Y-96435001D01*
X49444700Y-96435001D01*
X49278168Y-96490185D01*
X49278163Y-96490187D01*
X49128842Y-96582289D01*
X49004789Y-96706342D01*
X48912687Y-96855663D01*
X48912685Y-96855668D01*
X48907680Y-96870772D01*
X48857501Y-97022203D01*
X48857501Y-97022204D01*
X48857500Y-97022204D01*
X48847000Y-97124983D01*
X48847000Y-98675001D01*
X48847001Y-98675018D01*
X48857500Y-98777796D01*
X48857501Y-98777799D01*
X48895250Y-98891716D01*
X48912686Y-98944334D01*
X49004788Y-99093656D01*
X49128844Y-99217712D01*
X49278166Y-99309814D01*
X49444703Y-99364999D01*
X49547491Y-99375500D01*
X50847508Y-99375499D01*
X50950297Y-99364999D01*
X51116834Y-99309814D01*
X51266156Y-99217712D01*
X51390212Y-99093656D01*
X51482314Y-98944334D01*
X51482314Y-98944331D01*
X51485948Y-98938441D01*
X51537895Y-98891716D01*
X51606858Y-98880493D01*
X51670940Y-98908336D01*
X51679168Y-98915856D01*
X51818035Y-99054723D01*
X51818040Y-99054727D01*
X51989942Y-99179620D01*
X52179282Y-99276095D01*
X52381371Y-99341757D01*
X52447500Y-99352231D01*
X52447500Y-98304145D01*
X52514157Y-98342630D01*
X52634965Y-98375000D01*
X52760035Y-98375000D01*
X52880843Y-98342630D01*
X52947500Y-98304145D01*
X52947500Y-99352230D01*
X53013626Y-99341757D01*
X53013629Y-99341757D01*
X53215717Y-99276095D01*
X53405057Y-99179620D01*
X53576959Y-99054727D01*
X53576964Y-99054723D01*
X53727221Y-98904466D01*
X53846871Y-98739781D01*
X53902201Y-98697115D01*
X53971814Y-98691136D01*
X54033610Y-98723741D01*
X54047508Y-98739781D01*
X54167390Y-98904785D01*
X54167394Y-98904790D01*
X54317713Y-99055109D01*
X54489679Y-99180048D01*
X54489681Y-99180049D01*
X54489684Y-99180051D01*
X54679088Y-99276557D01*
X54881257Y-99342246D01*
X55091213Y-99375500D01*
X55091214Y-99375500D01*
X55303786Y-99375500D01*
X55303787Y-99375500D01*
X55513743Y-99342246D01*
X55715912Y-99276557D01*
X55905316Y-99180051D01*
X55976864Y-99128069D01*
X56077286Y-99055109D01*
X56077288Y-99055106D01*
X56077292Y-99055104D01*
X56227604Y-98904792D01*
X56227606Y-98904788D01*
X56227609Y-98904786D01*
X56352548Y-98732820D01*
X56352547Y-98732820D01*
X56352551Y-98732816D01*
X56449057Y-98543412D01*
X56514746Y-98341243D01*
X56548000Y-98131287D01*
X56548000Y-97668713D01*
X56514746Y-97458757D01*
X56449057Y-97256588D01*
X56352551Y-97067184D01*
X56352549Y-97067181D01*
X56352548Y-97067179D01*
X56227609Y-96895213D01*
X56077286Y-96744890D01*
X55905320Y-96619951D01*
X55715914Y-96523444D01*
X55715913Y-96523443D01*
X55715912Y-96523443D01*
X55513743Y-96457754D01*
X55513741Y-96457753D01*
X55513740Y-96457753D01*
X55352457Y-96432208D01*
X55303787Y-96424500D01*
X55091213Y-96424500D01*
X55042542Y-96432208D01*
X54881260Y-96457753D01*
X54679085Y-96523444D01*
X54489679Y-96619951D01*
X54317713Y-96744890D01*
X54167394Y-96895209D01*
X54167390Y-96895214D01*
X54047508Y-97060218D01*
X53992178Y-97102884D01*
X53922565Y-97108863D01*
X53860770Y-97076257D01*
X53846872Y-97060218D01*
X53727227Y-96895540D01*
X53727223Y-96895535D01*
X53576964Y-96745276D01*
X53576959Y-96745272D01*
X53405057Y-96620379D01*
X53215715Y-96523903D01*
X53013624Y-96458241D01*
X52947500Y-96447768D01*
X52947500Y-97495854D01*
X52880843Y-97457370D01*
X52760035Y-97425000D01*
X52634965Y-97425000D01*
X52514157Y-97457370D01*
X52447500Y-97495854D01*
X52447500Y-96447768D01*
X52447499Y-96447768D01*
X52381375Y-96458241D01*
X52179284Y-96523903D01*
X51989942Y-96620379D01*
X51818041Y-96745271D01*
X51679168Y-96884144D01*
X51617845Y-96917628D01*
X51548153Y-96912644D01*
X51492220Y-96870772D01*
X51485948Y-96861558D01*
X51478810Y-96849986D01*
X51390212Y-96706344D01*
X51266156Y-96582288D01*
X51116834Y-96490186D01*
X50950297Y-96435001D01*
X50950293Y-96435000D01*
X50950287Y-96434999D01*
X50936392Y-96433579D01*
X50871701Y-96407180D01*
X50831553Y-96349998D01*
X50825000Y-96310222D01*
X50825000Y-94324000D01*
X50844685Y-94256961D01*
X50897489Y-94211206D01*
X50949000Y-94200000D01*
X74216715Y-94200000D01*
X74283754Y-94219685D01*
X74329509Y-94272489D01*
X74339453Y-94341647D01*
X74322253Y-94389097D01*
X74265646Y-94480869D01*
X74265641Y-94480880D01*
X74210494Y-94647302D01*
X74210493Y-94647309D01*
X74200000Y-94750013D01*
X74200000Y-95550000D01*
X75476000Y-95550000D01*
X75543039Y-95569685D01*
X75588794Y-95622489D01*
X75600000Y-95674000D01*
X75600000Y-95800000D01*
X75726000Y-95800000D01*
X75793039Y-95819685D01*
X75838794Y-95872489D01*
X75850000Y-95924000D01*
X75850000Y-97549999D01*
X76299972Y-97549999D01*
X76299986Y-97549998D01*
X76402697Y-97539505D01*
X76569119Y-97484358D01*
X76569124Y-97484356D01*
X76718345Y-97392315D01*
X76842315Y-97268345D01*
X76934356Y-97119124D01*
X76934358Y-97119119D01*
X76958294Y-97046886D01*
X76998066Y-96989441D01*
X77062582Y-96962618D01*
X77131358Y-96974933D01*
X77182558Y-97022476D01*
X77200000Y-97085890D01*
X77200000Y-97697162D01*
X77180315Y-97764201D01*
X77127511Y-97809956D01*
X77058353Y-97819900D01*
X77041405Y-97816238D01*
X76970001Y-97795493D01*
X76970000Y-97795494D01*
X76970000Y-98101645D01*
X76952734Y-98164763D01*
X76947507Y-98173600D01*
X76947504Y-98173608D01*
X76902357Y-98329002D01*
X76902356Y-98329008D01*
X76899500Y-98365302D01*
X76899500Y-98476000D01*
X76879815Y-98543039D01*
X76827011Y-98588794D01*
X76775500Y-98600000D01*
X76720000Y-98600000D01*
X76720000Y-98726000D01*
X76700315Y-98793039D01*
X76647511Y-98838794D01*
X76596000Y-98850000D01*
X75941210Y-98850000D01*
X75942854Y-98870910D01*
X75987968Y-99026195D01*
X76074252Y-99172093D01*
X76071362Y-99173801D01*
X76091265Y-99224705D01*
X76077487Y-99293203D01*
X76055421Y-99323169D01*
X76051412Y-99327178D01*
X76051406Y-99327185D01*
X75968068Y-99468104D01*
X75968066Y-99468107D01*
X75922391Y-99625320D01*
X75922390Y-99625326D01*
X75919500Y-99662052D01*
X75919500Y-100041719D01*
X75910855Y-100071159D01*
X75904332Y-100101146D01*
X75900577Y-100106161D01*
X75899815Y-100108758D01*
X75883181Y-100129400D01*
X75876400Y-100136181D01*
X75815077Y-100169666D01*
X75788719Y-100172500D01*
X74844968Y-100172500D01*
X74777929Y-100152815D01*
X74774573Y-100150000D01*
X74124000Y-100150000D01*
X74056961Y-100130315D01*
X74011206Y-100077511D01*
X74000000Y-100026000D01*
X74000000Y-99900000D01*
X73874499Y-99900000D01*
X73866032Y-99897513D01*
X73857301Y-99898802D01*
X73833021Y-99887820D01*
X73807460Y-99880315D01*
X73801681Y-99873645D01*
X73793640Y-99870009D01*
X73779151Y-99847644D01*
X73761705Y-99827511D01*
X73759449Y-99817235D01*
X73755650Y-99811370D01*
X73750693Y-99777335D01*
X73750500Y-99776454D01*
X73750499Y-99776249D01*
X73750499Y-99650820D01*
X73750017Y-99644705D01*
X73750001Y-99640061D01*
X73750015Y-99640009D01*
X73750000Y-99639607D01*
X73750000Y-99522693D01*
X74250000Y-99522693D01*
X74250000Y-99650000D01*
X74769931Y-99650000D01*
X74767167Y-99614877D01*
X74767166Y-99614871D01*
X74722407Y-99460811D01*
X74722406Y-99460808D01*
X74639161Y-99320048D01*
X74621978Y-99252324D01*
X74644138Y-99186062D01*
X74647918Y-99180922D01*
X74650735Y-99177289D01*
X74732406Y-99039191D01*
X74732407Y-99039188D01*
X74777166Y-98885128D01*
X74777167Y-98885122D01*
X74779931Y-98850000D01*
X74260000Y-98850000D01*
X74260000Y-99488638D01*
X74250000Y-99522693D01*
X73750000Y-99522693D01*
X73750000Y-99011362D01*
X73750271Y-99003166D01*
X73760271Y-98852212D01*
X73760327Y-98852056D01*
X73760382Y-98850679D01*
X73760500Y-98849181D01*
X73760499Y-98350820D01*
X73760434Y-98350000D01*
X73760382Y-98349332D01*
X73760000Y-98339607D01*
X73760000Y-97881669D01*
X73762781Y-97855555D01*
X73765144Y-97844585D01*
X73769737Y-97833497D01*
X73778955Y-97787154D01*
X74260000Y-97787154D01*
X74260000Y-98350000D01*
X74779931Y-98350000D01*
X74779931Y-98349999D01*
X75941209Y-98349999D01*
X75941210Y-98350000D01*
X76470000Y-98350000D01*
X76470000Y-97795494D01*
X76469998Y-97795493D01*
X76323809Y-97837965D01*
X76323806Y-97837967D01*
X76184625Y-97920278D01*
X76184616Y-97920285D01*
X76070285Y-98034616D01*
X76070278Y-98034625D01*
X75987968Y-98173804D01*
X75987966Y-98173809D01*
X75942855Y-98329081D01*
X75942854Y-98329087D01*
X75941209Y-98349999D01*
X74779931Y-98349999D01*
X74777167Y-98314877D01*
X74777166Y-98314871D01*
X74732407Y-98160811D01*
X74732406Y-98160808D01*
X74650738Y-98022714D01*
X74650731Y-98022705D01*
X74537294Y-97909268D01*
X74537285Y-97909261D01*
X74399191Y-97827593D01*
X74399188Y-97827591D01*
X74260001Y-97787153D01*
X74260000Y-97787154D01*
X73778955Y-97787154D01*
X73800500Y-97678842D01*
X73800500Y-97521158D01*
X73800500Y-97521155D01*
X73800499Y-97521153D01*
X73793180Y-97484358D01*
X73769737Y-97366503D01*
X73724208Y-97256585D01*
X73709397Y-97220827D01*
X73709390Y-97220814D01*
X73621789Y-97089711D01*
X73621786Y-97089707D01*
X73510292Y-96978213D01*
X73510288Y-96978210D01*
X73379185Y-96890609D01*
X73379172Y-96890602D01*
X73281115Y-96849986D01*
X74200001Y-96849986D01*
X74210494Y-96952697D01*
X74265641Y-97119119D01*
X74265643Y-97119124D01*
X74357684Y-97268345D01*
X74481654Y-97392315D01*
X74630875Y-97484356D01*
X74630880Y-97484358D01*
X74797302Y-97539505D01*
X74797309Y-97539506D01*
X74900019Y-97549999D01*
X75349999Y-97549999D01*
X75350000Y-97549998D01*
X75350000Y-96050000D01*
X74200001Y-96050000D01*
X74200001Y-96849986D01*
X73281115Y-96849986D01*
X73233501Y-96830264D01*
X73233489Y-96830261D01*
X73078845Y-96799500D01*
X73078842Y-96799500D01*
X72921158Y-96799500D01*
X72921155Y-96799500D01*
X72766510Y-96830261D01*
X72766498Y-96830264D01*
X72620827Y-96890602D01*
X72620814Y-96890609D01*
X72489711Y-96978210D01*
X72489707Y-96978213D01*
X72378213Y-97089707D01*
X72378210Y-97089711D01*
X72290609Y-97220814D01*
X72290602Y-97220827D01*
X72230264Y-97366498D01*
X72230261Y-97366510D01*
X72199500Y-97521153D01*
X72199500Y-97678846D01*
X72230261Y-97833489D01*
X72230264Y-97833501D01*
X72290602Y-97979172D01*
X72290604Y-97979176D01*
X72290606Y-97979179D01*
X72291727Y-97980858D01*
X72292045Y-97981871D01*
X72293475Y-97984546D01*
X72292967Y-97984817D01*
X72312608Y-98047532D01*
X72295361Y-98112871D01*
X72267131Y-98160605D01*
X72267130Y-98160608D01*
X72222335Y-98314791D01*
X72222334Y-98314797D01*
X72219500Y-98350811D01*
X72219500Y-98849169D01*
X72219501Y-98849191D01*
X72222335Y-98885205D01*
X72267129Y-99039388D01*
X72267131Y-99039393D01*
X72345232Y-99171455D01*
X72349582Y-99187356D01*
X72357477Y-99199641D01*
X72362500Y-99234576D01*
X72362500Y-99249476D01*
X72342815Y-99316515D01*
X72339946Y-99320573D01*
X72257131Y-99460606D01*
X72257129Y-99460611D01*
X72212335Y-99614791D01*
X72212334Y-99614797D01*
X72209500Y-99650811D01*
X72209500Y-100149169D01*
X72209501Y-100149189D01*
X72210846Y-100166273D01*
X72196481Y-100234650D01*
X72147429Y-100284406D01*
X72087228Y-100300000D01*
X71438781Y-100300000D01*
X71371742Y-100280315D01*
X71351100Y-100263681D01*
X69463482Y-98376063D01*
X69429997Y-98314740D01*
X69428690Y-98268983D01*
X69443765Y-98173809D01*
X69450500Y-98131287D01*
X69450500Y-97668713D01*
X69417246Y-97458757D01*
X69351557Y-97256588D01*
X69255051Y-97067184D01*
X69255049Y-97067181D01*
X69255048Y-97067179D01*
X69130109Y-96895213D01*
X68979786Y-96744890D01*
X68807820Y-96619951D01*
X68618414Y-96523444D01*
X68618413Y-96523443D01*
X68618412Y-96523443D01*
X68416243Y-96457754D01*
X68416241Y-96457753D01*
X68416240Y-96457753D01*
X68254957Y-96432208D01*
X68206287Y-96424500D01*
X67993713Y-96424500D01*
X67945042Y-96432208D01*
X67783760Y-96457753D01*
X67581585Y-96523444D01*
X67392179Y-96619951D01*
X67220213Y-96744890D01*
X67069894Y-96895209D01*
X67069890Y-96895214D01*
X66950008Y-97060218D01*
X66894678Y-97102884D01*
X66825065Y-97108863D01*
X66763270Y-97076257D01*
X66749372Y-97060218D01*
X66629727Y-96895540D01*
X66629723Y-96895535D01*
X66479464Y-96745276D01*
X66479459Y-96745272D01*
X66307557Y-96620379D01*
X66118215Y-96523903D01*
X65916124Y-96458241D01*
X65850000Y-96447768D01*
X65850000Y-97495854D01*
X65783343Y-97457370D01*
X65662535Y-97425000D01*
X65537465Y-97425000D01*
X65416657Y-97457370D01*
X65350000Y-97495854D01*
X65350000Y-96447768D01*
X65349999Y-96447768D01*
X65283875Y-96458241D01*
X65081784Y-96523903D01*
X64892442Y-96620379D01*
X64720541Y-96745271D01*
X64581668Y-96884144D01*
X64520345Y-96917628D01*
X64450653Y-96912644D01*
X64394720Y-96870772D01*
X64388448Y-96861558D01*
X64381310Y-96849986D01*
X64292712Y-96706344D01*
X64168656Y-96582288D01*
X64019334Y-96490186D01*
X63852797Y-96435001D01*
X63852795Y-96435000D01*
X63750010Y-96424500D01*
X62449998Y-96424500D01*
X62449981Y-96424501D01*
X62347203Y-96435000D01*
X62347200Y-96435001D01*
X62180668Y-96490185D01*
X62180663Y-96490187D01*
X62031342Y-96582289D01*
X61907289Y-96706342D01*
X61815187Y-96855663D01*
X61815185Y-96855668D01*
X61810180Y-96870772D01*
X61760001Y-97022203D01*
X61760001Y-97022204D01*
X61760000Y-97022204D01*
X61749500Y-97124983D01*
X61749500Y-98675001D01*
X61749501Y-98675018D01*
X61760000Y-98777796D01*
X61760001Y-98777799D01*
X61797750Y-98891716D01*
X61815186Y-98944334D01*
X61907288Y-99093656D01*
X62031344Y-99217712D01*
X62180666Y-99309814D01*
X62347203Y-99364999D01*
X62449991Y-99375500D01*
X63750008Y-99375499D01*
X63852797Y-99364999D01*
X64019334Y-99309814D01*
X64168656Y-99217712D01*
X64292712Y-99093656D01*
X64384814Y-98944334D01*
X64384814Y-98944331D01*
X64388448Y-98938441D01*
X64440395Y-98891716D01*
X64509358Y-98880493D01*
X64573440Y-98908336D01*
X64581668Y-98915856D01*
X64720535Y-99054723D01*
X64720540Y-99054727D01*
X64892442Y-99179620D01*
X65081782Y-99276095D01*
X65283871Y-99341757D01*
X65350000Y-99352231D01*
X65350000Y-98304145D01*
X65416657Y-98342630D01*
X65537465Y-98375000D01*
X65662535Y-98375000D01*
X65783343Y-98342630D01*
X65850000Y-98304145D01*
X65850000Y-99352230D01*
X65916126Y-99341757D01*
X65916129Y-99341757D01*
X66118217Y-99276095D01*
X66307557Y-99179620D01*
X66479459Y-99054727D01*
X66479464Y-99054723D01*
X66629721Y-98904466D01*
X66749371Y-98739781D01*
X66804701Y-98697115D01*
X66874314Y-98691136D01*
X66936110Y-98723741D01*
X66950008Y-98739781D01*
X67069890Y-98904785D01*
X67069894Y-98904790D01*
X67220213Y-99055109D01*
X67392179Y-99180048D01*
X67392181Y-99180049D01*
X67392184Y-99180051D01*
X67581588Y-99276557D01*
X67783757Y-99342246D01*
X67993713Y-99375500D01*
X67993714Y-99375500D01*
X68206286Y-99375500D01*
X68206287Y-99375500D01*
X68416243Y-99342246D01*
X68524050Y-99307216D01*
X68593890Y-99305222D01*
X68650048Y-99337467D01*
X69400900Y-100088319D01*
X69434385Y-100149642D01*
X69429401Y-100219334D01*
X69387529Y-100275267D01*
X69322065Y-100299684D01*
X69313219Y-100300000D01*
X56345170Y-100300000D01*
X56278131Y-100280315D01*
X56242068Y-100244890D01*
X56171792Y-100139715D01*
X56171786Y-100139707D01*
X56060292Y-100028213D01*
X56060288Y-100028210D01*
X55929185Y-99940609D01*
X55929172Y-99940602D01*
X55783501Y-99880264D01*
X55783489Y-99880261D01*
X55628845Y-99849500D01*
X55628842Y-99849500D01*
X55471158Y-99849500D01*
X55471155Y-99849500D01*
X55316510Y-99880261D01*
X55316498Y-99880264D01*
X55170827Y-99940602D01*
X55170814Y-99940609D01*
X55039711Y-100028210D01*
X55039707Y-100028213D01*
X54928213Y-100139707D01*
X54928207Y-100139715D01*
X54857932Y-100244890D01*
X54804320Y-100289696D01*
X54754830Y-100300000D01*
X48224000Y-100300000D01*
X48156961Y-100280315D01*
X48111206Y-100227511D01*
X48100000Y-100176000D01*
X48100000Y-94324000D01*
X48119685Y-94256961D01*
X48172489Y-94211206D01*
X48224000Y-94200000D01*
X49446000Y-94200000D01*
X49513039Y-94219685D01*
G37*
G04 #@! TD.AperFunction*
G04 #@! TA.AperFunction,Conductor*
G36*
X58943039Y-65519685D02*
G01*
X58988794Y-65572489D01*
X59000000Y-65624000D01*
X59000000Y-93376000D01*
X58980315Y-93443039D01*
X58927511Y-93488794D01*
X58876000Y-93500000D01*
X53377748Y-93500000D01*
X53310709Y-93480315D01*
X53264954Y-93427511D01*
X53263187Y-93423454D01*
X53263185Y-93423450D01*
X53253583Y-93400267D01*
X53243560Y-93385267D01*
X53184914Y-93297496D01*
X53184913Y-93297494D01*
X53169911Y-93282492D01*
X53097508Y-93210089D01*
X52616818Y-92729399D01*
X52583333Y-92668076D01*
X52580499Y-92641718D01*
X52580499Y-92350831D01*
X52580498Y-92350806D01*
X52580217Y-92347236D01*
X52577665Y-92314796D01*
X52532869Y-92160607D01*
X52509551Y-92121178D01*
X52454768Y-92028544D01*
X52437500Y-91965423D01*
X52437500Y-91334576D01*
X52441850Y-91318674D01*
X52441308Y-91304081D01*
X52449054Y-91285305D01*
X54950000Y-91285305D01*
X54950000Y-91514694D01*
X54950001Y-91514710D01*
X54979942Y-91742137D01*
X55039318Y-91963730D01*
X55127102Y-92175659D01*
X55127106Y-92175669D01*
X55241799Y-92374324D01*
X55241805Y-92374331D01*
X55298381Y-92448064D01*
X56022421Y-91724024D01*
X56035359Y-91755258D01*
X56117437Y-91878097D01*
X56221903Y-91982563D01*
X56344742Y-92064641D01*
X56375974Y-92077578D01*
X55651934Y-92801617D01*
X55651934Y-92801618D01*
X55725666Y-92858194D01*
X55924330Y-92972893D01*
X55924340Y-92972897D01*
X56136269Y-93060681D01*
X56357862Y-93120057D01*
X56585289Y-93149998D01*
X56585306Y-93150000D01*
X56814694Y-93150000D01*
X56814710Y-93149998D01*
X57042137Y-93120057D01*
X57263730Y-93060681D01*
X57475659Y-92972897D01*
X57475668Y-92972893D01*
X57674327Y-92858197D01*
X57674334Y-92858192D01*
X57748064Y-92801617D01*
X57024025Y-92077578D01*
X57055258Y-92064641D01*
X57178097Y-91982563D01*
X57282563Y-91878097D01*
X57364641Y-91755258D01*
X57377578Y-91724025D01*
X58101617Y-92448064D01*
X58158192Y-92374334D01*
X58158197Y-92374327D01*
X58272893Y-92175668D01*
X58272897Y-92175659D01*
X58360681Y-91963730D01*
X58420057Y-91742137D01*
X58449998Y-91514710D01*
X58450000Y-91514694D01*
X58450000Y-91285305D01*
X58449998Y-91285289D01*
X58420057Y-91057862D01*
X58360681Y-90836269D01*
X58272897Y-90624340D01*
X58272893Y-90624330D01*
X58158194Y-90425666D01*
X58101618Y-90351934D01*
X58101617Y-90351934D01*
X57377577Y-91075973D01*
X57364641Y-91044742D01*
X57282563Y-90921903D01*
X57178097Y-90817437D01*
X57055258Y-90735359D01*
X57024023Y-90722421D01*
X57748064Y-89998381D01*
X57748064Y-89998380D01*
X57674331Y-89941805D01*
X57674324Y-89941799D01*
X57475669Y-89827106D01*
X57475659Y-89827102D01*
X57263730Y-89739318D01*
X57042137Y-89679942D01*
X56814710Y-89650001D01*
X56814694Y-89650000D01*
X56585306Y-89650000D01*
X56585289Y-89650001D01*
X56357862Y-89679942D01*
X56136269Y-89739318D01*
X55924340Y-89827102D01*
X55924330Y-89827106D01*
X55725673Y-89941801D01*
X55725659Y-89941810D01*
X55651934Y-89998380D01*
X56375975Y-90722421D01*
X56344742Y-90735359D01*
X56221903Y-90817437D01*
X56117437Y-90921903D01*
X56035359Y-91044742D01*
X56022421Y-91075975D01*
X55298380Y-90351934D01*
X55241810Y-90425659D01*
X55241801Y-90425673D01*
X55127106Y-90624330D01*
X55127102Y-90624340D01*
X55039318Y-90836269D01*
X54979942Y-91057862D01*
X54950001Y-91285289D01*
X54950000Y-91285305D01*
X52449054Y-91285305D01*
X52454768Y-91271455D01*
X52486311Y-91218119D01*
X52532868Y-91139394D01*
X52532869Y-91139393D01*
X52577665Y-90985204D01*
X52580500Y-90949181D01*
X52580499Y-90450820D01*
X52577665Y-90414796D01*
X52532869Y-90260607D01*
X52451135Y-90122402D01*
X52451134Y-90122400D01*
X52337603Y-90008869D01*
X52337595Y-90008863D01*
X52199393Y-89927131D01*
X52199388Y-89927129D01*
X52045208Y-89882335D01*
X52045202Y-89882334D01*
X52009181Y-89879500D01*
X51610830Y-89879500D01*
X51610808Y-89879501D01*
X51574794Y-89882335D01*
X51420611Y-89927129D01*
X51420604Y-89927132D01*
X51363119Y-89961128D01*
X51295395Y-89978309D01*
X51236881Y-89961128D01*
X51179395Y-89927132D01*
X51179388Y-89927129D01*
X51025208Y-89882335D01*
X51025202Y-89882334D01*
X50989181Y-89879500D01*
X50590830Y-89879500D01*
X50590808Y-89879501D01*
X50554794Y-89882335D01*
X50400611Y-89927129D01*
X50400606Y-89927131D01*
X50262404Y-90008863D01*
X50262396Y-90008869D01*
X50148869Y-90122396D01*
X50148863Y-90122404D01*
X50067131Y-90260606D01*
X50067129Y-90260611D01*
X50022335Y-90414791D01*
X50022334Y-90414797D01*
X50019500Y-90450811D01*
X50019500Y-90949169D01*
X50019501Y-90949191D01*
X50022335Y-90985205D01*
X50067129Y-91139388D01*
X50067131Y-91139393D01*
X50145232Y-91271455D01*
X50162500Y-91334576D01*
X50162500Y-91965423D01*
X50145232Y-92028544D01*
X50067131Y-92160605D01*
X50067129Y-92160611D01*
X50022335Y-92314791D01*
X50022334Y-92314797D01*
X50019500Y-92350811D01*
X50019500Y-92849169D01*
X50019501Y-92849191D01*
X50022335Y-92885204D01*
X50023474Y-92891443D01*
X50020994Y-92891895D01*
X50020809Y-92950584D01*
X49989624Y-93002955D01*
X49797492Y-93195089D01*
X49753789Y-93238791D01*
X49710087Y-93282493D01*
X49641420Y-93385260D01*
X49641415Y-93385269D01*
X49629770Y-93413385D01*
X49625601Y-93423450D01*
X49581762Y-93477854D01*
X49515468Y-93499921D01*
X49511039Y-93500000D01*
X47124000Y-93500000D01*
X47056961Y-93480315D01*
X47011206Y-93427511D01*
X47000000Y-93376000D01*
X47000000Y-68149983D01*
X49699500Y-68149983D01*
X49699500Y-69450001D01*
X49699501Y-69450018D01*
X49710000Y-69552796D01*
X49710001Y-69552799D01*
X49711281Y-69556661D01*
X49765186Y-69719334D01*
X49851092Y-69858611D01*
X49857289Y-69868657D01*
X49981344Y-69992712D01*
X50136120Y-70088178D01*
X50182845Y-70140126D01*
X50194068Y-70209088D01*
X50166224Y-70273171D01*
X50158706Y-70281398D01*
X50019889Y-70420215D01*
X49894951Y-70592179D01*
X49798444Y-70781585D01*
X49732753Y-70983760D01*
X49699500Y-71193713D01*
X49699500Y-71406286D01*
X49732753Y-71616239D01*
X49798444Y-71818414D01*
X49894951Y-72007820D01*
X50019890Y-72179786D01*
X50170213Y-72330109D01*
X50342182Y-72455050D01*
X50402794Y-72485933D01*
X50453590Y-72533907D01*
X50470500Y-72596418D01*
X50470500Y-77935427D01*
X50450815Y-78002466D01*
X50398011Y-78048221D01*
X50359105Y-78058785D01*
X50347201Y-78060001D01*
X50347200Y-78060001D01*
X50180668Y-78115185D01*
X50180663Y-78115187D01*
X50031342Y-78207289D01*
X49907289Y-78331342D01*
X49815187Y-78480663D01*
X49815186Y-78480666D01*
X49760001Y-78647203D01*
X49760001Y-78647204D01*
X49760000Y-78647204D01*
X49749500Y-78749983D01*
X49749500Y-80050001D01*
X49749501Y-80050018D01*
X49760000Y-80152796D01*
X49760001Y-80152799D01*
X49815185Y-80319331D01*
X49815187Y-80319336D01*
X49907289Y-80468657D01*
X50031344Y-80592712D01*
X50186120Y-80688178D01*
X50232845Y-80740126D01*
X50244068Y-80809088D01*
X50216224Y-80873171D01*
X50208706Y-80881398D01*
X50069889Y-81020215D01*
X49944951Y-81192179D01*
X49848444Y-81381585D01*
X49782753Y-81583760D01*
X49749500Y-81793713D01*
X49749500Y-82006286D01*
X49782753Y-82216239D01*
X49848444Y-82418414D01*
X49944951Y-82607820D01*
X50069890Y-82779786D01*
X50220209Y-82930105D01*
X50220214Y-82930109D01*
X50385218Y-83049991D01*
X50427884Y-83105320D01*
X50433863Y-83174934D01*
X50401258Y-83236729D01*
X50385218Y-83250627D01*
X50220540Y-83370272D01*
X50220535Y-83370276D01*
X50070276Y-83520535D01*
X50070272Y-83520540D01*
X49945379Y-83692442D01*
X49848904Y-83881782D01*
X49783242Y-84083870D01*
X49783242Y-84083873D01*
X49772769Y-84150000D01*
X50820854Y-84150000D01*
X50782370Y-84216657D01*
X50750000Y-84337465D01*
X50750000Y-84462535D01*
X50782370Y-84583343D01*
X50820854Y-84650000D01*
X49772769Y-84650000D01*
X49783242Y-84716126D01*
X49783242Y-84716129D01*
X49848904Y-84918217D01*
X49945379Y-85107557D01*
X50070272Y-85279459D01*
X50070276Y-85279464D01*
X50220535Y-85429723D01*
X50220540Y-85429727D01*
X50392442Y-85554620D01*
X50581782Y-85651095D01*
X50783872Y-85716757D01*
X50975000Y-85747029D01*
X50975000Y-84804145D01*
X51041657Y-84842630D01*
X51162465Y-84875000D01*
X51287535Y-84875000D01*
X51408343Y-84842630D01*
X51475000Y-84804145D01*
X51475000Y-85747028D01*
X51666127Y-85716757D01*
X51868217Y-85651095D01*
X52057557Y-85554620D01*
X52229459Y-85429727D01*
X52229464Y-85429723D01*
X52379723Y-85279464D01*
X52379727Y-85279459D01*
X52504620Y-85107557D01*
X52601095Y-84918217D01*
X52666757Y-84716129D01*
X52666757Y-84716126D01*
X52677231Y-84650000D01*
X51629146Y-84650000D01*
X51667630Y-84583343D01*
X51700000Y-84462535D01*
X51700000Y-84337465D01*
X51667630Y-84216657D01*
X51629146Y-84150000D01*
X52677231Y-84150000D01*
X52666757Y-84083873D01*
X52666757Y-84083870D01*
X52601095Y-83881782D01*
X52504620Y-83692442D01*
X52379727Y-83520540D01*
X52379723Y-83520535D01*
X52229464Y-83370276D01*
X52229459Y-83370272D01*
X52064781Y-83250627D01*
X52022115Y-83195297D01*
X52016136Y-83125684D01*
X52048741Y-83063889D01*
X52064776Y-83049994D01*
X52229792Y-82930104D01*
X52380104Y-82779792D01*
X52380106Y-82779788D01*
X52380109Y-82779786D01*
X52505048Y-82607820D01*
X52505047Y-82607820D01*
X52505051Y-82607816D01*
X52601557Y-82418412D01*
X52667246Y-82216243D01*
X52687992Y-82085258D01*
X54949500Y-82085258D01*
X54949500Y-82314741D01*
X54963150Y-82418414D01*
X54979452Y-82542238D01*
X55038842Y-82763887D01*
X55126650Y-82975876D01*
X55126656Y-82975888D01*
X55213140Y-83125684D01*
X55241392Y-83174617D01*
X55381081Y-83356661D01*
X55381089Y-83356670D01*
X55543330Y-83518911D01*
X55543338Y-83518918D01*
X55725382Y-83658607D01*
X55725385Y-83658608D01*
X55725388Y-83658611D01*
X55924112Y-83773344D01*
X55924117Y-83773346D01*
X55924123Y-83773349D01*
X56015480Y-83811190D01*
X56136113Y-83861158D01*
X56357762Y-83920548D01*
X56585266Y-83950500D01*
X56585273Y-83950500D01*
X56814727Y-83950500D01*
X56814734Y-83950500D01*
X57042238Y-83920548D01*
X57263887Y-83861158D01*
X57475888Y-83773344D01*
X57674612Y-83658611D01*
X57856661Y-83518919D01*
X57856665Y-83518914D01*
X57856670Y-83518911D01*
X58018911Y-83356670D01*
X58018914Y-83356665D01*
X58018919Y-83356661D01*
X58158611Y-83174612D01*
X58273344Y-82975888D01*
X58361158Y-82763887D01*
X58420548Y-82542238D01*
X58450500Y-82314734D01*
X58450500Y-82085266D01*
X58420548Y-81857762D01*
X58361158Y-81636113D01*
X58273344Y-81424112D01*
X58158611Y-81225388D01*
X58158608Y-81225385D01*
X58158607Y-81225382D01*
X58018918Y-81043338D01*
X58018911Y-81043330D01*
X57856670Y-80881089D01*
X57856661Y-80881081D01*
X57674617Y-80741392D01*
X57475890Y-80626657D01*
X57475876Y-80626650D01*
X57263887Y-80538842D01*
X57042238Y-80479452D01*
X57004215Y-80474446D01*
X56814741Y-80449500D01*
X56814734Y-80449500D01*
X56585266Y-80449500D01*
X56585258Y-80449500D01*
X56368715Y-80478009D01*
X56357762Y-80479452D01*
X56264076Y-80504554D01*
X56136112Y-80538842D01*
X55924123Y-80626650D01*
X55924109Y-80626657D01*
X55725382Y-80741392D01*
X55543338Y-80881081D01*
X55381081Y-81043338D01*
X55241392Y-81225382D01*
X55126657Y-81424109D01*
X55126650Y-81424123D01*
X55038842Y-81636112D01*
X54979453Y-81857759D01*
X54979451Y-81857770D01*
X54949500Y-82085258D01*
X52687992Y-82085258D01*
X52700500Y-82006287D01*
X52700500Y-81793713D01*
X52667246Y-81583757D01*
X52601557Y-81381588D01*
X52505051Y-81192184D01*
X52505049Y-81192181D01*
X52505048Y-81192179D01*
X52380109Y-81020213D01*
X52241294Y-80881398D01*
X52207809Y-80820075D01*
X52212793Y-80750383D01*
X52254665Y-80694450D01*
X52263879Y-80688178D01*
X52269331Y-80684814D01*
X52269334Y-80684814D01*
X52418656Y-80592712D01*
X52542712Y-80468656D01*
X52634814Y-80319334D01*
X52689999Y-80152797D01*
X52700500Y-80050009D01*
X52700499Y-78749992D01*
X52689999Y-78647203D01*
X52634814Y-78480666D01*
X52542712Y-78331344D01*
X52418656Y-78207288D01*
X52269334Y-78115186D01*
X52102797Y-78060001D01*
X52093966Y-78059098D01*
X52090895Y-78058785D01*
X52026204Y-78032388D01*
X51986054Y-77975206D01*
X51979500Y-77935427D01*
X51979500Y-77485305D01*
X54950000Y-77485305D01*
X54950000Y-77714694D01*
X54950001Y-77714710D01*
X54979942Y-77942137D01*
X55039318Y-78163730D01*
X55127102Y-78375659D01*
X55127106Y-78375669D01*
X55241799Y-78574324D01*
X55241805Y-78574331D01*
X55298381Y-78648064D01*
X56022421Y-77924024D01*
X56035359Y-77955258D01*
X56117437Y-78078097D01*
X56221903Y-78182563D01*
X56344742Y-78264641D01*
X56375974Y-78277578D01*
X55651934Y-79001617D01*
X55651934Y-79001618D01*
X55725666Y-79058194D01*
X55924330Y-79172893D01*
X55924340Y-79172897D01*
X56136269Y-79260681D01*
X56357862Y-79320057D01*
X56585289Y-79349998D01*
X56585306Y-79350000D01*
X56814694Y-79350000D01*
X56814710Y-79349998D01*
X57042137Y-79320057D01*
X57263730Y-79260681D01*
X57475659Y-79172897D01*
X57475668Y-79172893D01*
X57674327Y-79058197D01*
X57674334Y-79058192D01*
X57748064Y-79001617D01*
X57024025Y-78277578D01*
X57055258Y-78264641D01*
X57178097Y-78182563D01*
X57282563Y-78078097D01*
X57364641Y-77955258D01*
X57377578Y-77924025D01*
X58101617Y-78648064D01*
X58158192Y-78574334D01*
X58158197Y-78574327D01*
X58272893Y-78375668D01*
X58272897Y-78375659D01*
X58360681Y-78163730D01*
X58420057Y-77942137D01*
X58449998Y-77714710D01*
X58450000Y-77714694D01*
X58450000Y-77485305D01*
X58449998Y-77485289D01*
X58420057Y-77257862D01*
X58360681Y-77036269D01*
X58272897Y-76824340D01*
X58272893Y-76824330D01*
X58158194Y-76625666D01*
X58101618Y-76551934D01*
X58101617Y-76551934D01*
X57377577Y-77275973D01*
X57364641Y-77244742D01*
X57282563Y-77121903D01*
X57178097Y-77017437D01*
X57055258Y-76935359D01*
X57024023Y-76922421D01*
X57748064Y-76198381D01*
X57748064Y-76198380D01*
X57674331Y-76141805D01*
X57674324Y-76141799D01*
X57475669Y-76027106D01*
X57475659Y-76027102D01*
X57263730Y-75939318D01*
X57042137Y-75879942D01*
X56814710Y-75850001D01*
X56814694Y-75850000D01*
X56585306Y-75850000D01*
X56585289Y-75850001D01*
X56357862Y-75879942D01*
X56136269Y-75939318D01*
X55924340Y-76027102D01*
X55924330Y-76027106D01*
X55725673Y-76141801D01*
X55725659Y-76141810D01*
X55651934Y-76198380D01*
X56375975Y-76922421D01*
X56344742Y-76935359D01*
X56221903Y-77017437D01*
X56117437Y-77121903D01*
X56035359Y-77244742D01*
X56022421Y-77275975D01*
X55298380Y-76551934D01*
X55241810Y-76625659D01*
X55241801Y-76625673D01*
X55127106Y-76824330D01*
X55127102Y-76824340D01*
X55039318Y-77036269D01*
X54979942Y-77257862D01*
X54950001Y-77485289D01*
X54950000Y-77485305D01*
X51979500Y-77485305D01*
X51979500Y-72570941D01*
X51999185Y-72503902D01*
X52047207Y-72460456D01*
X52057816Y-72455051D01*
X52229792Y-72330104D01*
X52380104Y-72179792D01*
X52380106Y-72179788D01*
X52380109Y-72179786D01*
X52505048Y-72007820D01*
X52505047Y-72007820D01*
X52505051Y-72007816D01*
X52601557Y-71818412D01*
X52667246Y-71616243D01*
X52700500Y-71406287D01*
X52700500Y-71193713D01*
X52667246Y-70983757D01*
X52601557Y-70781588D01*
X52505051Y-70592184D01*
X52505049Y-70592181D01*
X52505048Y-70592179D01*
X52380109Y-70420213D01*
X52241294Y-70281398D01*
X52207809Y-70220075D01*
X52212793Y-70150383D01*
X52254665Y-70094450D01*
X52263879Y-70088178D01*
X52269331Y-70084814D01*
X52269334Y-70084814D01*
X52418656Y-69992712D01*
X52542712Y-69868656D01*
X52634814Y-69719334D01*
X52689999Y-69552797D01*
X52700500Y-69450009D01*
X52700499Y-68285258D01*
X54949500Y-68285258D01*
X54949500Y-68514741D01*
X54974446Y-68704215D01*
X54979452Y-68742238D01*
X54979453Y-68742240D01*
X55038842Y-68963887D01*
X55126650Y-69175876D01*
X55126657Y-69175890D01*
X55241392Y-69374617D01*
X55381081Y-69556661D01*
X55381089Y-69556670D01*
X55543330Y-69718911D01*
X55543338Y-69718918D01*
X55543339Y-69718919D01*
X55593962Y-69757764D01*
X55725382Y-69858607D01*
X55725385Y-69858608D01*
X55725388Y-69858611D01*
X55924112Y-69973344D01*
X55924117Y-69973346D01*
X55924123Y-69973349D01*
X55970870Y-69992712D01*
X56136113Y-70061158D01*
X56357762Y-70120548D01*
X56585266Y-70150500D01*
X56585273Y-70150500D01*
X56814727Y-70150500D01*
X56814734Y-70150500D01*
X57042238Y-70120548D01*
X57263887Y-70061158D01*
X57475888Y-69973344D01*
X57674612Y-69858611D01*
X57856661Y-69718919D01*
X57856665Y-69718914D01*
X57856670Y-69718911D01*
X58018911Y-69556670D01*
X58018914Y-69556665D01*
X58018919Y-69556661D01*
X58158611Y-69374612D01*
X58273344Y-69175888D01*
X58361158Y-68963887D01*
X58420548Y-68742238D01*
X58450500Y-68514734D01*
X58450500Y-68285266D01*
X58420548Y-68057762D01*
X58361158Y-67836113D01*
X58273344Y-67624112D01*
X58158611Y-67425388D01*
X58158608Y-67425385D01*
X58158607Y-67425382D01*
X58018918Y-67243338D01*
X58018911Y-67243330D01*
X57856670Y-67081089D01*
X57856661Y-67081081D01*
X57674617Y-66941392D01*
X57475890Y-66826657D01*
X57475876Y-66826650D01*
X57263887Y-66738842D01*
X57042238Y-66679452D01*
X57004215Y-66674446D01*
X56814741Y-66649500D01*
X56814734Y-66649500D01*
X56585266Y-66649500D01*
X56585258Y-66649500D01*
X56368715Y-66678009D01*
X56357762Y-66679452D01*
X56264076Y-66704554D01*
X56136112Y-66738842D01*
X55924123Y-66826650D01*
X55924109Y-66826657D01*
X55725382Y-66941392D01*
X55543338Y-67081081D01*
X55381081Y-67243338D01*
X55241392Y-67425382D01*
X55126657Y-67624109D01*
X55126650Y-67624123D01*
X55038842Y-67836112D01*
X54979453Y-68057759D01*
X54979451Y-68057770D01*
X54949500Y-68285258D01*
X52700499Y-68285258D01*
X52700499Y-68149992D01*
X52689999Y-68047203D01*
X52634814Y-67880666D01*
X52542712Y-67731344D01*
X52418656Y-67607288D01*
X52269334Y-67515186D01*
X52102797Y-67460001D01*
X52102795Y-67460000D01*
X52000010Y-67449500D01*
X50399998Y-67449500D01*
X50399981Y-67449501D01*
X50297203Y-67460000D01*
X50297200Y-67460001D01*
X50130668Y-67515185D01*
X50130663Y-67515187D01*
X49981342Y-67607289D01*
X49857289Y-67731342D01*
X49765187Y-67880663D01*
X49765186Y-67880666D01*
X49710001Y-68047203D01*
X49710001Y-68047204D01*
X49710000Y-68047204D01*
X49699500Y-68149983D01*
X47000000Y-68149983D01*
X47000000Y-65624000D01*
X47019685Y-65556961D01*
X47072489Y-65511206D01*
X47124000Y-65500000D01*
X58876000Y-65500000D01*
X58943039Y-65519685D01*
G37*
G04 #@! TD.AperFunction*
G04 #@! TA.AperFunction,Conductor*
G36*
X98049116Y-86196282D02*
G01*
X98116055Y-86216298D01*
X98161548Y-86269328D01*
X98172500Y-86320280D01*
X98172500Y-98185880D01*
X98152815Y-98252919D01*
X98100011Y-98298674D01*
X98030853Y-98308618D01*
X97967297Y-98279593D01*
X97941768Y-98249001D01*
X97890738Y-98162714D01*
X97890731Y-98162705D01*
X97777294Y-98049268D01*
X97777285Y-98049261D01*
X97639191Y-97967593D01*
X97639188Y-97967592D01*
X97485130Y-97922834D01*
X97450000Y-97920068D01*
X97450000Y-98566000D01*
X97430315Y-98633039D01*
X97377511Y-98678794D01*
X97326000Y-98690000D01*
X97200000Y-98690000D01*
X97200000Y-98815500D01*
X97197514Y-98823966D01*
X97198802Y-98832697D01*
X97187820Y-98856977D01*
X97180315Y-98882539D01*
X97173647Y-98888316D01*
X97170010Y-98896359D01*
X97147643Y-98910848D01*
X97127511Y-98928294D01*
X97117234Y-98930549D01*
X97111371Y-98934348D01*
X97077337Y-98939305D01*
X97076455Y-98939499D01*
X97075977Y-98939500D01*
X96950820Y-98939501D01*
X96944706Y-98939981D01*
X96940062Y-98939999D01*
X96940010Y-98939984D01*
X96939607Y-98940000D01*
X96387156Y-98940000D01*
X96427594Y-99079193D01*
X96461419Y-99136388D01*
X96478601Y-99204112D01*
X96461419Y-99262628D01*
X96427130Y-99320607D01*
X96427129Y-99320611D01*
X96382335Y-99474791D01*
X96382334Y-99474797D01*
X96379500Y-99510811D01*
X96379500Y-99909169D01*
X96379501Y-99909191D01*
X96382335Y-99945205D01*
X96427129Y-100099388D01*
X96427131Y-100099393D01*
X96489463Y-100204792D01*
X96508865Y-100237598D01*
X96536181Y-100264914D01*
X96569666Y-100326235D01*
X96572500Y-100352595D01*
X96572500Y-100988719D01*
X96563855Y-101018159D01*
X96557332Y-101048146D01*
X96553577Y-101053161D01*
X96552815Y-101055758D01*
X96536181Y-101076400D01*
X96476400Y-101136181D01*
X96415077Y-101169666D01*
X96388719Y-101172500D01*
X85311281Y-101172500D01*
X85244242Y-101152815D01*
X85223600Y-101136181D01*
X84446964Y-100359545D01*
X84413479Y-100298222D01*
X84418463Y-100228530D01*
X84434322Y-100198986D01*
X84549684Y-100040202D01*
X84605010Y-99997540D01*
X84674624Y-99991561D01*
X84736419Y-100024166D01*
X84750317Y-100040206D01*
X84869890Y-100204785D01*
X84869894Y-100204790D01*
X85020213Y-100355109D01*
X85192179Y-100480048D01*
X85192181Y-100480049D01*
X85192184Y-100480051D01*
X85381588Y-100576557D01*
X85583757Y-100642246D01*
X85793713Y-100675500D01*
X85793714Y-100675500D01*
X86006286Y-100675500D01*
X86006287Y-100675500D01*
X86216243Y-100642246D01*
X86418412Y-100576557D01*
X86607816Y-100480051D01*
X86648490Y-100450500D01*
X86779786Y-100355109D01*
X86779788Y-100355106D01*
X86779792Y-100355104D01*
X86930104Y-100204792D01*
X87049683Y-100040204D01*
X87105011Y-99997540D01*
X87174624Y-99991561D01*
X87236420Y-100024166D01*
X87250313Y-100040199D01*
X87321326Y-100137940D01*
X87369896Y-100204792D01*
X87520213Y-100355109D01*
X87692179Y-100480048D01*
X87692181Y-100480049D01*
X87692184Y-100480051D01*
X87881588Y-100576557D01*
X88083757Y-100642246D01*
X88293713Y-100675500D01*
X88293714Y-100675500D01*
X88506286Y-100675500D01*
X88506287Y-100675500D01*
X88716243Y-100642246D01*
X88918412Y-100576557D01*
X89107816Y-100480051D01*
X89148490Y-100450500D01*
X89279786Y-100355109D01*
X89279788Y-100355106D01*
X89279792Y-100355104D01*
X89430104Y-100204792D01*
X89549991Y-100039779D01*
X89605320Y-99997115D01*
X89674933Y-99991136D01*
X89736729Y-100023741D01*
X89750627Y-100039781D01*
X89870272Y-100204459D01*
X89870276Y-100204464D01*
X90020535Y-100354723D01*
X90020540Y-100354727D01*
X90192442Y-100479620D01*
X90381782Y-100576095D01*
X90583871Y-100641757D01*
X90650000Y-100652231D01*
X90650000Y-99604145D01*
X90716657Y-99642630D01*
X90837465Y-99675000D01*
X90962535Y-99675000D01*
X91083343Y-99642630D01*
X91150000Y-99604145D01*
X91150000Y-100652230D01*
X91216126Y-100641757D01*
X91216129Y-100641757D01*
X91418217Y-100576095D01*
X91607557Y-100479620D01*
X91779458Y-100354728D01*
X91918330Y-100215856D01*
X91979653Y-100182371D01*
X92049345Y-100187355D01*
X92105279Y-100229226D01*
X92111551Y-100238440D01*
X92115185Y-100244331D01*
X92115186Y-100244334D01*
X92207288Y-100393656D01*
X92331344Y-100517712D01*
X92480666Y-100609814D01*
X92647203Y-100664999D01*
X92749991Y-100675500D01*
X94050008Y-100675499D01*
X94152797Y-100664999D01*
X94319334Y-100609814D01*
X94468656Y-100517712D01*
X94592712Y-100393656D01*
X94684814Y-100244334D01*
X94739999Y-100077797D01*
X94750500Y-99975009D01*
X94750499Y-98440000D01*
X96387156Y-98440000D01*
X96950000Y-98440000D01*
X96950000Y-97920068D01*
X96949999Y-97920068D01*
X96914869Y-97922834D01*
X96914868Y-97922834D01*
X96760811Y-97967592D01*
X96760808Y-97967593D01*
X96622714Y-98049261D01*
X96622705Y-98049268D01*
X96509268Y-98162705D01*
X96509261Y-98162714D01*
X96427595Y-98300805D01*
X96387156Y-98440000D01*
X94750499Y-98440000D01*
X94750499Y-98424992D01*
X94748851Y-98408863D01*
X94739999Y-98322203D01*
X94739998Y-98322200D01*
X94725879Y-98279593D01*
X94684814Y-98155666D01*
X94592712Y-98006344D01*
X94468656Y-97882288D01*
X94319334Y-97790186D01*
X94152797Y-97735001D01*
X94152795Y-97735000D01*
X94050010Y-97724500D01*
X92749998Y-97724500D01*
X92749981Y-97724501D01*
X92647203Y-97735000D01*
X92647200Y-97735001D01*
X92480668Y-97790185D01*
X92480663Y-97790187D01*
X92331342Y-97882289D01*
X92207289Y-98006342D01*
X92111551Y-98161559D01*
X92059603Y-98208283D01*
X91990640Y-98219506D01*
X91926558Y-98191662D01*
X91918331Y-98184143D01*
X91779464Y-98045276D01*
X91779459Y-98045272D01*
X91607557Y-97920379D01*
X91418215Y-97823903D01*
X91216124Y-97758241D01*
X91150000Y-97747768D01*
X91150000Y-98795854D01*
X91083343Y-98757370D01*
X90962535Y-98725000D01*
X90837465Y-98725000D01*
X90716657Y-98757370D01*
X90650000Y-98795854D01*
X90650000Y-97747768D01*
X90649999Y-97747768D01*
X90583875Y-97758241D01*
X90381784Y-97823903D01*
X90192442Y-97920379D01*
X90020540Y-98045272D01*
X90020535Y-98045276D01*
X89870276Y-98195535D01*
X89870272Y-98195540D01*
X89750627Y-98360218D01*
X89695297Y-98402884D01*
X89625684Y-98408863D01*
X89563889Y-98376257D01*
X89549991Y-98360218D01*
X89430109Y-98195214D01*
X89430105Y-98195209D01*
X89279786Y-98044890D01*
X89107820Y-97919951D01*
X88918414Y-97823444D01*
X88918413Y-97823443D01*
X88918412Y-97823443D01*
X88716243Y-97757754D01*
X88716241Y-97757753D01*
X88716240Y-97757753D01*
X88536561Y-97729295D01*
X88506287Y-97724500D01*
X88293713Y-97724500D01*
X88263439Y-97729295D01*
X88083759Y-97757753D01*
X87975948Y-97792782D01*
X87906106Y-97794776D01*
X87849950Y-97762531D01*
X83663819Y-93576400D01*
X83630334Y-93515077D01*
X83627500Y-93488719D01*
X83627500Y-92397928D01*
X83647185Y-92330889D01*
X83699989Y-92285134D01*
X83769147Y-92275190D01*
X83807795Y-92287444D01*
X83981775Y-92376092D01*
X83981779Y-92376094D01*
X84183871Y-92441757D01*
X84250000Y-92452231D01*
X84250000Y-91404145D01*
X84316657Y-91442630D01*
X84437465Y-91475000D01*
X84562535Y-91475000D01*
X84683343Y-91442630D01*
X84750000Y-91404145D01*
X84750000Y-92452230D01*
X84816126Y-92441757D01*
X84816129Y-92441757D01*
X85018217Y-92376095D01*
X85207557Y-92279620D01*
X85379459Y-92154727D01*
X85379464Y-92154723D01*
X85529721Y-92004466D01*
X85649371Y-91839781D01*
X85704701Y-91797115D01*
X85774314Y-91791136D01*
X85836110Y-91823741D01*
X85850008Y-91839781D01*
X85969890Y-92004785D01*
X85969894Y-92004790D01*
X86120213Y-92155109D01*
X86292179Y-92280048D01*
X86292181Y-92280049D01*
X86292184Y-92280051D01*
X86481588Y-92376557D01*
X86683757Y-92442246D01*
X86893713Y-92475500D01*
X86893714Y-92475500D01*
X87106286Y-92475500D01*
X87106287Y-92475500D01*
X87316243Y-92442246D01*
X87518412Y-92376557D01*
X87707816Y-92280051D01*
X87775532Y-92230853D01*
X87879786Y-92155109D01*
X87879788Y-92155106D01*
X87879792Y-92155104D01*
X88030104Y-92004792D01*
X88149683Y-91840204D01*
X88205011Y-91797540D01*
X88274624Y-91791561D01*
X88336420Y-91824166D01*
X88350313Y-91840199D01*
X88387744Y-91891718D01*
X88469896Y-92004792D01*
X88620213Y-92155109D01*
X88792179Y-92280048D01*
X88792181Y-92280049D01*
X88792184Y-92280051D01*
X88902346Y-92336181D01*
X88979482Y-92375484D01*
X89010868Y-92398288D01*
X90012589Y-93400008D01*
X90069970Y-93457389D01*
X90099994Y-93487413D01*
X90099996Y-93487414D01*
X90202756Y-93556076D01*
X90202758Y-93556077D01*
X90202767Y-93556083D01*
X90227772Y-93566440D01*
X90250071Y-93575677D01*
X90292254Y-93593149D01*
X90316966Y-93603386D01*
X90438192Y-93627499D01*
X90438196Y-93627500D01*
X90438197Y-93627500D01*
X95071804Y-93627500D01*
X95071805Y-93627499D01*
X95193035Y-93603386D01*
X95273784Y-93569937D01*
X95307233Y-93556083D01*
X95410008Y-93487411D01*
X95497411Y-93400008D01*
X96080600Y-92816817D01*
X96141923Y-92783333D01*
X96168281Y-92780499D01*
X96249168Y-92780499D01*
X96249180Y-92780499D01*
X96285204Y-92777665D01*
X96439393Y-92732869D01*
X96577598Y-92651135D01*
X96691135Y-92537598D01*
X96772869Y-92399393D01*
X96817665Y-92245204D01*
X96820500Y-92209181D01*
X96820499Y-91810820D01*
X96817665Y-91774796D01*
X96772869Y-91620607D01*
X96738581Y-91562629D01*
X96721398Y-91494905D01*
X96738582Y-91436386D01*
X96772404Y-91379196D01*
X96772405Y-91379194D01*
X96812844Y-91240000D01*
X96260409Y-91240000D01*
X96250680Y-91239618D01*
X96249186Y-91239500D01*
X95750830Y-91239500D01*
X95750813Y-91239501D01*
X95749692Y-91239589D01*
X95749330Y-91239618D01*
X95739607Y-91240000D01*
X95187156Y-91240000D01*
X95227594Y-91379193D01*
X95261419Y-91436388D01*
X95278601Y-91504112D01*
X95261419Y-91562628D01*
X95227130Y-91620607D01*
X95227129Y-91620611D01*
X95182335Y-91774791D01*
X95182334Y-91774797D01*
X95179500Y-91810811D01*
X95179500Y-91891718D01*
X95159815Y-91958757D01*
X95143181Y-91979399D01*
X94786400Y-92336181D01*
X94725077Y-92369666D01*
X94698719Y-92372500D01*
X93304575Y-92372500D01*
X93237536Y-92352815D01*
X93191781Y-92300011D01*
X93181837Y-92230853D01*
X93199036Y-92183404D01*
X93254707Y-92093144D01*
X93284814Y-92044334D01*
X93339999Y-91877797D01*
X93350500Y-91775009D01*
X93350499Y-90740000D01*
X95187156Y-90740000D01*
X95750000Y-90740000D01*
X96250000Y-90740000D01*
X96812844Y-90740000D01*
X96772404Y-90600805D01*
X96690738Y-90462714D01*
X96690731Y-90462705D01*
X96577294Y-90349268D01*
X96575637Y-90347983D01*
X96574669Y-90346643D01*
X96571773Y-90343747D01*
X96572240Y-90343279D01*
X96534728Y-90291342D01*
X96530935Y-90221575D01*
X96565463Y-90160833D01*
X96575637Y-90152017D01*
X96577294Y-90150731D01*
X96690731Y-90037294D01*
X96690738Y-90037285D01*
X96772404Y-89899194D01*
X96812844Y-89760000D01*
X96250000Y-89760000D01*
X96250000Y-90740000D01*
X95750000Y-90740000D01*
X95750000Y-89760000D01*
X95187156Y-89760000D01*
X95227595Y-89899194D01*
X95309261Y-90037285D01*
X95309268Y-90037294D01*
X95422709Y-90150735D01*
X95424368Y-90152022D01*
X95425334Y-90153360D01*
X95428227Y-90156253D01*
X95427760Y-90156719D01*
X95465274Y-90208665D01*
X95469062Y-90278432D01*
X95434531Y-90339172D01*
X95424368Y-90347978D01*
X95422709Y-90349264D01*
X95309268Y-90462705D01*
X95309261Y-90462714D01*
X95227595Y-90600805D01*
X95187156Y-90740000D01*
X93350499Y-90740000D01*
X93350499Y-90224992D01*
X93348851Y-90208863D01*
X93339999Y-90122203D01*
X93339998Y-90122200D01*
X93315908Y-90049501D01*
X93284814Y-89955666D01*
X93192712Y-89806344D01*
X93068656Y-89682288D01*
X92977288Y-89625932D01*
X92930565Y-89573985D01*
X92919342Y-89505022D01*
X92947186Y-89440940D01*
X92954705Y-89432713D01*
X93233600Y-89153819D01*
X93294923Y-89120334D01*
X93321281Y-89117500D01*
X95063403Y-89117500D01*
X95130442Y-89137185D01*
X95176197Y-89189989D01*
X95186052Y-89258530D01*
X95187155Y-89260000D01*
X95739591Y-89260000D01*
X95749318Y-89260382D01*
X95749516Y-89260397D01*
X95750819Y-89260500D01*
X96249180Y-89260499D01*
X96249193Y-89260498D01*
X96250668Y-89260382D01*
X96260393Y-89260000D01*
X96812844Y-89260000D01*
X96772404Y-89120805D01*
X96738581Y-89063612D01*
X96721398Y-88995888D01*
X96738582Y-88937369D01*
X96772867Y-88879396D01*
X96772869Y-88879393D01*
X96817665Y-88725204D01*
X96820500Y-88689181D01*
X96820499Y-88290820D01*
X96817665Y-88254796D01*
X96772869Y-88100607D01*
X96691135Y-87962402D01*
X96691133Y-87962400D01*
X96691130Y-87962396D01*
X96577603Y-87848869D01*
X96577595Y-87848863D01*
X96439393Y-87767131D01*
X96439388Y-87767129D01*
X96285208Y-87722335D01*
X96285202Y-87722334D01*
X96249181Y-87719500D01*
X95750830Y-87719500D01*
X95750808Y-87719501D01*
X95714794Y-87722335D01*
X95560611Y-87767129D01*
X95560606Y-87767131D01*
X95428545Y-87845232D01*
X95365424Y-87862500D01*
X92948192Y-87862500D01*
X92826973Y-87886611D01*
X92826964Y-87886614D01*
X92798950Y-87898218D01*
X92729480Y-87905685D01*
X92667002Y-87874409D01*
X92631351Y-87814319D01*
X92627500Y-87783656D01*
X92627500Y-86294057D01*
X92647185Y-86227018D01*
X92699989Y-86181263D01*
X92752107Y-86170060D01*
X98049116Y-86196282D01*
G37*
G04 #@! TD.AperFunction*
G04 #@! TA.AperFunction,Conductor*
G36*
X88519817Y-62274185D02*
G01*
X88565572Y-62326989D01*
X88576777Y-62377988D01*
X88675009Y-86149877D01*
X88675008Y-86149877D01*
X88675441Y-86149879D01*
X88749114Y-86150243D01*
X88816054Y-86170258D01*
X88861547Y-86223287D01*
X88872500Y-86274241D01*
X88872500Y-89603038D01*
X88852815Y-89670077D01*
X88804798Y-89713521D01*
X88792182Y-89719949D01*
X88620213Y-89844890D01*
X88469894Y-89995209D01*
X88469890Y-89995214D01*
X88350318Y-90159793D01*
X88294989Y-90202459D01*
X88225375Y-90208438D01*
X88163580Y-90175833D01*
X88149682Y-90159793D01*
X88030109Y-89995214D01*
X88030105Y-89995209D01*
X87879786Y-89844890D01*
X87707820Y-89719951D01*
X87518414Y-89623444D01*
X87518413Y-89623443D01*
X87518412Y-89623443D01*
X87316243Y-89557754D01*
X87316241Y-89557753D01*
X87316240Y-89557753D01*
X87154957Y-89532208D01*
X87106287Y-89524500D01*
X86893713Y-89524500D01*
X86845042Y-89532208D01*
X86683760Y-89557753D01*
X86481585Y-89623444D01*
X86292179Y-89719951D01*
X86120213Y-89844890D01*
X85969894Y-89995209D01*
X85969890Y-89995214D01*
X85850008Y-90160218D01*
X85794678Y-90202884D01*
X85725065Y-90208863D01*
X85663270Y-90176257D01*
X85649372Y-90160218D01*
X85529727Y-89995540D01*
X85529723Y-89995535D01*
X85379464Y-89845276D01*
X85379459Y-89845272D01*
X85207557Y-89720379D01*
X85018215Y-89623903D01*
X84816124Y-89558241D01*
X84750000Y-89547768D01*
X84750000Y-90595854D01*
X84683343Y-90557370D01*
X84562535Y-90525000D01*
X84437465Y-90525000D01*
X84316657Y-90557370D01*
X84250000Y-90595854D01*
X84250000Y-89547768D01*
X84249999Y-89547768D01*
X84183875Y-89558241D01*
X83981784Y-89623903D01*
X83807795Y-89712556D01*
X83739126Y-89725452D01*
X83674385Y-89699176D01*
X83634128Y-89642069D01*
X83627500Y-89602071D01*
X83627500Y-81328195D01*
X83622938Y-81305261D01*
X83616818Y-81274495D01*
X83603386Y-81206965D01*
X83564623Y-81113385D01*
X83564623Y-81113384D01*
X83564623Y-81113383D01*
X83556087Y-81092776D01*
X83556085Y-81092773D01*
X83556083Y-81092767D01*
X83523056Y-81043339D01*
X83487414Y-80989996D01*
X83487413Y-80989994D01*
X83453893Y-80956474D01*
X83400008Y-80902589D01*
X81812162Y-79314743D01*
X81778677Y-79253420D01*
X81781911Y-79188747D01*
X81813553Y-79091368D01*
X81823210Y-79030395D01*
X81850500Y-78858097D01*
X81850500Y-78621902D01*
X81813553Y-78388631D01*
X81740566Y-78164003D01*
X81633342Y-77953566D01*
X81625112Y-77942238D01*
X81494517Y-77762490D01*
X81327510Y-77595483D01*
X81292872Y-77570317D01*
X81250207Y-77514989D01*
X81244228Y-77445375D01*
X81276833Y-77383580D01*
X81292873Y-77369682D01*
X81327510Y-77344517D01*
X81494517Y-77177510D01*
X81633343Y-76986433D01*
X81740568Y-76775992D01*
X81813553Y-76551368D01*
X81830663Y-76443339D01*
X81850500Y-76318097D01*
X81850500Y-76081902D01*
X81813553Y-75848631D01*
X81752263Y-75660001D01*
X81740568Y-75624008D01*
X81740566Y-75624005D01*
X81740566Y-75624003D01*
X81633342Y-75413566D01*
X81494517Y-75222490D01*
X81327510Y-75055483D01*
X81292872Y-75030317D01*
X81250207Y-74974989D01*
X81244228Y-74905375D01*
X81276833Y-74843580D01*
X81292873Y-74829682D01*
X81327510Y-74804517D01*
X81494517Y-74637510D01*
X81633343Y-74446433D01*
X81740568Y-74235992D01*
X81813553Y-74011368D01*
X81850500Y-73778097D01*
X81850500Y-73541902D01*
X81813553Y-73308631D01*
X81740566Y-73084003D01*
X81633342Y-72873566D01*
X81494517Y-72682490D01*
X81327510Y-72515483D01*
X81292872Y-72490317D01*
X81250207Y-72434989D01*
X81244228Y-72365375D01*
X81276833Y-72303580D01*
X81292873Y-72289682D01*
X81327510Y-72264517D01*
X81494517Y-72097510D01*
X81633343Y-71906433D01*
X81740568Y-71695992D01*
X81813553Y-71471368D01*
X81850500Y-71238097D01*
X81850500Y-71001902D01*
X81813553Y-70768631D01*
X81779689Y-70664412D01*
X81740568Y-70544008D01*
X81740566Y-70544005D01*
X81740566Y-70544003D01*
X81658410Y-70382764D01*
X81633343Y-70333567D01*
X81494517Y-70142490D01*
X81327510Y-69975483D01*
X81268282Y-69932451D01*
X81225617Y-69877122D01*
X81217550Y-69822404D01*
X81219104Y-69802657D01*
X80479408Y-69062962D01*
X80542993Y-69045925D01*
X80657007Y-68980099D01*
X80750099Y-68887007D01*
X80815925Y-68772993D01*
X80832962Y-68709409D01*
X81572658Y-69449105D01*
X81572658Y-69449104D01*
X81632914Y-69366169D01*
X81632918Y-69366163D01*
X81740102Y-69155802D01*
X81813065Y-68931247D01*
X81850000Y-68698052D01*
X81850000Y-68461947D01*
X81813065Y-68228752D01*
X81740102Y-68004197D01*
X81632914Y-67793828D01*
X81572658Y-67710894D01*
X81572658Y-67710893D01*
X80832962Y-68450590D01*
X80815925Y-68387007D01*
X80750099Y-68272993D01*
X80657007Y-68179901D01*
X80542993Y-68114075D01*
X80479409Y-68097037D01*
X81219105Y-67357340D01*
X81217551Y-67337594D01*
X81231915Y-67269216D01*
X81268284Y-67227547D01*
X81327510Y-67184517D01*
X81494517Y-67017510D01*
X81633343Y-66826433D01*
X81740568Y-66615992D01*
X81813553Y-66391368D01*
X81850500Y-66158097D01*
X81850500Y-65921902D01*
X81813553Y-65688631D01*
X81740566Y-65464003D01*
X81633342Y-65253566D01*
X81494517Y-65062490D01*
X81327510Y-64895483D01*
X81292872Y-64870317D01*
X81250207Y-64814989D01*
X81244228Y-64745375D01*
X81276833Y-64683580D01*
X81292873Y-64669682D01*
X81327510Y-64644517D01*
X81494517Y-64477510D01*
X81633343Y-64286433D01*
X81740568Y-64075992D01*
X81813553Y-63851368D01*
X81822127Y-63797233D01*
X81850500Y-63618097D01*
X81850500Y-63381903D01*
X81834560Y-63281267D01*
X81817261Y-63172046D01*
X81826215Y-63102755D01*
X81852050Y-63064972D01*
X82626205Y-62290819D01*
X82687528Y-62257334D01*
X82713886Y-62254500D01*
X88452778Y-62254500D01*
X88519817Y-62274185D01*
G37*
G04 #@! TD.AperFunction*
G04 #@! TA.AperFunction,Conductor*
G36*
X79629118Y-61921304D02*
G01*
X79695770Y-61942249D01*
X79740521Y-61995907D01*
X79749158Y-62065240D01*
X79718939Y-62128237D01*
X79683071Y-62155765D01*
X79563569Y-62216655D01*
X79507580Y-62257334D01*
X79372490Y-62355483D01*
X79372488Y-62355485D01*
X79372487Y-62355485D01*
X79205485Y-62522487D01*
X79205485Y-62522488D01*
X79205483Y-62522490D01*
X79145862Y-62604550D01*
X79066657Y-62713566D01*
X78959433Y-62924003D01*
X78886446Y-63148631D01*
X78849500Y-63381902D01*
X78849500Y-63618097D01*
X78886446Y-63851368D01*
X78959433Y-64075996D01*
X79066657Y-64286433D01*
X79205483Y-64477510D01*
X79372490Y-64644517D01*
X79407127Y-64669683D01*
X79449792Y-64725013D01*
X79455771Y-64794626D01*
X79423165Y-64856421D01*
X79407130Y-64870315D01*
X79389365Y-64883222D01*
X79372488Y-64895484D01*
X79205485Y-65062487D01*
X79205485Y-65062488D01*
X79205483Y-65062490D01*
X79145862Y-65144550D01*
X79066657Y-65253566D01*
X78959433Y-65464003D01*
X78886446Y-65688631D01*
X78849500Y-65921902D01*
X78849500Y-66158097D01*
X78886446Y-66391368D01*
X78959433Y-66615996D01*
X78991766Y-66679452D01*
X79066657Y-66826433D01*
X79205483Y-67017510D01*
X79372490Y-67184517D01*
X79431716Y-67227547D01*
X79474381Y-67282875D01*
X79482448Y-67337593D01*
X79480893Y-67357340D01*
X80220591Y-68097037D01*
X80157007Y-68114075D01*
X80042993Y-68179901D01*
X79949901Y-68272993D01*
X79884075Y-68387007D01*
X79867037Y-68450591D01*
X79127340Y-67710894D01*
X79067084Y-67793830D01*
X78959897Y-68004197D01*
X78886934Y-68228752D01*
X78850000Y-68461947D01*
X78850000Y-68698052D01*
X78886934Y-68931247D01*
X78959897Y-69155802D01*
X79067087Y-69366174D01*
X79127338Y-69449104D01*
X79127340Y-69449105D01*
X79867037Y-68709408D01*
X79884075Y-68772993D01*
X79949901Y-68887007D01*
X80042993Y-68980099D01*
X80157007Y-69045925D01*
X80220590Y-69062962D01*
X79480893Y-69802658D01*
X79482448Y-69822405D01*
X79468084Y-69890783D01*
X79431717Y-69932451D01*
X79372490Y-69975482D01*
X79205485Y-70142487D01*
X79205485Y-70142488D01*
X79205483Y-70142490D01*
X79182590Y-70174000D01*
X79066657Y-70333566D01*
X78959433Y-70544003D01*
X78886446Y-70768631D01*
X78849500Y-71001902D01*
X78849500Y-71238097D01*
X78886446Y-71471368D01*
X78959433Y-71695996D01*
X79066657Y-71906433D01*
X79205483Y-72097510D01*
X79372490Y-72264517D01*
X79407127Y-72289683D01*
X79449792Y-72345013D01*
X79455771Y-72414626D01*
X79423165Y-72476421D01*
X79407130Y-72490315D01*
X79389365Y-72503222D01*
X79372488Y-72515484D01*
X79205485Y-72682487D01*
X79205485Y-72682488D01*
X79205483Y-72682490D01*
X79145862Y-72764550D01*
X79066657Y-72873566D01*
X78959433Y-73084003D01*
X78886446Y-73308631D01*
X78849500Y-73541902D01*
X78849500Y-73778097D01*
X78886447Y-74011369D01*
X78886447Y-74011372D01*
X78918086Y-74108744D01*
X78920081Y-74178585D01*
X78887836Y-74234743D01*
X77847547Y-75275034D01*
X77509992Y-75612589D01*
X77474498Y-75648083D01*
X77422586Y-75699994D01*
X77422585Y-75699996D01*
X77353920Y-75802760D01*
X77353916Y-75802768D01*
X77352044Y-75807289D01*
X77349849Y-75812589D01*
X77306614Y-75916965D01*
X77299813Y-75951156D01*
X77296619Y-75959978D01*
X77281278Y-75980885D01*
X77269259Y-76003865D01*
X77260945Y-76008599D01*
X77255287Y-76016311D01*
X77231078Y-76025606D01*
X77208543Y-76038439D01*
X77198991Y-76037927D01*
X77190061Y-76041356D01*
X77164671Y-76036087D01*
X77138774Y-76034700D01*
X77131013Y-76029104D01*
X77121648Y-76027161D01*
X77103137Y-76009003D01*
X77082101Y-75993834D01*
X77074487Y-75982860D01*
X77060373Y-75959978D01*
X77042712Y-75931344D01*
X76918656Y-75807288D01*
X76769334Y-75715186D01*
X76602797Y-75660001D01*
X76602795Y-75660000D01*
X76500010Y-75649500D01*
X75099998Y-75649500D01*
X75099981Y-75649501D01*
X74997203Y-75660000D01*
X74997200Y-75660001D01*
X74830668Y-75715185D01*
X74830663Y-75715187D01*
X74681342Y-75807289D01*
X74557289Y-75931342D01*
X74465187Y-76080663D01*
X74465186Y-76080666D01*
X74410001Y-76247203D01*
X74410001Y-76247204D01*
X74410000Y-76247204D01*
X74399500Y-76349983D01*
X74399500Y-76721500D01*
X74379815Y-76788539D01*
X74327011Y-76834294D01*
X74275500Y-76845500D01*
X73557284Y-76845500D01*
X73490245Y-76825815D01*
X73449897Y-76783500D01*
X73414101Y-76721500D01*
X73358611Y-76625388D01*
X73358608Y-76625385D01*
X73358607Y-76625382D01*
X73218918Y-76443338D01*
X73218911Y-76443330D01*
X73169777Y-76394196D01*
X73136292Y-76332873D01*
X73133459Y-76305946D01*
X73141973Y-74449986D01*
X74400001Y-74449986D01*
X74410494Y-74552697D01*
X74465641Y-74719119D01*
X74465643Y-74719124D01*
X74557684Y-74868345D01*
X74681654Y-74992315D01*
X74830875Y-75084356D01*
X74830880Y-75084358D01*
X74997302Y-75139505D01*
X74997309Y-75139506D01*
X75100019Y-75149999D01*
X75549999Y-75149999D01*
X76050000Y-75149999D01*
X76499972Y-75149999D01*
X76499986Y-75149998D01*
X76602697Y-75139505D01*
X76769119Y-75084358D01*
X76769124Y-75084356D01*
X76918345Y-74992315D01*
X77042315Y-74868345D01*
X77134356Y-74719124D01*
X77134358Y-74719119D01*
X77189505Y-74552697D01*
X77189506Y-74552690D01*
X77199999Y-74449986D01*
X77200000Y-74449973D01*
X77200000Y-73650000D01*
X76050000Y-73650000D01*
X76050000Y-75149999D01*
X75549999Y-75149999D01*
X75550000Y-75149998D01*
X75550000Y-73650000D01*
X74400001Y-73650000D01*
X74400001Y-74449986D01*
X73141973Y-74449986D01*
X73151606Y-72350013D01*
X74400000Y-72350013D01*
X74400000Y-73150000D01*
X75550000Y-73150000D01*
X76050000Y-73150000D01*
X77199999Y-73150000D01*
X77199999Y-72350028D01*
X77199998Y-72350013D01*
X77189505Y-72247302D01*
X77134358Y-72080880D01*
X77134356Y-72080875D01*
X77042315Y-71931654D01*
X76918345Y-71807684D01*
X76769124Y-71715643D01*
X76769119Y-71715641D01*
X76602697Y-71660494D01*
X76602690Y-71660493D01*
X76499986Y-71650000D01*
X76050000Y-71650000D01*
X76050000Y-73150000D01*
X75550000Y-73150000D01*
X75550000Y-71650000D01*
X75100028Y-71650000D01*
X75100012Y-71650001D01*
X74997302Y-71660494D01*
X74830880Y-71715641D01*
X74830875Y-71715643D01*
X74681654Y-71807684D01*
X74557684Y-71931654D01*
X74465643Y-72080875D01*
X74465641Y-72080880D01*
X74410494Y-72247302D01*
X74410493Y-72247309D01*
X74400000Y-72350013D01*
X73151606Y-72350013D01*
X73159863Y-70550000D01*
X74820069Y-70550000D01*
X74822832Y-70585122D01*
X74822833Y-70585128D01*
X74867592Y-70739188D01*
X74867593Y-70739191D01*
X74949261Y-70877285D01*
X74949268Y-70877294D01*
X75062705Y-70990731D01*
X75062714Y-70990738D01*
X75200805Y-71072404D01*
X75340000Y-71112844D01*
X75340000Y-70550000D01*
X74820069Y-70550000D01*
X73159863Y-70550000D01*
X73163934Y-69662436D01*
X73183925Y-69595492D01*
X73200250Y-69575329D01*
X73218919Y-69556661D01*
X73358611Y-69374612D01*
X73473344Y-69175888D01*
X73484014Y-69150128D01*
X73503103Y-69104046D01*
X73546944Y-69049643D01*
X73613239Y-69027579D01*
X73617663Y-69027500D01*
X74695500Y-69027500D01*
X74762539Y-69047185D01*
X74808294Y-69099989D01*
X74819500Y-69151500D01*
X74819500Y-69237947D01*
X74822390Y-69274673D01*
X74822391Y-69274679D01*
X74868066Y-69431892D01*
X74868068Y-69431895D01*
X74955381Y-69579535D01*
X74953540Y-69580623D01*
X74975054Y-69635422D01*
X74961372Y-69703939D01*
X74949522Y-69722378D01*
X74949263Y-69722710D01*
X74867593Y-69860808D01*
X74867592Y-69860811D01*
X74822833Y-70014871D01*
X74822832Y-70014877D01*
X74820069Y-70050000D01*
X75466000Y-70050000D01*
X75533039Y-70069685D01*
X75578794Y-70122489D01*
X75590000Y-70174000D01*
X75590000Y-70300000D01*
X75715501Y-70300000D01*
X75723967Y-70302486D01*
X75732699Y-70301198D01*
X75756978Y-70312179D01*
X75782540Y-70319685D01*
X75788318Y-70326354D01*
X75796360Y-70329991D01*
X75810848Y-70352355D01*
X75828295Y-70372489D01*
X75830550Y-70382764D01*
X75834350Y-70388630D01*
X75839306Y-70422664D01*
X75839500Y-70423546D01*
X75839500Y-70423750D01*
X75839501Y-70549180D01*
X75839982Y-70555294D01*
X75839999Y-70559939D01*
X75839984Y-70559990D01*
X75840000Y-70560393D01*
X75840000Y-71112844D01*
X75979194Y-71072405D01*
X75979196Y-71072404D01*
X76036386Y-71038582D01*
X76104109Y-71021398D01*
X76162629Y-71038581D01*
X76220607Y-71072869D01*
X76261268Y-71084682D01*
X76374791Y-71117664D01*
X76374794Y-71117664D01*
X76374796Y-71117665D01*
X76410819Y-71120500D01*
X76809180Y-71120499D01*
X76845204Y-71117665D01*
X76999393Y-71072869D01*
X77137598Y-70991135D01*
X77251135Y-70877598D01*
X77332869Y-70739393D01*
X77377665Y-70585204D01*
X77380500Y-70549181D01*
X77380499Y-70050820D01*
X77377665Y-70014796D01*
X77332869Y-69860607D01*
X77318705Y-69836657D01*
X77254768Y-69728544D01*
X77250417Y-69712642D01*
X77242523Y-69700358D01*
X77237500Y-69665423D01*
X77237500Y-69625494D01*
X77254768Y-69562373D01*
X77257644Y-69557510D01*
X77331931Y-69431897D01*
X77331932Y-69431893D01*
X77331933Y-69431892D01*
X77377608Y-69274679D01*
X77377609Y-69274673D01*
X77380499Y-69237947D01*
X77380500Y-69237940D01*
X77380500Y-68762060D01*
X77377609Y-68725325D01*
X77369697Y-68698092D01*
X77331933Y-68568107D01*
X77331931Y-68568104D01*
X77331931Y-68568103D01*
X77248590Y-68427180D01*
X77248588Y-68427178D01*
X77248585Y-68427174D01*
X77132825Y-68311414D01*
X77132817Y-68311408D01*
X76991895Y-68228068D01*
X76991892Y-68228066D01*
X76834679Y-68182391D01*
X76834673Y-68182390D01*
X76797947Y-68179500D01*
X76797940Y-68179500D01*
X76372060Y-68179500D01*
X76372052Y-68179500D01*
X76335326Y-68182390D01*
X76335320Y-68182391D01*
X76178105Y-68228067D01*
X76163117Y-68236931D01*
X76095392Y-68254110D01*
X76036883Y-68236931D01*
X76021894Y-68228067D01*
X75864679Y-68182391D01*
X75864673Y-68182390D01*
X75827947Y-68179500D01*
X75827940Y-68179500D01*
X75733281Y-68179500D01*
X75666242Y-68159815D01*
X75645600Y-68143181D01*
X75415011Y-67912591D01*
X75415007Y-67912588D01*
X75312239Y-67843920D01*
X75312226Y-67843913D01*
X75278785Y-67830062D01*
X75198035Y-67796614D01*
X75198027Y-67796612D01*
X75076807Y-67772500D01*
X75076803Y-67772500D01*
X73617663Y-67772500D01*
X73550624Y-67752815D01*
X73504869Y-67700011D01*
X73503103Y-67695954D01*
X73473344Y-67624112D01*
X73473339Y-67624103D01*
X73364439Y-67435483D01*
X73358611Y-67425388D01*
X73358608Y-67425385D01*
X73358607Y-67425382D01*
X73218918Y-67243338D01*
X73218911Y-67243330D01*
X73211786Y-67236205D01*
X73178301Y-67174882D01*
X73175468Y-67147955D01*
X73176067Y-67017512D01*
X73199423Y-61925780D01*
X73219415Y-61858833D01*
X73272428Y-61813321D01*
X73325757Y-61802372D01*
X79629118Y-61921304D01*
G37*
G04 #@! TD.AperFunction*
M02*
