M48
; DRILL file {KiCad 9.0.3} date 2025-09-18T14:31:51+0200
; FORMAT={-:-/ absolute / metric / decimal}
; #@! TF.CreationDate,2025-09-18T14:31:51+02:00
; #@! TF.GenerationSoftware,Kicad,Pcbnew,9.0.3
; #@! TF.FileFunction,Plated,1,2,PTH
FMAT,2
METRIC
; #@! TA.AperFunction,Plated,PTH,ViaDrill
T1C0.300
; #@! TA.AperFunction,Plated,PTH,ComponentDrill
T2C0.950
; #@! TA.AperFunction,Plated,PTH,ComponentDrill
T3C1.000
; #@! TA.AperFunction,Plated,PTH,ComponentDrill
T4C1.500
; #@! TA.AperFunction,Plated,PTH,ComponentDrill
T5C3.000
%
G90
G05
T1
X55.55Y-100.65
X73.0Y-97.6
X78.3Y-82.0
X106.2Y-61.5
T2
X50.197Y-97.9
X51.225Y-79.4
X51.225Y-81.9
X51.225Y-84.4
X52.697Y-97.9
X55.197Y-97.9
X63.1Y-97.9
X65.6Y-97.9
X68.1Y-97.9
X83.4Y-99.2
X84.5Y-91.0
X85.9Y-99.2
X87.0Y-91.0
X88.4Y-99.2
X89.5Y-91.0
X90.9Y-99.2
X92.0Y-91.0
X93.4Y-99.2
T3
X51.2Y-68.8
X51.2Y-71.3
X80.35Y-63.5
X80.35Y-66.04
X80.35Y-68.58
X80.35Y-71.12
X80.35Y-73.66
X80.35Y-76.2
X80.35Y-78.74
X80.38Y-81.28
X80.38Y-83.82
X95.62Y-81.28
X95.62Y-83.82
X95.65Y-63.5
X95.65Y-66.04
X95.65Y-68.58
X95.65Y-71.12
X95.65Y-73.66
X95.65Y-76.2
X95.65Y-78.74
X102.5Y-69.2
X102.5Y-71.74
X102.5Y-74.28
X102.5Y-76.82
X102.5Y-79.36
X102.5Y-81.9
X102.5Y-84.44
X102.5Y-86.98
X102.5Y-89.52
X102.5Y-92.06
X102.5Y-94.6
X102.5Y-97.14
T4
X56.7Y-68.4
X56.7Y-77.6
X56.7Y-82.2
X56.7Y-91.4
X71.9Y-68.4
X71.9Y-77.6
X71.9Y-82.2
X71.9Y-91.4
T5
X101.5Y-66.2
X101.5Y-100.7
M30
