G04 #@! TF.GenerationSoftware,KiCad,Pcbnew,9.0.3*
G04 #@! TF.CreationDate,2025-09-18T14:31:52+02:00*
G04 #@! TF.ProjectId,CacophonyV3,4361636f-7068-46f6-9e79-56332e6b6963,rev?*
G04 #@! TF.SameCoordinates,Original*
G04 #@! TF.FileFunction,Copper,L2,Bot*
G04 #@! TF.FilePolarity,Positive*
%FSLAX46Y46*%
G04 Gerber Fmt 4.6, Leading zero omitted, Abs format (unit mm)*
G04 Created by KiCad (PCBNEW 9.0.3) date 2025-09-18 14:31:52*
%MOMM*%
%LPD*%
G01*
G04 APERTURE LIST*
G04 Aperture macros list*
%AMRoundRect*
0 Rectangle with rounded corners*
0 $1 Rounding radius*
0 $2 $3 $4 $5 $6 $7 $8 $9 X,Y pos of 4 corners*
0 Add a 4 corners polygon primitive as box body*
4,1,4,$2,$3,$4,$5,$6,$7,$8,$9,$2,$3,0*
0 Add four circle primitives for the rounded corners*
1,1,$1+$1,$2,$3*
1,1,$1+$1,$4,$5*
1,1,$1+$1,$6,$7*
1,1,$1+$1,$8,$9*
0 Add four rect primitives between the rounded corners*
20,1,$1+$1,$2,$3,$4,$5,0*
20,1,$1+$1,$4,$5,$6,$7,0*
20,1,$1+$1,$6,$7,$8,$9,0*
20,1,$1+$1,$8,$9,$2,$3,0*%
G04 Aperture macros list end*
G04 #@! TA.AperFunction,ComponentPad*
%ADD10C,2.500000*%
G04 #@! TD*
G04 #@! TA.AperFunction,ComponentPad*
%ADD11RoundRect,0.250000X0.600000X0.725000X-0.600000X0.725000X-0.600000X-0.725000X0.600000X-0.725000X0*%
G04 #@! TD*
G04 #@! TA.AperFunction,ComponentPad*
%ADD12O,1.700000X1.950000*%
G04 #@! TD*
G04 #@! TA.AperFunction,ComponentPad*
%ADD13RoundRect,0.250000X-0.725000X0.600000X-0.725000X-0.600000X0.725000X-0.600000X0.725000X0.600000X0*%
G04 #@! TD*
G04 #@! TA.AperFunction,ComponentPad*
%ADD14O,1.950000X1.700000*%
G04 #@! TD*
G04 #@! TA.AperFunction,ComponentPad*
%ADD15C,2.000000*%
G04 #@! TD*
G04 #@! TA.AperFunction,ComponentPad*
%ADD16RoundRect,0.250000X-0.600000X-0.725000X0.600000X-0.725000X0.600000X0.725000X-0.600000X0.725000X0*%
G04 #@! TD*
G04 #@! TA.AperFunction,ComponentPad*
%ADD17RoundRect,0.250000X-0.750000X0.600000X-0.750000X-0.600000X0.750000X-0.600000X0.750000X0.600000X0*%
G04 #@! TD*
G04 #@! TA.AperFunction,ComponentPad*
%ADD18O,2.000000X1.700000*%
G04 #@! TD*
G04 #@! TA.AperFunction,ComponentPad*
%ADD19C,1.000000*%
G04 #@! TD*
G04 #@! TA.AperFunction,ViaPad*
%ADD20C,0.600000*%
G04 #@! TD*
G04 #@! TA.AperFunction,Conductor*
%ADD21C,0.508000*%
G04 #@! TD*
G04 #@! TA.AperFunction,Conductor*
%ADD22C,0.254000*%
G04 #@! TD*
G04 APERTURE END LIST*
D10*
X56700000Y-77600000D03*
X56700000Y-68400000D03*
X71900000Y-77600000D03*
X71900000Y-68400000D03*
X56700000Y-91400000D03*
X56700000Y-82200000D03*
X71900000Y-91400000D03*
X71900000Y-82200000D03*
D11*
X92000000Y-91000000D03*
D12*
X89500000Y-91000000D03*
X87000000Y-91000000D03*
X84500000Y-91000000D03*
D11*
X93400000Y-99200000D03*
D12*
X90900000Y-99200000D03*
X88400000Y-99200000D03*
X85900000Y-99200000D03*
X83400000Y-99200000D03*
D13*
X51225000Y-79400000D03*
D14*
X51225000Y-81900000D03*
X51225000Y-84400000D03*
D15*
X80350000Y-63500000D03*
X80350000Y-66040000D03*
X80350000Y-68580000D03*
X80350000Y-71120000D03*
X80350000Y-73660000D03*
X80350000Y-76200000D03*
X80350000Y-78740000D03*
X80380000Y-81280000D03*
X80380000Y-83820000D03*
X95650000Y-63500000D03*
X95650000Y-66040000D03*
X95650000Y-68580000D03*
X95650000Y-71120000D03*
X95650000Y-73660000D03*
X95650000Y-76200000D03*
X95650000Y-78740000D03*
X95620000Y-81280000D03*
X95620000Y-83820000D03*
D16*
X63100000Y-97900000D03*
D12*
X65600000Y-97900000D03*
X68100000Y-97900000D03*
D17*
X51200000Y-68800000D03*
D18*
X51200000Y-71300000D03*
D16*
X50197500Y-97900000D03*
D12*
X52697500Y-97900000D03*
X55197500Y-97900000D03*
D19*
X101500000Y-66200000D03*
X101500000Y-100700000D03*
D15*
X102500000Y-79360000D03*
X102500000Y-81900000D03*
X102500000Y-84440000D03*
X102500000Y-86980000D03*
X102500000Y-89520000D03*
X102500000Y-92060000D03*
X102500000Y-94600000D03*
X102500000Y-69200000D03*
X102500000Y-71740000D03*
X102500000Y-74280000D03*
X102500000Y-76820000D03*
X102500000Y-97140000D03*
D20*
X73000000Y-97600000D03*
X106200000Y-61500000D03*
X78300000Y-82000000D03*
X55550000Y-100650000D03*
D21*
X78300000Y-82000000D02*
X78300000Y-65550000D01*
X106200000Y-61500000D02*
X106200000Y-68040000D01*
X106200000Y-68040000D02*
X102500000Y-71740000D01*
X78300000Y-65550000D02*
X80350000Y-63500000D01*
D22*
X55197500Y-97900000D02*
X55197500Y-100297500D01*
X55197500Y-100297500D02*
X55550000Y-100650000D01*
G04 #@! TA.AperFunction,Conductor*
G36*
X79884075Y-66232993D02*
G01*
X79949901Y-66347007D01*
X80042993Y-66440099D01*
X80157007Y-66505925D01*
X80220590Y-66522962D01*
X79480893Y-67262658D01*
X79482448Y-67282405D01*
X79481648Y-67286212D01*
X79482810Y-67289923D01*
X79474525Y-67320118D01*
X79468084Y-67350783D01*
X79465054Y-67354640D01*
X79464324Y-67357302D01*
X79455447Y-67366870D01*
X79441691Y-67384384D01*
X79436906Y-67388681D01*
X79372490Y-67435483D01*
X79263827Y-67544145D01*
X79261361Y-67546361D01*
X79232714Y-67560065D01*
X79204858Y-67575277D01*
X79201432Y-67575032D01*
X79198333Y-67576515D01*
X79166830Y-67572557D01*
X79135166Y-67570293D01*
X79132415Y-67568234D01*
X79129008Y-67567806D01*
X79104648Y-67547447D01*
X79079233Y-67528421D01*
X79078032Y-67525202D01*
X79075397Y-67523000D01*
X79065911Y-67492706D01*
X79054816Y-67462957D01*
X79054586Y-67456534D01*
X79054520Y-67456322D01*
X79054572Y-67456131D01*
X79054500Y-67454111D01*
X79054500Y-67033308D01*
X79074185Y-66966269D01*
X79090819Y-66945627D01*
X79867037Y-66169408D01*
X79884075Y-66232993D01*
G37*
G04 #@! TD.AperFunction*
G04 #@! TA.AperFunction,Conductor*
G36*
X105343149Y-59819779D02*
G01*
X105388992Y-59872507D01*
X105400284Y-59923923D01*
X105403641Y-61387837D01*
X105401260Y-61412304D01*
X105399500Y-61421154D01*
X105399500Y-61578840D01*
X105401779Y-61590301D01*
X105404160Y-61614203D01*
X105418125Y-67703202D01*
X105398594Y-67770286D01*
X105381806Y-67791167D01*
X104184529Y-68988445D01*
X104123206Y-69021930D01*
X104053514Y-69016946D01*
X103997581Y-68975074D01*
X103974374Y-68920161D01*
X103963063Y-68848746D01*
X103890102Y-68624197D01*
X103782914Y-68413828D01*
X103722658Y-68330894D01*
X103722658Y-68330893D01*
X102982962Y-69070590D01*
X102965925Y-69007007D01*
X102900099Y-68892993D01*
X102807007Y-68799901D01*
X102692993Y-68734075D01*
X102629407Y-68717037D01*
X103369105Y-67977340D01*
X103369104Y-67977338D01*
X103286174Y-67917087D01*
X103075802Y-67809897D01*
X102999125Y-67784983D01*
X102941449Y-67745545D01*
X102914251Y-67681187D01*
X102926166Y-67612340D01*
X102949759Y-67579373D01*
X103007282Y-67521851D01*
X103166924Y-67313803D01*
X103298043Y-67086697D01*
X103320158Y-67033308D01*
X103371604Y-66909105D01*
X103398398Y-66844419D01*
X103466270Y-66591116D01*
X103500500Y-66331120D01*
X103500500Y-66068880D01*
X103466270Y-65808884D01*
X103398398Y-65555581D01*
X103365304Y-65475685D01*
X103298046Y-65313309D01*
X103298041Y-65313299D01*
X103166924Y-65086196D01*
X103020583Y-64895483D01*
X103007282Y-64878149D01*
X103007281Y-64878148D01*
X103007274Y-64878140D01*
X102821860Y-64692726D01*
X102821851Y-64692718D01*
X102613803Y-64533075D01*
X102386700Y-64401958D01*
X102386690Y-64401953D01*
X102144428Y-64301605D01*
X102144421Y-64301603D01*
X102144419Y-64301602D01*
X101891116Y-64233730D01*
X101833339Y-64226123D01*
X101631127Y-64199500D01*
X101631120Y-64199500D01*
X101368880Y-64199500D01*
X101368872Y-64199500D01*
X101137772Y-64229926D01*
X101108884Y-64233730D01*
X100912193Y-64286433D01*
X100855581Y-64301602D01*
X100855571Y-64301605D01*
X100613309Y-64401953D01*
X100613299Y-64401958D01*
X100386196Y-64533075D01*
X100178148Y-64692718D01*
X99992718Y-64878148D01*
X99833075Y-65086196D01*
X99701958Y-65313299D01*
X99701953Y-65313309D01*
X99601605Y-65555571D01*
X99601602Y-65555581D01*
X99533730Y-65808885D01*
X99499500Y-66068872D01*
X99499500Y-66331127D01*
X99522514Y-66505925D01*
X99533730Y-66591116D01*
X99596712Y-66826169D01*
X99601602Y-66844418D01*
X99601605Y-66844428D01*
X99701953Y-67086690D01*
X99701958Y-67086700D01*
X99833075Y-67313803D01*
X99992718Y-67521851D01*
X99992726Y-67521860D01*
X100178140Y-67707274D01*
X100178148Y-67707281D01*
X100386196Y-67866924D01*
X100613299Y-67998041D01*
X100613309Y-67998046D01*
X100855571Y-68098394D01*
X100855581Y-68098398D01*
X101108884Y-68166270D01*
X101165157Y-68173678D01*
X101229052Y-68201944D01*
X101267524Y-68260268D01*
X101268356Y-68330133D01*
X101249290Y-68369501D01*
X101217086Y-68413826D01*
X101109897Y-68624197D01*
X101036934Y-68848752D01*
X101000000Y-69081947D01*
X101000000Y-69318052D01*
X101036934Y-69551247D01*
X101109897Y-69775802D01*
X101217087Y-69986174D01*
X101277338Y-70069104D01*
X101277340Y-70069105D01*
X102017037Y-69329407D01*
X102034075Y-69392993D01*
X102099901Y-69507007D01*
X102192993Y-69600099D01*
X102307007Y-69665925D01*
X102370590Y-69682962D01*
X101630893Y-70422658D01*
X101632448Y-70442405D01*
X101618084Y-70510783D01*
X101581717Y-70552451D01*
X101522490Y-70595482D01*
X101355485Y-70762487D01*
X101355485Y-70762488D01*
X101355483Y-70762490D01*
X101295862Y-70844550D01*
X101216657Y-70953566D01*
X101109433Y-71164003D01*
X101036446Y-71388631D01*
X100999500Y-71621902D01*
X100999500Y-71858097D01*
X101036446Y-72091368D01*
X101109433Y-72315996D01*
X101193515Y-72481014D01*
X101216657Y-72526433D01*
X101355483Y-72717510D01*
X101522490Y-72884517D01*
X101557127Y-72909683D01*
X101599792Y-72965013D01*
X101605771Y-73034626D01*
X101573165Y-73096421D01*
X101557130Y-73110315D01*
X101539365Y-73123222D01*
X101522488Y-73135484D01*
X101355485Y-73302487D01*
X101355485Y-73302488D01*
X101355483Y-73302490D01*
X101351021Y-73308632D01*
X101216657Y-73493566D01*
X101109433Y-73704003D01*
X101036446Y-73928631D01*
X100999500Y-74161902D01*
X100999500Y-74398097D01*
X101036446Y-74631368D01*
X101109433Y-74855996D01*
X101193515Y-75021014D01*
X101216657Y-75066433D01*
X101355483Y-75257510D01*
X101522490Y-75424517D01*
X101557127Y-75449683D01*
X101599792Y-75505013D01*
X101605771Y-75574626D01*
X101573165Y-75636421D01*
X101557130Y-75650315D01*
X101539365Y-75663222D01*
X101522488Y-75675484D01*
X101355485Y-75842487D01*
X101355485Y-75842488D01*
X101355483Y-75842490D01*
X101328628Y-75879453D01*
X101216657Y-76033566D01*
X101109433Y-76244003D01*
X101036446Y-76468631D01*
X100999500Y-76701902D01*
X100999500Y-76938097D01*
X101036446Y-77171368D01*
X101109433Y-77395996D01*
X101193515Y-77561014D01*
X101216657Y-77606433D01*
X101355483Y-77797510D01*
X101522490Y-77964517D01*
X101557127Y-77989683D01*
X101599792Y-78045013D01*
X101605771Y-78114626D01*
X101573165Y-78176421D01*
X101557130Y-78190315D01*
X101539365Y-78203222D01*
X101522488Y-78215484D01*
X101355485Y-78382487D01*
X101355485Y-78382488D01*
X101355483Y-78382490D01*
X101351021Y-78388632D01*
X101216657Y-78573566D01*
X101109433Y-78784003D01*
X101036446Y-79008631D01*
X100999500Y-79241902D01*
X100999500Y-79478097D01*
X101036446Y-79711368D01*
X101109433Y-79935996D01*
X101203808Y-80121215D01*
X101216657Y-80146433D01*
X101355483Y-80337510D01*
X101522490Y-80504517D01*
X101557127Y-80529683D01*
X101599792Y-80585013D01*
X101605771Y-80654626D01*
X101573165Y-80716421D01*
X101557130Y-80730315D01*
X101541316Y-80741805D01*
X101522488Y-80755484D01*
X101355485Y-80922487D01*
X101355485Y-80922488D01*
X101355483Y-80922490D01*
X101351021Y-80928632D01*
X101216657Y-81113566D01*
X101109433Y-81324003D01*
X101036446Y-81548631D01*
X100999500Y-81781902D01*
X100999500Y-82018097D01*
X101036446Y-82251363D01*
X101036446Y-82251368D01*
X101109433Y-82475996D01*
X101198255Y-82650318D01*
X101216657Y-82686433D01*
X101355483Y-82877510D01*
X101522490Y-83044517D01*
X101557127Y-83069683D01*
X101599792Y-83125013D01*
X101605771Y-83194626D01*
X101573165Y-83256421D01*
X101557130Y-83270315D01*
X101539365Y-83283222D01*
X101522488Y-83295484D01*
X101355485Y-83462487D01*
X101355485Y-83462488D01*
X101355483Y-83462490D01*
X101351021Y-83468632D01*
X101216657Y-83653566D01*
X101109433Y-83864003D01*
X101036446Y-84088631D01*
X100999500Y-84321902D01*
X100999500Y-84558097D01*
X101036446Y-84791368D01*
X101109433Y-85015996D01*
X101208572Y-85210566D01*
X101216657Y-85226433D01*
X101355483Y-85417510D01*
X101522490Y-85584517D01*
X101557127Y-85609683D01*
X101599792Y-85665013D01*
X101605771Y-85734626D01*
X101573165Y-85796421D01*
X101557130Y-85810315D01*
X101539365Y-85823222D01*
X101522488Y-85835484D01*
X101355485Y-86002487D01*
X101355485Y-86002488D01*
X101355483Y-86002490D01*
X101295862Y-86084550D01*
X101216657Y-86193566D01*
X101109433Y-86404003D01*
X101036446Y-86628631D01*
X100999500Y-86861902D01*
X100999500Y-87098097D01*
X101036446Y-87331368D01*
X101109433Y-87555996D01*
X101216657Y-87766433D01*
X101355483Y-87957510D01*
X101522490Y-88124517D01*
X101557127Y-88149683D01*
X101599792Y-88205013D01*
X101605771Y-88274626D01*
X101573165Y-88336421D01*
X101557130Y-88350315D01*
X101539365Y-88363222D01*
X101522488Y-88375484D01*
X101355485Y-88542487D01*
X101355485Y-88542488D01*
X101355483Y-88542490D01*
X101295862Y-88624550D01*
X101216657Y-88733566D01*
X101109433Y-88944003D01*
X101036446Y-89168631D01*
X100999500Y-89401902D01*
X100999500Y-89638097D01*
X101036446Y-89871368D01*
X101109433Y-90095996D01*
X101184509Y-90243339D01*
X101216657Y-90306433D01*
X101355483Y-90497510D01*
X101522490Y-90664517D01*
X101557127Y-90689683D01*
X101599792Y-90745013D01*
X101605771Y-90814626D01*
X101573165Y-90876421D01*
X101557130Y-90890315D01*
X101539365Y-90903222D01*
X101522488Y-90915484D01*
X101355485Y-91082487D01*
X101355485Y-91082488D01*
X101355483Y-91082490D01*
X101295862Y-91164550D01*
X101216657Y-91273566D01*
X101109433Y-91484003D01*
X101036446Y-91708631D01*
X100999500Y-91941902D01*
X100999500Y-92178097D01*
X101036446Y-92411368D01*
X101109433Y-92635996D01*
X101151685Y-92718919D01*
X101216657Y-92846433D01*
X101355483Y-93037510D01*
X101522490Y-93204517D01*
X101557127Y-93229683D01*
X101599792Y-93285013D01*
X101605771Y-93354626D01*
X101573165Y-93416421D01*
X101557130Y-93430315D01*
X101539365Y-93443222D01*
X101522488Y-93455484D01*
X101355485Y-93622487D01*
X101355485Y-93622488D01*
X101355483Y-93622490D01*
X101295862Y-93704550D01*
X101216657Y-93813566D01*
X101109433Y-94024003D01*
X101036446Y-94248631D01*
X100999500Y-94481902D01*
X100999500Y-94718097D01*
X101036446Y-94951368D01*
X101109433Y-95175996D01*
X101216657Y-95386433D01*
X101355483Y-95577510D01*
X101522490Y-95744517D01*
X101581716Y-95787547D01*
X101624381Y-95842875D01*
X101632448Y-95897593D01*
X101630893Y-95917340D01*
X102370591Y-96657037D01*
X102307007Y-96674075D01*
X102192993Y-96739901D01*
X102099901Y-96832993D01*
X102034075Y-96947007D01*
X102017037Y-97010591D01*
X101277340Y-96270894D01*
X101217084Y-96353830D01*
X101109897Y-96564197D01*
X101036934Y-96788752D01*
X101000000Y-97021947D01*
X101000000Y-97258052D01*
X101036934Y-97491247D01*
X101109897Y-97715802D01*
X101217087Y-97926174D01*
X101277338Y-98009104D01*
X101277340Y-98009105D01*
X102017037Y-97269408D01*
X102034075Y-97332993D01*
X102099901Y-97447007D01*
X102192993Y-97540099D01*
X102307007Y-97605925D01*
X102370590Y-97622962D01*
X101630893Y-98362658D01*
X101713830Y-98422916D01*
X101831614Y-98482929D01*
X101882410Y-98530903D01*
X101899206Y-98598724D01*
X101876669Y-98664859D01*
X101821954Y-98708311D01*
X101759135Y-98716353D01*
X101631130Y-98699501D01*
X101631125Y-98699500D01*
X101631120Y-98699500D01*
X101368880Y-98699500D01*
X101368872Y-98699500D01*
X101137772Y-98729926D01*
X101108884Y-98733730D01*
X100944796Y-98777697D01*
X100855581Y-98801602D01*
X100855571Y-98801605D01*
X100613309Y-98901953D01*
X100613299Y-98901958D01*
X100386196Y-99033075D01*
X100178148Y-99192718D01*
X99992718Y-99378148D01*
X99833075Y-99586196D01*
X99701958Y-99813299D01*
X99701953Y-99813309D01*
X99601605Y-100055571D01*
X99601602Y-100055581D01*
X99543928Y-100270827D01*
X99533730Y-100308885D01*
X99499500Y-100568872D01*
X99499500Y-100831127D01*
X99506396Y-100883501D01*
X99533730Y-101091116D01*
X99552265Y-101160289D01*
X99601602Y-101344418D01*
X99601605Y-101344428D01*
X99701953Y-101586690D01*
X99701958Y-101586700D01*
X99833075Y-101813803D01*
X99992718Y-102021851D01*
X99992726Y-102021860D01*
X100178140Y-102207274D01*
X100178148Y-102207281D01*
X100386196Y-102366924D01*
X100613299Y-102498041D01*
X100613309Y-102498046D01*
X100855571Y-102598394D01*
X100855581Y-102598398D01*
X101108884Y-102666270D01*
X101368880Y-102700500D01*
X101368887Y-102700500D01*
X101631113Y-102700500D01*
X101631120Y-102700500D01*
X101891116Y-102666270D01*
X102144419Y-102598398D01*
X102386697Y-102498043D01*
X102613803Y-102366924D01*
X102821851Y-102207282D01*
X102821855Y-102207277D01*
X102821860Y-102207274D01*
X103007274Y-102021860D01*
X103007277Y-102021855D01*
X103007282Y-102021851D01*
X103166924Y-101813803D01*
X103298043Y-101586697D01*
X103398398Y-101344419D01*
X103466270Y-101091116D01*
X103500500Y-100831120D01*
X103500500Y-100568880D01*
X103466270Y-100308884D01*
X103398398Y-100055581D01*
X103398394Y-100055571D01*
X103298046Y-99813309D01*
X103298041Y-99813299D01*
X103166924Y-99586196D01*
X103044424Y-99426554D01*
X103007282Y-99378149D01*
X103007281Y-99378148D01*
X103007274Y-99378140D01*
X102821860Y-99192726D01*
X102821851Y-99192718D01*
X102613803Y-99033075D01*
X102386700Y-98901958D01*
X102386690Y-98901953D01*
X102330215Y-98878561D01*
X102275812Y-98834720D01*
X102253747Y-98768426D01*
X102271026Y-98700726D01*
X102322164Y-98653116D01*
X102377668Y-98640000D01*
X102618052Y-98640000D01*
X102851247Y-98603065D01*
X103075802Y-98530102D01*
X103286163Y-98422918D01*
X103286169Y-98422914D01*
X103369104Y-98362658D01*
X103369105Y-98362658D01*
X102629408Y-97622962D01*
X102692993Y-97605925D01*
X102807007Y-97540099D01*
X102900099Y-97447007D01*
X102965925Y-97332993D01*
X102982962Y-97269409D01*
X103722658Y-98009105D01*
X103722658Y-98009104D01*
X103782914Y-97926169D01*
X103782918Y-97926163D01*
X103890102Y-97715802D01*
X103963065Y-97491247D01*
X104000000Y-97258052D01*
X104000000Y-97021947D01*
X103963065Y-96788752D01*
X103890102Y-96564197D01*
X103782914Y-96353828D01*
X103722658Y-96270894D01*
X103722658Y-96270893D01*
X102982962Y-97010590D01*
X102965925Y-96947007D01*
X102900099Y-96832993D01*
X102807007Y-96739901D01*
X102692993Y-96674075D01*
X102629409Y-96657037D01*
X103369105Y-95917340D01*
X103367551Y-95897594D01*
X103381915Y-95829216D01*
X103418284Y-95787547D01*
X103477510Y-95744517D01*
X103644517Y-95577510D01*
X103783343Y-95386433D01*
X103890568Y-95175992D01*
X103963553Y-94951368D01*
X104000500Y-94718097D01*
X104000500Y-94481902D01*
X103963553Y-94248631D01*
X103890566Y-94024003D01*
X103783342Y-93813566D01*
X103644517Y-93622490D01*
X103477510Y-93455483D01*
X103442872Y-93430317D01*
X103400207Y-93374989D01*
X103394228Y-93305375D01*
X103426833Y-93243580D01*
X103442873Y-93229682D01*
X103477510Y-93204517D01*
X103644517Y-93037510D01*
X103783343Y-92846433D01*
X103890568Y-92635992D01*
X103963553Y-92411368D01*
X103963799Y-92409812D01*
X104000500Y-92178097D01*
X104000500Y-91941902D01*
X103963553Y-91708631D01*
X103900554Y-91514741D01*
X103890568Y-91484008D01*
X103890566Y-91484005D01*
X103890566Y-91484003D01*
X103789304Y-91285266D01*
X103783343Y-91273567D01*
X103644517Y-91082490D01*
X103477510Y-90915483D01*
X103442872Y-90890317D01*
X103400207Y-90834989D01*
X103394228Y-90765375D01*
X103426833Y-90703580D01*
X103442873Y-90689682D01*
X103477510Y-90664517D01*
X103644517Y-90497510D01*
X103783343Y-90306433D01*
X103890568Y-90095992D01*
X103963553Y-89871368D01*
X103967747Y-89844890D01*
X104000500Y-89638097D01*
X104000500Y-89401902D01*
X103963553Y-89168631D01*
X103890566Y-88944003D01*
X103783342Y-88733566D01*
X103644517Y-88542490D01*
X103477510Y-88375483D01*
X103442872Y-88350317D01*
X103400207Y-88294989D01*
X103394228Y-88225375D01*
X103426833Y-88163580D01*
X103442873Y-88149682D01*
X103477510Y-88124517D01*
X103644517Y-87957510D01*
X103783343Y-87766433D01*
X103890568Y-87555992D01*
X103963553Y-87331368D01*
X104000500Y-87098097D01*
X104000500Y-86861902D01*
X103963553Y-86628631D01*
X103890566Y-86404003D01*
X103783342Y-86193566D01*
X103644517Y-86002490D01*
X103477510Y-85835483D01*
X103442872Y-85810317D01*
X103400207Y-85754989D01*
X103394228Y-85685375D01*
X103426833Y-85623580D01*
X103442873Y-85609682D01*
X103477510Y-85584517D01*
X103644517Y-85417510D01*
X103783343Y-85226433D01*
X103890568Y-85015992D01*
X103963553Y-84791368D01*
X103992844Y-84606433D01*
X104000500Y-84558097D01*
X104000500Y-84321902D01*
X103963553Y-84088631D01*
X103929689Y-83984412D01*
X103890568Y-83864008D01*
X103890566Y-83864005D01*
X103890566Y-83864003D01*
X103803017Y-83692180D01*
X103783343Y-83653567D01*
X103644517Y-83462490D01*
X103477510Y-83295483D01*
X103442872Y-83270317D01*
X103400207Y-83214989D01*
X103394228Y-83145375D01*
X103426833Y-83083580D01*
X103442873Y-83069682D01*
X103477510Y-83044517D01*
X103644517Y-82877510D01*
X103783343Y-82686433D01*
X103890568Y-82475992D01*
X103963553Y-82251368D01*
X103963718Y-82250326D01*
X104000500Y-82018097D01*
X104000500Y-81781902D01*
X103963553Y-81548631D01*
X103890566Y-81324003D01*
X103783342Y-81113566D01*
X103715755Y-81020541D01*
X103644517Y-80922490D01*
X103477510Y-80755483D01*
X103442872Y-80730317D01*
X103400207Y-80674989D01*
X103394228Y-80605375D01*
X103426833Y-80543580D01*
X103442873Y-80529682D01*
X103477510Y-80504517D01*
X103644517Y-80337510D01*
X103783343Y-80146433D01*
X103890568Y-79935992D01*
X103963553Y-79711368D01*
X103996623Y-79502573D01*
X104000500Y-79478097D01*
X104000500Y-79241902D01*
X103963553Y-79008631D01*
X103890566Y-78784003D01*
X103783342Y-78573566D01*
X103644517Y-78382490D01*
X103477510Y-78215483D01*
X103442872Y-78190317D01*
X103400207Y-78134989D01*
X103394228Y-78065375D01*
X103426833Y-78003580D01*
X103442873Y-77989682D01*
X103477510Y-77964517D01*
X103644517Y-77797510D01*
X103783343Y-77606433D01*
X103890568Y-77395992D01*
X103963553Y-77171368D01*
X104000500Y-76938097D01*
X104000500Y-76701902D01*
X103963553Y-76468631D01*
X103890566Y-76244003D01*
X103783342Y-76033566D01*
X103644517Y-75842490D01*
X103477510Y-75675483D01*
X103442872Y-75650317D01*
X103400207Y-75594989D01*
X103394228Y-75525375D01*
X103426833Y-75463580D01*
X103442873Y-75449682D01*
X103477510Y-75424517D01*
X103644517Y-75257510D01*
X103783343Y-75066433D01*
X103890568Y-74855992D01*
X103963553Y-74631368D01*
X103996623Y-74422573D01*
X104000500Y-74398097D01*
X104000500Y-74161902D01*
X103963553Y-73928631D01*
X103890566Y-73704003D01*
X103783342Y-73493566D01*
X103644517Y-73302490D01*
X103477510Y-73135483D01*
X103442872Y-73110317D01*
X103400207Y-73054989D01*
X103394228Y-72985375D01*
X103426833Y-72923580D01*
X103442873Y-72909682D01*
X103477510Y-72884517D01*
X103644517Y-72717510D01*
X103783343Y-72526433D01*
X103890568Y-72315992D01*
X103963553Y-72091368D01*
X103976786Y-72007820D01*
X104000500Y-71858097D01*
X104000500Y-71621903D01*
X103976657Y-71471368D01*
X103967261Y-71412046D01*
X103976215Y-71342755D01*
X104002050Y-71304972D01*
X105212135Y-70094887D01*
X105273454Y-70061405D01*
X105343146Y-70066389D01*
X105399079Y-70108261D01*
X105423496Y-70173725D01*
X105423812Y-70182287D01*
X105499715Y-103276130D01*
X105480184Y-103343214D01*
X105427485Y-103389090D01*
X105376129Y-103400413D01*
X45750050Y-103599499D01*
X45749636Y-103599500D01*
X45724285Y-103599500D01*
X45657246Y-103579815D01*
X45611491Y-103527011D01*
X45600285Y-103475218D01*
X45614816Y-97125013D01*
X48847500Y-97125013D01*
X48847500Y-97650000D01*
X49793354Y-97650000D01*
X49754870Y-97716657D01*
X49722500Y-97837465D01*
X49722500Y-97962535D01*
X49754870Y-98083343D01*
X49793354Y-98150000D01*
X48847501Y-98150000D01*
X48847501Y-98674986D01*
X48857994Y-98777697D01*
X48913141Y-98944119D01*
X48913143Y-98944124D01*
X49005184Y-99093345D01*
X49129154Y-99217315D01*
X49278375Y-99309356D01*
X49278380Y-99309358D01*
X49444802Y-99364505D01*
X49444809Y-99364506D01*
X49547519Y-99374999D01*
X49947499Y-99374999D01*
X49947500Y-99374998D01*
X49947500Y-98304145D01*
X50014157Y-98342630D01*
X50134965Y-98375000D01*
X50260035Y-98375000D01*
X50380843Y-98342630D01*
X50447500Y-98304145D01*
X50447500Y-99374999D01*
X50847472Y-99374999D01*
X50847486Y-99374998D01*
X50950197Y-99364505D01*
X51116619Y-99309358D01*
X51116624Y-99309356D01*
X51265845Y-99217315D01*
X51389817Y-99093343D01*
X51485315Y-98938516D01*
X51537263Y-98891791D01*
X51606225Y-98880568D01*
X51670308Y-98908412D01*
X51678535Y-98915931D01*
X51817713Y-99055109D01*
X51989679Y-99180048D01*
X51989681Y-99180049D01*
X51989684Y-99180051D01*
X52179088Y-99276557D01*
X52381257Y-99342246D01*
X52591213Y-99375500D01*
X52591214Y-99375500D01*
X52803786Y-99375500D01*
X52803787Y-99375500D01*
X53013743Y-99342246D01*
X53215912Y-99276557D01*
X53405316Y-99180051D01*
X53463931Y-99137465D01*
X53577286Y-99055109D01*
X53577288Y-99055106D01*
X53577292Y-99055104D01*
X53727604Y-98904792D01*
X53847183Y-98740204D01*
X53902511Y-98697540D01*
X53972124Y-98691561D01*
X54033920Y-98724166D01*
X54047813Y-98740199D01*
X54167396Y-98904792D01*
X54317708Y-99055104D01*
X54489684Y-99180051D01*
X54489688Y-99180053D01*
X54489695Y-99180057D01*
X54502290Y-99186474D01*
X54553088Y-99234446D01*
X54570000Y-99296961D01*
X54570000Y-100359307D01*
X54594112Y-100480527D01*
X54594114Y-100480535D01*
X54627562Y-100561285D01*
X54631652Y-100571158D01*
X54641417Y-100594733D01*
X54695384Y-100675500D01*
X54710089Y-100697508D01*
X54729547Y-100716966D01*
X54733671Y-100722069D01*
X54744664Y-100748506D01*
X54758392Y-100773646D01*
X54758843Y-100775815D01*
X54780261Y-100883491D01*
X54780264Y-100883501D01*
X54840602Y-101029172D01*
X54840609Y-101029185D01*
X54928210Y-101160288D01*
X54928213Y-101160292D01*
X55039707Y-101271786D01*
X55039711Y-101271789D01*
X55170814Y-101359390D01*
X55170827Y-101359397D01*
X55316498Y-101419735D01*
X55316503Y-101419737D01*
X55471153Y-101450499D01*
X55471156Y-101450500D01*
X55471158Y-101450500D01*
X55628844Y-101450500D01*
X55628845Y-101450499D01*
X55783497Y-101419737D01*
X55929179Y-101359394D01*
X56060289Y-101271789D01*
X56171789Y-101160289D01*
X56259394Y-101029179D01*
X56319737Y-100883497D01*
X56350500Y-100728842D01*
X56350500Y-100571158D01*
X56350500Y-100571155D01*
X56350499Y-100571153D01*
X56332472Y-100480527D01*
X56319737Y-100416503D01*
X56296044Y-100359303D01*
X56259397Y-100270827D01*
X56259390Y-100270814D01*
X56171789Y-100139711D01*
X56171786Y-100139707D01*
X56060292Y-100028213D01*
X56060284Y-100028207D01*
X55929181Y-99940607D01*
X55929180Y-99940606D01*
X55901546Y-99929160D01*
X55847143Y-99885318D01*
X55825079Y-99819024D01*
X55825000Y-99814599D01*
X55825000Y-99296961D01*
X55844685Y-99229922D01*
X55892710Y-99186474D01*
X55905304Y-99180057D01*
X55905316Y-99180051D01*
X56077292Y-99055104D01*
X56227604Y-98904792D01*
X56227606Y-98904788D01*
X56227609Y-98904786D01*
X56352548Y-98732820D01*
X56352549Y-98732819D01*
X56352551Y-98732816D01*
X56449057Y-98543412D01*
X56514746Y-98341243D01*
X56548000Y-98131287D01*
X56548000Y-97668713D01*
X56514746Y-97458757D01*
X56449057Y-97256588D01*
X56423193Y-97205826D01*
X56409097Y-97178160D01*
X56409096Y-97178159D01*
X56382016Y-97125013D01*
X61750000Y-97125013D01*
X61750000Y-97650000D01*
X62695854Y-97650000D01*
X62657370Y-97716657D01*
X62625000Y-97837465D01*
X62625000Y-97962535D01*
X62657370Y-98083343D01*
X62695854Y-98150000D01*
X61750001Y-98150000D01*
X61750001Y-98674986D01*
X61760494Y-98777697D01*
X61815641Y-98944119D01*
X61815643Y-98944124D01*
X61907684Y-99093345D01*
X62031654Y-99217315D01*
X62180875Y-99309356D01*
X62180880Y-99309358D01*
X62347302Y-99364505D01*
X62347309Y-99364506D01*
X62450019Y-99374999D01*
X62849999Y-99374999D01*
X62850000Y-99374998D01*
X62850000Y-98304145D01*
X62916657Y-98342630D01*
X63037465Y-98375000D01*
X63162535Y-98375000D01*
X63283343Y-98342630D01*
X63350000Y-98304145D01*
X63350000Y-99374999D01*
X63749972Y-99374999D01*
X63749986Y-99374998D01*
X63852697Y-99364505D01*
X64019119Y-99309358D01*
X64019124Y-99309356D01*
X64168345Y-99217315D01*
X64292317Y-99093343D01*
X64387815Y-98938516D01*
X64439763Y-98891791D01*
X64508725Y-98880568D01*
X64572808Y-98908412D01*
X64581035Y-98915931D01*
X64720213Y-99055109D01*
X64892179Y-99180048D01*
X64892181Y-99180049D01*
X64892184Y-99180051D01*
X65081588Y-99276557D01*
X65283757Y-99342246D01*
X65493713Y-99375500D01*
X65493714Y-99375500D01*
X65706286Y-99375500D01*
X65706287Y-99375500D01*
X65916243Y-99342246D01*
X66118412Y-99276557D01*
X66307816Y-99180051D01*
X66366431Y-99137465D01*
X66479786Y-99055109D01*
X66479788Y-99055106D01*
X66479792Y-99055104D01*
X66630104Y-98904792D01*
X66749683Y-98740204D01*
X66805011Y-98697540D01*
X66874624Y-98691561D01*
X66936420Y-98724166D01*
X66950313Y-98740199D01*
X67018986Y-98834720D01*
X67069896Y-98904792D01*
X67220213Y-99055109D01*
X67392179Y-99180048D01*
X67392181Y-99180049D01*
X67392184Y-99180051D01*
X67581588Y-99276557D01*
X67783757Y-99342246D01*
X67993713Y-99375500D01*
X67993714Y-99375500D01*
X68206286Y-99375500D01*
X68206287Y-99375500D01*
X68416243Y-99342246D01*
X68618412Y-99276557D01*
X68807816Y-99180051D01*
X68866431Y-99137465D01*
X68979786Y-99055109D01*
X68979788Y-99055106D01*
X68979792Y-99055104D01*
X69066183Y-98968713D01*
X82049500Y-98968713D01*
X82049500Y-99431286D01*
X82074035Y-99586197D01*
X82082754Y-99641243D01*
X82093722Y-99675000D01*
X82148444Y-99843414D01*
X82244951Y-100032820D01*
X82369890Y-100204786D01*
X82520213Y-100355109D01*
X82692179Y-100480048D01*
X82692181Y-100480049D01*
X82692184Y-100480051D01*
X82881588Y-100576557D01*
X83083757Y-100642246D01*
X83293713Y-100675500D01*
X83293714Y-100675500D01*
X83506286Y-100675500D01*
X83506287Y-100675500D01*
X83716243Y-100642246D01*
X83918412Y-100576557D01*
X84107816Y-100480051D01*
X84129789Y-100464086D01*
X84279786Y-100355109D01*
X84279788Y-100355106D01*
X84279792Y-100355104D01*
X84430104Y-100204792D01*
X84549683Y-100040204D01*
X84605011Y-99997540D01*
X84674624Y-99991561D01*
X84736420Y-100024166D01*
X84750313Y-100040199D01*
X84853661Y-100182446D01*
X84869896Y-100204792D01*
X85020213Y-100355109D01*
X85192179Y-100480048D01*
X85192181Y-100480049D01*
X85192184Y-100480051D01*
X85381588Y-100576557D01*
X85583757Y-100642246D01*
X85793713Y-100675500D01*
X85793714Y-100675500D01*
X86006286Y-100675500D01*
X86006287Y-100675500D01*
X86216243Y-100642246D01*
X86418412Y-100576557D01*
X86607816Y-100480051D01*
X86629789Y-100464086D01*
X86779786Y-100355109D01*
X86779788Y-100355106D01*
X86779792Y-100355104D01*
X86930104Y-100204792D01*
X87049683Y-100040204D01*
X87105011Y-99997540D01*
X87174624Y-99991561D01*
X87236420Y-100024166D01*
X87250313Y-100040199D01*
X87353661Y-100182446D01*
X87369896Y-100204792D01*
X87520213Y-100355109D01*
X87692179Y-100480048D01*
X87692181Y-100480049D01*
X87692184Y-100480051D01*
X87881588Y-100576557D01*
X88083757Y-100642246D01*
X88293713Y-100675500D01*
X88293714Y-100675500D01*
X88506286Y-100675500D01*
X88506287Y-100675500D01*
X88716243Y-100642246D01*
X88918412Y-100576557D01*
X89107816Y-100480051D01*
X89129789Y-100464086D01*
X89279786Y-100355109D01*
X89279788Y-100355106D01*
X89279792Y-100355104D01*
X89430104Y-100204792D01*
X89549683Y-100040204D01*
X89605011Y-99997540D01*
X89674624Y-99991561D01*
X89736420Y-100024166D01*
X89750313Y-100040199D01*
X89853661Y-100182446D01*
X89869896Y-100204792D01*
X90020213Y-100355109D01*
X90192179Y-100480048D01*
X90192181Y-100480049D01*
X90192184Y-100480051D01*
X90381588Y-100576557D01*
X90583757Y-100642246D01*
X90793713Y-100675500D01*
X90793714Y-100675500D01*
X91006286Y-100675500D01*
X91006287Y-100675500D01*
X91216243Y-100642246D01*
X91418412Y-100576557D01*
X91607816Y-100480051D01*
X91695290Y-100416498D01*
X91779784Y-100355110D01*
X91779784Y-100355109D01*
X91779792Y-100355104D01*
X91918967Y-100215928D01*
X91980286Y-100182446D01*
X92049978Y-100187430D01*
X92105912Y-100229301D01*
X92112184Y-100238515D01*
X92207684Y-100393345D01*
X92331654Y-100517315D01*
X92480875Y-100609356D01*
X92480880Y-100609358D01*
X92647302Y-100664505D01*
X92647309Y-100664506D01*
X92750019Y-100674999D01*
X93149999Y-100674999D01*
X93150000Y-100674998D01*
X93150000Y-99604145D01*
X93216657Y-99642630D01*
X93337465Y-99675000D01*
X93462535Y-99675000D01*
X93583343Y-99642630D01*
X93650000Y-99604145D01*
X93650000Y-100674999D01*
X94049972Y-100674999D01*
X94049986Y-100674998D01*
X94152697Y-100664505D01*
X94319119Y-100609358D01*
X94319124Y-100609356D01*
X94468345Y-100517315D01*
X94508521Y-100477140D01*
X94592315Y-100393345D01*
X94684356Y-100244124D01*
X94684358Y-100244119D01*
X94739505Y-100077697D01*
X94739506Y-100077690D01*
X94749999Y-99974986D01*
X94750000Y-99974973D01*
X94750000Y-99450000D01*
X93804146Y-99450000D01*
X93842630Y-99383343D01*
X93875000Y-99262535D01*
X93875000Y-99137465D01*
X93842630Y-99016657D01*
X93804146Y-98950000D01*
X94749999Y-98950000D01*
X94749999Y-98425028D01*
X94749998Y-98425013D01*
X94739505Y-98322302D01*
X94684358Y-98155880D01*
X94684356Y-98155875D01*
X94592315Y-98006654D01*
X94468345Y-97882684D01*
X94319124Y-97790643D01*
X94319119Y-97790641D01*
X94152697Y-97735494D01*
X94152690Y-97735493D01*
X94049986Y-97725000D01*
X93650000Y-97725000D01*
X93650000Y-98795854D01*
X93583343Y-98757370D01*
X93462535Y-98725000D01*
X93337465Y-98725000D01*
X93216657Y-98757370D01*
X93150000Y-98795854D01*
X93150000Y-97725000D01*
X92750028Y-97725000D01*
X92750012Y-97725001D01*
X92647302Y-97735494D01*
X92480880Y-97790641D01*
X92480875Y-97790643D01*
X92331654Y-97882684D01*
X92207683Y-98006655D01*
X92207680Y-98006659D01*
X92112183Y-98161484D01*
X92060235Y-98208209D01*
X91991273Y-98219430D01*
X91927191Y-98191587D01*
X91918964Y-98184068D01*
X91779786Y-98044890D01*
X91607820Y-97919951D01*
X91418414Y-97823444D01*
X91418413Y-97823443D01*
X91418412Y-97823443D01*
X91216243Y-97757754D01*
X91216241Y-97757753D01*
X91216240Y-97757753D01*
X91054957Y-97732208D01*
X91006287Y-97724500D01*
X90793713Y-97724500D01*
X90745042Y-97732208D01*
X90583760Y-97757753D01*
X90381585Y-97823444D01*
X90192179Y-97919951D01*
X90020213Y-98044890D01*
X89869894Y-98195209D01*
X89869890Y-98195214D01*
X89750318Y-98359793D01*
X89694989Y-98402459D01*
X89625375Y-98408438D01*
X89563580Y-98375833D01*
X89549682Y-98359793D01*
X89430109Y-98195214D01*
X89430105Y-98195209D01*
X89279786Y-98044890D01*
X89107820Y-97919951D01*
X88918414Y-97823444D01*
X88918413Y-97823443D01*
X88918412Y-97823443D01*
X88716243Y-97757754D01*
X88716241Y-97757753D01*
X88716240Y-97757753D01*
X88554957Y-97732208D01*
X88506287Y-97724500D01*
X88293713Y-97724500D01*
X88245042Y-97732208D01*
X88083760Y-97757753D01*
X87881585Y-97823444D01*
X87692179Y-97919951D01*
X87520213Y-98044890D01*
X87369894Y-98195209D01*
X87369890Y-98195214D01*
X87250318Y-98359793D01*
X87194989Y-98402459D01*
X87125375Y-98408438D01*
X87063580Y-98375833D01*
X87049682Y-98359793D01*
X86930109Y-98195214D01*
X86930105Y-98195209D01*
X86779786Y-98044890D01*
X86607820Y-97919951D01*
X86418414Y-97823444D01*
X86418413Y-97823443D01*
X86418412Y-97823443D01*
X86216243Y-97757754D01*
X86216241Y-97757753D01*
X86216240Y-97757753D01*
X86054957Y-97732208D01*
X86006287Y-97724500D01*
X85793713Y-97724500D01*
X85745042Y-97732208D01*
X85583760Y-97757753D01*
X85381585Y-97823444D01*
X85192179Y-97919951D01*
X85020213Y-98044890D01*
X84869894Y-98195209D01*
X84869890Y-98195214D01*
X84750318Y-98359793D01*
X84694989Y-98402459D01*
X84625375Y-98408438D01*
X84563580Y-98375833D01*
X84549682Y-98359793D01*
X84430109Y-98195214D01*
X84430105Y-98195209D01*
X84279786Y-98044890D01*
X84107820Y-97919951D01*
X83918414Y-97823444D01*
X83918413Y-97823443D01*
X83918412Y-97823443D01*
X83716243Y-97757754D01*
X83716241Y-97757753D01*
X83716240Y-97757753D01*
X83554957Y-97732208D01*
X83506287Y-97724500D01*
X83293713Y-97724500D01*
X83245042Y-97732208D01*
X83083760Y-97757753D01*
X82881585Y-97823444D01*
X82692179Y-97919951D01*
X82520213Y-98044890D01*
X82369890Y-98195213D01*
X82244951Y-98367179D01*
X82148444Y-98556585D01*
X82082753Y-98758760D01*
X82049500Y-98968713D01*
X69066183Y-98968713D01*
X69130104Y-98904792D01*
X69255051Y-98732816D01*
X69351557Y-98543412D01*
X69417246Y-98341243D01*
X69450500Y-98131287D01*
X69450500Y-97668713D01*
X69417246Y-97458757D01*
X69351557Y-97256588D01*
X69255051Y-97067184D01*
X69255049Y-97067180D01*
X69130109Y-96895213D01*
X68979786Y-96744890D01*
X68807820Y-96619951D01*
X68618414Y-96523444D01*
X68618413Y-96523443D01*
X68618412Y-96523443D01*
X68416243Y-96457754D01*
X68416241Y-96457753D01*
X68416240Y-96457753D01*
X68254957Y-96432208D01*
X68206287Y-96424500D01*
X67993713Y-96424500D01*
X67945042Y-96432208D01*
X67783760Y-96457753D01*
X67581585Y-96523444D01*
X67392179Y-96619951D01*
X67220213Y-96744890D01*
X67069894Y-96895209D01*
X67069890Y-96895214D01*
X66950318Y-97059793D01*
X66894989Y-97102459D01*
X66825375Y-97108438D01*
X66763580Y-97075833D01*
X66749682Y-97059793D01*
X66630109Y-96895214D01*
X66630105Y-96895209D01*
X66479786Y-96744890D01*
X66307820Y-96619951D01*
X66118414Y-96523444D01*
X66118413Y-96523443D01*
X66118412Y-96523443D01*
X65916243Y-96457754D01*
X65916241Y-96457753D01*
X65916240Y-96457753D01*
X65754957Y-96432208D01*
X65706287Y-96424500D01*
X65493713Y-96424500D01*
X65445042Y-96432208D01*
X65283760Y-96457753D01*
X65081585Y-96523444D01*
X64892179Y-96619951D01*
X64720215Y-96744889D01*
X64581035Y-96884069D01*
X64519712Y-96917553D01*
X64450020Y-96912569D01*
X64394087Y-96870697D01*
X64387815Y-96861484D01*
X64292315Y-96706654D01*
X64168345Y-96582684D01*
X64019124Y-96490643D01*
X64019119Y-96490641D01*
X63852697Y-96435494D01*
X63852690Y-96435493D01*
X63749986Y-96425000D01*
X63350000Y-96425000D01*
X63350000Y-97495854D01*
X63283343Y-97457370D01*
X63162535Y-97425000D01*
X63037465Y-97425000D01*
X62916657Y-97457370D01*
X62850000Y-97495854D01*
X62850000Y-96425000D01*
X62450028Y-96425000D01*
X62450012Y-96425001D01*
X62347302Y-96435494D01*
X62180880Y-96490641D01*
X62180875Y-96490643D01*
X62031654Y-96582684D01*
X61907684Y-96706654D01*
X61815643Y-96855875D01*
X61815641Y-96855880D01*
X61760494Y-97022302D01*
X61760493Y-97022309D01*
X61750000Y-97125013D01*
X56382016Y-97125013D01*
X56370524Y-97102459D01*
X56352551Y-97067184D01*
X56319685Y-97021947D01*
X56227609Y-96895213D01*
X56077286Y-96744890D01*
X55905320Y-96619951D01*
X55715914Y-96523444D01*
X55715913Y-96523443D01*
X55715912Y-96523443D01*
X55513743Y-96457754D01*
X55513741Y-96457753D01*
X55513740Y-96457753D01*
X55352457Y-96432208D01*
X55303787Y-96424500D01*
X55091213Y-96424500D01*
X55042542Y-96432208D01*
X54881260Y-96457753D01*
X54679085Y-96523444D01*
X54489679Y-96619951D01*
X54317713Y-96744890D01*
X54167394Y-96895209D01*
X54167390Y-96895214D01*
X54047818Y-97059793D01*
X53992489Y-97102459D01*
X53922875Y-97108438D01*
X53861080Y-97075833D01*
X53847182Y-97059793D01*
X53727609Y-96895214D01*
X53727605Y-96895209D01*
X53577286Y-96744890D01*
X53405320Y-96619951D01*
X53215914Y-96523444D01*
X53215913Y-96523443D01*
X53215912Y-96523443D01*
X53013743Y-96457754D01*
X53013741Y-96457753D01*
X53013740Y-96457753D01*
X52852457Y-96432208D01*
X52803787Y-96424500D01*
X52591213Y-96424500D01*
X52542542Y-96432208D01*
X52381260Y-96457753D01*
X52179085Y-96523444D01*
X51989679Y-96619951D01*
X51817715Y-96744889D01*
X51678535Y-96884069D01*
X51617212Y-96917553D01*
X51547520Y-96912569D01*
X51491587Y-96870697D01*
X51485315Y-96861484D01*
X51389815Y-96706654D01*
X51265845Y-96582684D01*
X51116624Y-96490643D01*
X51116619Y-96490641D01*
X50950197Y-96435494D01*
X50950190Y-96435493D01*
X50847486Y-96425000D01*
X50447500Y-96425000D01*
X50447500Y-97495854D01*
X50380843Y-97457370D01*
X50260035Y-97425000D01*
X50134965Y-97425000D01*
X50014157Y-97457370D01*
X49947500Y-97495854D01*
X49947500Y-96425000D01*
X49547528Y-96425000D01*
X49547512Y-96425001D01*
X49444802Y-96435494D01*
X49278380Y-96490641D01*
X49278375Y-96490643D01*
X49129154Y-96582684D01*
X49005184Y-96706654D01*
X48913143Y-96855875D01*
X48913141Y-96855880D01*
X48857994Y-97022302D01*
X48857993Y-97022309D01*
X48847500Y-97125013D01*
X45614816Y-97125013D01*
X45628180Y-91285258D01*
X54949500Y-91285258D01*
X54949500Y-91514741D01*
X54966441Y-91643412D01*
X54979452Y-91742238D01*
X55015774Y-91877795D01*
X55038842Y-91963887D01*
X55126650Y-92175876D01*
X55126657Y-92175890D01*
X55241392Y-92374617D01*
X55381081Y-92556661D01*
X55381089Y-92556670D01*
X55543330Y-92718911D01*
X55543338Y-92718918D01*
X55725382Y-92858607D01*
X55725385Y-92858608D01*
X55725388Y-92858611D01*
X55924112Y-92973344D01*
X55924117Y-92973346D01*
X55924123Y-92973349D01*
X56015480Y-93011190D01*
X56136113Y-93061158D01*
X56357762Y-93120548D01*
X56585266Y-93150500D01*
X56585273Y-93150500D01*
X56814727Y-93150500D01*
X56814734Y-93150500D01*
X57042238Y-93120548D01*
X57263887Y-93061158D01*
X57475888Y-92973344D01*
X57674612Y-92858611D01*
X57856661Y-92718919D01*
X57856665Y-92718914D01*
X57856670Y-92718911D01*
X58018911Y-92556670D01*
X58018914Y-92556665D01*
X58018919Y-92556661D01*
X58158611Y-92374612D01*
X58273344Y-92175888D01*
X58361158Y-91963887D01*
X58420548Y-91742238D01*
X58450500Y-91514734D01*
X58450500Y-91285266D01*
X58450499Y-91285258D01*
X70149500Y-91285258D01*
X70149500Y-91514741D01*
X70166441Y-91643412D01*
X70179452Y-91742238D01*
X70215774Y-91877795D01*
X70238842Y-91963887D01*
X70326650Y-92175876D01*
X70326657Y-92175890D01*
X70441392Y-92374617D01*
X70581081Y-92556661D01*
X70581089Y-92556670D01*
X70743330Y-92718911D01*
X70743338Y-92718918D01*
X70925382Y-92858607D01*
X70925385Y-92858608D01*
X70925388Y-92858611D01*
X71124112Y-92973344D01*
X71124117Y-92973346D01*
X71124123Y-92973349D01*
X71215480Y-93011190D01*
X71336113Y-93061158D01*
X71557762Y-93120548D01*
X71785266Y-93150500D01*
X71785273Y-93150500D01*
X72014727Y-93150500D01*
X72014734Y-93150500D01*
X72242238Y-93120548D01*
X72463887Y-93061158D01*
X72675888Y-92973344D01*
X72874612Y-92858611D01*
X73056661Y-92718919D01*
X73056665Y-92718914D01*
X73056670Y-92718911D01*
X73218911Y-92556670D01*
X73218914Y-92556665D01*
X73218919Y-92556661D01*
X73358611Y-92374612D01*
X73473344Y-92175888D01*
X73561158Y-91963887D01*
X73620548Y-91742238D01*
X73650500Y-91514734D01*
X73650500Y-91285266D01*
X73620548Y-91057762D01*
X73561158Y-90836113D01*
X73533240Y-90768713D01*
X83149500Y-90768713D01*
X83149500Y-91231287D01*
X83182754Y-91441243D01*
X83196649Y-91484008D01*
X83248444Y-91643414D01*
X83344951Y-91832820D01*
X83469890Y-92004786D01*
X83620213Y-92155109D01*
X83792179Y-92280048D01*
X83792181Y-92280049D01*
X83792184Y-92280051D01*
X83981588Y-92376557D01*
X84183757Y-92442246D01*
X84393713Y-92475500D01*
X84393714Y-92475500D01*
X84606286Y-92475500D01*
X84606287Y-92475500D01*
X84816243Y-92442246D01*
X85018412Y-92376557D01*
X85207816Y-92280051D01*
X85229789Y-92264086D01*
X85379786Y-92155109D01*
X85379788Y-92155106D01*
X85379792Y-92155104D01*
X85530104Y-92004792D01*
X85649991Y-91839779D01*
X85705320Y-91797115D01*
X85774933Y-91791136D01*
X85836729Y-91823741D01*
X85850627Y-91839781D01*
X85970272Y-92004459D01*
X85970276Y-92004464D01*
X86120535Y-92154723D01*
X86120540Y-92154727D01*
X86292442Y-92279620D01*
X86481782Y-92376095D01*
X86683871Y-92441757D01*
X86750000Y-92452231D01*
X86750000Y-91404145D01*
X86816657Y-91442630D01*
X86937465Y-91475000D01*
X87062535Y-91475000D01*
X87183343Y-91442630D01*
X87250000Y-91404145D01*
X87250000Y-92452230D01*
X87316126Y-92441757D01*
X87316129Y-92441757D01*
X87518217Y-92376095D01*
X87707557Y-92279620D01*
X87879459Y-92154727D01*
X87879464Y-92154723D01*
X88029721Y-92004466D01*
X88149371Y-91839781D01*
X88204701Y-91797115D01*
X88274314Y-91791136D01*
X88336110Y-91823741D01*
X88350008Y-91839781D01*
X88469890Y-92004785D01*
X88469894Y-92004790D01*
X88620213Y-92155109D01*
X88792179Y-92280048D01*
X88792181Y-92280049D01*
X88792184Y-92280051D01*
X88981588Y-92376557D01*
X89183757Y-92442246D01*
X89393713Y-92475500D01*
X89393714Y-92475500D01*
X89606286Y-92475500D01*
X89606287Y-92475500D01*
X89816243Y-92442246D01*
X90018412Y-92376557D01*
X90207816Y-92280051D01*
X90348152Y-92178092D01*
X90379784Y-92155110D01*
X90379784Y-92155109D01*
X90379792Y-92155104D01*
X90518604Y-92016291D01*
X90579923Y-91982809D01*
X90649615Y-91987793D01*
X90705549Y-92029664D01*
X90711821Y-92038878D01*
X90715185Y-92044333D01*
X90715186Y-92044334D01*
X90807288Y-92193656D01*
X90931344Y-92317712D01*
X91080666Y-92409814D01*
X91247203Y-92464999D01*
X91349991Y-92475500D01*
X92650008Y-92475499D01*
X92752797Y-92464999D01*
X92919334Y-92409814D01*
X93068656Y-92317712D01*
X93192712Y-92193656D01*
X93284814Y-92044334D01*
X93339999Y-91877797D01*
X93350500Y-91775009D01*
X93350499Y-90224992D01*
X93348851Y-90208863D01*
X93339999Y-90122203D01*
X93339998Y-90122200D01*
X93331315Y-90095996D01*
X93284814Y-89955666D01*
X93192712Y-89806344D01*
X93068656Y-89682288D01*
X92919334Y-89590186D01*
X92752797Y-89535001D01*
X92752795Y-89535000D01*
X92650010Y-89524500D01*
X91349998Y-89524500D01*
X91349981Y-89524501D01*
X91247203Y-89535000D01*
X91247200Y-89535001D01*
X91080668Y-89590185D01*
X91080663Y-89590187D01*
X90931342Y-89682289D01*
X90807289Y-89806342D01*
X90711821Y-89961121D01*
X90659873Y-90007845D01*
X90590910Y-90019068D01*
X90526828Y-89991224D01*
X90518601Y-89983705D01*
X90379786Y-89844890D01*
X90207820Y-89719951D01*
X90018414Y-89623444D01*
X90018413Y-89623443D01*
X90018412Y-89623443D01*
X89816243Y-89557754D01*
X89816241Y-89557753D01*
X89816240Y-89557753D01*
X89654957Y-89532208D01*
X89606287Y-89524500D01*
X89393713Y-89524500D01*
X89345042Y-89532208D01*
X89183760Y-89557753D01*
X88981585Y-89623444D01*
X88792179Y-89719951D01*
X88620213Y-89844890D01*
X88469894Y-89995209D01*
X88469890Y-89995214D01*
X88350008Y-90160218D01*
X88294678Y-90202884D01*
X88225065Y-90208863D01*
X88163270Y-90176257D01*
X88149372Y-90160218D01*
X88029727Y-89995540D01*
X88029723Y-89995535D01*
X87879464Y-89845276D01*
X87879459Y-89845272D01*
X87707557Y-89720379D01*
X87518215Y-89623903D01*
X87316124Y-89558241D01*
X87250000Y-89547768D01*
X87250000Y-90595854D01*
X87183343Y-90557370D01*
X87062535Y-90525000D01*
X86937465Y-90525000D01*
X86816657Y-90557370D01*
X86750000Y-90595854D01*
X86750000Y-89547768D01*
X86749999Y-89547768D01*
X86683875Y-89558241D01*
X86481784Y-89623903D01*
X86292442Y-89720379D01*
X86120540Y-89845272D01*
X86120535Y-89845276D01*
X85970276Y-89995535D01*
X85970272Y-89995540D01*
X85850627Y-90160218D01*
X85795297Y-90202884D01*
X85725684Y-90208863D01*
X85663889Y-90176257D01*
X85649991Y-90160218D01*
X85530109Y-89995214D01*
X85530105Y-89995209D01*
X85379786Y-89844890D01*
X85207820Y-89719951D01*
X85018414Y-89623444D01*
X85018413Y-89623443D01*
X85018412Y-89623443D01*
X84816243Y-89557754D01*
X84816241Y-89557753D01*
X84816240Y-89557753D01*
X84654957Y-89532208D01*
X84606287Y-89524500D01*
X84393713Y-89524500D01*
X84345042Y-89532208D01*
X84183760Y-89557753D01*
X83981585Y-89623444D01*
X83792179Y-89719951D01*
X83620213Y-89844890D01*
X83469890Y-89995213D01*
X83344951Y-90167179D01*
X83248444Y-90356585D01*
X83182753Y-90558760D01*
X83166003Y-90664515D01*
X83149500Y-90768713D01*
X73533240Y-90768713D01*
X73490081Y-90664519D01*
X73473349Y-90624123D01*
X73473346Y-90624117D01*
X73473344Y-90624112D01*
X73358611Y-90425388D01*
X73358608Y-90425385D01*
X73358607Y-90425382D01*
X73218918Y-90243338D01*
X73218911Y-90243330D01*
X73056670Y-90081089D01*
X73056661Y-90081081D01*
X72874617Y-89941392D01*
X72675890Y-89826657D01*
X72675876Y-89826650D01*
X72463887Y-89738842D01*
X72394981Y-89720379D01*
X72242238Y-89679452D01*
X72204215Y-89674446D01*
X72014741Y-89649500D01*
X72014734Y-89649500D01*
X71785266Y-89649500D01*
X71785258Y-89649500D01*
X71568715Y-89678009D01*
X71557762Y-89679452D01*
X71464076Y-89704554D01*
X71336112Y-89738842D01*
X71124123Y-89826650D01*
X71124109Y-89826657D01*
X70925382Y-89941392D01*
X70743338Y-90081081D01*
X70581081Y-90243338D01*
X70441392Y-90425382D01*
X70326657Y-90624109D01*
X70326650Y-90624123D01*
X70238842Y-90836112D01*
X70179453Y-91057759D01*
X70179451Y-91057770D01*
X70149500Y-91285258D01*
X58450499Y-91285258D01*
X58420548Y-91057762D01*
X58361158Y-90836113D01*
X58290081Y-90664519D01*
X58273349Y-90624123D01*
X58273346Y-90624117D01*
X58273344Y-90624112D01*
X58158611Y-90425388D01*
X58158608Y-90425385D01*
X58158607Y-90425382D01*
X58018918Y-90243338D01*
X58018911Y-90243330D01*
X57856670Y-90081089D01*
X57856661Y-90081081D01*
X57674617Y-89941392D01*
X57475890Y-89826657D01*
X57475876Y-89826650D01*
X57263887Y-89738842D01*
X57194981Y-89720379D01*
X57042238Y-89679452D01*
X57004215Y-89674446D01*
X56814741Y-89649500D01*
X56814734Y-89649500D01*
X56585266Y-89649500D01*
X56585258Y-89649500D01*
X56368715Y-89678009D01*
X56357762Y-89679452D01*
X56264076Y-89704554D01*
X56136112Y-89738842D01*
X55924123Y-89826650D01*
X55924109Y-89826657D01*
X55725382Y-89941392D01*
X55543338Y-90081081D01*
X55381081Y-90243338D01*
X55241392Y-90425382D01*
X55126657Y-90624109D01*
X55126650Y-90624123D01*
X55038842Y-90836112D01*
X54979453Y-91057759D01*
X54979451Y-91057770D01*
X54949500Y-91285258D01*
X45628180Y-91285258D01*
X45645122Y-83881585D01*
X45656865Y-78749983D01*
X49749500Y-78749983D01*
X49749500Y-80050001D01*
X49749501Y-80050018D01*
X49760000Y-80152796D01*
X49760001Y-80152799D01*
X49815185Y-80319331D01*
X49815187Y-80319336D01*
X49826398Y-80337512D01*
X49907288Y-80468656D01*
X50031344Y-80592712D01*
X50087099Y-80627102D01*
X50186558Y-80688448D01*
X50233283Y-80740396D01*
X50244506Y-80809358D01*
X50216663Y-80873441D01*
X50209144Y-80881668D01*
X50070271Y-81020541D01*
X49945379Y-81192442D01*
X49848904Y-81381782D01*
X49783242Y-81583870D01*
X49783242Y-81583873D01*
X49772769Y-81650000D01*
X50820854Y-81650000D01*
X50782370Y-81716657D01*
X50750000Y-81837465D01*
X50750000Y-81962535D01*
X50782370Y-82083343D01*
X50820854Y-82150000D01*
X49772769Y-82150000D01*
X49783242Y-82216126D01*
X49783242Y-82216129D01*
X49848904Y-82418217D01*
X49945379Y-82607557D01*
X50070272Y-82779459D01*
X50070276Y-82779464D01*
X50220535Y-82929723D01*
X50220540Y-82929727D01*
X50385218Y-83049372D01*
X50427884Y-83104701D01*
X50433863Y-83174315D01*
X50401258Y-83236110D01*
X50385218Y-83250008D01*
X50220214Y-83369890D01*
X50220209Y-83369894D01*
X50069890Y-83520213D01*
X49944951Y-83692179D01*
X49848444Y-83881585D01*
X49782753Y-84083760D01*
X49749500Y-84293713D01*
X49749500Y-84506287D01*
X49782754Y-84716243D01*
X49809159Y-84797510D01*
X49848444Y-84918414D01*
X49944951Y-85107820D01*
X50069890Y-85279786D01*
X50220213Y-85430109D01*
X50392179Y-85555048D01*
X50392181Y-85555049D01*
X50392184Y-85555051D01*
X50581588Y-85651557D01*
X50783757Y-85717246D01*
X50993713Y-85750500D01*
X50993714Y-85750500D01*
X51456286Y-85750500D01*
X51456287Y-85750500D01*
X51666243Y-85717246D01*
X51868412Y-85651557D01*
X52057816Y-85555051D01*
X52079789Y-85539086D01*
X52229786Y-85430109D01*
X52229788Y-85430106D01*
X52229792Y-85430104D01*
X52380104Y-85279792D01*
X52380106Y-85279788D01*
X52380109Y-85279786D01*
X52505048Y-85107820D01*
X52505047Y-85107820D01*
X52505051Y-85107816D01*
X52601557Y-84918412D01*
X52667246Y-84716243D01*
X52700500Y-84506287D01*
X52700500Y-84293713D01*
X52667246Y-84083757D01*
X52601557Y-83881588D01*
X52505051Y-83692184D01*
X52380104Y-83520208D01*
X52229792Y-83369896D01*
X52229790Y-83369894D01*
X52229785Y-83369890D01*
X52064781Y-83250008D01*
X52022115Y-83194678D01*
X52016136Y-83125065D01*
X52048741Y-83063270D01*
X52064781Y-83049371D01*
X52229466Y-82929721D01*
X52379723Y-82779464D01*
X52379727Y-82779459D01*
X52504620Y-82607557D01*
X52601095Y-82418217D01*
X52666757Y-82216129D01*
X52666757Y-82216126D01*
X52677231Y-82150000D01*
X51629146Y-82150000D01*
X51666497Y-82085305D01*
X54950000Y-82085305D01*
X54950000Y-82314694D01*
X54950001Y-82314710D01*
X54979942Y-82542137D01*
X55039318Y-82763730D01*
X55127102Y-82975659D01*
X55127106Y-82975669D01*
X55241799Y-83174324D01*
X55241805Y-83174331D01*
X55298381Y-83248064D01*
X56022421Y-82524024D01*
X56035359Y-82555258D01*
X56117437Y-82678097D01*
X56221903Y-82782563D01*
X56344742Y-82864641D01*
X56375974Y-82877578D01*
X55651934Y-83601617D01*
X55651934Y-83601618D01*
X55725666Y-83658194D01*
X55924330Y-83772893D01*
X55924340Y-83772897D01*
X56136269Y-83860681D01*
X56357862Y-83920057D01*
X56585289Y-83949998D01*
X56585306Y-83950000D01*
X56814694Y-83950000D01*
X56814710Y-83949998D01*
X57042137Y-83920057D01*
X57263730Y-83860681D01*
X57475659Y-83772897D01*
X57475668Y-83772893D01*
X57674327Y-83658197D01*
X57674334Y-83658192D01*
X57748064Y-83601617D01*
X57024025Y-82877578D01*
X57055258Y-82864641D01*
X57178097Y-82782563D01*
X57282563Y-82678097D01*
X57364641Y-82555258D01*
X57377578Y-82524025D01*
X58101617Y-83248064D01*
X58158192Y-83174334D01*
X58158197Y-83174327D01*
X58272893Y-82975668D01*
X58272897Y-82975659D01*
X58360681Y-82763730D01*
X58420057Y-82542137D01*
X58449998Y-82314710D01*
X58450000Y-82314694D01*
X58450000Y-82085305D01*
X70150000Y-82085305D01*
X70150000Y-82314694D01*
X70150001Y-82314710D01*
X70179942Y-82542137D01*
X70239318Y-82763730D01*
X70327102Y-82975659D01*
X70327106Y-82975669D01*
X70441799Y-83174324D01*
X70441805Y-83174331D01*
X70498381Y-83248064D01*
X71222421Y-82524024D01*
X71235359Y-82555258D01*
X71317437Y-82678097D01*
X71421903Y-82782563D01*
X71544742Y-82864641D01*
X71575974Y-82877578D01*
X70851934Y-83601617D01*
X70851934Y-83601618D01*
X70925666Y-83658194D01*
X71124330Y-83772893D01*
X71124340Y-83772897D01*
X71336269Y-83860681D01*
X71557862Y-83920057D01*
X71785289Y-83949998D01*
X71785306Y-83950000D01*
X72014694Y-83950000D01*
X72014710Y-83949998D01*
X72242137Y-83920057D01*
X72463730Y-83860681D01*
X72675659Y-83772897D01*
X72675668Y-83772893D01*
X72874327Y-83658197D01*
X72874334Y-83658192D01*
X72948064Y-83601617D01*
X72224025Y-82877578D01*
X72255258Y-82864641D01*
X72378097Y-82782563D01*
X72482563Y-82678097D01*
X72564641Y-82555258D01*
X72577578Y-82524025D01*
X73301617Y-83248064D01*
X73358192Y-83174334D01*
X73358197Y-83174327D01*
X73472893Y-82975668D01*
X73472897Y-82975659D01*
X73560681Y-82763730D01*
X73620057Y-82542137D01*
X73649998Y-82314710D01*
X73650000Y-82314694D01*
X73650000Y-82085305D01*
X73649999Y-82085291D01*
X73629719Y-81931252D01*
X73629719Y-81931251D01*
X73628390Y-81921158D01*
X77499500Y-81921158D01*
X77499500Y-81928484D01*
X77499500Y-82078846D01*
X77530261Y-82233489D01*
X77530264Y-82233501D01*
X77590602Y-82379172D01*
X77590609Y-82379185D01*
X77678210Y-82510288D01*
X77678213Y-82510292D01*
X77789707Y-82621786D01*
X77789711Y-82621789D01*
X77920814Y-82709390D01*
X77920827Y-82709397D01*
X78066498Y-82769735D01*
X78066503Y-82769737D01*
X78221153Y-82800499D01*
X78221156Y-82800500D01*
X78221158Y-82800500D01*
X78378844Y-82800500D01*
X78378845Y-82800499D01*
X78533497Y-82769737D01*
X78679179Y-82709394D01*
X78810289Y-82621789D01*
X78921789Y-82510289D01*
X79009394Y-82379179D01*
X79040233Y-82304726D01*
X79084070Y-82250326D01*
X79150364Y-82228260D01*
X79218063Y-82245538D01*
X79242473Y-82264500D01*
X79402490Y-82424517D01*
X79437127Y-82449683D01*
X79479792Y-82505013D01*
X79485771Y-82574626D01*
X79453165Y-82636421D01*
X79437130Y-82650315D01*
X79419365Y-82663222D01*
X79402488Y-82675484D01*
X79235485Y-82842487D01*
X79235485Y-82842488D01*
X79235483Y-82842490D01*
X79210039Y-82877511D01*
X79096657Y-83033566D01*
X78989433Y-83244003D01*
X78916446Y-83468631D01*
X78879500Y-83701902D01*
X78879500Y-83938097D01*
X78916446Y-84171368D01*
X78989433Y-84395996D01*
X79096657Y-84606433D01*
X79235483Y-84797510D01*
X79402490Y-84964517D01*
X79593567Y-85103343D01*
X79602354Y-85107820D01*
X79804003Y-85210566D01*
X79804005Y-85210566D01*
X79804008Y-85210568D01*
X79924412Y-85249689D01*
X80028631Y-85283553D01*
X80261903Y-85320500D01*
X80261908Y-85320500D01*
X80498097Y-85320500D01*
X80731368Y-85283553D01*
X80742943Y-85279792D01*
X80955992Y-85210568D01*
X81166433Y-85103343D01*
X81357510Y-84964517D01*
X81524517Y-84797510D01*
X81663343Y-84606433D01*
X81770568Y-84395992D01*
X81843553Y-84171368D01*
X81857429Y-84083757D01*
X81880500Y-83938097D01*
X81880500Y-83701902D01*
X81843553Y-83468631D01*
X81787294Y-83295485D01*
X81770568Y-83244008D01*
X81770566Y-83244005D01*
X81770566Y-83244003D01*
X81709937Y-83125013D01*
X81663343Y-83033567D01*
X81524517Y-82842490D01*
X81357510Y-82675483D01*
X81322872Y-82650317D01*
X81280207Y-82594989D01*
X81274228Y-82525375D01*
X81306833Y-82463580D01*
X81322873Y-82449682D01*
X81357510Y-82424517D01*
X81524517Y-82257510D01*
X81663343Y-82066433D01*
X81770568Y-81855992D01*
X81843553Y-81631368D01*
X81847200Y-81608343D01*
X81880500Y-81398097D01*
X81880500Y-81161902D01*
X94119500Y-81161902D01*
X94119500Y-81398097D01*
X94156446Y-81631368D01*
X94229433Y-81855996D01*
X94336657Y-82066433D01*
X94475483Y-82257510D01*
X94642490Y-82424517D01*
X94677127Y-82449683D01*
X94719792Y-82505013D01*
X94725771Y-82574626D01*
X94693165Y-82636421D01*
X94677130Y-82650315D01*
X94659365Y-82663222D01*
X94642488Y-82675484D01*
X94475485Y-82842487D01*
X94475485Y-82842488D01*
X94475483Y-82842490D01*
X94450039Y-82877511D01*
X94336657Y-83033566D01*
X94229433Y-83244003D01*
X94156446Y-83468631D01*
X94119500Y-83701902D01*
X94119500Y-83938097D01*
X94156446Y-84171368D01*
X94229433Y-84395996D01*
X94336657Y-84606433D01*
X94475483Y-84797510D01*
X94642490Y-84964517D01*
X94833567Y-85103343D01*
X94842354Y-85107820D01*
X95044003Y-85210566D01*
X95044005Y-85210566D01*
X95044008Y-85210568D01*
X95164412Y-85249689D01*
X95268631Y-85283553D01*
X95501903Y-85320500D01*
X95501908Y-85320500D01*
X95738097Y-85320500D01*
X95971368Y-85283553D01*
X95982943Y-85279792D01*
X96195992Y-85210568D01*
X96406433Y-85103343D01*
X96597510Y-84964517D01*
X96764517Y-84797510D01*
X96903343Y-84606433D01*
X97010568Y-84395992D01*
X97083553Y-84171368D01*
X97097429Y-84083757D01*
X97120500Y-83938097D01*
X97120500Y-83701902D01*
X97083553Y-83468631D01*
X97027294Y-83295485D01*
X97010568Y-83244008D01*
X97010566Y-83244005D01*
X97010566Y-83244003D01*
X96949937Y-83125013D01*
X96903343Y-83033567D01*
X96764517Y-82842490D01*
X96597510Y-82675483D01*
X96562872Y-82650317D01*
X96520207Y-82594989D01*
X96514228Y-82525375D01*
X96546833Y-82463580D01*
X96562873Y-82449682D01*
X96597510Y-82424517D01*
X96764517Y-82257510D01*
X96903343Y-82066433D01*
X97010568Y-81855992D01*
X97083553Y-81631368D01*
X97087200Y-81608343D01*
X97120500Y-81398097D01*
X97120500Y-81161902D01*
X97083553Y-80928631D01*
X97027294Y-80755485D01*
X97010568Y-80704008D01*
X97010566Y-80704005D01*
X97010566Y-80704003D01*
X96926654Y-80539318D01*
X96903343Y-80493567D01*
X96764517Y-80302490D01*
X96597510Y-80135483D01*
X96577872Y-80121215D01*
X96535207Y-80065887D01*
X96529228Y-79996273D01*
X96561833Y-79934478D01*
X96577869Y-79920582D01*
X96627510Y-79884517D01*
X96794517Y-79717510D01*
X96933343Y-79526433D01*
X97040568Y-79315992D01*
X97113553Y-79091368D01*
X97126657Y-79008631D01*
X97150500Y-78858097D01*
X97150500Y-78621902D01*
X97113553Y-78388631D01*
X97057294Y-78215485D01*
X97040568Y-78164008D01*
X97040566Y-78164005D01*
X97040566Y-78164003D01*
X96958826Y-78003580D01*
X96933343Y-77953567D01*
X96794517Y-77762490D01*
X96627510Y-77595483D01*
X96592872Y-77570317D01*
X96550207Y-77514989D01*
X96544228Y-77445375D01*
X96576833Y-77383580D01*
X96592873Y-77369682D01*
X96627510Y-77344517D01*
X96794517Y-77177510D01*
X96933343Y-76986433D01*
X97040568Y-76775992D01*
X97113553Y-76551368D01*
X97130663Y-76443339D01*
X97150500Y-76318097D01*
X97150500Y-76081902D01*
X97113553Y-75848631D01*
X97057294Y-75675485D01*
X97040568Y-75624008D01*
X97040566Y-75624005D01*
X97040566Y-75624003D01*
X96958826Y-75463580D01*
X96933343Y-75413567D01*
X96794517Y-75222490D01*
X96627510Y-75055483D01*
X96592872Y-75030317D01*
X96550207Y-74974989D01*
X96544228Y-74905375D01*
X96576833Y-74843580D01*
X96592873Y-74829682D01*
X96627510Y-74804517D01*
X96794517Y-74637510D01*
X96933343Y-74446433D01*
X97040568Y-74235992D01*
X97113553Y-74011368D01*
X97126657Y-73928631D01*
X97150500Y-73778097D01*
X97150500Y-73541902D01*
X97113553Y-73308631D01*
X97057294Y-73135485D01*
X97040568Y-73084008D01*
X97040566Y-73084005D01*
X97040566Y-73084003D01*
X96958826Y-72923580D01*
X96933343Y-72873567D01*
X96794517Y-72682490D01*
X96627510Y-72515483D01*
X96592872Y-72490317D01*
X96550207Y-72434989D01*
X96544228Y-72365375D01*
X96576833Y-72303580D01*
X96592873Y-72289682D01*
X96627510Y-72264517D01*
X96794517Y-72097510D01*
X96933343Y-71906433D01*
X97040568Y-71695992D01*
X97113553Y-71471368D01*
X97132056Y-71354546D01*
X97150500Y-71238097D01*
X97150500Y-71001902D01*
X97113553Y-70768631D01*
X97040566Y-70544003D01*
X96977489Y-70420208D01*
X96933343Y-70333567D01*
X96794517Y-70142490D01*
X96627510Y-69975483D01*
X96592872Y-69950317D01*
X96550207Y-69894989D01*
X96544228Y-69825375D01*
X96576833Y-69763580D01*
X96592873Y-69749682D01*
X96627510Y-69724517D01*
X96794517Y-69557510D01*
X96933343Y-69366433D01*
X97040568Y-69155992D01*
X97113553Y-68931368D01*
X97126639Y-68848746D01*
X97150500Y-68698097D01*
X97150500Y-68461902D01*
X97113553Y-68228631D01*
X97040566Y-68004003D01*
X96970720Y-67866924D01*
X96933343Y-67793567D01*
X96794517Y-67602490D01*
X96627510Y-67435483D01*
X96592872Y-67410317D01*
X96550207Y-67354989D01*
X96544228Y-67285375D01*
X96576833Y-67223580D01*
X96592873Y-67209682D01*
X96627510Y-67184517D01*
X96794517Y-67017510D01*
X96933343Y-66826433D01*
X97040568Y-66615992D01*
X97113553Y-66391368D01*
X97123095Y-66331120D01*
X97150500Y-66158097D01*
X97150500Y-65921902D01*
X97113553Y-65688631D01*
X97040566Y-65464003D01*
X96963778Y-65313299D01*
X96933343Y-65253567D01*
X96794517Y-65062490D01*
X96627510Y-64895483D01*
X96592872Y-64870317D01*
X96550207Y-64814989D01*
X96544228Y-64745375D01*
X96576833Y-64683580D01*
X96592873Y-64669682D01*
X96627510Y-64644517D01*
X96794517Y-64477510D01*
X96933343Y-64286433D01*
X97040568Y-64075992D01*
X97113553Y-63851368D01*
X97117262Y-63827950D01*
X97150500Y-63618097D01*
X97150500Y-63381902D01*
X97113553Y-63148631D01*
X97040566Y-62924003D01*
X96933342Y-62713566D01*
X96794517Y-62522490D01*
X96627510Y-62355483D01*
X96436433Y-62216657D01*
X96225996Y-62109433D01*
X96001368Y-62036446D01*
X95768097Y-61999500D01*
X95768092Y-61999500D01*
X95531908Y-61999500D01*
X95531903Y-61999500D01*
X95298631Y-62036446D01*
X95074003Y-62109433D01*
X94863566Y-62216657D01*
X94754550Y-62295862D01*
X94672490Y-62355483D01*
X94672488Y-62355485D01*
X94672487Y-62355485D01*
X94505485Y-62522487D01*
X94505485Y-62522488D01*
X94505483Y-62522490D01*
X94445862Y-62604550D01*
X94366657Y-62713566D01*
X94259433Y-62924003D01*
X94186446Y-63148631D01*
X94149500Y-63381902D01*
X94149500Y-63618097D01*
X94186446Y-63851368D01*
X94259433Y-64075996D01*
X94322362Y-64199500D01*
X94366657Y-64286433D01*
X94505483Y-64477510D01*
X94672490Y-64644517D01*
X94707127Y-64669683D01*
X94749792Y-64725013D01*
X94755771Y-64794626D01*
X94723165Y-64856421D01*
X94707130Y-64870315D01*
X94696348Y-64878149D01*
X94672488Y-64895484D01*
X94505485Y-65062487D01*
X94505485Y-65062488D01*
X94505483Y-65062490D01*
X94488260Y-65086196D01*
X94366657Y-65253566D01*
X94259433Y-65464003D01*
X94186446Y-65688631D01*
X94149500Y-65921902D01*
X94149500Y-66158097D01*
X94186446Y-66391368D01*
X94259433Y-66615996D01*
X94366519Y-66826163D01*
X94366657Y-66826433D01*
X94505483Y-67017510D01*
X94672490Y-67184517D01*
X94707127Y-67209683D01*
X94749792Y-67265013D01*
X94755771Y-67334626D01*
X94723165Y-67396421D01*
X94707130Y-67410315D01*
X94689365Y-67423222D01*
X94672488Y-67435484D01*
X94505485Y-67602487D01*
X94505485Y-67602488D01*
X94505483Y-67602490D01*
X94489608Y-67624340D01*
X94366657Y-67793566D01*
X94259433Y-68004003D01*
X94186446Y-68228631D01*
X94149500Y-68461902D01*
X94149500Y-68698097D01*
X94186446Y-68931368D01*
X94259433Y-69155996D01*
X94354500Y-69342573D01*
X94366657Y-69366433D01*
X94505483Y-69557510D01*
X94672490Y-69724517D01*
X94707127Y-69749683D01*
X94749792Y-69805013D01*
X94755771Y-69874626D01*
X94723165Y-69936421D01*
X94707130Y-69950315D01*
X94689365Y-69963222D01*
X94672488Y-69975484D01*
X94505485Y-70142487D01*
X94505485Y-70142488D01*
X94505483Y-70142490D01*
X94476569Y-70182287D01*
X94366657Y-70333566D01*
X94259433Y-70544003D01*
X94186446Y-70768631D01*
X94149500Y-71001902D01*
X94149500Y-71238097D01*
X94186446Y-71471368D01*
X94259433Y-71695996D01*
X94354500Y-71882573D01*
X94366657Y-71906433D01*
X94505483Y-72097510D01*
X94672490Y-72264517D01*
X94707127Y-72289683D01*
X94749792Y-72345013D01*
X94755771Y-72414626D01*
X94723165Y-72476421D01*
X94707130Y-72490315D01*
X94689365Y-72503222D01*
X94672488Y-72515484D01*
X94505485Y-72682487D01*
X94505485Y-72682488D01*
X94505483Y-72682490D01*
X94480039Y-72717511D01*
X94366657Y-72873566D01*
X94259433Y-73084003D01*
X94186446Y-73308631D01*
X94149500Y-73541902D01*
X94149500Y-73778097D01*
X94186446Y-74011368D01*
X94259433Y-74235996D01*
X94354500Y-74422573D01*
X94366657Y-74446433D01*
X94505483Y-74637510D01*
X94672490Y-74804517D01*
X94707127Y-74829683D01*
X94749792Y-74885013D01*
X94755771Y-74954626D01*
X94723165Y-75016421D01*
X94707130Y-75030315D01*
X94689365Y-75043222D01*
X94672488Y-75055484D01*
X94505485Y-75222487D01*
X94505485Y-75222488D01*
X94505483Y-75222490D01*
X94480039Y-75257511D01*
X94366657Y-75413566D01*
X94259433Y-75624003D01*
X94186446Y-75848631D01*
X94149500Y-76081902D01*
X94149500Y-76318097D01*
X94186446Y-76551368D01*
X94259433Y-76775996D01*
X94354500Y-76962573D01*
X94366657Y-76986433D01*
X94505483Y-77177510D01*
X94672490Y-77344517D01*
X94707127Y-77369683D01*
X94749792Y-77425013D01*
X94755771Y-77494626D01*
X94723165Y-77556421D01*
X94707130Y-77570315D01*
X94689365Y-77583222D01*
X94672488Y-77595484D01*
X94505485Y-77762487D01*
X94505485Y-77762488D01*
X94505483Y-77762490D01*
X94480039Y-77797511D01*
X94366657Y-77953566D01*
X94259433Y-78164003D01*
X94186446Y-78388631D01*
X94149500Y-78621902D01*
X94149500Y-78858097D01*
X94186446Y-79091368D01*
X94259433Y-79315996D01*
X94354500Y-79502573D01*
X94366657Y-79526433D01*
X94505483Y-79717510D01*
X94672490Y-79884517D01*
X94692126Y-79898783D01*
X94734792Y-79954111D01*
X94740772Y-80023725D01*
X94708166Y-80085520D01*
X94692128Y-80099418D01*
X94642490Y-80135482D01*
X94475485Y-80302487D01*
X94475485Y-80302488D01*
X94475483Y-80302490D01*
X94450039Y-80337511D01*
X94336657Y-80493566D01*
X94229433Y-80704003D01*
X94156446Y-80928631D01*
X94119500Y-81161902D01*
X81880500Y-81161902D01*
X81843553Y-80928631D01*
X81787294Y-80755485D01*
X81770568Y-80704008D01*
X81770566Y-80704005D01*
X81770566Y-80704003D01*
X81686654Y-80539318D01*
X81663343Y-80493567D01*
X81524517Y-80302490D01*
X81357510Y-80135483D01*
X81357506Y-80135480D01*
X81307872Y-80099418D01*
X81265207Y-80044087D01*
X81259229Y-79974474D01*
X81291836Y-79912679D01*
X81307874Y-79898782D01*
X81327510Y-79884517D01*
X81494517Y-79717510D01*
X81633343Y-79526433D01*
X81740568Y-79315992D01*
X81813553Y-79091368D01*
X81826657Y-79008631D01*
X81850500Y-78858097D01*
X81850500Y-78621902D01*
X81813553Y-78388631D01*
X81757294Y-78215485D01*
X81740568Y-78164008D01*
X81740566Y-78164005D01*
X81740566Y-78164003D01*
X81658826Y-78003580D01*
X81633343Y-77953567D01*
X81494517Y-77762490D01*
X81327510Y-77595483D01*
X81292872Y-77570317D01*
X81250207Y-77514989D01*
X81244228Y-77445375D01*
X81276833Y-77383580D01*
X81292873Y-77369682D01*
X81327510Y-77344517D01*
X81494517Y-77177510D01*
X81633343Y-76986433D01*
X81740568Y-76775992D01*
X81813553Y-76551368D01*
X81830663Y-76443339D01*
X81850500Y-76318097D01*
X81850500Y-76081902D01*
X81813553Y-75848631D01*
X81757294Y-75675485D01*
X81740568Y-75624008D01*
X81740566Y-75624005D01*
X81740566Y-75624003D01*
X81658826Y-75463580D01*
X81633343Y-75413567D01*
X81494517Y-75222490D01*
X81327510Y-75055483D01*
X81292872Y-75030317D01*
X81250207Y-74974989D01*
X81244228Y-74905375D01*
X81276833Y-74843580D01*
X81292873Y-74829682D01*
X81327510Y-74804517D01*
X81494517Y-74637510D01*
X81633343Y-74446433D01*
X81740568Y-74235992D01*
X81813553Y-74011368D01*
X81826657Y-73928631D01*
X81850500Y-73778097D01*
X81850500Y-73541902D01*
X81813553Y-73308631D01*
X81757294Y-73135485D01*
X81740568Y-73084008D01*
X81740566Y-73084005D01*
X81740566Y-73084003D01*
X81658826Y-72923580D01*
X81633343Y-72873567D01*
X81494517Y-72682490D01*
X81327510Y-72515483D01*
X81292872Y-72490317D01*
X81250207Y-72434989D01*
X81244228Y-72365375D01*
X81276833Y-72303580D01*
X81292873Y-72289682D01*
X81327510Y-72264517D01*
X81494517Y-72097510D01*
X81633343Y-71906433D01*
X81740568Y-71695992D01*
X81813553Y-71471368D01*
X81832056Y-71354546D01*
X81850500Y-71238097D01*
X81850500Y-71001902D01*
X81813553Y-70768631D01*
X81740566Y-70544003D01*
X81677489Y-70420208D01*
X81633343Y-70333567D01*
X81494517Y-70142490D01*
X81327510Y-69975483D01*
X81292872Y-69950317D01*
X81250207Y-69894989D01*
X81244228Y-69825375D01*
X81276833Y-69763580D01*
X81292873Y-69749682D01*
X81327510Y-69724517D01*
X81494517Y-69557510D01*
X81633343Y-69366433D01*
X81740568Y-69155992D01*
X81813553Y-68931368D01*
X81826639Y-68848746D01*
X81850500Y-68698097D01*
X81850500Y-68461902D01*
X81813553Y-68228631D01*
X81740566Y-68004003D01*
X81670720Y-67866924D01*
X81633343Y-67793567D01*
X81494517Y-67602490D01*
X81327510Y-67435483D01*
X81313988Y-67425659D01*
X81268283Y-67392452D01*
X81225617Y-67337122D01*
X81217550Y-67282404D01*
X81219104Y-67262657D01*
X80479408Y-66522962D01*
X80542993Y-66505925D01*
X80657007Y-66440099D01*
X80750099Y-66347007D01*
X80815925Y-66232993D01*
X80832962Y-66169409D01*
X81572658Y-66909105D01*
X81572658Y-66909104D01*
X81632914Y-66826169D01*
X81632918Y-66826163D01*
X81740102Y-66615802D01*
X81813065Y-66391247D01*
X81850000Y-66158052D01*
X81850000Y-65921947D01*
X81813065Y-65688752D01*
X81740102Y-65464197D01*
X81632914Y-65253828D01*
X81572658Y-65170894D01*
X81572658Y-65170893D01*
X80832962Y-65910590D01*
X80815925Y-65847007D01*
X80750099Y-65732993D01*
X80657007Y-65639901D01*
X80542993Y-65574075D01*
X80479408Y-65557037D01*
X81219105Y-64817340D01*
X81217551Y-64797594D01*
X81231915Y-64729216D01*
X81268284Y-64687547D01*
X81327510Y-64644517D01*
X81494517Y-64477510D01*
X81633343Y-64286433D01*
X81740568Y-64075992D01*
X81813553Y-63851368D01*
X81817262Y-63827950D01*
X81850500Y-63618097D01*
X81850500Y-63381902D01*
X81813553Y-63148631D01*
X81740566Y-62924003D01*
X81633342Y-62713566D01*
X81494517Y-62522490D01*
X81327510Y-62355483D01*
X81136433Y-62216657D01*
X80925996Y-62109433D01*
X80701368Y-62036446D01*
X80468097Y-61999500D01*
X80468092Y-61999500D01*
X80231908Y-61999500D01*
X80231903Y-61999500D01*
X79998631Y-62036446D01*
X79774003Y-62109433D01*
X79563566Y-62216657D01*
X79454550Y-62295862D01*
X79372490Y-62355483D01*
X79372488Y-62355485D01*
X79372487Y-62355485D01*
X79205485Y-62522487D01*
X79205485Y-62522488D01*
X79205483Y-62522490D01*
X79145862Y-62604550D01*
X79066657Y-62713566D01*
X78959433Y-62924003D01*
X78886446Y-63148631D01*
X78849500Y-63381902D01*
X78849500Y-63618097D01*
X78882737Y-63827950D01*
X78873782Y-63897244D01*
X78847945Y-63935029D01*
X77713943Y-65069030D01*
X77713942Y-65069031D01*
X77631372Y-65192607D01*
X77631366Y-65192618D01*
X77574496Y-65329916D01*
X77574493Y-65329926D01*
X77545499Y-65475685D01*
X77545499Y-65630425D01*
X77545500Y-65630446D01*
X77545500Y-81705053D01*
X77544021Y-81712484D01*
X77542628Y-81731584D01*
X77540272Y-81742336D01*
X77530263Y-81766503D01*
X77499500Y-81921158D01*
X73628390Y-81921158D01*
X73620057Y-81857862D01*
X73560681Y-81636269D01*
X73472897Y-81424340D01*
X73472893Y-81424330D01*
X73358194Y-81225666D01*
X73301618Y-81151934D01*
X73301617Y-81151934D01*
X72577577Y-81875973D01*
X72564641Y-81844742D01*
X72482563Y-81721903D01*
X72378097Y-81617437D01*
X72255258Y-81535359D01*
X72224023Y-81522421D01*
X72948064Y-80798381D01*
X72948064Y-80798380D01*
X72874331Y-80741805D01*
X72874324Y-80741799D01*
X72675669Y-80627106D01*
X72675659Y-80627102D01*
X72463730Y-80539318D01*
X72242137Y-80479942D01*
X72014710Y-80450001D01*
X72014694Y-80450000D01*
X71785306Y-80450000D01*
X71785289Y-80450001D01*
X71557862Y-80479942D01*
X71336269Y-80539318D01*
X71124340Y-80627102D01*
X71124330Y-80627106D01*
X70925673Y-80741801D01*
X70925659Y-80741810D01*
X70851934Y-80798380D01*
X71575975Y-81522421D01*
X71544742Y-81535359D01*
X71421903Y-81617437D01*
X71317437Y-81721903D01*
X71235359Y-81844742D01*
X71222421Y-81875974D01*
X70498381Y-81151934D01*
X70498380Y-81151934D01*
X70441810Y-81225659D01*
X70441801Y-81225673D01*
X70327106Y-81424330D01*
X70327102Y-81424340D01*
X70239318Y-81636269D01*
X70179942Y-81857862D01*
X70150001Y-82085289D01*
X70150000Y-82085305D01*
X58450000Y-82085305D01*
X58449998Y-82085289D01*
X58420057Y-81857862D01*
X58360681Y-81636269D01*
X58272897Y-81424340D01*
X58272893Y-81424330D01*
X58158194Y-81225666D01*
X58101618Y-81151934D01*
X58101617Y-81151934D01*
X57377577Y-81875973D01*
X57364641Y-81844742D01*
X57282563Y-81721903D01*
X57178097Y-81617437D01*
X57055258Y-81535359D01*
X57024023Y-81522421D01*
X57748064Y-80798381D01*
X57748064Y-80798380D01*
X57674331Y-80741805D01*
X57674324Y-80741799D01*
X57475669Y-80627106D01*
X57475659Y-80627102D01*
X57263730Y-80539318D01*
X57042137Y-80479942D01*
X56814710Y-80450001D01*
X56814694Y-80450000D01*
X56585306Y-80450000D01*
X56585289Y-80450001D01*
X56357862Y-80479942D01*
X56136269Y-80539318D01*
X55924340Y-80627102D01*
X55924330Y-80627106D01*
X55725673Y-80741801D01*
X55725659Y-80741810D01*
X55651934Y-80798380D01*
X56375975Y-81522421D01*
X56344742Y-81535359D01*
X56221903Y-81617437D01*
X56117437Y-81721903D01*
X56035359Y-81844742D01*
X56022421Y-81875975D01*
X55298380Y-81151934D01*
X55241810Y-81225659D01*
X55241801Y-81225673D01*
X55127106Y-81424330D01*
X55127102Y-81424340D01*
X55039318Y-81636269D01*
X54979942Y-81857862D01*
X54950001Y-82085289D01*
X54950000Y-82085305D01*
X51666497Y-82085305D01*
X51667630Y-82083343D01*
X51700000Y-81962535D01*
X51700000Y-81837465D01*
X51667630Y-81716657D01*
X51629146Y-81650000D01*
X52677231Y-81650000D01*
X52666757Y-81583873D01*
X52666757Y-81583870D01*
X52601095Y-81381782D01*
X52504620Y-81192442D01*
X52379727Y-81020540D01*
X52379723Y-81020535D01*
X52240856Y-80881668D01*
X52207371Y-80820345D01*
X52212355Y-80750653D01*
X52254227Y-80694720D01*
X52263441Y-80688448D01*
X52269331Y-80684814D01*
X52269334Y-80684814D01*
X52418656Y-80592712D01*
X52542712Y-80468656D01*
X52634814Y-80319334D01*
X52689999Y-80152797D01*
X52700500Y-80050009D01*
X52700499Y-78749992D01*
X52700147Y-78746550D01*
X52689999Y-78647203D01*
X52689998Y-78647200D01*
X52665946Y-78574617D01*
X52634814Y-78480666D01*
X52542712Y-78331344D01*
X52418656Y-78207288D01*
X52269334Y-78115186D01*
X52102797Y-78060001D01*
X52102795Y-78060000D01*
X52000010Y-78049500D01*
X50449998Y-78049500D01*
X50449981Y-78049501D01*
X50347203Y-78060000D01*
X50347200Y-78060001D01*
X50180668Y-78115185D01*
X50180663Y-78115187D01*
X50031342Y-78207289D01*
X49907289Y-78331342D01*
X49815187Y-78480663D01*
X49815186Y-78480666D01*
X49760001Y-78647203D01*
X49760001Y-78647204D01*
X49760000Y-78647204D01*
X49749500Y-78749983D01*
X45656865Y-78749983D01*
X45656873Y-78746550D01*
X45659616Y-77547787D01*
X45659759Y-77485258D01*
X54949500Y-77485258D01*
X54949500Y-77714741D01*
X54960398Y-77797512D01*
X54979452Y-77942238D01*
X55025793Y-78115186D01*
X55038842Y-78163887D01*
X55126650Y-78375876D01*
X55126657Y-78375890D01*
X55241392Y-78574617D01*
X55381081Y-78756661D01*
X55381089Y-78756670D01*
X55543330Y-78918911D01*
X55543338Y-78918918D01*
X55725382Y-79058607D01*
X55725385Y-79058608D01*
X55725388Y-79058611D01*
X55924112Y-79173344D01*
X55924117Y-79173346D01*
X55924123Y-79173349D01*
X56015480Y-79211190D01*
X56136113Y-79261158D01*
X56357762Y-79320548D01*
X56585266Y-79350500D01*
X56585273Y-79350500D01*
X56814727Y-79350500D01*
X56814734Y-79350500D01*
X57042238Y-79320548D01*
X57263887Y-79261158D01*
X57475888Y-79173344D01*
X57674612Y-79058611D01*
X57856661Y-78918919D01*
X57856665Y-78918914D01*
X57856670Y-78918911D01*
X58018911Y-78756670D01*
X58018914Y-78756665D01*
X58018919Y-78756661D01*
X58158611Y-78574612D01*
X58273344Y-78375888D01*
X58361158Y-78163887D01*
X58420548Y-77942238D01*
X58450500Y-77714734D01*
X58450500Y-77485266D01*
X58450499Y-77485258D01*
X70149500Y-77485258D01*
X70149500Y-77714741D01*
X70160398Y-77797512D01*
X70179452Y-77942238D01*
X70225793Y-78115186D01*
X70238842Y-78163887D01*
X70326650Y-78375876D01*
X70326657Y-78375890D01*
X70441392Y-78574617D01*
X70581081Y-78756661D01*
X70581089Y-78756670D01*
X70743330Y-78918911D01*
X70743338Y-78918918D01*
X70925382Y-79058607D01*
X70925385Y-79058608D01*
X70925388Y-79058611D01*
X71124112Y-79173344D01*
X71124117Y-79173346D01*
X71124123Y-79173349D01*
X71215480Y-79211190D01*
X71336113Y-79261158D01*
X71557762Y-79320548D01*
X71785266Y-79350500D01*
X71785273Y-79350500D01*
X72014727Y-79350500D01*
X72014734Y-79350500D01*
X72242238Y-79320548D01*
X72463887Y-79261158D01*
X72675888Y-79173344D01*
X72874612Y-79058611D01*
X73056661Y-78918919D01*
X73056665Y-78918914D01*
X73056670Y-78918911D01*
X73218911Y-78756670D01*
X73218914Y-78756665D01*
X73218919Y-78756661D01*
X73358611Y-78574612D01*
X73473344Y-78375888D01*
X73561158Y-78163887D01*
X73620548Y-77942238D01*
X73650500Y-77714734D01*
X73650500Y-77485266D01*
X73620548Y-77257762D01*
X73561158Y-77036113D01*
X73473344Y-76824112D01*
X73358611Y-76625388D01*
X73358608Y-76625385D01*
X73358607Y-76625382D01*
X73218918Y-76443338D01*
X73218911Y-76443330D01*
X73056670Y-76281089D01*
X73056661Y-76281081D01*
X72874617Y-76141392D01*
X72675890Y-76026657D01*
X72675876Y-76026650D01*
X72463887Y-75938842D01*
X72242238Y-75879452D01*
X72204215Y-75874446D01*
X72014741Y-75849500D01*
X72014734Y-75849500D01*
X71785266Y-75849500D01*
X71785258Y-75849500D01*
X71568715Y-75878009D01*
X71557762Y-75879452D01*
X71464076Y-75904554D01*
X71336112Y-75938842D01*
X71124123Y-76026650D01*
X71124109Y-76026657D01*
X70925382Y-76141392D01*
X70743338Y-76281081D01*
X70581081Y-76443338D01*
X70441392Y-76625382D01*
X70326657Y-76824109D01*
X70326650Y-76824123D01*
X70269303Y-76962573D01*
X70238842Y-77036113D01*
X70184692Y-77238208D01*
X70179453Y-77257759D01*
X70179451Y-77257770D01*
X70149500Y-77485258D01*
X58450499Y-77485258D01*
X58420548Y-77257762D01*
X58361158Y-77036113D01*
X58273344Y-76824112D01*
X58158611Y-76625388D01*
X58158608Y-76625385D01*
X58158607Y-76625382D01*
X58018918Y-76443338D01*
X58018911Y-76443330D01*
X57856670Y-76281089D01*
X57856661Y-76281081D01*
X57674617Y-76141392D01*
X57475890Y-76026657D01*
X57475876Y-76026650D01*
X57263887Y-75938842D01*
X57042238Y-75879452D01*
X57004215Y-75874446D01*
X56814741Y-75849500D01*
X56814734Y-75849500D01*
X56585266Y-75849500D01*
X56585258Y-75849500D01*
X56368715Y-75878009D01*
X56357762Y-75879452D01*
X56264076Y-75904554D01*
X56136112Y-75938842D01*
X55924123Y-76026650D01*
X55924109Y-76026657D01*
X55725382Y-76141392D01*
X55543338Y-76281081D01*
X55381081Y-76443338D01*
X55241392Y-76625382D01*
X55126657Y-76824109D01*
X55126650Y-76824123D01*
X55069303Y-76962573D01*
X55038842Y-77036113D01*
X54984692Y-77238208D01*
X54979453Y-77257759D01*
X54979451Y-77257770D01*
X54949500Y-77485258D01*
X45659759Y-77485258D01*
X45674156Y-71193713D01*
X49699500Y-71193713D01*
X49699500Y-71406287D01*
X49732754Y-71616243D01*
X49758667Y-71695996D01*
X49798444Y-71818414D01*
X49894951Y-72007820D01*
X50019890Y-72179786D01*
X50170213Y-72330109D01*
X50342179Y-72455048D01*
X50342181Y-72455049D01*
X50342184Y-72455051D01*
X50531588Y-72551557D01*
X50733757Y-72617246D01*
X50943713Y-72650500D01*
X50943714Y-72650500D01*
X51456286Y-72650500D01*
X51456287Y-72650500D01*
X51666243Y-72617246D01*
X51868412Y-72551557D01*
X52057816Y-72455051D01*
X52152921Y-72385954D01*
X52229786Y-72330109D01*
X52229788Y-72330106D01*
X52229792Y-72330104D01*
X52380104Y-72179792D01*
X52380106Y-72179788D01*
X52380109Y-72179786D01*
X52505048Y-72007820D01*
X52505047Y-72007820D01*
X52505051Y-72007816D01*
X52601557Y-71818412D01*
X52667246Y-71616243D01*
X52700500Y-71406287D01*
X52700500Y-71193713D01*
X52667246Y-70983757D01*
X52601557Y-70781588D01*
X52505051Y-70592184D01*
X52505049Y-70592181D01*
X52505048Y-70592179D01*
X52380109Y-70420213D01*
X52240931Y-70281035D01*
X52207446Y-70219712D01*
X52212430Y-70150020D01*
X52254302Y-70094087D01*
X52263516Y-70087815D01*
X52418343Y-69992317D01*
X52542315Y-69868345D01*
X52634356Y-69719124D01*
X52634360Y-69719115D01*
X52635837Y-69714659D01*
X52689505Y-69552697D01*
X52689506Y-69552690D01*
X52699999Y-69449986D01*
X52700000Y-69449973D01*
X52700000Y-69050000D01*
X51633012Y-69050000D01*
X51665925Y-68992993D01*
X51700000Y-68865826D01*
X51700000Y-68734174D01*
X51665925Y-68607007D01*
X51633012Y-68550000D01*
X52699999Y-68550000D01*
X52699999Y-68285305D01*
X54950000Y-68285305D01*
X54950000Y-68514694D01*
X54950001Y-68514710D01*
X54979942Y-68742137D01*
X55039318Y-68963730D01*
X55127102Y-69175659D01*
X55127106Y-69175669D01*
X55241799Y-69374324D01*
X55241805Y-69374331D01*
X55298381Y-69448064D01*
X56022421Y-68724024D01*
X56035359Y-68755258D01*
X56117437Y-68878097D01*
X56221903Y-68982563D01*
X56344742Y-69064641D01*
X56375974Y-69077578D01*
X55651934Y-69801617D01*
X55651934Y-69801618D01*
X55725666Y-69858194D01*
X55924330Y-69972893D01*
X55924340Y-69972897D01*
X56136269Y-70060681D01*
X56357862Y-70120057D01*
X56585289Y-70149998D01*
X56585306Y-70150000D01*
X56814694Y-70150000D01*
X56814710Y-70149998D01*
X57042137Y-70120057D01*
X57263730Y-70060681D01*
X57475659Y-69972897D01*
X57475668Y-69972893D01*
X57674327Y-69858197D01*
X57674334Y-69858192D01*
X57748064Y-69801617D01*
X57024025Y-69077578D01*
X57055258Y-69064641D01*
X57178097Y-68982563D01*
X57282563Y-68878097D01*
X57364641Y-68755258D01*
X57377578Y-68724025D01*
X58101617Y-69448064D01*
X58158192Y-69374334D01*
X58158197Y-69374327D01*
X58272893Y-69175668D01*
X58272897Y-69175659D01*
X58360681Y-68963730D01*
X58420057Y-68742137D01*
X58449998Y-68514710D01*
X58450000Y-68514694D01*
X58450000Y-68285305D01*
X70150000Y-68285305D01*
X70150000Y-68514694D01*
X70150001Y-68514710D01*
X70179942Y-68742137D01*
X70239318Y-68963730D01*
X70327102Y-69175659D01*
X70327106Y-69175669D01*
X70441799Y-69374324D01*
X70441805Y-69374331D01*
X70498381Y-69448064D01*
X71222421Y-68724024D01*
X71235359Y-68755258D01*
X71317437Y-68878097D01*
X71421903Y-68982563D01*
X71544742Y-69064641D01*
X71575974Y-69077578D01*
X70851934Y-69801617D01*
X70851934Y-69801618D01*
X70925666Y-69858194D01*
X71124330Y-69972893D01*
X71124340Y-69972897D01*
X71336269Y-70060681D01*
X71557862Y-70120057D01*
X71785289Y-70149998D01*
X71785306Y-70150000D01*
X72014694Y-70150000D01*
X72014710Y-70149998D01*
X72242137Y-70120057D01*
X72463730Y-70060681D01*
X72675659Y-69972897D01*
X72675668Y-69972893D01*
X72874327Y-69858197D01*
X72874334Y-69858192D01*
X72948064Y-69801617D01*
X72224025Y-69077578D01*
X72255258Y-69064641D01*
X72378097Y-68982563D01*
X72482563Y-68878097D01*
X72564641Y-68755258D01*
X72577578Y-68724025D01*
X73301617Y-69448064D01*
X73358192Y-69374334D01*
X73358197Y-69374327D01*
X73472893Y-69175668D01*
X73472897Y-69175659D01*
X73560681Y-68963730D01*
X73620057Y-68742137D01*
X73649998Y-68514710D01*
X73650000Y-68514694D01*
X73650000Y-68285305D01*
X73649998Y-68285289D01*
X73620057Y-68057862D01*
X73560681Y-67836269D01*
X73472897Y-67624340D01*
X73472893Y-67624330D01*
X73358194Y-67425666D01*
X73301618Y-67351934D01*
X73301617Y-67351934D01*
X72577577Y-68075973D01*
X72564641Y-68044742D01*
X72482563Y-67921903D01*
X72378097Y-67817437D01*
X72255258Y-67735359D01*
X72224023Y-67722421D01*
X72948064Y-66998381D01*
X72948064Y-66998380D01*
X72874331Y-66941805D01*
X72874324Y-66941799D01*
X72675669Y-66827106D01*
X72675659Y-66827102D01*
X72463730Y-66739318D01*
X72242137Y-66679942D01*
X72014710Y-66650001D01*
X72014694Y-66650000D01*
X71785306Y-66650000D01*
X71785289Y-66650001D01*
X71557862Y-66679942D01*
X71336269Y-66739318D01*
X71124340Y-66827102D01*
X71124330Y-66827106D01*
X70925673Y-66941801D01*
X70925659Y-66941810D01*
X70851934Y-66998380D01*
X71575975Y-67722421D01*
X71544742Y-67735359D01*
X71421903Y-67817437D01*
X71317437Y-67921903D01*
X71235359Y-68044742D01*
X71222421Y-68075974D01*
X70498381Y-67351934D01*
X70498380Y-67351934D01*
X70441810Y-67425659D01*
X70441801Y-67425673D01*
X70327106Y-67624330D01*
X70327102Y-67624340D01*
X70239318Y-67836269D01*
X70179942Y-68057862D01*
X70150001Y-68285289D01*
X70150000Y-68285305D01*
X58450000Y-68285305D01*
X58449998Y-68285289D01*
X58420057Y-68057862D01*
X58360681Y-67836269D01*
X58272897Y-67624340D01*
X58272893Y-67624330D01*
X58158194Y-67425666D01*
X58101618Y-67351934D01*
X58101617Y-67351934D01*
X57377577Y-68075973D01*
X57364641Y-68044742D01*
X57282563Y-67921903D01*
X57178097Y-67817437D01*
X57055258Y-67735359D01*
X57024023Y-67722421D01*
X57748064Y-66998381D01*
X57748064Y-66998380D01*
X57674331Y-66941805D01*
X57674324Y-66941799D01*
X57475669Y-66827106D01*
X57475659Y-66827102D01*
X57263730Y-66739318D01*
X57042137Y-66679942D01*
X56814710Y-66650001D01*
X56814694Y-66650000D01*
X56585306Y-66650000D01*
X56585289Y-66650001D01*
X56357862Y-66679942D01*
X56136269Y-66739318D01*
X55924340Y-66827102D01*
X55924330Y-66827106D01*
X55725673Y-66941801D01*
X55725659Y-66941810D01*
X55651934Y-66998380D01*
X56375975Y-67722421D01*
X56344742Y-67735359D01*
X56221903Y-67817437D01*
X56117437Y-67921903D01*
X56035359Y-68044742D01*
X56022421Y-68075975D01*
X55298380Y-67351934D01*
X55241810Y-67425659D01*
X55241801Y-67425673D01*
X55127106Y-67624330D01*
X55127102Y-67624340D01*
X55039318Y-67836269D01*
X54979942Y-68057862D01*
X54950001Y-68285289D01*
X54950000Y-68285305D01*
X52699999Y-68285305D01*
X52699999Y-68150028D01*
X52699998Y-68150013D01*
X52689505Y-68047302D01*
X52634358Y-67880880D01*
X52634356Y-67880875D01*
X52542315Y-67731654D01*
X52418345Y-67607684D01*
X52269124Y-67515643D01*
X52269119Y-67515641D01*
X52102697Y-67460494D01*
X52102690Y-67460493D01*
X51999986Y-67450000D01*
X51450000Y-67450000D01*
X51450000Y-68366988D01*
X51392993Y-68334075D01*
X51265826Y-68300000D01*
X51134174Y-68300000D01*
X51007007Y-68334075D01*
X50950000Y-68366988D01*
X50950000Y-67450000D01*
X50400028Y-67450000D01*
X50400012Y-67450001D01*
X50297302Y-67460494D01*
X50130880Y-67515641D01*
X50130875Y-67515643D01*
X49981654Y-67607684D01*
X49857684Y-67731654D01*
X49765643Y-67880875D01*
X49765641Y-67880880D01*
X49710494Y-68047302D01*
X49710493Y-68047309D01*
X49700000Y-68150013D01*
X49700000Y-68550000D01*
X50766988Y-68550000D01*
X50734075Y-68607007D01*
X50700000Y-68734174D01*
X50700000Y-68865826D01*
X50734075Y-68992993D01*
X50766988Y-69050000D01*
X49700001Y-69050000D01*
X49700001Y-69449986D01*
X49710494Y-69552697D01*
X49765641Y-69719119D01*
X49765643Y-69719124D01*
X49857684Y-69868345D01*
X49981654Y-69992315D01*
X50136484Y-70087815D01*
X50183208Y-70139763D01*
X50194431Y-70208726D01*
X50166587Y-70272808D01*
X50159069Y-70281035D01*
X50019889Y-70420215D01*
X49894951Y-70592179D01*
X49798444Y-70781585D01*
X49732753Y-70983760D01*
X49729880Y-71001902D01*
X49699500Y-71193713D01*
X45674156Y-71193713D01*
X45699717Y-60023507D01*
X45719555Y-59956515D01*
X45772464Y-59910881D01*
X45823508Y-59899793D01*
X105276077Y-59800207D01*
X105343149Y-59819779D01*
G37*
G04 #@! TD.AperFunction*
M02*
