G04 #@! TF.GenerationSoftware,KiCad,Pcbnew,9.0.3*
G04 #@! TF.CreationDate,2025-09-20T17:33:12+02:00*
G04 #@! TF.ProjectId,CacophonyV3,4361636f-7068-46f6-9e79-56332e6b6963,rev?*
G04 #@! TF.SameCoordinates,Original*
G04 #@! TF.FileFunction,Copper,L2,Bot*
G04 #@! TF.FilePolarity,Positive*
%FSLAX46Y46*%
G04 Gerber Fmt 4.6, Leading zero omitted, Abs format (unit mm)*
G04 Created by KiCad (PCBNEW 9.0.3) date 2025-09-20 17:33:12*
%MOMM*%
%LPD*%
G01*
G04 APERTURE LIST*
G04 Aperture macros list*
%AMRoundRect*
0 Rectangle with rounded corners*
0 $1 Rounding radius*
0 $2 $3 $4 $5 $6 $7 $8 $9 X,Y pos of 4 corners*
0 Add a 4 corners polygon primitive as box body*
4,1,4,$2,$3,$4,$5,$6,$7,$8,$9,$2,$3,0*
0 Add four circle primitives for the rounded corners*
1,1,$1+$1,$2,$3*
1,1,$1+$1,$4,$5*
1,1,$1+$1,$6,$7*
1,1,$1+$1,$8,$9*
0 Add four rect primitives between the rounded corners*
20,1,$1+$1,$2,$3,$4,$5,0*
20,1,$1+$1,$4,$5,$6,$7,0*
20,1,$1+$1,$6,$7,$8,$9,0*
20,1,$1+$1,$8,$9,$2,$3,0*%
G04 Aperture macros list end*
G04 #@! TA.AperFunction,ComponentPad*
%ADD10C,1.000000*%
G04 #@! TD*
G04 #@! TA.AperFunction,ComponentPad*
%ADD11C,2.000000*%
G04 #@! TD*
G04 #@! TA.AperFunction,ComponentPad*
%ADD12C,2.500000*%
G04 #@! TD*
G04 #@! TA.AperFunction,ComponentPad*
%ADD13RoundRect,0.250000X0.600000X0.725000X-0.600000X0.725000X-0.600000X-0.725000X0.600000X-0.725000X0*%
G04 #@! TD*
G04 #@! TA.AperFunction,ComponentPad*
%ADD14O,1.700000X1.950000*%
G04 #@! TD*
G04 #@! TA.AperFunction,ComponentPad*
%ADD15RoundRect,0.250000X-0.725000X0.600000X-0.725000X-0.600000X0.725000X-0.600000X0.725000X0.600000X0*%
G04 #@! TD*
G04 #@! TA.AperFunction,ComponentPad*
%ADD16O,1.950000X1.700000*%
G04 #@! TD*
G04 #@! TA.AperFunction,ComponentPad*
%ADD17RoundRect,0.250000X-0.600000X-0.725000X0.600000X-0.725000X0.600000X0.725000X-0.600000X0.725000X0*%
G04 #@! TD*
G04 #@! TA.AperFunction,ComponentPad*
%ADD18RoundRect,0.250000X-0.750000X0.600000X-0.750000X-0.600000X0.750000X-0.600000X0.750000X0.600000X0*%
G04 #@! TD*
G04 #@! TA.AperFunction,ComponentPad*
%ADD19O,2.000000X1.700000*%
G04 #@! TD*
G04 #@! TA.AperFunction,ViaPad*
%ADD20C,0.600000*%
G04 #@! TD*
G04 #@! TA.AperFunction,Conductor*
%ADD21C,0.508000*%
G04 #@! TD*
G04 #@! TA.AperFunction,Conductor*
%ADD22C,0.254000*%
G04 #@! TD*
G04 APERTURE END LIST*
D10*
X101500000Y-64100000D03*
X101500000Y-98600000D03*
D11*
X102500000Y-77260000D03*
X102500000Y-79800000D03*
X102500000Y-82340000D03*
X102500000Y-84880000D03*
X102500000Y-87420000D03*
X102500000Y-89960000D03*
X102500000Y-92500000D03*
X102500000Y-67100000D03*
X102500000Y-69640000D03*
X102500000Y-72180000D03*
X102500000Y-74720000D03*
X102500000Y-95040000D03*
D12*
X56700000Y-77600000D03*
X56700000Y-68400000D03*
X71900000Y-77600000D03*
X71900000Y-68400000D03*
X56700000Y-91400000D03*
X56700000Y-82200000D03*
X71900000Y-91400000D03*
X71900000Y-82200000D03*
D13*
X92000000Y-91000000D03*
D14*
X89500000Y-91000000D03*
X87000000Y-91000000D03*
X84500000Y-91000000D03*
D13*
X93400000Y-99200000D03*
D14*
X90900000Y-99200000D03*
X88400000Y-99200000D03*
X85900000Y-99200000D03*
X83400000Y-99200000D03*
D15*
X51225000Y-79400000D03*
D16*
X51225000Y-81900000D03*
X51225000Y-84400000D03*
D11*
X80350000Y-63500000D03*
X80350000Y-66040000D03*
X80350000Y-68580000D03*
X80350000Y-71120000D03*
X80350000Y-73660000D03*
X80350000Y-76200000D03*
X80350000Y-78740000D03*
X80380000Y-81280000D03*
X80380000Y-83820000D03*
X95650000Y-63500000D03*
X95650000Y-66040000D03*
X95650000Y-68580000D03*
X95650000Y-71120000D03*
X95650000Y-73660000D03*
X95650000Y-76200000D03*
X95650000Y-78740000D03*
X95620000Y-81280000D03*
X95620000Y-83820000D03*
D17*
X63000000Y-97900000D03*
D14*
X65500000Y-97900000D03*
X68000000Y-97900000D03*
D18*
X51200000Y-68800000D03*
D19*
X51200000Y-71300000D03*
D17*
X50000000Y-97900000D03*
D14*
X52500000Y-97900000D03*
X55000000Y-97900000D03*
D20*
X50800000Y-93800000D03*
X73000000Y-97600000D03*
X88000000Y-88490000D03*
X106200000Y-61500000D03*
X78300000Y-82000000D03*
D21*
X106200000Y-66900000D02*
X106200000Y-61500000D01*
X103460000Y-69640000D02*
X106200000Y-66900000D01*
X102500000Y-69640000D02*
X103460000Y-69640000D01*
D22*
X87010000Y-88490000D02*
X88000000Y-88490000D01*
X84500000Y-91000000D02*
X87010000Y-88490000D01*
D21*
X78300000Y-82000000D02*
X78300000Y-65550000D01*
X78300000Y-65550000D02*
X80350000Y-63500000D01*
G04 #@! TA.AperFunction,Conductor*
G36*
X79884075Y-66232993D02*
G01*
X79949901Y-66347007D01*
X80042993Y-66440099D01*
X80157007Y-66505925D01*
X80220590Y-66522962D01*
X79480893Y-67262658D01*
X79482448Y-67282405D01*
X79481648Y-67286212D01*
X79482810Y-67289923D01*
X79474525Y-67320118D01*
X79468084Y-67350783D01*
X79465054Y-67354640D01*
X79464324Y-67357302D01*
X79455447Y-67366870D01*
X79441691Y-67384384D01*
X79436906Y-67388681D01*
X79372490Y-67435483D01*
X79263827Y-67544145D01*
X79261361Y-67546361D01*
X79232714Y-67560065D01*
X79204858Y-67575277D01*
X79201432Y-67575032D01*
X79198333Y-67576515D01*
X79166830Y-67572557D01*
X79135166Y-67570293D01*
X79132415Y-67568234D01*
X79129008Y-67567806D01*
X79104648Y-67547447D01*
X79079233Y-67528421D01*
X79078032Y-67525202D01*
X79075397Y-67523000D01*
X79065911Y-67492706D01*
X79054816Y-67462957D01*
X79054586Y-67456534D01*
X79054520Y-67456322D01*
X79054572Y-67456131D01*
X79054500Y-67454111D01*
X79054500Y-67033308D01*
X79074185Y-66966269D01*
X79090819Y-66945627D01*
X79867037Y-66169408D01*
X79884075Y-66232993D01*
G37*
G04 #@! TD.AperFunction*
G04 #@! TA.AperFunction,Conductor*
G36*
X105343149Y-59819779D02*
G01*
X105388992Y-59872507D01*
X105400284Y-59923923D01*
X105403641Y-61387837D01*
X105401260Y-61412304D01*
X105399500Y-61421154D01*
X105399500Y-61578840D01*
X105401779Y-61590301D01*
X105404160Y-61614203D01*
X105415517Y-66565810D01*
X105395986Y-66632894D01*
X105379198Y-66653775D01*
X103930202Y-68102772D01*
X103868879Y-68136257D01*
X103799187Y-68131273D01*
X103743254Y-68089401D01*
X103718837Y-68023937D01*
X103733689Y-67955664D01*
X103742204Y-67942205D01*
X103782912Y-67886175D01*
X103890102Y-67675802D01*
X103963065Y-67451247D01*
X104000000Y-67218052D01*
X104000000Y-66981947D01*
X103963065Y-66748752D01*
X103890102Y-66524197D01*
X103782914Y-66313828D01*
X103722658Y-66230894D01*
X103722658Y-66230893D01*
X102982962Y-66970590D01*
X102965925Y-66907007D01*
X102900099Y-66792993D01*
X102807007Y-66699901D01*
X102692993Y-66634075D01*
X102629407Y-66617037D01*
X103369105Y-65877340D01*
X103369104Y-65877338D01*
X103286174Y-65817087D01*
X103075802Y-65709897D01*
X102999125Y-65684983D01*
X102941449Y-65645545D01*
X102914251Y-65581187D01*
X102926166Y-65512340D01*
X102949759Y-65479373D01*
X103007282Y-65421851D01*
X103166924Y-65213803D01*
X103298043Y-64986697D01*
X103398398Y-64744419D01*
X103466270Y-64491116D01*
X103500500Y-64231120D01*
X103500500Y-63968880D01*
X103466270Y-63708884D01*
X103398398Y-63455581D01*
X103367879Y-63381902D01*
X103298046Y-63213309D01*
X103298041Y-63213299D01*
X103166924Y-62986196D01*
X103007281Y-62778148D01*
X103007274Y-62778140D01*
X102821860Y-62592726D01*
X102821851Y-62592718D01*
X102613803Y-62433075D01*
X102386700Y-62301958D01*
X102386690Y-62301953D01*
X102144428Y-62201605D01*
X102144421Y-62201603D01*
X102144419Y-62201602D01*
X101891116Y-62133730D01*
X101833339Y-62126123D01*
X101631127Y-62099500D01*
X101631120Y-62099500D01*
X101368880Y-62099500D01*
X101368872Y-62099500D01*
X101137772Y-62129926D01*
X101108884Y-62133730D01*
X100855581Y-62201602D01*
X100855571Y-62201605D01*
X100613309Y-62301953D01*
X100613299Y-62301958D01*
X100386196Y-62433075D01*
X100178148Y-62592718D01*
X99992718Y-62778148D01*
X99833075Y-62986196D01*
X99701958Y-63213299D01*
X99701953Y-63213309D01*
X99601605Y-63455571D01*
X99601602Y-63455581D01*
X99533730Y-63708885D01*
X99499500Y-63968872D01*
X99499500Y-64231127D01*
X99506782Y-64286433D01*
X99533730Y-64491116D01*
X99601602Y-64744418D01*
X99601605Y-64744428D01*
X99701953Y-64986690D01*
X99701958Y-64986700D01*
X99833075Y-65213803D01*
X99992718Y-65421851D01*
X99992726Y-65421860D01*
X100178140Y-65607274D01*
X100178148Y-65607281D01*
X100386196Y-65766924D01*
X100613299Y-65898041D01*
X100613309Y-65898046D01*
X100797099Y-65974174D01*
X100855581Y-65998398D01*
X101108884Y-66066270D01*
X101165157Y-66073678D01*
X101229052Y-66101944D01*
X101267524Y-66160268D01*
X101268356Y-66230133D01*
X101249290Y-66269501D01*
X101217086Y-66313826D01*
X101109897Y-66524197D01*
X101036934Y-66748752D01*
X101000000Y-66981947D01*
X101000000Y-67218052D01*
X101036934Y-67451247D01*
X101109897Y-67675802D01*
X101217087Y-67886174D01*
X101277338Y-67969104D01*
X101277340Y-67969105D01*
X102017037Y-67229407D01*
X102034075Y-67292993D01*
X102099901Y-67407007D01*
X102192993Y-67500099D01*
X102307007Y-67565925D01*
X102370590Y-67582962D01*
X101630893Y-68322658D01*
X101632448Y-68342405D01*
X101618084Y-68410783D01*
X101581717Y-68452451D01*
X101522490Y-68495482D01*
X101355485Y-68662487D01*
X101355485Y-68662488D01*
X101355483Y-68662490D01*
X101329617Y-68698092D01*
X101216657Y-68853566D01*
X101109433Y-69064003D01*
X101036446Y-69288631D01*
X100999500Y-69521902D01*
X100999500Y-69758097D01*
X101036446Y-69991368D01*
X101109433Y-70215996D01*
X101169339Y-70333567D01*
X101216657Y-70426433D01*
X101355483Y-70617510D01*
X101522490Y-70784517D01*
X101557127Y-70809683D01*
X101599792Y-70865013D01*
X101605771Y-70934626D01*
X101573165Y-70996421D01*
X101557130Y-71010315D01*
X101539365Y-71023222D01*
X101522488Y-71035484D01*
X101355485Y-71202487D01*
X101355485Y-71202488D01*
X101355483Y-71202490D01*
X101329617Y-71238092D01*
X101216657Y-71393566D01*
X101109433Y-71604003D01*
X101036446Y-71828631D01*
X100999500Y-72061902D01*
X100999500Y-72298097D01*
X101036446Y-72531368D01*
X101109433Y-72755996D01*
X101169339Y-72873567D01*
X101216657Y-72966433D01*
X101355483Y-73157510D01*
X101522490Y-73324517D01*
X101557127Y-73349683D01*
X101599792Y-73405013D01*
X101605771Y-73474626D01*
X101573165Y-73536421D01*
X101557130Y-73550315D01*
X101539365Y-73563222D01*
X101522488Y-73575484D01*
X101355485Y-73742487D01*
X101355485Y-73742488D01*
X101355483Y-73742490D01*
X101329617Y-73778092D01*
X101216657Y-73933566D01*
X101109433Y-74144003D01*
X101036446Y-74368631D01*
X100999500Y-74601902D01*
X100999500Y-74838097D01*
X101036446Y-75071368D01*
X101109433Y-75295996D01*
X101169339Y-75413567D01*
X101216657Y-75506433D01*
X101355483Y-75697510D01*
X101522490Y-75864517D01*
X101557127Y-75889683D01*
X101599792Y-75945013D01*
X101605771Y-76014626D01*
X101573165Y-76076421D01*
X101557130Y-76090315D01*
X101539365Y-76103222D01*
X101522488Y-76115484D01*
X101355485Y-76282487D01*
X101355485Y-76282488D01*
X101355483Y-76282490D01*
X101329617Y-76318092D01*
X101216657Y-76473566D01*
X101109433Y-76684003D01*
X101036446Y-76908631D01*
X100999500Y-77141902D01*
X100999500Y-77378097D01*
X101036446Y-77611368D01*
X101109433Y-77835996D01*
X101169339Y-77953567D01*
X101216657Y-78046433D01*
X101355483Y-78237510D01*
X101522490Y-78404517D01*
X101557127Y-78429683D01*
X101599792Y-78485013D01*
X101605771Y-78554626D01*
X101573165Y-78616421D01*
X101557130Y-78630315D01*
X101539365Y-78643222D01*
X101522488Y-78655484D01*
X101355485Y-78822487D01*
X101355485Y-78822488D01*
X101355483Y-78822490D01*
X101329617Y-78858092D01*
X101216657Y-79013566D01*
X101109433Y-79224003D01*
X101036446Y-79448631D01*
X100999500Y-79681902D01*
X100999500Y-79918097D01*
X101036446Y-80151368D01*
X101109433Y-80375996D01*
X101211496Y-80576304D01*
X101216657Y-80586433D01*
X101355483Y-80777510D01*
X101522490Y-80944517D01*
X101557127Y-80969683D01*
X101599792Y-81025013D01*
X101605771Y-81094626D01*
X101573165Y-81156421D01*
X101557130Y-81170315D01*
X101539365Y-81183222D01*
X101522488Y-81195484D01*
X101355485Y-81362487D01*
X101355485Y-81362488D01*
X101355483Y-81362490D01*
X101310546Y-81424340D01*
X101216657Y-81553566D01*
X101109433Y-81764003D01*
X101036446Y-81988631D01*
X100999500Y-82221902D01*
X100999500Y-82458097D01*
X101036446Y-82691368D01*
X101109433Y-82915996D01*
X101184474Y-83063270D01*
X101216657Y-83126433D01*
X101355483Y-83317510D01*
X101522490Y-83484517D01*
X101557127Y-83509683D01*
X101599792Y-83565013D01*
X101605771Y-83634626D01*
X101573165Y-83696421D01*
X101557130Y-83710315D01*
X101539365Y-83723222D01*
X101522488Y-83735484D01*
X101355485Y-83902487D01*
X101355485Y-83902488D01*
X101355483Y-83902490D01*
X101320965Y-83950000D01*
X101216657Y-84093566D01*
X101109433Y-84304003D01*
X101036446Y-84528631D01*
X100999500Y-84761902D01*
X100999500Y-84998097D01*
X101036446Y-85231368D01*
X101109433Y-85455996D01*
X101159905Y-85555051D01*
X101216657Y-85666433D01*
X101355483Y-85857510D01*
X101522490Y-86024517D01*
X101557127Y-86049683D01*
X101599792Y-86105013D01*
X101605771Y-86174626D01*
X101573165Y-86236421D01*
X101557130Y-86250315D01*
X101539365Y-86263222D01*
X101522488Y-86275484D01*
X101355485Y-86442487D01*
X101355485Y-86442488D01*
X101355483Y-86442490D01*
X101295862Y-86524550D01*
X101216657Y-86633566D01*
X101109433Y-86844003D01*
X101036446Y-87068631D01*
X100999500Y-87301902D01*
X100999500Y-87538097D01*
X101036446Y-87771368D01*
X101109433Y-87995996D01*
X101167940Y-88110821D01*
X101216657Y-88206433D01*
X101355483Y-88397510D01*
X101522490Y-88564517D01*
X101557127Y-88589683D01*
X101599792Y-88645013D01*
X101605771Y-88714626D01*
X101573165Y-88776421D01*
X101557130Y-88790315D01*
X101539365Y-88803222D01*
X101522488Y-88815484D01*
X101355485Y-88982487D01*
X101355485Y-88982488D01*
X101355483Y-88982490D01*
X101342549Y-89000292D01*
X101216657Y-89173566D01*
X101109433Y-89384003D01*
X101036446Y-89608631D01*
X100999500Y-89841902D01*
X100999500Y-90078097D01*
X101036446Y-90311368D01*
X101109433Y-90535996D01*
X101197249Y-90708343D01*
X101216657Y-90746433D01*
X101355483Y-90937510D01*
X101522490Y-91104517D01*
X101557127Y-91129683D01*
X101599792Y-91185013D01*
X101605771Y-91254626D01*
X101573165Y-91316421D01*
X101557130Y-91330315D01*
X101539365Y-91343222D01*
X101522488Y-91355484D01*
X101355485Y-91522487D01*
X101355485Y-91522488D01*
X101355483Y-91522490D01*
X101295862Y-91604550D01*
X101216657Y-91713566D01*
X101109433Y-91924003D01*
X101036446Y-92148631D01*
X100999500Y-92381902D01*
X100999500Y-92618097D01*
X101036446Y-92851368D01*
X101109433Y-93075996D01*
X101216657Y-93286433D01*
X101355483Y-93477510D01*
X101522490Y-93644517D01*
X101581716Y-93687547D01*
X101624381Y-93742875D01*
X101632448Y-93797593D01*
X101630893Y-93817340D01*
X102370591Y-94557037D01*
X102307007Y-94574075D01*
X102192993Y-94639901D01*
X102099901Y-94732993D01*
X102034075Y-94847007D01*
X102017037Y-94910591D01*
X101277340Y-94170894D01*
X101217084Y-94253830D01*
X101109897Y-94464197D01*
X101036934Y-94688752D01*
X101000000Y-94921947D01*
X101000000Y-95158052D01*
X101036934Y-95391247D01*
X101109897Y-95615802D01*
X101217087Y-95826174D01*
X101277338Y-95909104D01*
X101277340Y-95909105D01*
X102017037Y-95169408D01*
X102034075Y-95232993D01*
X102099901Y-95347007D01*
X102192993Y-95440099D01*
X102307007Y-95505925D01*
X102370590Y-95522962D01*
X101630893Y-96262658D01*
X101713830Y-96322916D01*
X101831614Y-96382929D01*
X101882410Y-96430903D01*
X101899206Y-96498724D01*
X101876669Y-96564859D01*
X101821954Y-96608311D01*
X101759135Y-96616353D01*
X101631130Y-96599501D01*
X101631125Y-96599500D01*
X101631120Y-96599500D01*
X101368880Y-96599500D01*
X101368872Y-96599500D01*
X101137772Y-96629926D01*
X101108884Y-96633730D01*
X100855581Y-96701602D01*
X100855571Y-96701605D01*
X100613309Y-96801953D01*
X100613299Y-96801958D01*
X100386196Y-96933075D01*
X100178148Y-97092718D01*
X99992718Y-97278148D01*
X99833075Y-97486196D01*
X99701958Y-97713299D01*
X99701953Y-97713309D01*
X99601605Y-97955571D01*
X99601602Y-97955581D01*
X99534009Y-98207845D01*
X99533730Y-98208885D01*
X99499500Y-98468872D01*
X99499500Y-98731127D01*
X99522365Y-98904792D01*
X99533730Y-98991116D01*
X99594446Y-99217712D01*
X99601602Y-99244418D01*
X99601605Y-99244428D01*
X99701953Y-99486690D01*
X99701958Y-99486700D01*
X99833075Y-99713803D01*
X99992718Y-99921851D01*
X99992726Y-99921860D01*
X100178140Y-100107274D01*
X100178148Y-100107281D01*
X100386196Y-100266924D01*
X100613299Y-100398041D01*
X100613309Y-100398046D01*
X100811280Y-100480048D01*
X100855581Y-100498398D01*
X101108884Y-100566270D01*
X101368880Y-100600500D01*
X101368887Y-100600500D01*
X101631113Y-100600500D01*
X101631120Y-100600500D01*
X101891116Y-100566270D01*
X102144419Y-100498398D01*
X102386697Y-100398043D01*
X102613803Y-100266924D01*
X102821851Y-100107282D01*
X102821855Y-100107277D01*
X102821860Y-100107274D01*
X103007274Y-99921860D01*
X103007277Y-99921855D01*
X103007282Y-99921851D01*
X103166924Y-99713803D01*
X103298043Y-99486697D01*
X103398398Y-99244419D01*
X103466270Y-98991116D01*
X103500500Y-98731120D01*
X103500500Y-98468880D01*
X103466270Y-98208884D01*
X103398398Y-97955581D01*
X103383639Y-97919949D01*
X103298046Y-97713309D01*
X103298041Y-97713299D01*
X103166924Y-97486196D01*
X103007281Y-97278148D01*
X103007274Y-97278140D01*
X102821860Y-97092726D01*
X102821851Y-97092718D01*
X102613803Y-96933075D01*
X102386700Y-96801958D01*
X102386690Y-96801953D01*
X102330215Y-96778561D01*
X102275812Y-96734720D01*
X102253747Y-96668426D01*
X102271026Y-96600726D01*
X102322164Y-96553116D01*
X102377668Y-96540000D01*
X102618052Y-96540000D01*
X102851247Y-96503065D01*
X103075802Y-96430102D01*
X103286163Y-96322918D01*
X103286169Y-96322914D01*
X103369104Y-96262658D01*
X103369105Y-96262658D01*
X102629408Y-95522962D01*
X102692993Y-95505925D01*
X102807007Y-95440099D01*
X102900099Y-95347007D01*
X102965925Y-95232993D01*
X102982962Y-95169409D01*
X103722658Y-95909105D01*
X103722658Y-95909104D01*
X103782914Y-95826169D01*
X103782918Y-95826163D01*
X103890102Y-95615802D01*
X103963065Y-95391247D01*
X104000000Y-95158052D01*
X104000000Y-94921947D01*
X103963065Y-94688752D01*
X103890102Y-94464197D01*
X103782914Y-94253828D01*
X103722658Y-94170894D01*
X103722658Y-94170893D01*
X102982962Y-94910590D01*
X102965925Y-94847007D01*
X102900099Y-94732993D01*
X102807007Y-94639901D01*
X102692993Y-94574075D01*
X102629409Y-94557037D01*
X103369105Y-93817340D01*
X103367551Y-93797594D01*
X103381915Y-93729216D01*
X103418284Y-93687547D01*
X103477510Y-93644517D01*
X103644517Y-93477510D01*
X103783343Y-93286433D01*
X103890568Y-93075992D01*
X103963553Y-92851368D01*
X103984532Y-92718911D01*
X104000500Y-92618097D01*
X104000500Y-92381902D01*
X103963553Y-92148631D01*
X103927749Y-92038440D01*
X103890568Y-91924008D01*
X103890566Y-91924005D01*
X103890566Y-91924003D01*
X103814649Y-91775008D01*
X103783343Y-91713567D01*
X103644517Y-91522490D01*
X103477510Y-91355483D01*
X103442872Y-91330317D01*
X103400207Y-91274989D01*
X103394228Y-91205375D01*
X103426833Y-91143580D01*
X103442873Y-91129682D01*
X103477510Y-91104517D01*
X103644517Y-90937510D01*
X103783343Y-90746433D01*
X103890568Y-90535992D01*
X103963553Y-90311368D01*
X103977234Y-90224991D01*
X104000500Y-90078097D01*
X104000500Y-89841902D01*
X103963553Y-89608631D01*
X103890566Y-89384003D01*
X103796504Y-89199397D01*
X103783343Y-89173567D01*
X103644517Y-88982490D01*
X103477510Y-88815483D01*
X103442872Y-88790317D01*
X103400207Y-88734989D01*
X103394228Y-88665375D01*
X103426833Y-88603580D01*
X103442873Y-88589682D01*
X103477510Y-88564517D01*
X103644517Y-88397510D01*
X103783343Y-88206433D01*
X103890568Y-87995992D01*
X103963553Y-87771368D01*
X103971647Y-87720263D01*
X104000500Y-87538097D01*
X104000500Y-87301902D01*
X103963553Y-87068631D01*
X103890566Y-86844003D01*
X103783342Y-86633566D01*
X103644517Y-86442490D01*
X103477510Y-86275483D01*
X103442872Y-86250317D01*
X103400207Y-86194989D01*
X103394228Y-86125375D01*
X103426833Y-86063580D01*
X103442873Y-86049682D01*
X103477510Y-86024517D01*
X103644517Y-85857510D01*
X103783343Y-85666433D01*
X103890568Y-85455992D01*
X103963553Y-85231368D01*
X103983830Y-85103343D01*
X104000500Y-84998097D01*
X104000500Y-84761902D01*
X103963553Y-84528631D01*
X103920457Y-84395996D01*
X103890568Y-84304008D01*
X103890566Y-84304005D01*
X103890566Y-84304003D01*
X103834002Y-84192991D01*
X103783343Y-84093567D01*
X103644517Y-83902490D01*
X103477510Y-83735483D01*
X103442872Y-83710317D01*
X103400207Y-83654989D01*
X103394228Y-83585375D01*
X103426833Y-83523580D01*
X103442873Y-83509682D01*
X103477510Y-83484517D01*
X103644517Y-83317510D01*
X103783343Y-83126433D01*
X103890568Y-82915992D01*
X103963553Y-82691368D01*
X103974574Y-82621786D01*
X104000500Y-82458097D01*
X104000500Y-82221902D01*
X103963553Y-81988631D01*
X103920457Y-81855996D01*
X103890568Y-81764008D01*
X103890566Y-81764005D01*
X103890566Y-81764003D01*
X103825482Y-81636269D01*
X103783343Y-81553567D01*
X103644517Y-81362490D01*
X103477510Y-81195483D01*
X103442872Y-81170317D01*
X103400207Y-81114989D01*
X103394228Y-81045375D01*
X103426833Y-80983580D01*
X103442873Y-80969682D01*
X103477510Y-80944517D01*
X103644517Y-80777510D01*
X103783343Y-80586433D01*
X103890568Y-80375992D01*
X103963553Y-80151368D01*
X103979605Y-80050018D01*
X104000500Y-79918097D01*
X104000500Y-79681902D01*
X103963553Y-79448631D01*
X103920457Y-79315996D01*
X103890568Y-79224008D01*
X103890566Y-79224005D01*
X103890566Y-79224003D01*
X103834002Y-79112991D01*
X103783343Y-79013567D01*
X103644517Y-78822490D01*
X103477510Y-78655483D01*
X103442872Y-78630317D01*
X103400207Y-78574989D01*
X103394228Y-78505375D01*
X103426833Y-78443580D01*
X103442873Y-78429682D01*
X103477510Y-78404517D01*
X103644517Y-78237510D01*
X103783343Y-78046433D01*
X103890568Y-77835992D01*
X103963553Y-77611368D01*
X103982043Y-77494626D01*
X104000500Y-77378097D01*
X104000500Y-77141902D01*
X103963553Y-76908631D01*
X103920457Y-76775996D01*
X103890568Y-76684008D01*
X103890566Y-76684005D01*
X103890566Y-76684003D01*
X103834002Y-76572991D01*
X103783343Y-76473567D01*
X103644517Y-76282490D01*
X103477510Y-76115483D01*
X103442872Y-76090317D01*
X103400207Y-76034989D01*
X103394228Y-75965375D01*
X103426833Y-75903580D01*
X103442873Y-75889682D01*
X103456952Y-75879453D01*
X103477510Y-75864517D01*
X103644517Y-75697510D01*
X103783343Y-75506433D01*
X103890568Y-75295992D01*
X103963553Y-75071368D01*
X103982043Y-74954626D01*
X104000500Y-74838097D01*
X104000500Y-74601902D01*
X103963553Y-74368631D01*
X103920457Y-74235996D01*
X103890568Y-74144008D01*
X103890566Y-74144005D01*
X103890566Y-74144003D01*
X103834002Y-74032991D01*
X103783343Y-73933567D01*
X103644517Y-73742490D01*
X103477510Y-73575483D01*
X103442872Y-73550317D01*
X103400207Y-73494989D01*
X103394228Y-73425375D01*
X103426833Y-73363580D01*
X103442873Y-73349682D01*
X103477510Y-73324517D01*
X103644517Y-73157510D01*
X103783343Y-72966433D01*
X103890568Y-72755992D01*
X103963553Y-72531368D01*
X103973623Y-72467787D01*
X104000500Y-72298097D01*
X104000500Y-72061902D01*
X103963553Y-71828631D01*
X103920457Y-71695996D01*
X103890568Y-71604008D01*
X103890566Y-71604005D01*
X103890566Y-71604003D01*
X103834002Y-71492991D01*
X103783343Y-71393567D01*
X103644517Y-71202490D01*
X103477510Y-71035483D01*
X103442872Y-71010317D01*
X103400207Y-70954989D01*
X103394228Y-70885375D01*
X103426833Y-70823580D01*
X103442873Y-70809682D01*
X103477510Y-70784517D01*
X103644517Y-70617510D01*
X103783343Y-70426433D01*
X103842085Y-70311142D01*
X103883679Y-70264335D01*
X103940966Y-70226059D01*
X105209526Y-68957497D01*
X105270845Y-68924015D01*
X105340536Y-68928999D01*
X105396470Y-68970870D01*
X105420887Y-69036335D01*
X105421203Y-69044897D01*
X105499715Y-103276130D01*
X105480184Y-103343214D01*
X105427485Y-103389090D01*
X105376129Y-103400413D01*
X45750050Y-103599499D01*
X45749636Y-103599500D01*
X45724285Y-103599500D01*
X45657246Y-103579815D01*
X45611491Y-103527011D01*
X45600285Y-103475218D01*
X45614817Y-97124983D01*
X48649500Y-97124983D01*
X48649500Y-98675001D01*
X48649501Y-98675018D01*
X48660000Y-98777796D01*
X48660001Y-98777799D01*
X48705894Y-98916294D01*
X48715186Y-98944334D01*
X48807288Y-99093656D01*
X48931344Y-99217712D01*
X49080666Y-99309814D01*
X49247203Y-99364999D01*
X49349991Y-99375500D01*
X50650008Y-99375499D01*
X50752797Y-99364999D01*
X50919334Y-99309814D01*
X51068656Y-99217712D01*
X51192712Y-99093656D01*
X51284814Y-98944334D01*
X51284814Y-98944331D01*
X51288178Y-98938879D01*
X51340126Y-98892154D01*
X51409088Y-98880931D01*
X51473170Y-98908774D01*
X51481398Y-98916294D01*
X51620213Y-99055109D01*
X51792179Y-99180048D01*
X51792181Y-99180049D01*
X51792184Y-99180051D01*
X51981588Y-99276557D01*
X52183757Y-99342246D01*
X52393713Y-99375500D01*
X52393714Y-99375500D01*
X52606286Y-99375500D01*
X52606287Y-99375500D01*
X52816243Y-99342246D01*
X53018412Y-99276557D01*
X53207816Y-99180051D01*
X53266431Y-99137465D01*
X53379786Y-99055109D01*
X53379788Y-99055106D01*
X53379792Y-99055104D01*
X53530104Y-98904792D01*
X53649991Y-98739779D01*
X53705320Y-98697115D01*
X53774933Y-98691136D01*
X53836729Y-98723741D01*
X53850627Y-98739781D01*
X53970272Y-98904459D01*
X53970276Y-98904464D01*
X54120535Y-99054723D01*
X54120540Y-99054727D01*
X54292442Y-99179620D01*
X54481782Y-99276095D01*
X54683871Y-99341757D01*
X54750000Y-99352231D01*
X54750000Y-98304145D01*
X54816657Y-98342630D01*
X54937465Y-98375000D01*
X55062535Y-98375000D01*
X55183343Y-98342630D01*
X55250000Y-98304145D01*
X55250000Y-99352230D01*
X55316126Y-99341757D01*
X55316129Y-99341757D01*
X55518217Y-99276095D01*
X55707557Y-99179620D01*
X55879459Y-99054727D01*
X55879464Y-99054723D01*
X56029723Y-98904464D01*
X56029727Y-98904459D01*
X56154620Y-98732557D01*
X56251095Y-98543217D01*
X56316757Y-98341130D01*
X56316757Y-98341127D01*
X56347030Y-98150000D01*
X55404146Y-98150000D01*
X55442630Y-98083343D01*
X55475000Y-97962535D01*
X55475000Y-97837465D01*
X55442630Y-97716657D01*
X55404146Y-97650000D01*
X56347030Y-97650000D01*
X56316757Y-97458872D01*
X56316757Y-97458869D01*
X56251095Y-97256782D01*
X56211019Y-97178129D01*
X56183939Y-97124983D01*
X61649500Y-97124983D01*
X61649500Y-98675001D01*
X61649501Y-98675018D01*
X61660000Y-98777796D01*
X61660001Y-98777799D01*
X61705894Y-98916294D01*
X61715186Y-98944334D01*
X61807288Y-99093656D01*
X61931344Y-99217712D01*
X62080666Y-99309814D01*
X62247203Y-99364999D01*
X62349991Y-99375500D01*
X63650008Y-99375499D01*
X63752797Y-99364999D01*
X63919334Y-99309814D01*
X64068656Y-99217712D01*
X64192712Y-99093656D01*
X64284814Y-98944334D01*
X64284814Y-98944331D01*
X64288178Y-98938879D01*
X64340126Y-98892154D01*
X64409088Y-98880931D01*
X64473170Y-98908774D01*
X64481398Y-98916294D01*
X64620213Y-99055109D01*
X64792179Y-99180048D01*
X64792181Y-99180049D01*
X64792184Y-99180051D01*
X64981588Y-99276557D01*
X65183757Y-99342246D01*
X65393713Y-99375500D01*
X65393714Y-99375500D01*
X65606286Y-99375500D01*
X65606287Y-99375500D01*
X65816243Y-99342246D01*
X66018412Y-99276557D01*
X66207816Y-99180051D01*
X66266431Y-99137465D01*
X66379786Y-99055109D01*
X66379788Y-99055106D01*
X66379792Y-99055104D01*
X66530104Y-98904792D01*
X66649991Y-98739779D01*
X66705320Y-98697115D01*
X66774933Y-98691136D01*
X66836729Y-98723741D01*
X66850627Y-98739781D01*
X66970272Y-98904459D01*
X66970276Y-98904464D01*
X67120535Y-99054723D01*
X67120540Y-99054727D01*
X67292442Y-99179620D01*
X67481782Y-99276095D01*
X67683871Y-99341757D01*
X67750000Y-99352231D01*
X67750000Y-98304145D01*
X67816657Y-98342630D01*
X67937465Y-98375000D01*
X68062535Y-98375000D01*
X68183343Y-98342630D01*
X68250000Y-98304145D01*
X68250000Y-99352230D01*
X68316126Y-99341757D01*
X68316129Y-99341757D01*
X68460016Y-99295006D01*
X68518217Y-99276095D01*
X68707557Y-99179620D01*
X68879459Y-99054727D01*
X68879464Y-99054723D01*
X68984187Y-98950000D01*
X82052970Y-98950000D01*
X82995854Y-98950000D01*
X82957370Y-99016657D01*
X82925000Y-99137465D01*
X82925000Y-99262535D01*
X82957370Y-99383343D01*
X82995854Y-99450000D01*
X82052970Y-99450000D01*
X82083242Y-99641127D01*
X82083242Y-99641130D01*
X82148904Y-99843217D01*
X82245379Y-100032557D01*
X82370272Y-100204459D01*
X82370276Y-100204464D01*
X82520535Y-100354723D01*
X82520540Y-100354727D01*
X82692442Y-100479620D01*
X82881782Y-100576095D01*
X83083871Y-100641757D01*
X83150000Y-100652231D01*
X83150000Y-99604145D01*
X83216657Y-99642630D01*
X83337465Y-99675000D01*
X83462535Y-99675000D01*
X83583343Y-99642630D01*
X83650000Y-99604145D01*
X83650000Y-100652230D01*
X83716126Y-100641757D01*
X83716129Y-100641757D01*
X83918217Y-100576095D01*
X84107557Y-100479620D01*
X84279459Y-100354727D01*
X84279464Y-100354723D01*
X84429721Y-100204466D01*
X84549371Y-100039781D01*
X84604701Y-99997115D01*
X84674314Y-99991136D01*
X84736110Y-100023741D01*
X84750008Y-100039781D01*
X84869890Y-100204785D01*
X84869894Y-100204790D01*
X85020213Y-100355109D01*
X85192179Y-100480048D01*
X85192181Y-100480049D01*
X85192184Y-100480051D01*
X85381588Y-100576557D01*
X85583757Y-100642246D01*
X85793713Y-100675500D01*
X85793714Y-100675500D01*
X86006286Y-100675500D01*
X86006287Y-100675500D01*
X86216243Y-100642246D01*
X86418412Y-100576557D01*
X86607816Y-100480051D01*
X86629789Y-100464086D01*
X86779786Y-100355109D01*
X86779788Y-100355106D01*
X86779792Y-100355104D01*
X86930104Y-100204792D01*
X87049683Y-100040204D01*
X87105011Y-99997540D01*
X87174624Y-99991561D01*
X87236420Y-100024166D01*
X87250313Y-100040199D01*
X87353925Y-100182809D01*
X87369896Y-100204792D01*
X87520213Y-100355109D01*
X87692179Y-100480048D01*
X87692181Y-100480049D01*
X87692184Y-100480051D01*
X87881588Y-100576557D01*
X88083757Y-100642246D01*
X88293713Y-100675500D01*
X88293714Y-100675500D01*
X88506286Y-100675500D01*
X88506287Y-100675500D01*
X88716243Y-100642246D01*
X88918412Y-100576557D01*
X89107816Y-100480051D01*
X89129789Y-100464086D01*
X89279786Y-100355109D01*
X89279788Y-100355106D01*
X89279792Y-100355104D01*
X89430104Y-100204792D01*
X89549683Y-100040204D01*
X89605011Y-99997540D01*
X89674624Y-99991561D01*
X89736420Y-100024166D01*
X89750313Y-100040199D01*
X89853925Y-100182809D01*
X89869896Y-100204792D01*
X90020213Y-100355109D01*
X90192179Y-100480048D01*
X90192181Y-100480049D01*
X90192184Y-100480051D01*
X90381588Y-100576557D01*
X90583757Y-100642246D01*
X90793713Y-100675500D01*
X90793714Y-100675500D01*
X91006286Y-100675500D01*
X91006287Y-100675500D01*
X91216243Y-100642246D01*
X91418412Y-100576557D01*
X91607816Y-100480051D01*
X91779792Y-100355104D01*
X91918604Y-100216291D01*
X91979923Y-100182809D01*
X92049615Y-100187793D01*
X92105549Y-100229664D01*
X92111821Y-100238878D01*
X92115185Y-100244333D01*
X92115186Y-100244334D01*
X92207288Y-100393656D01*
X92331344Y-100517712D01*
X92480666Y-100609814D01*
X92647203Y-100664999D01*
X92749991Y-100675500D01*
X94050008Y-100675499D01*
X94152797Y-100664999D01*
X94319334Y-100609814D01*
X94468656Y-100517712D01*
X94592712Y-100393656D01*
X94684814Y-100244334D01*
X94739999Y-100077797D01*
X94750500Y-99975009D01*
X94750499Y-98424992D01*
X94748851Y-98408863D01*
X94739999Y-98322203D01*
X94739998Y-98322200D01*
X94702449Y-98208885D01*
X94684814Y-98155666D01*
X94592712Y-98006344D01*
X94468656Y-97882288D01*
X94319334Y-97790186D01*
X94152797Y-97735001D01*
X94152795Y-97735000D01*
X94050010Y-97724500D01*
X92749998Y-97724500D01*
X92749981Y-97724501D01*
X92647203Y-97735000D01*
X92647200Y-97735001D01*
X92480668Y-97790185D01*
X92480663Y-97790187D01*
X92331342Y-97882289D01*
X92207289Y-98006342D01*
X92111821Y-98161121D01*
X92059873Y-98207845D01*
X91990910Y-98219068D01*
X91926828Y-98191224D01*
X91918601Y-98183705D01*
X91779786Y-98044890D01*
X91607820Y-97919951D01*
X91418414Y-97823444D01*
X91418413Y-97823443D01*
X91418412Y-97823443D01*
X91216243Y-97757754D01*
X91216241Y-97757753D01*
X91216240Y-97757753D01*
X91054957Y-97732208D01*
X91006287Y-97724500D01*
X90793713Y-97724500D01*
X90745042Y-97732208D01*
X90583760Y-97757753D01*
X90381585Y-97823444D01*
X90192179Y-97919951D01*
X90020213Y-98044890D01*
X89869894Y-98195209D01*
X89869890Y-98195214D01*
X89750318Y-98359793D01*
X89694989Y-98402459D01*
X89625375Y-98408438D01*
X89563580Y-98375833D01*
X89549682Y-98359793D01*
X89430109Y-98195214D01*
X89430105Y-98195209D01*
X89279786Y-98044890D01*
X89107820Y-97919951D01*
X88918414Y-97823444D01*
X88918413Y-97823443D01*
X88918412Y-97823443D01*
X88716243Y-97757754D01*
X88716241Y-97757753D01*
X88716240Y-97757753D01*
X88554957Y-97732208D01*
X88506287Y-97724500D01*
X88293713Y-97724500D01*
X88245042Y-97732208D01*
X88083760Y-97757753D01*
X87881585Y-97823444D01*
X87692179Y-97919951D01*
X87520213Y-98044890D01*
X87369894Y-98195209D01*
X87369890Y-98195214D01*
X87250318Y-98359793D01*
X87194989Y-98402459D01*
X87125375Y-98408438D01*
X87063580Y-98375833D01*
X87049682Y-98359793D01*
X86930109Y-98195214D01*
X86930105Y-98195209D01*
X86779786Y-98044890D01*
X86607820Y-97919951D01*
X86418414Y-97823444D01*
X86418413Y-97823443D01*
X86418412Y-97823443D01*
X86216243Y-97757754D01*
X86216241Y-97757753D01*
X86216240Y-97757753D01*
X86054957Y-97732208D01*
X86006287Y-97724500D01*
X85793713Y-97724500D01*
X85745042Y-97732208D01*
X85583760Y-97757753D01*
X85381585Y-97823444D01*
X85192179Y-97919951D01*
X85020213Y-98044890D01*
X84869894Y-98195209D01*
X84869890Y-98195214D01*
X84750008Y-98360218D01*
X84694678Y-98402884D01*
X84625065Y-98408863D01*
X84563270Y-98376257D01*
X84549372Y-98360218D01*
X84429727Y-98195540D01*
X84429723Y-98195535D01*
X84279464Y-98045276D01*
X84279459Y-98045272D01*
X84107557Y-97920379D01*
X83918215Y-97823903D01*
X83716124Y-97758241D01*
X83650000Y-97747768D01*
X83650000Y-98795854D01*
X83583343Y-98757370D01*
X83462535Y-98725000D01*
X83337465Y-98725000D01*
X83216657Y-98757370D01*
X83150000Y-98795854D01*
X83150000Y-97747768D01*
X83149999Y-97747768D01*
X83083875Y-97758241D01*
X82881784Y-97823903D01*
X82692442Y-97920379D01*
X82520540Y-98045272D01*
X82520535Y-98045276D01*
X82370276Y-98195535D01*
X82370272Y-98195540D01*
X82245379Y-98367442D01*
X82148904Y-98556782D01*
X82083242Y-98758869D01*
X82083242Y-98758872D01*
X82052970Y-98950000D01*
X68984187Y-98950000D01*
X69029717Y-98904470D01*
X69029732Y-98904452D01*
X69154620Y-98732557D01*
X69251095Y-98543217D01*
X69316757Y-98341130D01*
X69316757Y-98341127D01*
X69347030Y-98150000D01*
X68404146Y-98150000D01*
X68442630Y-98083343D01*
X68475000Y-97962535D01*
X68475000Y-97837465D01*
X68442630Y-97716657D01*
X68404146Y-97650000D01*
X69347030Y-97650000D01*
X69316757Y-97458872D01*
X69316757Y-97458869D01*
X69251095Y-97256782D01*
X69154620Y-97067442D01*
X69029727Y-96895540D01*
X69029723Y-96895535D01*
X68879464Y-96745276D01*
X68879459Y-96745272D01*
X68707557Y-96620379D01*
X68518215Y-96523903D01*
X68316124Y-96458241D01*
X68250000Y-96447768D01*
X68250000Y-97495854D01*
X68183343Y-97457370D01*
X68062535Y-97425000D01*
X67937465Y-97425000D01*
X67816657Y-97457370D01*
X67750000Y-97495854D01*
X67750000Y-96447768D01*
X67749999Y-96447768D01*
X67683875Y-96458241D01*
X67481784Y-96523903D01*
X67292442Y-96620379D01*
X67120540Y-96745272D01*
X67120535Y-96745276D01*
X66970276Y-96895535D01*
X66970272Y-96895540D01*
X66850627Y-97060218D01*
X66795297Y-97102884D01*
X66725684Y-97108863D01*
X66663889Y-97076257D01*
X66649991Y-97060218D01*
X66530109Y-96895214D01*
X66530105Y-96895209D01*
X66379786Y-96744890D01*
X66207820Y-96619951D01*
X66018414Y-96523444D01*
X66018413Y-96523443D01*
X66018412Y-96523443D01*
X65816243Y-96457754D01*
X65816241Y-96457753D01*
X65816240Y-96457753D01*
X65654957Y-96432208D01*
X65606287Y-96424500D01*
X65393713Y-96424500D01*
X65345042Y-96432208D01*
X65183760Y-96457753D01*
X64981585Y-96523444D01*
X64792179Y-96619951D01*
X64620215Y-96744889D01*
X64481398Y-96883706D01*
X64420075Y-96917190D01*
X64350383Y-96912206D01*
X64294450Y-96870334D01*
X64288178Y-96861120D01*
X64192712Y-96706344D01*
X64068657Y-96582289D01*
X64068656Y-96582288D01*
X63973253Y-96523443D01*
X63919336Y-96490187D01*
X63919331Y-96490185D01*
X63917862Y-96489698D01*
X63752797Y-96435001D01*
X63752795Y-96435000D01*
X63650010Y-96424500D01*
X62349998Y-96424500D01*
X62349981Y-96424501D01*
X62247203Y-96435000D01*
X62247200Y-96435001D01*
X62080668Y-96490185D01*
X62080663Y-96490187D01*
X61931342Y-96582289D01*
X61807289Y-96706342D01*
X61715187Y-96855663D01*
X61715185Y-96855668D01*
X61710325Y-96870334D01*
X61660001Y-97022203D01*
X61660001Y-97022204D01*
X61660000Y-97022204D01*
X61649500Y-97124983D01*
X56183939Y-97124983D01*
X56154620Y-97067442D01*
X56029727Y-96895540D01*
X56029723Y-96895535D01*
X55879464Y-96745276D01*
X55879459Y-96745272D01*
X55707557Y-96620379D01*
X55518215Y-96523903D01*
X55316124Y-96458241D01*
X55250000Y-96447768D01*
X55250000Y-97495854D01*
X55183343Y-97457370D01*
X55062535Y-97425000D01*
X54937465Y-97425000D01*
X54816657Y-97457370D01*
X54750000Y-97495854D01*
X54750000Y-96447768D01*
X54749999Y-96447768D01*
X54683875Y-96458241D01*
X54481784Y-96523903D01*
X54292442Y-96620379D01*
X54120540Y-96745272D01*
X54120535Y-96745276D01*
X53970276Y-96895535D01*
X53970272Y-96895540D01*
X53850627Y-97060218D01*
X53795297Y-97102884D01*
X53725684Y-97108863D01*
X53663889Y-97076257D01*
X53649991Y-97060218D01*
X53530109Y-96895214D01*
X53530105Y-96895209D01*
X53379786Y-96744890D01*
X53207820Y-96619951D01*
X53018414Y-96523444D01*
X53018413Y-96523443D01*
X53018412Y-96523443D01*
X52816243Y-96457754D01*
X52816241Y-96457753D01*
X52816240Y-96457753D01*
X52654957Y-96432208D01*
X52606287Y-96424500D01*
X52393713Y-96424500D01*
X52345042Y-96432208D01*
X52183760Y-96457753D01*
X51981585Y-96523444D01*
X51792179Y-96619951D01*
X51620215Y-96744889D01*
X51481398Y-96883706D01*
X51420075Y-96917190D01*
X51350383Y-96912206D01*
X51294450Y-96870334D01*
X51288178Y-96861120D01*
X51192712Y-96706344D01*
X51068657Y-96582289D01*
X51068656Y-96582288D01*
X50973253Y-96523443D01*
X50919336Y-96490187D01*
X50919331Y-96490185D01*
X50917862Y-96489698D01*
X50752797Y-96435001D01*
X50752795Y-96435000D01*
X50650010Y-96424500D01*
X49349998Y-96424500D01*
X49349981Y-96424501D01*
X49247203Y-96435000D01*
X49247200Y-96435001D01*
X49080668Y-96490185D01*
X49080663Y-96490187D01*
X48931342Y-96582289D01*
X48807289Y-96706342D01*
X48715187Y-96855663D01*
X48715185Y-96855668D01*
X48710325Y-96870334D01*
X48660001Y-97022203D01*
X48660001Y-97022204D01*
X48660000Y-97022204D01*
X48649500Y-97124983D01*
X45614817Y-97124983D01*
X45628180Y-91285258D01*
X54949500Y-91285258D01*
X54949500Y-91514741D01*
X54966441Y-91643412D01*
X54979452Y-91742238D01*
X55005702Y-91840206D01*
X55038842Y-91963887D01*
X55126650Y-92175876D01*
X55126657Y-92175890D01*
X55241392Y-92374617D01*
X55381081Y-92556661D01*
X55381089Y-92556670D01*
X55543330Y-92718911D01*
X55543338Y-92718918D01*
X55725382Y-92858607D01*
X55725385Y-92858608D01*
X55725388Y-92858611D01*
X55924112Y-92973344D01*
X55924117Y-92973346D01*
X55924123Y-92973349D01*
X56015480Y-93011190D01*
X56136113Y-93061158D01*
X56357762Y-93120548D01*
X56585266Y-93150500D01*
X56585273Y-93150500D01*
X56814727Y-93150500D01*
X56814734Y-93150500D01*
X57042238Y-93120548D01*
X57263887Y-93061158D01*
X57475888Y-92973344D01*
X57674612Y-92858611D01*
X57856661Y-92718919D01*
X57856665Y-92718914D01*
X57856670Y-92718911D01*
X58018911Y-92556670D01*
X58018914Y-92556665D01*
X58018919Y-92556661D01*
X58158611Y-92374612D01*
X58273344Y-92175888D01*
X58361158Y-91963887D01*
X58420548Y-91742238D01*
X58450500Y-91514734D01*
X58450500Y-91285266D01*
X58450499Y-91285258D01*
X70149500Y-91285258D01*
X70149500Y-91514741D01*
X70166441Y-91643412D01*
X70179452Y-91742238D01*
X70205702Y-91840206D01*
X70238842Y-91963887D01*
X70326650Y-92175876D01*
X70326657Y-92175890D01*
X70441392Y-92374617D01*
X70581081Y-92556661D01*
X70581089Y-92556670D01*
X70743330Y-92718911D01*
X70743338Y-92718918D01*
X70925382Y-92858607D01*
X70925385Y-92858608D01*
X70925388Y-92858611D01*
X71124112Y-92973344D01*
X71124117Y-92973346D01*
X71124123Y-92973349D01*
X71215480Y-93011190D01*
X71336113Y-93061158D01*
X71557762Y-93120548D01*
X71785266Y-93150500D01*
X71785273Y-93150500D01*
X72014727Y-93150500D01*
X72014734Y-93150500D01*
X72242238Y-93120548D01*
X72463887Y-93061158D01*
X72675888Y-92973344D01*
X72874612Y-92858611D01*
X73056661Y-92718919D01*
X73056665Y-92718914D01*
X73056670Y-92718911D01*
X73218911Y-92556670D01*
X73218914Y-92556665D01*
X73218919Y-92556661D01*
X73358611Y-92374612D01*
X73473344Y-92175888D01*
X73561158Y-91963887D01*
X73620548Y-91742238D01*
X73650500Y-91514734D01*
X73650500Y-91285266D01*
X73620548Y-91057762D01*
X73561158Y-90836113D01*
X73533240Y-90768713D01*
X83149500Y-90768713D01*
X83149500Y-91231287D01*
X83182754Y-91441243D01*
X83209152Y-91522488D01*
X83248444Y-91643414D01*
X83344951Y-91832820D01*
X83469890Y-92004786D01*
X83620213Y-92155109D01*
X83792179Y-92280048D01*
X83792181Y-92280049D01*
X83792184Y-92280051D01*
X83981588Y-92376557D01*
X84183757Y-92442246D01*
X84393713Y-92475500D01*
X84393714Y-92475500D01*
X84606286Y-92475500D01*
X84606287Y-92475500D01*
X84816243Y-92442246D01*
X85018412Y-92376557D01*
X85207816Y-92280051D01*
X85229789Y-92264086D01*
X85379786Y-92155109D01*
X85379788Y-92155106D01*
X85379792Y-92155104D01*
X85530104Y-92004792D01*
X85649683Y-91840204D01*
X85705011Y-91797540D01*
X85774624Y-91791561D01*
X85836420Y-91824166D01*
X85850313Y-91840199D01*
X85940177Y-91963887D01*
X85969896Y-92004792D01*
X86120213Y-92155109D01*
X86292179Y-92280048D01*
X86292181Y-92280049D01*
X86292184Y-92280051D01*
X86481588Y-92376557D01*
X86683757Y-92442246D01*
X86893713Y-92475500D01*
X86893714Y-92475500D01*
X87106286Y-92475500D01*
X87106287Y-92475500D01*
X87316243Y-92442246D01*
X87518412Y-92376557D01*
X87707816Y-92280051D01*
X87729789Y-92264086D01*
X87879786Y-92155109D01*
X87879788Y-92155106D01*
X87879792Y-92155104D01*
X88030104Y-92004792D01*
X88149991Y-91839779D01*
X88205320Y-91797115D01*
X88274933Y-91791136D01*
X88336729Y-91823741D01*
X88350627Y-91839781D01*
X88470272Y-92004459D01*
X88470276Y-92004464D01*
X88620535Y-92154723D01*
X88620540Y-92154727D01*
X88792442Y-92279620D01*
X88981782Y-92376095D01*
X89183871Y-92441757D01*
X89250000Y-92452231D01*
X89250000Y-91404145D01*
X89316657Y-91442630D01*
X89437465Y-91475000D01*
X89562535Y-91475000D01*
X89683343Y-91442630D01*
X89750000Y-91404145D01*
X89750000Y-92452230D01*
X89816126Y-92441757D01*
X89816129Y-92441757D01*
X90018217Y-92376095D01*
X90207557Y-92279620D01*
X90379458Y-92154728D01*
X90518330Y-92015856D01*
X90579653Y-91982371D01*
X90649345Y-91987355D01*
X90705279Y-92029226D01*
X90711551Y-92038440D01*
X90715185Y-92044331D01*
X90715186Y-92044334D01*
X90807288Y-92193656D01*
X90931344Y-92317712D01*
X91080666Y-92409814D01*
X91247203Y-92464999D01*
X91349991Y-92475500D01*
X92650008Y-92475499D01*
X92752797Y-92464999D01*
X92919334Y-92409814D01*
X93068656Y-92317712D01*
X93192712Y-92193656D01*
X93284814Y-92044334D01*
X93339999Y-91877797D01*
X93350500Y-91775009D01*
X93350499Y-90224992D01*
X93348851Y-90208863D01*
X93339999Y-90122203D01*
X93339998Y-90122200D01*
X93325382Y-90078092D01*
X93284814Y-89955666D01*
X93192712Y-89806344D01*
X93068656Y-89682288D01*
X92928786Y-89596016D01*
X92919336Y-89590187D01*
X92919331Y-89590185D01*
X92917862Y-89589698D01*
X92752797Y-89535001D01*
X92752795Y-89535000D01*
X92650010Y-89524500D01*
X91349998Y-89524500D01*
X91349981Y-89524501D01*
X91247203Y-89535000D01*
X91247200Y-89535001D01*
X91080668Y-89590185D01*
X91080663Y-89590187D01*
X90931342Y-89682289D01*
X90807289Y-89806342D01*
X90711551Y-89961559D01*
X90659603Y-90008283D01*
X90590640Y-90019506D01*
X90526558Y-89991662D01*
X90518331Y-89984143D01*
X90379464Y-89845276D01*
X90379459Y-89845272D01*
X90207557Y-89720379D01*
X90018215Y-89623903D01*
X89816124Y-89558241D01*
X89750000Y-89547768D01*
X89750000Y-90595854D01*
X89683343Y-90557370D01*
X89562535Y-90525000D01*
X89437465Y-90525000D01*
X89316657Y-90557370D01*
X89250000Y-90595854D01*
X89250000Y-89547768D01*
X89249999Y-89547768D01*
X89183875Y-89558241D01*
X88981784Y-89623903D01*
X88792442Y-89720379D01*
X88620540Y-89845272D01*
X88620535Y-89845276D01*
X88470276Y-89995535D01*
X88470272Y-89995540D01*
X88350627Y-90160218D01*
X88295297Y-90202884D01*
X88225684Y-90208863D01*
X88163889Y-90176257D01*
X88149991Y-90160218D01*
X88030109Y-89995214D01*
X88030105Y-89995209D01*
X87879786Y-89844890D01*
X87707820Y-89719951D01*
X87518414Y-89623444D01*
X87518413Y-89623443D01*
X87518412Y-89623443D01*
X87316243Y-89557754D01*
X87316241Y-89557753D01*
X87316239Y-89557753D01*
X87136560Y-89529294D01*
X87125184Y-89523901D01*
X87112624Y-89523003D01*
X87094206Y-89509215D01*
X87073425Y-89499364D01*
X87066770Y-89488677D01*
X87056690Y-89481131D01*
X87048651Y-89459577D01*
X87036494Y-89440053D01*
X87036673Y-89427463D01*
X87032274Y-89415666D01*
X87037163Y-89393189D01*
X87037492Y-89370190D01*
X87044804Y-89358063D01*
X87047126Y-89347393D01*
X87068269Y-89319148D01*
X87233602Y-89153816D01*
X87294924Y-89120334D01*
X87321281Y-89117500D01*
X87460643Y-89117500D01*
X87527682Y-89137185D01*
X87529534Y-89138398D01*
X87620814Y-89199390D01*
X87620827Y-89199397D01*
X87766498Y-89259735D01*
X87766503Y-89259737D01*
X87921153Y-89290499D01*
X87921156Y-89290500D01*
X87921158Y-89290500D01*
X88078844Y-89290500D01*
X88078845Y-89290499D01*
X88233497Y-89259737D01*
X88379179Y-89199394D01*
X88510289Y-89111789D01*
X88621789Y-89000289D01*
X88709394Y-88869179D01*
X88769737Y-88723497D01*
X88800500Y-88568842D01*
X88800500Y-88411158D01*
X88800500Y-88411155D01*
X88800499Y-88411153D01*
X88769738Y-88256510D01*
X88769737Y-88256503D01*
X88769735Y-88256498D01*
X88709397Y-88110827D01*
X88709390Y-88110814D01*
X88621789Y-87979711D01*
X88621786Y-87979707D01*
X88510292Y-87868213D01*
X88510288Y-87868210D01*
X88379185Y-87780609D01*
X88379172Y-87780602D01*
X88233501Y-87720264D01*
X88233489Y-87720261D01*
X88078845Y-87689500D01*
X88078842Y-87689500D01*
X87921158Y-87689500D01*
X87921155Y-87689500D01*
X87766510Y-87720261D01*
X87766498Y-87720264D01*
X87620827Y-87780602D01*
X87620814Y-87780609D01*
X87529534Y-87841602D01*
X87462857Y-87862480D01*
X87460643Y-87862500D01*
X86948192Y-87862500D01*
X86826972Y-87886612D01*
X86826964Y-87886614D01*
X86746215Y-87920062D01*
X86712766Y-87933917D01*
X86712764Y-87933918D01*
X86636728Y-87984724D01*
X86636728Y-87984725D01*
X86609989Y-88002590D01*
X85050048Y-89562531D01*
X84988725Y-89596016D01*
X84924050Y-89592781D01*
X84816245Y-89557754D01*
X84816246Y-89557754D01*
X84642875Y-89530295D01*
X84606287Y-89524500D01*
X84393713Y-89524500D01*
X84363445Y-89529294D01*
X84183760Y-89557753D01*
X83981585Y-89623444D01*
X83792179Y-89719951D01*
X83620213Y-89844890D01*
X83469890Y-89995213D01*
X83344951Y-90167179D01*
X83248444Y-90356585D01*
X83182753Y-90558760D01*
X83172401Y-90624123D01*
X83149500Y-90768713D01*
X73533240Y-90768713D01*
X73473344Y-90624112D01*
X73358611Y-90425388D01*
X73358608Y-90425385D01*
X73358607Y-90425382D01*
X73218918Y-90243338D01*
X73218911Y-90243330D01*
X73056670Y-90081089D01*
X73056661Y-90081081D01*
X72874617Y-89941392D01*
X72675890Y-89826657D01*
X72675876Y-89826650D01*
X72463887Y-89738842D01*
X72394981Y-89720379D01*
X72242238Y-89679452D01*
X72204215Y-89674446D01*
X72014741Y-89649500D01*
X72014734Y-89649500D01*
X71785266Y-89649500D01*
X71785258Y-89649500D01*
X71568715Y-89678009D01*
X71557762Y-89679452D01*
X71464076Y-89704554D01*
X71336112Y-89738842D01*
X71124123Y-89826650D01*
X71124109Y-89826657D01*
X70925382Y-89941392D01*
X70743338Y-90081081D01*
X70581081Y-90243338D01*
X70441392Y-90425382D01*
X70326657Y-90624109D01*
X70326650Y-90624123D01*
X70238842Y-90836112D01*
X70179453Y-91057759D01*
X70179451Y-91057770D01*
X70149500Y-91285258D01*
X58450499Y-91285258D01*
X58420548Y-91057762D01*
X58361158Y-90836113D01*
X58273344Y-90624112D01*
X58158611Y-90425388D01*
X58158608Y-90425385D01*
X58158607Y-90425382D01*
X58018918Y-90243338D01*
X58018911Y-90243330D01*
X57856670Y-90081089D01*
X57856661Y-90081081D01*
X57674617Y-89941392D01*
X57475890Y-89826657D01*
X57475876Y-89826650D01*
X57263887Y-89738842D01*
X57194981Y-89720379D01*
X57042238Y-89679452D01*
X57004215Y-89674446D01*
X56814741Y-89649500D01*
X56814734Y-89649500D01*
X56585266Y-89649500D01*
X56585258Y-89649500D01*
X56368715Y-89678009D01*
X56357762Y-89679452D01*
X56264076Y-89704554D01*
X56136112Y-89738842D01*
X55924123Y-89826650D01*
X55924109Y-89826657D01*
X55725382Y-89941392D01*
X55543338Y-90081081D01*
X55381081Y-90243338D01*
X55241392Y-90425382D01*
X55126657Y-90624109D01*
X55126650Y-90624123D01*
X55038842Y-90836112D01*
X54979453Y-91057759D01*
X54979451Y-91057770D01*
X54949500Y-91285258D01*
X45628180Y-91285258D01*
X45640161Y-86049682D01*
X45644191Y-84288557D01*
X45656865Y-78749983D01*
X49749500Y-78749983D01*
X49749500Y-80050001D01*
X49749501Y-80050018D01*
X49760000Y-80152796D01*
X49760001Y-80152799D01*
X49795001Y-80258421D01*
X49815186Y-80319334D01*
X49907288Y-80468656D01*
X50031344Y-80592712D01*
X50087099Y-80627102D01*
X50186558Y-80688448D01*
X50233283Y-80740396D01*
X50244506Y-80809358D01*
X50216663Y-80873441D01*
X50209144Y-80881668D01*
X50070271Y-81020541D01*
X49945379Y-81192442D01*
X49848904Y-81381782D01*
X49783242Y-81583870D01*
X49783242Y-81583873D01*
X49772769Y-81650000D01*
X50820854Y-81650000D01*
X50782370Y-81716657D01*
X50750000Y-81837465D01*
X50750000Y-81962535D01*
X50782370Y-82083343D01*
X50820854Y-82150000D01*
X49772769Y-82150000D01*
X49783242Y-82216126D01*
X49783242Y-82216129D01*
X49848904Y-82418217D01*
X49945379Y-82607557D01*
X50070272Y-82779459D01*
X50070276Y-82779464D01*
X50220535Y-82929723D01*
X50220540Y-82929727D01*
X50385218Y-83049372D01*
X50427884Y-83104701D01*
X50433863Y-83174315D01*
X50401258Y-83236110D01*
X50385218Y-83250008D01*
X50220214Y-83369890D01*
X50220209Y-83369894D01*
X50069890Y-83520213D01*
X49944951Y-83692179D01*
X49848444Y-83881585D01*
X49848443Y-83881587D01*
X49848443Y-83881588D01*
X49835944Y-83920057D01*
X49782753Y-84083760D01*
X49750317Y-84288557D01*
X49749500Y-84293713D01*
X49749500Y-84506287D01*
X49782754Y-84716243D01*
X49809159Y-84797510D01*
X49848444Y-84918414D01*
X49944951Y-85107820D01*
X50069890Y-85279786D01*
X50220213Y-85430109D01*
X50392179Y-85555048D01*
X50392181Y-85555049D01*
X50392184Y-85555051D01*
X50581588Y-85651557D01*
X50783757Y-85717246D01*
X50993713Y-85750500D01*
X50993714Y-85750500D01*
X51456286Y-85750500D01*
X51456287Y-85750500D01*
X51666243Y-85717246D01*
X51868412Y-85651557D01*
X52057816Y-85555051D01*
X52079789Y-85539086D01*
X52229786Y-85430109D01*
X52229788Y-85430106D01*
X52229792Y-85430104D01*
X52380104Y-85279792D01*
X52380106Y-85279788D01*
X52380109Y-85279786D01*
X52505048Y-85107820D01*
X52505047Y-85107820D01*
X52505051Y-85107816D01*
X52601557Y-84918412D01*
X52667246Y-84716243D01*
X52700500Y-84506287D01*
X52700500Y-84293713D01*
X52667246Y-84083757D01*
X52601557Y-83881588D01*
X52505051Y-83692184D01*
X52480355Y-83658192D01*
X52457368Y-83626553D01*
X52457365Y-83626550D01*
X52439250Y-83601617D01*
X52380104Y-83520208D01*
X52229792Y-83369896D01*
X52229790Y-83369894D01*
X52229785Y-83369890D01*
X52064781Y-83250008D01*
X52022115Y-83194678D01*
X52016136Y-83125065D01*
X52048741Y-83063270D01*
X52064781Y-83049371D01*
X52229466Y-82929721D01*
X52379723Y-82779464D01*
X52379727Y-82779459D01*
X52504620Y-82607557D01*
X52601095Y-82418217D01*
X52666757Y-82216129D01*
X52666757Y-82216126D01*
X52677231Y-82150000D01*
X51629146Y-82150000D01*
X51666497Y-82085305D01*
X54950000Y-82085305D01*
X54950000Y-82314694D01*
X54950001Y-82314710D01*
X54979942Y-82542137D01*
X55039318Y-82763730D01*
X55127102Y-82975659D01*
X55127106Y-82975669D01*
X55241799Y-83174324D01*
X55241805Y-83174331D01*
X55298381Y-83248064D01*
X56022421Y-82524024D01*
X56035359Y-82555258D01*
X56117437Y-82678097D01*
X56221903Y-82782563D01*
X56344742Y-82864641D01*
X56375974Y-82877578D01*
X55651934Y-83601617D01*
X55651934Y-83601618D01*
X55725666Y-83658194D01*
X55924330Y-83772893D01*
X55924340Y-83772897D01*
X56136269Y-83860681D01*
X56357862Y-83920057D01*
X56585289Y-83949998D01*
X56585306Y-83950000D01*
X56814694Y-83950000D01*
X56814710Y-83949998D01*
X57042137Y-83920057D01*
X57263730Y-83860681D01*
X57475659Y-83772897D01*
X57475668Y-83772893D01*
X57674327Y-83658197D01*
X57674334Y-83658192D01*
X57748064Y-83601617D01*
X57024025Y-82877578D01*
X57055258Y-82864641D01*
X57178097Y-82782563D01*
X57282563Y-82678097D01*
X57364641Y-82555258D01*
X57377578Y-82524025D01*
X58101617Y-83248064D01*
X58158192Y-83174334D01*
X58158197Y-83174327D01*
X58272893Y-82975668D01*
X58272897Y-82975659D01*
X58360681Y-82763730D01*
X58420057Y-82542137D01*
X58449998Y-82314710D01*
X58450000Y-82314694D01*
X58450000Y-82085305D01*
X70150000Y-82085305D01*
X70150000Y-82314694D01*
X70150001Y-82314710D01*
X70179942Y-82542137D01*
X70239318Y-82763730D01*
X70327102Y-82975659D01*
X70327106Y-82975669D01*
X70441799Y-83174324D01*
X70441805Y-83174331D01*
X70498381Y-83248064D01*
X71222421Y-82524024D01*
X71235359Y-82555258D01*
X71317437Y-82678097D01*
X71421903Y-82782563D01*
X71544742Y-82864641D01*
X71575974Y-82877578D01*
X70851934Y-83601617D01*
X70851934Y-83601618D01*
X70925666Y-83658194D01*
X71124330Y-83772893D01*
X71124340Y-83772897D01*
X71336269Y-83860681D01*
X71557862Y-83920057D01*
X71785289Y-83949998D01*
X71785306Y-83950000D01*
X72014694Y-83950000D01*
X72014710Y-83949998D01*
X72242137Y-83920057D01*
X72463730Y-83860681D01*
X72675659Y-83772897D01*
X72675668Y-83772893D01*
X72874327Y-83658197D01*
X72874334Y-83658192D01*
X72948064Y-83601617D01*
X72224025Y-82877578D01*
X72255258Y-82864641D01*
X72378097Y-82782563D01*
X72482563Y-82678097D01*
X72564641Y-82555258D01*
X72577578Y-82524025D01*
X73301617Y-83248064D01*
X73358192Y-83174334D01*
X73358197Y-83174327D01*
X73472893Y-82975668D01*
X73472897Y-82975659D01*
X73560681Y-82763730D01*
X73620057Y-82542137D01*
X73649998Y-82314710D01*
X73650000Y-82314694D01*
X73650000Y-82085305D01*
X73649999Y-82085291D01*
X73629719Y-81931252D01*
X73629719Y-81931251D01*
X73628390Y-81921158D01*
X77499500Y-81921158D01*
X77499500Y-81928484D01*
X77499500Y-82078846D01*
X77530261Y-82233489D01*
X77530264Y-82233501D01*
X77590602Y-82379172D01*
X77590609Y-82379185D01*
X77678210Y-82510288D01*
X77678213Y-82510292D01*
X77789707Y-82621786D01*
X77789711Y-82621789D01*
X77920814Y-82709390D01*
X77920827Y-82709397D01*
X78066498Y-82769735D01*
X78066503Y-82769737D01*
X78221153Y-82800499D01*
X78221156Y-82800500D01*
X78221158Y-82800500D01*
X78378844Y-82800500D01*
X78378845Y-82800499D01*
X78533497Y-82769737D01*
X78679179Y-82709394D01*
X78810289Y-82621789D01*
X78921789Y-82510289D01*
X79009394Y-82379179D01*
X79040233Y-82304726D01*
X79084070Y-82250326D01*
X79150364Y-82228260D01*
X79218063Y-82245538D01*
X79242473Y-82264500D01*
X79402490Y-82424517D01*
X79437127Y-82449683D01*
X79479792Y-82505013D01*
X79485771Y-82574626D01*
X79453165Y-82636421D01*
X79437130Y-82650315D01*
X79419365Y-82663222D01*
X79402488Y-82675484D01*
X79235485Y-82842487D01*
X79235485Y-82842488D01*
X79235483Y-82842490D01*
X79182081Y-82915992D01*
X79096657Y-83033566D01*
X78989433Y-83244003D01*
X78916446Y-83468631D01*
X78879500Y-83701902D01*
X78879500Y-83938097D01*
X78916446Y-84171368D01*
X78989433Y-84395996D01*
X79045630Y-84506287D01*
X79096657Y-84606433D01*
X79235483Y-84797510D01*
X79402490Y-84964517D01*
X79593567Y-85103343D01*
X79602354Y-85107820D01*
X79804003Y-85210566D01*
X79804005Y-85210566D01*
X79804008Y-85210568D01*
X79868024Y-85231368D01*
X80028631Y-85283553D01*
X80261903Y-85320500D01*
X80261908Y-85320500D01*
X80498097Y-85320500D01*
X80731368Y-85283553D01*
X80742943Y-85279792D01*
X80955992Y-85210568D01*
X81166433Y-85103343D01*
X81357510Y-84964517D01*
X81524517Y-84797510D01*
X81663343Y-84606433D01*
X81770568Y-84395992D01*
X81843553Y-84171368D01*
X81880500Y-83938097D01*
X81880500Y-83701902D01*
X81843553Y-83468631D01*
X81794450Y-83317510D01*
X81770568Y-83244008D01*
X81770566Y-83244005D01*
X81770566Y-83244003D01*
X81709964Y-83125065D01*
X81663343Y-83033567D01*
X81524517Y-82842490D01*
X81357510Y-82675483D01*
X81322872Y-82650317D01*
X81280207Y-82594989D01*
X81274228Y-82525375D01*
X81306833Y-82463580D01*
X81322873Y-82449682D01*
X81357510Y-82424517D01*
X81524517Y-82257510D01*
X81663343Y-82066433D01*
X81770568Y-81855992D01*
X81843553Y-81631368D01*
X81847200Y-81608343D01*
X81880500Y-81398097D01*
X81880500Y-81161902D01*
X94119500Y-81161902D01*
X94119500Y-81398097D01*
X94156446Y-81631368D01*
X94229433Y-81855996D01*
X94283718Y-81962535D01*
X94336657Y-82066433D01*
X94475483Y-82257510D01*
X94642490Y-82424517D01*
X94677127Y-82449683D01*
X94719792Y-82505013D01*
X94725771Y-82574626D01*
X94693165Y-82636421D01*
X94677130Y-82650315D01*
X94659365Y-82663222D01*
X94642488Y-82675484D01*
X94475485Y-82842487D01*
X94475485Y-82842488D01*
X94475483Y-82842490D01*
X94422081Y-82915992D01*
X94336657Y-83033566D01*
X94229433Y-83244003D01*
X94156446Y-83468631D01*
X94119500Y-83701902D01*
X94119500Y-83938097D01*
X94156446Y-84171368D01*
X94229433Y-84395996D01*
X94285630Y-84506287D01*
X94336657Y-84606433D01*
X94475483Y-84797510D01*
X94642490Y-84964517D01*
X94833567Y-85103343D01*
X94842354Y-85107820D01*
X95044003Y-85210566D01*
X95044005Y-85210566D01*
X95044008Y-85210568D01*
X95108024Y-85231368D01*
X95268631Y-85283553D01*
X95501903Y-85320500D01*
X95501908Y-85320500D01*
X95738097Y-85320500D01*
X95971368Y-85283553D01*
X95982943Y-85279792D01*
X96195992Y-85210568D01*
X96406433Y-85103343D01*
X96597510Y-84964517D01*
X96764517Y-84797510D01*
X96903343Y-84606433D01*
X97010568Y-84395992D01*
X97083553Y-84171368D01*
X97120500Y-83938097D01*
X97120500Y-83701902D01*
X97083553Y-83468631D01*
X97034450Y-83317510D01*
X97010568Y-83244008D01*
X97010566Y-83244005D01*
X97010566Y-83244003D01*
X96949964Y-83125065D01*
X96903343Y-83033567D01*
X96764517Y-82842490D01*
X96597510Y-82675483D01*
X96562872Y-82650317D01*
X96520207Y-82594989D01*
X96514228Y-82525375D01*
X96546833Y-82463580D01*
X96562873Y-82449682D01*
X96597510Y-82424517D01*
X96764517Y-82257510D01*
X96903343Y-82066433D01*
X97010568Y-81855992D01*
X97083553Y-81631368D01*
X97087200Y-81608343D01*
X97120500Y-81398097D01*
X97120500Y-81161902D01*
X97083553Y-80928631D01*
X97025674Y-80750499D01*
X97010568Y-80704008D01*
X97010566Y-80704005D01*
X97010566Y-80704003D01*
X96903342Y-80493566D01*
X96764517Y-80302490D01*
X96597510Y-80135483D01*
X96577872Y-80121215D01*
X96535207Y-80065887D01*
X96529228Y-79996273D01*
X96561833Y-79934478D01*
X96577869Y-79920582D01*
X96627510Y-79884517D01*
X96794517Y-79717510D01*
X96933343Y-79526433D01*
X97040568Y-79315992D01*
X97113553Y-79091368D01*
X97118742Y-79058607D01*
X97150500Y-78858097D01*
X97150500Y-78621902D01*
X97113553Y-78388631D01*
X97054631Y-78207289D01*
X97040568Y-78164008D01*
X97040566Y-78164005D01*
X97040566Y-78164003D01*
X96980661Y-78046433D01*
X96933343Y-77953567D01*
X96794517Y-77762490D01*
X96627510Y-77595483D01*
X96592872Y-77570317D01*
X96550207Y-77514989D01*
X96544228Y-77445375D01*
X96576833Y-77383580D01*
X96592873Y-77369682D01*
X96627510Y-77344517D01*
X96794517Y-77177510D01*
X96933343Y-76986433D01*
X97040568Y-76775992D01*
X97113553Y-76551368D01*
X97150500Y-76318097D01*
X97150500Y-76081902D01*
X97113553Y-75848631D01*
X97040566Y-75624003D01*
X96980661Y-75506433D01*
X96933343Y-75413567D01*
X96794517Y-75222490D01*
X96627510Y-75055483D01*
X96592872Y-75030317D01*
X96550207Y-74974989D01*
X96544228Y-74905375D01*
X96576833Y-74843580D01*
X96592873Y-74829682D01*
X96627510Y-74804517D01*
X96794517Y-74637510D01*
X96933343Y-74446433D01*
X97040568Y-74235992D01*
X97113553Y-74011368D01*
X97150500Y-73778097D01*
X97150500Y-73541902D01*
X97113553Y-73308631D01*
X97040566Y-73084003D01*
X96980661Y-72966433D01*
X96933343Y-72873567D01*
X96794517Y-72682490D01*
X96627510Y-72515483D01*
X96592872Y-72490317D01*
X96550207Y-72434989D01*
X96544228Y-72365375D01*
X96576833Y-72303580D01*
X96592873Y-72289682D01*
X96627510Y-72264517D01*
X96794517Y-72097510D01*
X96933343Y-71906433D01*
X97040568Y-71695992D01*
X97113553Y-71471368D01*
X97123861Y-71406286D01*
X97150500Y-71238097D01*
X97150500Y-71001902D01*
X97113553Y-70768631D01*
X97040566Y-70544003D01*
X96977489Y-70420208D01*
X96933343Y-70333567D01*
X96794517Y-70142490D01*
X96627510Y-69975483D01*
X96592872Y-69950317D01*
X96550207Y-69894989D01*
X96544228Y-69825375D01*
X96576833Y-69763580D01*
X96592873Y-69749682D01*
X96627510Y-69724517D01*
X96794517Y-69557510D01*
X96933343Y-69366433D01*
X97040568Y-69155992D01*
X97113553Y-68931368D01*
X97123934Y-68865826D01*
X97150500Y-68698097D01*
X97150500Y-68461902D01*
X97113553Y-68228631D01*
X97040566Y-68004003D01*
X96977829Y-67880875D01*
X96933343Y-67793567D01*
X96794517Y-67602490D01*
X96627510Y-67435483D01*
X96592872Y-67410317D01*
X96550207Y-67354989D01*
X96544228Y-67285375D01*
X96576833Y-67223580D01*
X96592873Y-67209682D01*
X96627510Y-67184517D01*
X96794517Y-67017510D01*
X96933343Y-66826433D01*
X97040568Y-66615992D01*
X97113553Y-66391368D01*
X97125834Y-66313828D01*
X97150500Y-66158097D01*
X97150500Y-65921902D01*
X97113553Y-65688631D01*
X97040566Y-65464003D01*
X96972245Y-65329916D01*
X96933343Y-65253567D01*
X96794517Y-65062490D01*
X96627510Y-64895483D01*
X96592872Y-64870317D01*
X96550207Y-64814989D01*
X96544228Y-64745375D01*
X96576833Y-64683580D01*
X96592873Y-64669682D01*
X96627510Y-64644517D01*
X96794517Y-64477510D01*
X96933343Y-64286433D01*
X97040568Y-64075992D01*
X97113553Y-63851368D01*
X97136120Y-63708885D01*
X97150500Y-63618097D01*
X97150500Y-63381902D01*
X97113553Y-63148631D01*
X97040566Y-62924003D01*
X96966249Y-62778149D01*
X96933343Y-62713567D01*
X96794517Y-62522490D01*
X96627510Y-62355483D01*
X96436433Y-62216657D01*
X96406886Y-62201602D01*
X96225996Y-62109433D01*
X96001368Y-62036446D01*
X95768097Y-61999500D01*
X95768092Y-61999500D01*
X95531908Y-61999500D01*
X95531903Y-61999500D01*
X95298631Y-62036446D01*
X95074003Y-62109433D01*
X94863566Y-62216657D01*
X94754550Y-62295862D01*
X94672490Y-62355483D01*
X94672488Y-62355485D01*
X94672487Y-62355485D01*
X94505485Y-62522487D01*
X94505485Y-62522488D01*
X94505483Y-62522490D01*
X94454459Y-62592718D01*
X94366657Y-62713566D01*
X94259433Y-62924003D01*
X94186446Y-63148631D01*
X94149500Y-63381902D01*
X94149500Y-63618097D01*
X94186446Y-63851368D01*
X94259433Y-64075996D01*
X94338477Y-64231127D01*
X94366657Y-64286433D01*
X94505483Y-64477510D01*
X94672490Y-64644517D01*
X94707127Y-64669683D01*
X94749792Y-64725013D01*
X94755771Y-64794626D01*
X94723165Y-64856421D01*
X94707130Y-64870315D01*
X94689365Y-64883222D01*
X94672488Y-64895484D01*
X94505485Y-65062487D01*
X94505485Y-65062488D01*
X94505483Y-65062490D01*
X94445862Y-65144550D01*
X94366657Y-65253566D01*
X94259433Y-65464003D01*
X94186446Y-65688631D01*
X94149500Y-65921902D01*
X94149500Y-66158097D01*
X94186446Y-66391368D01*
X94259433Y-66615996D01*
X94349618Y-66792993D01*
X94366657Y-66826433D01*
X94505483Y-67017510D01*
X94672490Y-67184517D01*
X94707127Y-67209683D01*
X94749792Y-67265013D01*
X94755771Y-67334626D01*
X94723165Y-67396421D01*
X94707130Y-67410315D01*
X94689365Y-67423222D01*
X94672488Y-67435484D01*
X94505485Y-67602487D01*
X94505485Y-67602488D01*
X94505483Y-67602490D01*
X94489608Y-67624340D01*
X94366657Y-67793566D01*
X94259433Y-68004003D01*
X94186446Y-68228631D01*
X94149500Y-68461902D01*
X94149500Y-68698097D01*
X94186446Y-68931368D01*
X94259433Y-69155996D01*
X94354500Y-69342573D01*
X94366657Y-69366433D01*
X94505483Y-69557510D01*
X94672490Y-69724517D01*
X94707127Y-69749683D01*
X94749792Y-69805013D01*
X94755771Y-69874626D01*
X94723165Y-69936421D01*
X94707130Y-69950315D01*
X94689365Y-69963222D01*
X94672488Y-69975484D01*
X94505485Y-70142487D01*
X94505485Y-70142488D01*
X94505483Y-70142490D01*
X94457360Y-70208726D01*
X94366657Y-70333566D01*
X94259433Y-70544003D01*
X94186446Y-70768631D01*
X94149500Y-71001902D01*
X94149500Y-71238097D01*
X94186446Y-71471368D01*
X94259433Y-71695996D01*
X94321808Y-71818412D01*
X94366657Y-71906433D01*
X94505483Y-72097510D01*
X94672490Y-72264517D01*
X94707127Y-72289683D01*
X94749792Y-72345013D01*
X94755771Y-72414626D01*
X94723165Y-72476421D01*
X94707130Y-72490315D01*
X94689365Y-72503222D01*
X94672488Y-72515484D01*
X94505485Y-72682487D01*
X94505485Y-72682488D01*
X94505483Y-72682490D01*
X94452081Y-72755992D01*
X94366657Y-72873566D01*
X94259433Y-73084003D01*
X94186446Y-73308631D01*
X94149500Y-73541902D01*
X94149500Y-73778097D01*
X94186446Y-74011368D01*
X94259433Y-74235996D01*
X94327015Y-74368631D01*
X94366657Y-74446433D01*
X94505483Y-74637510D01*
X94672490Y-74804517D01*
X94707127Y-74829683D01*
X94749792Y-74885013D01*
X94755771Y-74954626D01*
X94723165Y-75016421D01*
X94707130Y-75030315D01*
X94689365Y-75043222D01*
X94672488Y-75055484D01*
X94505485Y-75222487D01*
X94505485Y-75222488D01*
X94505483Y-75222490D01*
X94452081Y-75295992D01*
X94366657Y-75413566D01*
X94259433Y-75624003D01*
X94186446Y-75848631D01*
X94149500Y-76081902D01*
X94149500Y-76318097D01*
X94186446Y-76551368D01*
X94259433Y-76775996D01*
X94327015Y-76908631D01*
X94366657Y-76986433D01*
X94505483Y-77177510D01*
X94672490Y-77344517D01*
X94707127Y-77369683D01*
X94749792Y-77425013D01*
X94755771Y-77494626D01*
X94723165Y-77556421D01*
X94707130Y-77570315D01*
X94689365Y-77583222D01*
X94672488Y-77595484D01*
X94505485Y-77762487D01*
X94505485Y-77762488D01*
X94505483Y-77762490D01*
X94452081Y-77835992D01*
X94366657Y-77953566D01*
X94259433Y-78164003D01*
X94186446Y-78388631D01*
X94149500Y-78621902D01*
X94149500Y-78858097D01*
X94186446Y-79091368D01*
X94259433Y-79315996D01*
X94327015Y-79448631D01*
X94366657Y-79526433D01*
X94505483Y-79717510D01*
X94672490Y-79884517D01*
X94692126Y-79898783D01*
X94734792Y-79954111D01*
X94740772Y-80023725D01*
X94708166Y-80085520D01*
X94692128Y-80099418D01*
X94642490Y-80135482D01*
X94475485Y-80302487D01*
X94475485Y-80302488D01*
X94475483Y-80302490D01*
X94463244Y-80319336D01*
X94336657Y-80493566D01*
X94229433Y-80704003D01*
X94156446Y-80928631D01*
X94119500Y-81161902D01*
X81880500Y-81161902D01*
X81843553Y-80928631D01*
X81785674Y-80750499D01*
X81770568Y-80704008D01*
X81770566Y-80704005D01*
X81770566Y-80704003D01*
X81663342Y-80493566D01*
X81524517Y-80302490D01*
X81357510Y-80135483D01*
X81357506Y-80135480D01*
X81307872Y-80099418D01*
X81265207Y-80044087D01*
X81259229Y-79974474D01*
X81291836Y-79912679D01*
X81307874Y-79898782D01*
X81327510Y-79884517D01*
X81494517Y-79717510D01*
X81633343Y-79526433D01*
X81740568Y-79315992D01*
X81813553Y-79091368D01*
X81818742Y-79058607D01*
X81850500Y-78858097D01*
X81850500Y-78621902D01*
X81813553Y-78388631D01*
X81754631Y-78207289D01*
X81740568Y-78164008D01*
X81740566Y-78164005D01*
X81740566Y-78164003D01*
X81680661Y-78046433D01*
X81633343Y-77953567D01*
X81494517Y-77762490D01*
X81327510Y-77595483D01*
X81292872Y-77570317D01*
X81250207Y-77514989D01*
X81244228Y-77445375D01*
X81276833Y-77383580D01*
X81292873Y-77369682D01*
X81327510Y-77344517D01*
X81494517Y-77177510D01*
X81633343Y-76986433D01*
X81740568Y-76775992D01*
X81813553Y-76551368D01*
X81850500Y-76318097D01*
X81850500Y-76081902D01*
X81813553Y-75848631D01*
X81740566Y-75624003D01*
X81680661Y-75506433D01*
X81633343Y-75413567D01*
X81494517Y-75222490D01*
X81327510Y-75055483D01*
X81292872Y-75030317D01*
X81250207Y-74974989D01*
X81244228Y-74905375D01*
X81276833Y-74843580D01*
X81292873Y-74829682D01*
X81327510Y-74804517D01*
X81494517Y-74637510D01*
X81633343Y-74446433D01*
X81740568Y-74235992D01*
X81813553Y-74011368D01*
X81850500Y-73778097D01*
X81850500Y-73541902D01*
X81813553Y-73308631D01*
X81740566Y-73084003D01*
X81680661Y-72966433D01*
X81633343Y-72873567D01*
X81494517Y-72682490D01*
X81327510Y-72515483D01*
X81292872Y-72490317D01*
X81250207Y-72434989D01*
X81244228Y-72365375D01*
X81276833Y-72303580D01*
X81292873Y-72289682D01*
X81327510Y-72264517D01*
X81494517Y-72097510D01*
X81633343Y-71906433D01*
X81740568Y-71695992D01*
X81813553Y-71471368D01*
X81823861Y-71406286D01*
X81850500Y-71238097D01*
X81850500Y-71001902D01*
X81813553Y-70768631D01*
X81740566Y-70544003D01*
X81677489Y-70420208D01*
X81633343Y-70333567D01*
X81494517Y-70142490D01*
X81327510Y-69975483D01*
X81292872Y-69950317D01*
X81250207Y-69894989D01*
X81244228Y-69825375D01*
X81276833Y-69763580D01*
X81292873Y-69749682D01*
X81327510Y-69724517D01*
X81494517Y-69557510D01*
X81633343Y-69366433D01*
X81740568Y-69155992D01*
X81813553Y-68931368D01*
X81823934Y-68865826D01*
X81850500Y-68698097D01*
X81850500Y-68461902D01*
X81813553Y-68228631D01*
X81740566Y-68004003D01*
X81677829Y-67880875D01*
X81633343Y-67793567D01*
X81494517Y-67602490D01*
X81327510Y-67435483D01*
X81313988Y-67425659D01*
X81268283Y-67392452D01*
X81225617Y-67337122D01*
X81217550Y-67282404D01*
X81219104Y-67262657D01*
X80479408Y-66522962D01*
X80542993Y-66505925D01*
X80657007Y-66440099D01*
X80750099Y-66347007D01*
X80815925Y-66232993D01*
X80832962Y-66169409D01*
X81572658Y-66909105D01*
X81572658Y-66909104D01*
X81632914Y-66826169D01*
X81632918Y-66826163D01*
X81740102Y-66615802D01*
X81813065Y-66391247D01*
X81850000Y-66158052D01*
X81850000Y-65921947D01*
X81813065Y-65688752D01*
X81740102Y-65464197D01*
X81632914Y-65253828D01*
X81572658Y-65170894D01*
X81572658Y-65170893D01*
X80832962Y-65910590D01*
X80815925Y-65847007D01*
X80750099Y-65732993D01*
X80657007Y-65639901D01*
X80542993Y-65574075D01*
X80479408Y-65557037D01*
X81219105Y-64817340D01*
X81217551Y-64797594D01*
X81231915Y-64729216D01*
X81268284Y-64687547D01*
X81327510Y-64644517D01*
X81494517Y-64477510D01*
X81633343Y-64286433D01*
X81740568Y-64075992D01*
X81813553Y-63851368D01*
X81836120Y-63708885D01*
X81850500Y-63618097D01*
X81850500Y-63381902D01*
X81813553Y-63148631D01*
X81740566Y-62924003D01*
X81666249Y-62778149D01*
X81633343Y-62713567D01*
X81494517Y-62522490D01*
X81327510Y-62355483D01*
X81136433Y-62216657D01*
X81106886Y-62201602D01*
X80925996Y-62109433D01*
X80701368Y-62036446D01*
X80468097Y-61999500D01*
X80468092Y-61999500D01*
X80231908Y-61999500D01*
X80231903Y-61999500D01*
X79998631Y-62036446D01*
X79774003Y-62109433D01*
X79563566Y-62216657D01*
X79454550Y-62295862D01*
X79372490Y-62355483D01*
X79372488Y-62355485D01*
X79372487Y-62355485D01*
X79205485Y-62522487D01*
X79205485Y-62522488D01*
X79205483Y-62522490D01*
X79154459Y-62592718D01*
X79066657Y-62713566D01*
X78959433Y-62924003D01*
X78886446Y-63148631D01*
X78849500Y-63381902D01*
X78849500Y-63618097D01*
X78882737Y-63827950D01*
X78873782Y-63897244D01*
X78847945Y-63935029D01*
X77713943Y-65069030D01*
X77713942Y-65069031D01*
X77631372Y-65192607D01*
X77631366Y-65192618D01*
X77574496Y-65329916D01*
X77574493Y-65329926D01*
X77545499Y-65475685D01*
X77545499Y-65630425D01*
X77545500Y-65630446D01*
X77545500Y-81705053D01*
X77544021Y-81712484D01*
X77542628Y-81731584D01*
X77540272Y-81742336D01*
X77530263Y-81766503D01*
X77499500Y-81921158D01*
X73628390Y-81921158D01*
X73620057Y-81857862D01*
X73560681Y-81636269D01*
X73472897Y-81424340D01*
X73472893Y-81424330D01*
X73358194Y-81225666D01*
X73301618Y-81151934D01*
X73301617Y-81151934D01*
X72577577Y-81875973D01*
X72564641Y-81844742D01*
X72482563Y-81721903D01*
X72378097Y-81617437D01*
X72255258Y-81535359D01*
X72224023Y-81522421D01*
X72948064Y-80798381D01*
X72948064Y-80798380D01*
X72874331Y-80741805D01*
X72874324Y-80741799D01*
X72675669Y-80627106D01*
X72675659Y-80627102D01*
X72463730Y-80539318D01*
X72242137Y-80479942D01*
X72014710Y-80450001D01*
X72014694Y-80450000D01*
X71785306Y-80450000D01*
X71785289Y-80450001D01*
X71557862Y-80479942D01*
X71336269Y-80539318D01*
X71124340Y-80627102D01*
X71124330Y-80627106D01*
X70925673Y-80741801D01*
X70925659Y-80741810D01*
X70851934Y-80798380D01*
X71575975Y-81522421D01*
X71544742Y-81535359D01*
X71421903Y-81617437D01*
X71317437Y-81721903D01*
X71235359Y-81844742D01*
X71222421Y-81875974D01*
X70498381Y-81151934D01*
X70498380Y-81151934D01*
X70441810Y-81225659D01*
X70441801Y-81225673D01*
X70327106Y-81424330D01*
X70327102Y-81424340D01*
X70239318Y-81636269D01*
X70179942Y-81857862D01*
X70150001Y-82085289D01*
X70150000Y-82085305D01*
X58450000Y-82085305D01*
X58449998Y-82085289D01*
X58420057Y-81857862D01*
X58360681Y-81636269D01*
X58272897Y-81424340D01*
X58272893Y-81424330D01*
X58158194Y-81225666D01*
X58101618Y-81151934D01*
X58101617Y-81151934D01*
X57377577Y-81875973D01*
X57364641Y-81844742D01*
X57282563Y-81721903D01*
X57178097Y-81617437D01*
X57055258Y-81535359D01*
X57024023Y-81522421D01*
X57748064Y-80798381D01*
X57748064Y-80798380D01*
X57674331Y-80741805D01*
X57674324Y-80741799D01*
X57475669Y-80627106D01*
X57475659Y-80627102D01*
X57263730Y-80539318D01*
X57042137Y-80479942D01*
X56814710Y-80450001D01*
X56814694Y-80450000D01*
X56585306Y-80450000D01*
X56585289Y-80450001D01*
X56357862Y-80479942D01*
X56136269Y-80539318D01*
X55924340Y-80627102D01*
X55924330Y-80627106D01*
X55725673Y-80741801D01*
X55725659Y-80741810D01*
X55651934Y-80798380D01*
X56375975Y-81522421D01*
X56344742Y-81535359D01*
X56221903Y-81617437D01*
X56117437Y-81721903D01*
X56035359Y-81844742D01*
X56022421Y-81875975D01*
X55298380Y-81151934D01*
X55241810Y-81225659D01*
X55241801Y-81225673D01*
X55127106Y-81424330D01*
X55127102Y-81424340D01*
X55039318Y-81636269D01*
X54979942Y-81857862D01*
X54950001Y-82085289D01*
X54950000Y-82085305D01*
X51666497Y-82085305D01*
X51667630Y-82083343D01*
X51700000Y-81962535D01*
X51700000Y-81837465D01*
X51667630Y-81716657D01*
X51629146Y-81650000D01*
X52677231Y-81650000D01*
X52666757Y-81583873D01*
X52666757Y-81583870D01*
X52601095Y-81381782D01*
X52504620Y-81192442D01*
X52379727Y-81020540D01*
X52379723Y-81020535D01*
X52240856Y-80881668D01*
X52207371Y-80820345D01*
X52212355Y-80750653D01*
X52254227Y-80694720D01*
X52263441Y-80688448D01*
X52269331Y-80684814D01*
X52269334Y-80684814D01*
X52418656Y-80592712D01*
X52542712Y-80468656D01*
X52634814Y-80319334D01*
X52689999Y-80152797D01*
X52700500Y-80050009D01*
X52700499Y-78749992D01*
X52700147Y-78746550D01*
X52689999Y-78647203D01*
X52689998Y-78647200D01*
X52679799Y-78616421D01*
X52634814Y-78480666D01*
X52542712Y-78331344D01*
X52418656Y-78207288D01*
X52269334Y-78115186D01*
X52102797Y-78060001D01*
X52102795Y-78060000D01*
X52000010Y-78049500D01*
X50449998Y-78049500D01*
X50449981Y-78049501D01*
X50347203Y-78060000D01*
X50347200Y-78060001D01*
X50180668Y-78115185D01*
X50180663Y-78115187D01*
X50031342Y-78207289D01*
X49907289Y-78331342D01*
X49815187Y-78480663D01*
X49815185Y-78480668D01*
X49806998Y-78505375D01*
X49760001Y-78647203D01*
X49760001Y-78647204D01*
X49760000Y-78647204D01*
X49749500Y-78749983D01*
X45656865Y-78749983D01*
X45656873Y-78746550D01*
X45659616Y-77547787D01*
X45659759Y-77485258D01*
X54949500Y-77485258D01*
X54949500Y-77714741D01*
X54974446Y-77904215D01*
X54979452Y-77942238D01*
X55025793Y-78115186D01*
X55038842Y-78163887D01*
X55126650Y-78375876D01*
X55126657Y-78375890D01*
X55241392Y-78574617D01*
X55381081Y-78756661D01*
X55381089Y-78756670D01*
X55543330Y-78918911D01*
X55543338Y-78918918D01*
X55725382Y-79058607D01*
X55725385Y-79058608D01*
X55725388Y-79058611D01*
X55924112Y-79173344D01*
X55924117Y-79173346D01*
X55924123Y-79173349D01*
X56015480Y-79211190D01*
X56136113Y-79261158D01*
X56357762Y-79320548D01*
X56585266Y-79350500D01*
X56585273Y-79350500D01*
X56814727Y-79350500D01*
X56814734Y-79350500D01*
X57042238Y-79320548D01*
X57263887Y-79261158D01*
X57475888Y-79173344D01*
X57674612Y-79058611D01*
X57856661Y-78918919D01*
X57856665Y-78918914D01*
X57856670Y-78918911D01*
X58018911Y-78756670D01*
X58018914Y-78756665D01*
X58018919Y-78756661D01*
X58158611Y-78574612D01*
X58273344Y-78375888D01*
X58361158Y-78163887D01*
X58420548Y-77942238D01*
X58450500Y-77714734D01*
X58450500Y-77485266D01*
X58450499Y-77485258D01*
X70149500Y-77485258D01*
X70149500Y-77714741D01*
X70174446Y-77904215D01*
X70179452Y-77942238D01*
X70225793Y-78115186D01*
X70238842Y-78163887D01*
X70326650Y-78375876D01*
X70326657Y-78375890D01*
X70441392Y-78574617D01*
X70581081Y-78756661D01*
X70581089Y-78756670D01*
X70743330Y-78918911D01*
X70743338Y-78918918D01*
X70925382Y-79058607D01*
X70925385Y-79058608D01*
X70925388Y-79058611D01*
X71124112Y-79173344D01*
X71124117Y-79173346D01*
X71124123Y-79173349D01*
X71215480Y-79211190D01*
X71336113Y-79261158D01*
X71557762Y-79320548D01*
X71785266Y-79350500D01*
X71785273Y-79350500D01*
X72014727Y-79350500D01*
X72014734Y-79350500D01*
X72242238Y-79320548D01*
X72463887Y-79261158D01*
X72675888Y-79173344D01*
X72874612Y-79058611D01*
X73056661Y-78918919D01*
X73056665Y-78918914D01*
X73056670Y-78918911D01*
X73218911Y-78756670D01*
X73218914Y-78756665D01*
X73218919Y-78756661D01*
X73358611Y-78574612D01*
X73473344Y-78375888D01*
X73561158Y-78163887D01*
X73620548Y-77942238D01*
X73650500Y-77714734D01*
X73650500Y-77485266D01*
X73620548Y-77257762D01*
X73561158Y-77036113D01*
X73473344Y-76824112D01*
X73358611Y-76625388D01*
X73358608Y-76625385D01*
X73358607Y-76625382D01*
X73218918Y-76443338D01*
X73218911Y-76443330D01*
X73056670Y-76281089D01*
X73056661Y-76281081D01*
X72874617Y-76141392D01*
X72675890Y-76026657D01*
X72675876Y-76026650D01*
X72463887Y-75938842D01*
X72242238Y-75879452D01*
X72204215Y-75874446D01*
X72014741Y-75849500D01*
X72014734Y-75849500D01*
X71785266Y-75849500D01*
X71785258Y-75849500D01*
X71568715Y-75878009D01*
X71557762Y-75879452D01*
X71519583Y-75889682D01*
X71336112Y-75938842D01*
X71124123Y-76026650D01*
X71124109Y-76026657D01*
X70925382Y-76141392D01*
X70743338Y-76281081D01*
X70581081Y-76443338D01*
X70441392Y-76625382D01*
X70326657Y-76824109D01*
X70326650Y-76824123D01*
X70269303Y-76962573D01*
X70238842Y-77036113D01*
X70184692Y-77238208D01*
X70179453Y-77257759D01*
X70179451Y-77257770D01*
X70149500Y-77485258D01*
X58450499Y-77485258D01*
X58420548Y-77257762D01*
X58361158Y-77036113D01*
X58273344Y-76824112D01*
X58158611Y-76625388D01*
X58158608Y-76625385D01*
X58158607Y-76625382D01*
X58018918Y-76443338D01*
X58018911Y-76443330D01*
X57856670Y-76281089D01*
X57856661Y-76281081D01*
X57674617Y-76141392D01*
X57475890Y-76026657D01*
X57475876Y-76026650D01*
X57263887Y-75938842D01*
X57042238Y-75879452D01*
X57004215Y-75874446D01*
X56814741Y-75849500D01*
X56814734Y-75849500D01*
X56585266Y-75849500D01*
X56585258Y-75849500D01*
X56368715Y-75878009D01*
X56357762Y-75879452D01*
X56319583Y-75889682D01*
X56136112Y-75938842D01*
X55924123Y-76026650D01*
X55924109Y-76026657D01*
X55725382Y-76141392D01*
X55543338Y-76281081D01*
X55381081Y-76443338D01*
X55241392Y-76625382D01*
X55126657Y-76824109D01*
X55126650Y-76824123D01*
X55069303Y-76962573D01*
X55038842Y-77036113D01*
X54984692Y-77238208D01*
X54979453Y-77257759D01*
X54979451Y-77257770D01*
X54949500Y-77485258D01*
X45659759Y-77485258D01*
X45674156Y-71193713D01*
X49699500Y-71193713D01*
X49699500Y-71406287D01*
X49732754Y-71616243D01*
X49758667Y-71695996D01*
X49798444Y-71818414D01*
X49894951Y-72007820D01*
X50019890Y-72179786D01*
X50170213Y-72330109D01*
X50342179Y-72455048D01*
X50342181Y-72455049D01*
X50342184Y-72455051D01*
X50531588Y-72551557D01*
X50733757Y-72617246D01*
X50943713Y-72650500D01*
X50943714Y-72650500D01*
X51456286Y-72650500D01*
X51456287Y-72650500D01*
X51666243Y-72617246D01*
X51868412Y-72551557D01*
X52057816Y-72455051D01*
X52152921Y-72385954D01*
X52229786Y-72330109D01*
X52229788Y-72330106D01*
X52229792Y-72330104D01*
X52380104Y-72179792D01*
X52380106Y-72179788D01*
X52380109Y-72179786D01*
X52505048Y-72007820D01*
X52505047Y-72007820D01*
X52505051Y-72007816D01*
X52601557Y-71818412D01*
X52667246Y-71616243D01*
X52700500Y-71406287D01*
X52700500Y-71193713D01*
X52667246Y-70983757D01*
X52601557Y-70781588D01*
X52505051Y-70592184D01*
X52505049Y-70592181D01*
X52505048Y-70592179D01*
X52380109Y-70420213D01*
X52240931Y-70281035D01*
X52207446Y-70219712D01*
X52212430Y-70150020D01*
X52254302Y-70094087D01*
X52263516Y-70087815D01*
X52418343Y-69992317D01*
X52542315Y-69868345D01*
X52634356Y-69719124D01*
X52634360Y-69719115D01*
X52635837Y-69714659D01*
X52689505Y-69552697D01*
X52689506Y-69552690D01*
X52699999Y-69449986D01*
X52700000Y-69449973D01*
X52700000Y-69050000D01*
X51633012Y-69050000D01*
X51665925Y-68992993D01*
X51700000Y-68865826D01*
X51700000Y-68734174D01*
X51665925Y-68607007D01*
X51633012Y-68550000D01*
X52699999Y-68550000D01*
X52699999Y-68285305D01*
X54950000Y-68285305D01*
X54950000Y-68514694D01*
X54950001Y-68514710D01*
X54979942Y-68742137D01*
X55039318Y-68963730D01*
X55127102Y-69175659D01*
X55127106Y-69175669D01*
X55241799Y-69374324D01*
X55241805Y-69374331D01*
X55298381Y-69448064D01*
X56022421Y-68724024D01*
X56035359Y-68755258D01*
X56117437Y-68878097D01*
X56221903Y-68982563D01*
X56344742Y-69064641D01*
X56375974Y-69077578D01*
X55651934Y-69801617D01*
X55651934Y-69801618D01*
X55725666Y-69858194D01*
X55924330Y-69972893D01*
X55924340Y-69972897D01*
X56136269Y-70060681D01*
X56357862Y-70120057D01*
X56585289Y-70149998D01*
X56585306Y-70150000D01*
X56814694Y-70150000D01*
X56814710Y-70149998D01*
X57042137Y-70120057D01*
X57263730Y-70060681D01*
X57475659Y-69972897D01*
X57475668Y-69972893D01*
X57674327Y-69858197D01*
X57674334Y-69858192D01*
X57748064Y-69801617D01*
X57024025Y-69077578D01*
X57055258Y-69064641D01*
X57178097Y-68982563D01*
X57282563Y-68878097D01*
X57364641Y-68755258D01*
X57377578Y-68724025D01*
X58101617Y-69448064D01*
X58158192Y-69374334D01*
X58158197Y-69374327D01*
X58272893Y-69175668D01*
X58272897Y-69175659D01*
X58360681Y-68963730D01*
X58420057Y-68742137D01*
X58449998Y-68514710D01*
X58450000Y-68514694D01*
X58450000Y-68285305D01*
X70150000Y-68285305D01*
X70150000Y-68514694D01*
X70150001Y-68514710D01*
X70179942Y-68742137D01*
X70239318Y-68963730D01*
X70327102Y-69175659D01*
X70327106Y-69175669D01*
X70441799Y-69374324D01*
X70441805Y-69374331D01*
X70498381Y-69448064D01*
X71222421Y-68724024D01*
X71235359Y-68755258D01*
X71317437Y-68878097D01*
X71421903Y-68982563D01*
X71544742Y-69064641D01*
X71575974Y-69077578D01*
X70851934Y-69801617D01*
X70851934Y-69801618D01*
X70925666Y-69858194D01*
X71124330Y-69972893D01*
X71124340Y-69972897D01*
X71336269Y-70060681D01*
X71557862Y-70120057D01*
X71785289Y-70149998D01*
X71785306Y-70150000D01*
X72014694Y-70150000D01*
X72014710Y-70149998D01*
X72242137Y-70120057D01*
X72463730Y-70060681D01*
X72675659Y-69972897D01*
X72675668Y-69972893D01*
X72874327Y-69858197D01*
X72874334Y-69858192D01*
X72948064Y-69801617D01*
X72224025Y-69077578D01*
X72255258Y-69064641D01*
X72378097Y-68982563D01*
X72482563Y-68878097D01*
X72564641Y-68755258D01*
X72577578Y-68724025D01*
X73301617Y-69448064D01*
X73358192Y-69374334D01*
X73358197Y-69374327D01*
X73472893Y-69175668D01*
X73472897Y-69175659D01*
X73560681Y-68963730D01*
X73620057Y-68742137D01*
X73649998Y-68514710D01*
X73650000Y-68514694D01*
X73650000Y-68285305D01*
X73649998Y-68285289D01*
X73620057Y-68057862D01*
X73560681Y-67836269D01*
X73472897Y-67624340D01*
X73472893Y-67624330D01*
X73358194Y-67425666D01*
X73301618Y-67351934D01*
X73301617Y-67351934D01*
X72577577Y-68075973D01*
X72564641Y-68044742D01*
X72482563Y-67921903D01*
X72378097Y-67817437D01*
X72255258Y-67735359D01*
X72224023Y-67722421D01*
X72948064Y-66998381D01*
X72948064Y-66998380D01*
X72874331Y-66941805D01*
X72874324Y-66941799D01*
X72675669Y-66827106D01*
X72675659Y-66827102D01*
X72463730Y-66739318D01*
X72242137Y-66679942D01*
X72014710Y-66650001D01*
X72014694Y-66650000D01*
X71785306Y-66650000D01*
X71785289Y-66650001D01*
X71557862Y-66679942D01*
X71336269Y-66739318D01*
X71124340Y-66827102D01*
X71124330Y-66827106D01*
X70925673Y-66941801D01*
X70925659Y-66941810D01*
X70851934Y-66998380D01*
X71575975Y-67722421D01*
X71544742Y-67735359D01*
X71421903Y-67817437D01*
X71317437Y-67921903D01*
X71235359Y-68044742D01*
X71222421Y-68075974D01*
X70498381Y-67351934D01*
X70498380Y-67351934D01*
X70441810Y-67425659D01*
X70441801Y-67425673D01*
X70327106Y-67624330D01*
X70327102Y-67624340D01*
X70239318Y-67836269D01*
X70179942Y-68057862D01*
X70150001Y-68285289D01*
X70150000Y-68285305D01*
X58450000Y-68285305D01*
X58449998Y-68285289D01*
X58420057Y-68057862D01*
X58360681Y-67836269D01*
X58272897Y-67624340D01*
X58272893Y-67624330D01*
X58158194Y-67425666D01*
X58101618Y-67351934D01*
X58101617Y-67351934D01*
X57377577Y-68075973D01*
X57364641Y-68044742D01*
X57282563Y-67921903D01*
X57178097Y-67817437D01*
X57055258Y-67735359D01*
X57024023Y-67722421D01*
X57748064Y-66998381D01*
X57748064Y-66998380D01*
X57674331Y-66941805D01*
X57674324Y-66941799D01*
X57475669Y-66827106D01*
X57475659Y-66827102D01*
X57263730Y-66739318D01*
X57042137Y-66679942D01*
X56814710Y-66650001D01*
X56814694Y-66650000D01*
X56585306Y-66650000D01*
X56585289Y-66650001D01*
X56357862Y-66679942D01*
X56136269Y-66739318D01*
X55924340Y-66827102D01*
X55924330Y-66827106D01*
X55725673Y-66941801D01*
X55725659Y-66941810D01*
X55651934Y-66998380D01*
X56375975Y-67722421D01*
X56344742Y-67735359D01*
X56221903Y-67817437D01*
X56117437Y-67921903D01*
X56035359Y-68044742D01*
X56022421Y-68075975D01*
X55298380Y-67351934D01*
X55241810Y-67425659D01*
X55241801Y-67425673D01*
X55127106Y-67624330D01*
X55127102Y-67624340D01*
X55039318Y-67836269D01*
X54979942Y-68057862D01*
X54950001Y-68285289D01*
X54950000Y-68285305D01*
X52699999Y-68285305D01*
X52699999Y-68150028D01*
X52699998Y-68150013D01*
X52689505Y-68047302D01*
X52634358Y-67880880D01*
X52634356Y-67880875D01*
X52542315Y-67731654D01*
X52418345Y-67607684D01*
X52269124Y-67515643D01*
X52269119Y-67515641D01*
X52102697Y-67460494D01*
X52102690Y-67460493D01*
X51999986Y-67450000D01*
X51450000Y-67450000D01*
X51450000Y-68366988D01*
X51392993Y-68334075D01*
X51265826Y-68300000D01*
X51134174Y-68300000D01*
X51007007Y-68334075D01*
X50950000Y-68366988D01*
X50950000Y-67450000D01*
X50400028Y-67450000D01*
X50400012Y-67450001D01*
X50297302Y-67460494D01*
X50130880Y-67515641D01*
X50130875Y-67515643D01*
X49981654Y-67607684D01*
X49857684Y-67731654D01*
X49765643Y-67880875D01*
X49765641Y-67880880D01*
X49710494Y-68047302D01*
X49710493Y-68047309D01*
X49700000Y-68150013D01*
X49700000Y-68550000D01*
X50766988Y-68550000D01*
X50734075Y-68607007D01*
X50700000Y-68734174D01*
X50700000Y-68865826D01*
X50734075Y-68992993D01*
X50766988Y-69050000D01*
X49700001Y-69050000D01*
X49700001Y-69449986D01*
X49710494Y-69552697D01*
X49765641Y-69719119D01*
X49765643Y-69719124D01*
X49857684Y-69868345D01*
X49981654Y-69992315D01*
X50136484Y-70087815D01*
X50183208Y-70139763D01*
X50194431Y-70208726D01*
X50166587Y-70272808D01*
X50159069Y-70281035D01*
X50019889Y-70420215D01*
X49894951Y-70592179D01*
X49798444Y-70781585D01*
X49732753Y-70983760D01*
X49724561Y-71035483D01*
X49699500Y-71193713D01*
X45674156Y-71193713D01*
X45699717Y-60023507D01*
X45719555Y-59956515D01*
X45772464Y-59910881D01*
X45823508Y-59899793D01*
X105276077Y-59800207D01*
X105343149Y-59819779D01*
G37*
G04 #@! TD.AperFunction*
M02*
