G04 #@! TF.GenerationSoftware,KiCad,Pcbnew,9.0.3*
G04 #@! TF.CreationDate,2025-09-20T17:33:13+02:00*
G04 #@! TF.ProjectId,CacophonyV3,4361636f-7068-46f6-9e79-56332e6b6963,rev?*
G04 #@! TF.SameCoordinates,Original*
G04 #@! TF.FileFunction,Soldermask,Bot*
G04 #@! TF.FilePolarity,Negative*
%FSLAX46Y46*%
G04 Gerber Fmt 4.6, Leading zero omitted, Abs format (unit mm)*
G04 Created by KiCad (PCBNEW 9.0.3) date 2025-09-20 17:33:13*
%MOMM*%
%LPD*%
G01*
G04 APERTURE LIST*
G04 Aperture macros list*
%AMRoundRect*
0 Rectangle with rounded corners*
0 $1 Rounding radius*
0 $2 $3 $4 $5 $6 $7 $8 $9 X,Y pos of 4 corners*
0 Add a 4 corners polygon primitive as box body*
4,1,4,$2,$3,$4,$5,$6,$7,$8,$9,$2,$3,0*
0 Add four circle primitives for the rounded corners*
1,1,$1+$1,$2,$3*
1,1,$1+$1,$4,$5*
1,1,$1+$1,$6,$7*
1,1,$1+$1,$8,$9*
0 Add four rect primitives between the rounded corners*
20,1,$1+$1,$2,$3,$4,$5,0*
20,1,$1+$1,$4,$5,$6,$7,0*
20,1,$1+$1,$6,$7,$8,$9,0*
20,1,$1+$1,$8,$9,$2,$3,0*%
G04 Aperture macros list end*
%ADD10C,2.000000*%
%ADD11C,2.500000*%
%ADD12RoundRect,0.250000X0.600000X0.725000X-0.600000X0.725000X-0.600000X-0.725000X0.600000X-0.725000X0*%
%ADD13O,1.700000X1.950000*%
%ADD14C,3.200000*%
%ADD15RoundRect,0.250000X-0.725000X0.600000X-0.725000X-0.600000X0.725000X-0.600000X0.725000X0.600000X0*%
%ADD16O,1.950000X1.700000*%
%ADD17RoundRect,0.250000X-0.600000X-0.725000X0.600000X-0.725000X0.600000X0.725000X-0.600000X0.725000X0*%
%ADD18RoundRect,0.250000X-0.750000X0.600000X-0.750000X-0.600000X0.750000X-0.600000X0.750000X0.600000X0*%
%ADD19O,2.000000X1.700000*%
G04 APERTURE END LIST*
D10*
X102500000Y-77260000D03*
X102500000Y-79800000D03*
X102500000Y-82340000D03*
X102500000Y-84880000D03*
X102500000Y-87420000D03*
X102500000Y-89960000D03*
X102500000Y-92500000D03*
X102500000Y-67100000D03*
X102500000Y-69640000D03*
X102500000Y-72180000D03*
X102500000Y-74720000D03*
X102500000Y-95040000D03*
D11*
X56700000Y-77600000D03*
X56700000Y-68400000D03*
X71900000Y-77600000D03*
X71900000Y-68400000D03*
X56700000Y-91400000D03*
X56700000Y-82200000D03*
X71900000Y-91400000D03*
X71900000Y-82200000D03*
D12*
X92000000Y-91000000D03*
D13*
X89500000Y-91000000D03*
X87000000Y-91000000D03*
X84500000Y-91000000D03*
D14*
X42000000Y-63000000D03*
X110000000Y-63000000D03*
X110000000Y-100000000D03*
D12*
X93400000Y-99200000D03*
D13*
X90900000Y-99200000D03*
X88400000Y-99200000D03*
X85900000Y-99200000D03*
X83400000Y-99200000D03*
D15*
X51225000Y-79400000D03*
D16*
X51225000Y-81900000D03*
X51225000Y-84400000D03*
D10*
X80350000Y-63500000D03*
X80350000Y-66040000D03*
X80350000Y-68580000D03*
X80350000Y-71120000D03*
X80350000Y-73660000D03*
X80350000Y-76200000D03*
X80350000Y-78740000D03*
X80380000Y-81280000D03*
X80380000Y-83820000D03*
X95650000Y-63500000D03*
X95650000Y-66040000D03*
X95650000Y-68580000D03*
X95650000Y-71120000D03*
X95650000Y-73660000D03*
X95650000Y-76200000D03*
X95650000Y-78740000D03*
X95620000Y-81280000D03*
X95620000Y-83820000D03*
D17*
X63000000Y-97900000D03*
D13*
X65500000Y-97900000D03*
X68000000Y-97900000D03*
D14*
X42000000Y-100000000D03*
D18*
X51200000Y-68800000D03*
D19*
X51200000Y-71300000D03*
D17*
X50000000Y-97900000D03*
D13*
X52500000Y-97900000D03*
X55000000Y-97900000D03*
M02*
