%TF.GenerationSoftware,KiCad,Pcbnew,8.0.8*%
%TF.CreationDate,2025-02-11T23:20:18+00:00*%
%TF.ProjectId,Cacophony,4361636f-7068-46f6-9e79-2e6b69636164,rev?*%
%TF.SameCoordinates,Original*%
%TF.FileFunction,Soldermask,Bot*%
%TF.FilePolarity,Negative*%
%FSLAX46Y46*%
G04 Gerber Fmt 4.6, Leading zero omitted, Abs format (unit mm)*
G04 Created by KiCad (PCBNEW 8.0.8) date 2025-02-11 23:20:18*
%MOMM*%
%LPD*%
G01*
G04 APERTURE LIST*
%ADD10C,2.000000*%
%ADD11C,2.500000*%
G04 APERTURE END LIST*
D10*
%TO.C,U1*%
X121050000Y-67690000D03*
X121050000Y-70230000D03*
X121050000Y-72770000D03*
X121050000Y-75310000D03*
X121050000Y-77850000D03*
X121050000Y-80390000D03*
X121050000Y-82930000D03*
X121080000Y-85470000D03*
X121080000Y-88010000D03*
X136350000Y-67690000D03*
X136350000Y-70230000D03*
X136350000Y-72770000D03*
X136350000Y-75310000D03*
X136350000Y-77850000D03*
X136350000Y-80390000D03*
X136350000Y-82930000D03*
X136320000Y-85470000D03*
X136320000Y-88010000D03*
%TD*%
%TO.C,JS1*%
X128150000Y-100400000D03*
X130690000Y-100400000D03*
X133230000Y-100400000D03*
X135770000Y-100400000D03*
X138310000Y-100400000D03*
%TD*%
%TO.C,T2*%
X171700000Y-96290000D03*
X171700000Y-93750000D03*
%TD*%
D11*
%TO.C,B1*%
X167600000Y-94950000D03*
X158400000Y-94950000D03*
X167600000Y-79750000D03*
X158400000Y-79750000D03*
%TD*%
D10*
%TO.C,S1*%
X166850000Y-67700000D03*
X166850000Y-70240000D03*
X166850000Y-72780000D03*
%TD*%
%TO.C,S2*%
X173050000Y-67710000D03*
X173050000Y-70250000D03*
X173050000Y-72790000D03*
%TD*%
%TO.C,IC1*%
X112700000Y-69890000D03*
X112700000Y-72430000D03*
X112700000Y-74970000D03*
X112700000Y-77510000D03*
X112700000Y-80050000D03*
X112700000Y-82590000D03*
X112700000Y-85130000D03*
X112700000Y-95290000D03*
X112700000Y-90210000D03*
X112700000Y-87670000D03*
X112700000Y-67350000D03*
%TD*%
D11*
%TO.C,B2*%
X150100000Y-88050000D03*
X140900000Y-88050000D03*
X150100000Y-72850000D03*
X140900000Y-72850000D03*
%TD*%
D10*
%TO.C,D1*%
X128370000Y-62050000D03*
X130910000Y-62050000D03*
X133450000Y-62050000D03*
X135990000Y-62050000D03*
%TD*%
%TO.C,T3*%
X171700000Y-89090000D03*
X171700000Y-86550000D03*
%TD*%
%TO.C,T1*%
X163670000Y-100500000D03*
X161130000Y-100500000D03*
%TD*%
M02*
