%TF.GenerationSoftware,KiCad,Pcbnew,8.0.8*%
%TF.CreationDate,2025-02-11T23:20:18+00:00*%
%TF.ProjectId,Cacophony,4361636f-7068-46f6-9e79-2e6b69636164,rev?*%
%TF.SameCoordinates,Original*%
%TF.FileFunction,Legend,Top*%
%TF.FilePolarity,Positive*%
%FSLAX46Y46*%
G04 Gerber Fmt 4.6, Leading zero omitted, Abs format (unit mm)*
G04 Created by KiCad (PCBNEW 8.0.8) date 2025-02-11 23:20:18*
%MOMM*%
%LPD*%
G01*
G04 APERTURE LIST*
G04 Aperture macros list*
%AMRoundRect*
0 Rectangle with rounded corners*
0 $1 Rounding radius*
0 $2 $3 $4 $5 $6 $7 $8 $9 X,Y pos of 4 corners*
0 Add a 4 corners polygon primitive as box body*
4,1,4,$2,$3,$4,$5,$6,$7,$8,$9,$2,$3,0*
0 Add four circle primitives for the rounded corners*
1,1,$1+$1,$2,$3*
1,1,$1+$1,$4,$5*
1,1,$1+$1,$6,$7*
1,1,$1+$1,$8,$9*
0 Add four rect primitives between the rounded corners*
20,1,$1+$1,$2,$3,$4,$5,0*
20,1,$1+$1,$4,$5,$6,$7,0*
20,1,$1+$1,$6,$7,$8,$9,0*
20,1,$1+$1,$8,$9,$2,$3,0*%
G04 Aperture macros list end*
%ADD10C,0.200000*%
%ADD11C,0.100000*%
%ADD12C,0.000000*%
%ADD13C,0.254000*%
%ADD14C,0.300000*%
%ADD15C,0.250000*%
%ADD16C,0.150000*%
%ADD17C,1.550000*%
%ADD18C,0.120000*%
%ADD19R,1.450000X2.900000*%
%ADD20C,2.000000*%
%ADD21RoundRect,0.250000X-0.650000X0.412500X-0.650000X-0.412500X0.650000X-0.412500X0.650000X0.412500X0*%
%ADD22C,2.500000*%
%ADD23R,2.900000X1.450000*%
%ADD24RoundRect,0.250000X0.650000X-0.412500X0.650000X0.412500X-0.650000X0.412500X-0.650000X-0.412500X0*%
G04 APERTURE END LIST*
D10*
X171550000Y-70250000D02*
X168350000Y-70250000D01*
D11*
X168350000Y-67850000D02*
X168350000Y-70240000D01*
D10*
X171550000Y-72850000D02*
X168300000Y-72850000D01*
X171600000Y-67850000D02*
X168350000Y-67850000D01*
D12*
G36*
X154500000Y-60484725D02*
G01*
X148150000Y-60484725D01*
X148150000Y-58567210D01*
X150311101Y-58567210D01*
X150312607Y-58578299D01*
X150316795Y-58593118D01*
X150323414Y-58611199D01*
X150332214Y-58632071D01*
X150342945Y-58655262D01*
X150369193Y-58706725D01*
X150400154Y-58761826D01*
X150433823Y-58816803D01*
X150451046Y-58843069D01*
X150468194Y-58867893D01*
X150485017Y-58890806D01*
X150501264Y-58911336D01*
X150543263Y-58959349D01*
X150587719Y-59005387D01*
X150634361Y-59049297D01*
X150682917Y-59090922D01*
X150733117Y-59130108D01*
X150784689Y-59166700D01*
X150837361Y-59200543D01*
X150890863Y-59231482D01*
X150944923Y-59259361D01*
X150999270Y-59284027D01*
X151053632Y-59305323D01*
X151107739Y-59323094D01*
X151161318Y-59337186D01*
X151214099Y-59347444D01*
X151265810Y-59353712D01*
X151316181Y-59355836D01*
X151336592Y-59355209D01*
X151359255Y-59353383D01*
X151383855Y-59350441D01*
X151410080Y-59346466D01*
X151437618Y-59341539D01*
X151466156Y-59335744D01*
X151524981Y-59321881D01*
X151584054Y-59305538D01*
X151640874Y-59287375D01*
X151667658Y-59277818D01*
X151692940Y-59268055D01*
X151716408Y-59258168D01*
X151737750Y-59248239D01*
X151758390Y-59237242D01*
X151779756Y-59224919D01*
X151801541Y-59211516D01*
X151823437Y-59197279D01*
X151845136Y-59182453D01*
X151866331Y-59167283D01*
X151886716Y-59152014D01*
X151905981Y-59136893D01*
X151923820Y-59122165D01*
X151939926Y-59108075D01*
X151953990Y-59094869D01*
X151965705Y-59082792D01*
X151974765Y-59072089D01*
X151978202Y-59067330D01*
X151980860Y-59063006D01*
X151982701Y-59059149D01*
X151983685Y-59055789D01*
X151983774Y-59052957D01*
X151982931Y-59050683D01*
X151982460Y-59049872D01*
X151982041Y-59049093D01*
X151981672Y-59048345D01*
X151981353Y-59047631D01*
X151981083Y-59046950D01*
X151980861Y-59046304D01*
X151980687Y-59045692D01*
X151980560Y-59045116D01*
X151980480Y-59044576D01*
X151980446Y-59044073D01*
X151980457Y-59043608D01*
X151980512Y-59043180D01*
X151980611Y-59042791D01*
X151980754Y-59042442D01*
X151980939Y-59042133D01*
X151981167Y-59041864D01*
X151981435Y-59041637D01*
X151981745Y-59041451D01*
X151982094Y-59041309D01*
X151982483Y-59041209D01*
X151982910Y-59041154D01*
X151983376Y-59041143D01*
X151983879Y-59041177D01*
X151984419Y-59041258D01*
X151984995Y-59041384D01*
X151985606Y-59041558D01*
X151986253Y-59041780D01*
X151986934Y-59042050D01*
X151987648Y-59042369D01*
X151988395Y-59042738D01*
X151989175Y-59043157D01*
X151989986Y-59043628D01*
X151994776Y-59045153D01*
X152000814Y-59044521D01*
X152008003Y-59041859D01*
X152016248Y-59037296D01*
X152035522Y-59022970D01*
X152057868Y-59002562D01*
X152082519Y-58977090D01*
X152108707Y-58947572D01*
X152135666Y-58915025D01*
X152162627Y-58880468D01*
X152188823Y-58844919D01*
X152213487Y-58809396D01*
X152235851Y-58774916D01*
X152255148Y-58742499D01*
X152270611Y-58713161D01*
X152281472Y-58687922D01*
X152284937Y-58677157D01*
X152286964Y-58667798D01*
X152287457Y-58659973D01*
X152286319Y-58653808D01*
X152285849Y-58652667D01*
X152285430Y-58651557D01*
X152285061Y-58650481D01*
X152284741Y-58649440D01*
X152284471Y-58648435D01*
X152284250Y-58647468D01*
X152284076Y-58646539D01*
X152283949Y-58645650D01*
X152283869Y-58644803D01*
X152283835Y-58643998D01*
X152283845Y-58643238D01*
X152283901Y-58642522D01*
X152284000Y-58641853D01*
X152284143Y-58641232D01*
X152284328Y-58640660D01*
X152284556Y-58640138D01*
X152284824Y-58639668D01*
X152285134Y-58639251D01*
X152285483Y-58638888D01*
X152285872Y-58638581D01*
X152286299Y-58638331D01*
X152286765Y-58638138D01*
X152287268Y-58638005D01*
X152287808Y-58637933D01*
X152288384Y-58637923D01*
X152288996Y-58637976D01*
X152289642Y-58638094D01*
X152290323Y-58638278D01*
X152291037Y-58638529D01*
X152291784Y-58638848D01*
X152292564Y-58639237D01*
X152293375Y-58639697D01*
X152294878Y-58640546D01*
X152296407Y-58641114D01*
X152297958Y-58641409D01*
X152299525Y-58641440D01*
X152301103Y-58641216D01*
X152302689Y-58640744D01*
X152304276Y-58640032D01*
X152305860Y-58639091D01*
X152307437Y-58637927D01*
X152309001Y-58636549D01*
X152312072Y-58633186D01*
X152315034Y-58629068D01*
X152317849Y-58624263D01*
X152320478Y-58618838D01*
X152322882Y-58612860D01*
X152325023Y-58606396D01*
X152326862Y-58599514D01*
X152328359Y-58592280D01*
X152329476Y-58584762D01*
X152330175Y-58577027D01*
X152330417Y-58569142D01*
X152329887Y-58561066D01*
X152329211Y-58557676D01*
X152328246Y-58554724D01*
X152326985Y-58552215D01*
X152325417Y-58550154D01*
X152323533Y-58548546D01*
X152321322Y-58547396D01*
X152318775Y-58546708D01*
X152315883Y-58546488D01*
X152312635Y-58546740D01*
X152309023Y-58547469D01*
X152300664Y-58550377D01*
X152290729Y-58555251D01*
X152279141Y-58562130D01*
X152265821Y-58571054D01*
X152250693Y-58582060D01*
X152233678Y-58595187D01*
X152214700Y-58610474D01*
X152193681Y-58627960D01*
X152145208Y-58669684D01*
X152088695Y-58718100D01*
X152034659Y-58762250D01*
X151982726Y-58802292D01*
X151932522Y-58838383D01*
X151883672Y-58870681D01*
X151835801Y-58899344D01*
X151788535Y-58924529D01*
X151741498Y-58946393D01*
X151694317Y-58965096D01*
X151646617Y-58980793D01*
X151598022Y-58993642D01*
X151548159Y-59003802D01*
X151496653Y-59011430D01*
X151443129Y-59016684D01*
X151387212Y-59019720D01*
X151328528Y-59020697D01*
X151267243Y-59019816D01*
X151209414Y-59017039D01*
X151154566Y-59012163D01*
X151102226Y-59004988D01*
X151051923Y-58995311D01*
X151003183Y-58982932D01*
X150955534Y-58967649D01*
X150908502Y-58949260D01*
X150861615Y-58927563D01*
X150814399Y-58902358D01*
X150766383Y-58873443D01*
X150717092Y-58840615D01*
X150666055Y-58803674D01*
X150612799Y-58762418D01*
X150556850Y-58716646D01*
X150497736Y-58666155D01*
X150472596Y-58644581D01*
X150449987Y-58625434D01*
X150429756Y-58608624D01*
X150420483Y-58601066D01*
X150411747Y-58594057D01*
X150403527Y-58587585D01*
X150395804Y-58581639D01*
X150388560Y-58576207D01*
X150381774Y-58571278D01*
X150375428Y-58566839D01*
X150369501Y-58562880D01*
X150363975Y-58559389D01*
X150358830Y-58556353D01*
X150354047Y-58553763D01*
X150349606Y-58551604D01*
X150345488Y-58549867D01*
X150341673Y-58548540D01*
X150338143Y-58547610D01*
X150334878Y-58547067D01*
X150333338Y-58546937D01*
X150331858Y-58546899D01*
X150330434Y-58546951D01*
X150329064Y-58547093D01*
X150327746Y-58547323D01*
X150326477Y-58547639D01*
X150325255Y-58548040D01*
X150324077Y-58548524D01*
X150322942Y-58549091D01*
X150321846Y-58549738D01*
X150319763Y-58551268D01*
X150317809Y-58553104D01*
X150315964Y-58555232D01*
X150314211Y-58557642D01*
X150312528Y-58560322D01*
X150311432Y-58563211D01*
X150311101Y-58567210D01*
X148150000Y-58567210D01*
X148150000Y-57997642D01*
X148661528Y-57997642D01*
X148663018Y-58002580D01*
X148667393Y-58008746D01*
X148684221Y-58024462D01*
X148710862Y-58044193D01*
X148746167Y-58067343D01*
X148838168Y-58121510D01*
X148951026Y-58182188D01*
X149075542Y-58244603D01*
X149202518Y-58303979D01*
X149322755Y-58355542D01*
X149377472Y-58376901D01*
X149427056Y-58394517D01*
X149455700Y-58404065D01*
X149480923Y-58412114D01*
X149502942Y-58418531D01*
X149521975Y-58423180D01*
X149530439Y-58424800D01*
X149538237Y-58425927D01*
X149545398Y-58426546D01*
X149551947Y-58426639D01*
X149557913Y-58426189D01*
X149563321Y-58425180D01*
X149568200Y-58423594D01*
X149572576Y-58421416D01*
X149576477Y-58418628D01*
X149579930Y-58415213D01*
X149582961Y-58411155D01*
X149585599Y-58406437D01*
X149587869Y-58401041D01*
X149589800Y-58394952D01*
X149591418Y-58388153D01*
X149592751Y-58380626D01*
X149594668Y-58363323D01*
X149595769Y-58342909D01*
X149596270Y-58319250D01*
X149596389Y-58292211D01*
X149596471Y-58282071D01*
X149596713Y-58272192D01*
X149596937Y-58266783D01*
X150655714Y-58266783D01*
X150655825Y-58277245D01*
X150658326Y-58299878D01*
X150663762Y-58324550D01*
X150672010Y-58350974D01*
X150682945Y-58378862D01*
X150696442Y-58407929D01*
X150712379Y-58437887D01*
X150730632Y-58468450D01*
X150751075Y-58499330D01*
X150773585Y-58530242D01*
X150798038Y-58560898D01*
X150824310Y-58591011D01*
X150852278Y-58620294D01*
X150898120Y-58663142D01*
X150921659Y-58682717D01*
X150945585Y-58701058D01*
X150969877Y-58718162D01*
X150994517Y-58734028D01*
X151019485Y-58748654D01*
X151044762Y-58762039D01*
X151070328Y-58774182D01*
X151096165Y-58785080D01*
X151122252Y-58794732D01*
X151148570Y-58803136D01*
X151175100Y-58810291D01*
X151201822Y-58816195D01*
X151228718Y-58820847D01*
X151255767Y-58824244D01*
X151282951Y-58826386D01*
X151310250Y-58827270D01*
X151337644Y-58826896D01*
X151365115Y-58825260D01*
X151392642Y-58822363D01*
X151420207Y-58818202D01*
X151447790Y-58812775D01*
X151475372Y-58806082D01*
X151502933Y-58798119D01*
X151530454Y-58788887D01*
X151557915Y-58778382D01*
X151585298Y-58766604D01*
X151639749Y-58739221D01*
X151693653Y-58706725D01*
X151723721Y-58684870D01*
X151753539Y-58659958D01*
X151782814Y-58632447D01*
X151811255Y-58602793D01*
X151838569Y-58571455D01*
X151864464Y-58538890D01*
X151888649Y-58505555D01*
X151910832Y-58471907D01*
X151930720Y-58438404D01*
X151948021Y-58405503D01*
X151962445Y-58373661D01*
X151973698Y-58343336D01*
X151978044Y-58328886D01*
X151981488Y-58314985D01*
X151983994Y-58301693D01*
X151985525Y-58289066D01*
X151986044Y-58277161D01*
X151985515Y-58266035D01*
X151983901Y-58255746D01*
X151981166Y-58246350D01*
X151977701Y-58238573D01*
X151973040Y-58231013D01*
X151966853Y-58223514D01*
X151958815Y-58215923D01*
X151948595Y-58208084D01*
X151935867Y-58199841D01*
X151920302Y-58191041D01*
X151901571Y-58181527D01*
X151853302Y-58159740D01*
X151788434Y-58133241D01*
X151704343Y-58100788D01*
X151598403Y-58061141D01*
X151561835Y-58047680D01*
X151528030Y-58035717D01*
X151496731Y-58025221D01*
X151467682Y-58016162D01*
X151440628Y-58008509D01*
X151415313Y-58002230D01*
X151391481Y-57997295D01*
X151368877Y-57993673D01*
X151347244Y-57991332D01*
X151326326Y-57990242D01*
X151305869Y-57990371D01*
X151285616Y-57991688D01*
X151265311Y-57994164D01*
X151244698Y-57997765D01*
X151223523Y-58002463D01*
X151201528Y-58008225D01*
X151147908Y-58024613D01*
X151076512Y-58049373D01*
X150994533Y-58079632D01*
X150909163Y-58112515D01*
X150827597Y-58145150D01*
X150757028Y-58174664D01*
X150704649Y-58198184D01*
X150687528Y-58206798D01*
X150677653Y-58212836D01*
X150671976Y-58218225D01*
X150667173Y-58224446D01*
X150663227Y-58231464D01*
X150660124Y-58239243D01*
X150657848Y-58247746D01*
X150656383Y-58256938D01*
X150655714Y-58266783D01*
X149596937Y-58266783D01*
X149597110Y-58262628D01*
X149597657Y-58253433D01*
X149598348Y-58244662D01*
X149599179Y-58236370D01*
X149600145Y-58228609D01*
X149601240Y-58221435D01*
X149602458Y-58214902D01*
X149603796Y-58209064D01*
X149605247Y-58203975D01*
X149606014Y-58201728D01*
X149606807Y-58199690D01*
X149607626Y-58197865D01*
X149608470Y-58196262D01*
X149609339Y-58194887D01*
X149610231Y-58193747D01*
X149611147Y-58192848D01*
X149612086Y-58192198D01*
X149613046Y-58191803D01*
X149614028Y-58191669D01*
X149656995Y-58184586D01*
X149761974Y-58165431D01*
X150093806Y-58103475D01*
X150287427Y-58064993D01*
X150475632Y-58025809D01*
X150652841Y-57987203D01*
X150813472Y-57950458D01*
X150951944Y-57916854D01*
X151062677Y-57887674D01*
X151140088Y-57864199D01*
X151164554Y-57855002D01*
X151178597Y-57847711D01*
X151181481Y-57844524D01*
X151181329Y-57841565D01*
X151180174Y-57840655D01*
X151448472Y-57840655D01*
X151454169Y-57846959D01*
X151470896Y-57855201D01*
X151535261Y-57876980D01*
X151637205Y-57904962D01*
X151772366Y-57938110D01*
X151936384Y-57975393D01*
X152124896Y-58015777D01*
X152557959Y-58101711D01*
X152739253Y-58137237D01*
X152889128Y-58167636D01*
X152947426Y-58179932D01*
X152992040Y-58189768D01*
X153021028Y-58196751D01*
X153029054Y-58199050D01*
X153032445Y-58200489D01*
X153033767Y-58202069D01*
X153035084Y-58204781D01*
X153036390Y-58208558D01*
X153037681Y-58213332D01*
X153040196Y-58225604D01*
X153042587Y-58241058D01*
X153044812Y-58259159D01*
X153046831Y-58279368D01*
X153048602Y-58301148D01*
X153050084Y-58323961D01*
X153050825Y-58335713D01*
X153051716Y-58347119D01*
X153052742Y-58358122D01*
X153053887Y-58368665D01*
X153055135Y-58378691D01*
X153056471Y-58388143D01*
X153057879Y-58396965D01*
X153059344Y-58405100D01*
X153060850Y-58412491D01*
X153062382Y-58419080D01*
X153063925Y-58424812D01*
X153065462Y-58429629D01*
X153066979Y-58433475D01*
X153067725Y-58435016D01*
X153068460Y-58436292D01*
X153069181Y-58437297D01*
X153069888Y-58438024D01*
X153070579Y-58438465D01*
X153071250Y-58438614D01*
X153080261Y-58437330D01*
X153094966Y-58433636D01*
X153138939Y-58419955D01*
X153198126Y-58399454D01*
X153267483Y-58374012D01*
X153341966Y-58345510D01*
X153416531Y-58315831D01*
X153486136Y-58286854D01*
X153545736Y-58260461D01*
X153576288Y-58245804D01*
X153609326Y-58229197D01*
X153680398Y-58191587D01*
X153754034Y-58150545D01*
X153825313Y-58108987D01*
X153889316Y-58069827D01*
X153917051Y-58052056D01*
X153941123Y-58035979D01*
X153960916Y-58021957D01*
X153975815Y-58010357D01*
X153985206Y-58001543D01*
X153987643Y-57998294D01*
X153988472Y-57995878D01*
X153988113Y-57993613D01*
X153987061Y-57991131D01*
X153985361Y-57988453D01*
X153983053Y-57985601D01*
X153976787Y-57979456D01*
X153968601Y-57972864D01*
X153958834Y-57965994D01*
X153947824Y-57959012D01*
X153935909Y-57952087D01*
X153923429Y-57945386D01*
X153910721Y-57939079D01*
X153898125Y-57933332D01*
X153885978Y-57928314D01*
X153874619Y-57924192D01*
X153864386Y-57921135D01*
X153855619Y-57919310D01*
X153851891Y-57918913D01*
X153848655Y-57918886D01*
X153845956Y-57919252D01*
X153843834Y-57920030D01*
X153842862Y-57920661D01*
X153841932Y-57921231D01*
X153841045Y-57921740D01*
X153840199Y-57922191D01*
X153839396Y-57922583D01*
X153838636Y-57922918D01*
X153837920Y-57923197D01*
X153837247Y-57923420D01*
X153836617Y-57923590D01*
X153836033Y-57923706D01*
X153835492Y-57923770D01*
X153834997Y-57923782D01*
X153834547Y-57923744D01*
X153834142Y-57923657D01*
X153833783Y-57923521D01*
X153833471Y-57923338D01*
X153833205Y-57923108D01*
X153832985Y-57922833D01*
X153832813Y-57922513D01*
X153832689Y-57922149D01*
X153832612Y-57921743D01*
X153832583Y-57921295D01*
X153832603Y-57920807D01*
X153832671Y-57920279D01*
X153832789Y-57919712D01*
X153832956Y-57919107D01*
X153833173Y-57918465D01*
X153833440Y-57917788D01*
X153833757Y-57917076D01*
X153834125Y-57916329D01*
X153834544Y-57915550D01*
X153835014Y-57914739D01*
X153835943Y-57911165D01*
X153834814Y-57906756D01*
X153826712Y-57895608D01*
X153811364Y-57881644D01*
X153789429Y-57865212D01*
X153761560Y-57846662D01*
X153728416Y-57826341D01*
X153648924Y-57781786D01*
X153556202Y-57734336D01*
X153455502Y-57686784D01*
X153352074Y-57641918D01*
X153251167Y-57602530D01*
X153225057Y-57593470D01*
X153200042Y-57584947D01*
X153176722Y-57577168D01*
X153155696Y-57570340D01*
X153137565Y-57564669D01*
X153122926Y-57560363D01*
X153112381Y-57557627D01*
X153108830Y-57556913D01*
X153106528Y-57556669D01*
X153105691Y-57556808D01*
X153104835Y-57557218D01*
X153103072Y-57558829D01*
X153101253Y-57561448D01*
X153099390Y-57565020D01*
X153097495Y-57569492D01*
X153095583Y-57574808D01*
X153093665Y-57580915D01*
X153091755Y-57587758D01*
X153088011Y-57603437D01*
X153084452Y-57621410D01*
X153081182Y-57641243D01*
X153078305Y-57662503D01*
X153075512Y-57683921D01*
X153072490Y-57704202D01*
X153069345Y-57722871D01*
X153066179Y-57739452D01*
X153064620Y-57746812D01*
X153063096Y-57753471D01*
X153061617Y-57759370D01*
X153060198Y-57764450D01*
X153058852Y-57768652D01*
X153057590Y-57771915D01*
X153056427Y-57774182D01*
X153055887Y-57774923D01*
X153055375Y-57775392D01*
X153036575Y-57777693D01*
X152987658Y-57780573D01*
X152812620Y-57787739D01*
X152245750Y-57805378D01*
X151936629Y-57815107D01*
X151683070Y-57825001D01*
X151585394Y-57829648D01*
X151511531Y-57833903D01*
X151464788Y-57837620D01*
X151452620Y-57839232D01*
X151448472Y-57840655D01*
X151180174Y-57840655D01*
X151177834Y-57838812D01*
X151170687Y-57836246D01*
X151144212Y-57831588D01*
X151099443Y-57827426D01*
X151033920Y-57823595D01*
X150945185Y-57819930D01*
X150688236Y-57812433D01*
X150236460Y-57800086D01*
X150032648Y-57793582D01*
X149878611Y-57787739D01*
X149587569Y-57777155D01*
X149573525Y-57678843D01*
X151468986Y-57678843D01*
X151469639Y-57680142D01*
X151483380Y-57677231D01*
X151504992Y-57668766D01*
X151569243Y-57636761D01*
X151657224Y-57587310D01*
X151763767Y-57523596D01*
X151883705Y-57448803D01*
X152011869Y-57366114D01*
X152143093Y-57278712D01*
X152272208Y-57189780D01*
X152297261Y-57172169D01*
X152319582Y-57156294D01*
X152339293Y-57142031D01*
X152356517Y-57129257D01*
X152364233Y-57123389D01*
X152371373Y-57117847D01*
X152377952Y-57112615D01*
X152383985Y-57107677D01*
X152389486Y-57103018D01*
X152394472Y-57098623D01*
X152398957Y-57094476D01*
X152402957Y-57090562D01*
X152406486Y-57086864D01*
X152409560Y-57083368D01*
X152412195Y-57080058D01*
X152414405Y-57076919D01*
X152416205Y-57073935D01*
X152417611Y-57071090D01*
X152418638Y-57068369D01*
X152419300Y-57065757D01*
X152419614Y-57063238D01*
X152419594Y-57060796D01*
X152419256Y-57058416D01*
X152418615Y-57056083D01*
X152417685Y-57053781D01*
X152416482Y-57051494D01*
X152415022Y-57049208D01*
X152413319Y-57046905D01*
X152407042Y-57038796D01*
X152404661Y-57035596D01*
X152402791Y-57032960D01*
X152401438Y-57030881D01*
X152400607Y-57029356D01*
X152400389Y-57028799D01*
X152400303Y-57028379D01*
X152400350Y-57028094D01*
X152400531Y-57027944D01*
X152400847Y-57027928D01*
X152401297Y-57028046D01*
X152401883Y-57028297D01*
X152402605Y-57028681D01*
X152404461Y-57029843D01*
X152406870Y-57031527D01*
X152409837Y-57033727D01*
X152413368Y-57036439D01*
X152422139Y-57043378D01*
X152426970Y-57046741D01*
X152431599Y-57049534D01*
X152436115Y-57051722D01*
X152438358Y-57052579D01*
X152440605Y-57053272D01*
X152442867Y-57053797D01*
X152445157Y-57054150D01*
X152447483Y-57054327D01*
X152449858Y-57054323D01*
X152452293Y-57054134D01*
X152454798Y-57053757D01*
X152457384Y-57053186D01*
X152460063Y-57052418D01*
X152462845Y-57051448D01*
X152465741Y-57050273D01*
X152471921Y-57047288D01*
X152478689Y-57043430D01*
X152486135Y-57038665D01*
X152494346Y-57032959D01*
X152503409Y-57026280D01*
X152513412Y-57018592D01*
X152524445Y-57009864D01*
X152531591Y-57004227D01*
X152538456Y-56998585D01*
X152545005Y-56992973D01*
X152551206Y-56987429D01*
X152557024Y-56981989D01*
X152562427Y-56976688D01*
X152567379Y-56971562D01*
X152571849Y-56966649D01*
X152575802Y-56961983D01*
X152579204Y-56957602D01*
X152582023Y-56953541D01*
X152583203Y-56951642D01*
X152584224Y-56949837D01*
X152585082Y-56948129D01*
X152585774Y-56946525D01*
X152586294Y-56945028D01*
X152586639Y-56943642D01*
X152586804Y-56942373D01*
X152586786Y-56941225D01*
X152586579Y-56940202D01*
X152586180Y-56939308D01*
X152585731Y-56938652D01*
X152585372Y-56938007D01*
X152585104Y-56937375D01*
X152584923Y-56936756D01*
X152584829Y-56936150D01*
X152584820Y-56935560D01*
X152584894Y-56934987D01*
X152585050Y-56934430D01*
X152585287Y-56933891D01*
X152585601Y-56933372D01*
X152585993Y-56932872D01*
X152586460Y-56932394D01*
X152587000Y-56931937D01*
X152587612Y-56931504D01*
X152589047Y-56930709D01*
X152590750Y-56930018D01*
X152592709Y-56929438D01*
X152594911Y-56928977D01*
X152597343Y-56928642D01*
X152599991Y-56928442D01*
X152602844Y-56928384D01*
X152605889Y-56928476D01*
X152609111Y-56928725D01*
X152610589Y-56928704D01*
X152612044Y-56928643D01*
X152613474Y-56928540D01*
X152614878Y-56928398D01*
X152616254Y-56928215D01*
X152617599Y-56927992D01*
X152618912Y-56927730D01*
X152620190Y-56927430D01*
X152621433Y-56927090D01*
X152622637Y-56926712D01*
X152623802Y-56926295D01*
X152624924Y-56925841D01*
X152626003Y-56925350D01*
X152627035Y-56924821D01*
X152628020Y-56924256D01*
X152628955Y-56923654D01*
X152629838Y-56923016D01*
X152630668Y-56922342D01*
X152631442Y-56921632D01*
X152632159Y-56920887D01*
X152632816Y-56920108D01*
X152633412Y-56919294D01*
X152633945Y-56918445D01*
X152634412Y-56917563D01*
X152634812Y-56916647D01*
X152635143Y-56915698D01*
X152635403Y-56914716D01*
X152635590Y-56913701D01*
X152635702Y-56912654D01*
X152635737Y-56911575D01*
X152635694Y-56910464D01*
X152635569Y-56909322D01*
X152635362Y-56908247D01*
X152635396Y-56907335D01*
X152635667Y-56906584D01*
X152636169Y-56905991D01*
X152636895Y-56905554D01*
X152637841Y-56905272D01*
X152640365Y-56905161D01*
X152643696Y-56905638D01*
X152647786Y-56906687D01*
X152652589Y-56908288D01*
X152658059Y-56910425D01*
X152664149Y-56913078D01*
X152670813Y-56916230D01*
X152678004Y-56919862D01*
X152685675Y-56923957D01*
X152693781Y-56928496D01*
X152702274Y-56933462D01*
X152720236Y-56944600D01*
X152735787Y-56954217D01*
X152749475Y-56962583D01*
X152761462Y-56969730D01*
X152766870Y-56972856D01*
X152771913Y-56975689D01*
X152776612Y-56978232D01*
X152780988Y-56980489D01*
X152785062Y-56982465D01*
X152788852Y-56984164D01*
X152792381Y-56985588D01*
X152795667Y-56986742D01*
X152798732Y-56987630D01*
X152801596Y-56988256D01*
X152804279Y-56988624D01*
X152806801Y-56988737D01*
X152809183Y-56988599D01*
X152811445Y-56988215D01*
X152813608Y-56987588D01*
X152815692Y-56986721D01*
X152817717Y-56985620D01*
X152819703Y-56984288D01*
X152821672Y-56982728D01*
X152823642Y-56980944D01*
X152825636Y-56978941D01*
X152827672Y-56976722D01*
X152829771Y-56974291D01*
X152831954Y-56971653D01*
X152836653Y-56965767D01*
X152853236Y-56941389D01*
X152871669Y-56910480D01*
X152891611Y-56873865D01*
X152912720Y-56832373D01*
X152957079Y-56738060D01*
X153002017Y-56634155D01*
X153044805Y-56527275D01*
X153082715Y-56424032D01*
X153113018Y-56331042D01*
X153124465Y-56290459D01*
X153132986Y-56254919D01*
X153134800Y-56245856D01*
X153136256Y-56237811D01*
X153137323Y-56230727D01*
X153137703Y-56227528D01*
X153137975Y-56224547D01*
X153138136Y-56221779D01*
X153138182Y-56219215D01*
X153138110Y-56216849D01*
X153137916Y-56214674D01*
X153137597Y-56212682D01*
X153137149Y-56210866D01*
X153136569Y-56209220D01*
X153135853Y-56207735D01*
X153134997Y-56206406D01*
X153133998Y-56205225D01*
X153132852Y-56204184D01*
X153131557Y-56203277D01*
X153130107Y-56202497D01*
X153128500Y-56201837D01*
X153126733Y-56201288D01*
X153124801Y-56200845D01*
X153122701Y-56200500D01*
X153120429Y-56200247D01*
X153117983Y-56200077D01*
X153115358Y-56199984D01*
X153109558Y-56200000D01*
X153103000Y-56200239D01*
X153088058Y-56201096D01*
X153070527Y-56202960D01*
X153028752Y-56209444D01*
X152979783Y-56219152D01*
X152925729Y-56231548D01*
X152868699Y-56246093D01*
X152810801Y-56262251D01*
X152754143Y-56279483D01*
X152700834Y-56297253D01*
X152634533Y-56321189D01*
X152563994Y-56348185D01*
X152493249Y-56376504D01*
X152426328Y-56404409D01*
X152367262Y-56430164D01*
X152320081Y-56452034D01*
X152302208Y-56460969D01*
X152288817Y-56468281D01*
X152280413Y-56473754D01*
X152278239Y-56475732D01*
X152277500Y-56477169D01*
X152277744Y-56478547D01*
X152278458Y-56480666D01*
X152281193Y-56486953D01*
X152285500Y-56495680D01*
X152291170Y-56506494D01*
X152297998Y-56519045D01*
X152305777Y-56532980D01*
X152323361Y-56563600D01*
X152367458Y-56641211D01*
X152229875Y-56794670D01*
X152082466Y-56958311D01*
X151940928Y-57117571D01*
X151809808Y-57267075D01*
X151693653Y-57401447D01*
X151597011Y-57515314D01*
X151524430Y-57603302D01*
X151498583Y-57635912D01*
X151480456Y-57660036D01*
X151470619Y-57675003D01*
X151468986Y-57678843D01*
X149573525Y-57678843D01*
X149571694Y-57666031D01*
X149569397Y-57651141D01*
X149567123Y-57637529D01*
X149564854Y-57625153D01*
X149563716Y-57619415D01*
X149562572Y-57613968D01*
X149561420Y-57608809D01*
X149560259Y-57603931D01*
X149559085Y-57599328D01*
X149557897Y-57594996D01*
X149556692Y-57590929D01*
X149555468Y-57587121D01*
X149554222Y-57583567D01*
X149552953Y-57580261D01*
X149551658Y-57577199D01*
X149550335Y-57574373D01*
X149548982Y-57571780D01*
X149547596Y-57569413D01*
X149546175Y-57567267D01*
X149544717Y-57565336D01*
X149543220Y-57563615D01*
X149541681Y-57562099D01*
X149540098Y-57560782D01*
X149538469Y-57559658D01*
X149536791Y-57558722D01*
X149535063Y-57557968D01*
X149533281Y-57557392D01*
X149531445Y-57556987D01*
X149529551Y-57556748D01*
X149527597Y-57556669D01*
X149515181Y-57557774D01*
X149499267Y-57561002D01*
X149457972Y-57573302D01*
X149405752Y-57592528D01*
X149344649Y-57617634D01*
X149203958Y-57681313D01*
X149052229Y-57755989D01*
X148905792Y-57833311D01*
X148839661Y-57870354D01*
X148780976Y-57904927D01*
X148731779Y-57935987D01*
X148694111Y-57962488D01*
X148670014Y-57983388D01*
X148663692Y-57991410D01*
X148661528Y-57997642D01*
X148150000Y-57997642D01*
X148150000Y-56223542D01*
X149511626Y-56223542D01*
X149511727Y-56228012D01*
X149512106Y-56232895D01*
X149512728Y-56238197D01*
X149514577Y-56250087D01*
X149517014Y-56263739D01*
X149525308Y-56301279D01*
X149537891Y-56346190D01*
X149554174Y-56397122D01*
X149573569Y-56452723D01*
X149595485Y-56511641D01*
X149619333Y-56572526D01*
X149670472Y-56694789D01*
X149722273Y-56808701D01*
X149746948Y-56859147D01*
X149770022Y-56903452D01*
X149790904Y-56940263D01*
X149809006Y-56968230D01*
X149823739Y-56986001D01*
X149829658Y-56990641D01*
X149834514Y-56992225D01*
X149836512Y-56992002D01*
X149839168Y-56991347D01*
X149842440Y-56990283D01*
X149846282Y-56988835D01*
X149855505Y-56984877D01*
X149866484Y-56979657D01*
X149878870Y-56973363D01*
X149892309Y-56966180D01*
X149906451Y-56958294D01*
X149920944Y-56949891D01*
X149987972Y-56909322D01*
X150141431Y-57023975D01*
X150276571Y-57122412D01*
X150434429Y-57231370D01*
X150602829Y-57343180D01*
X150769596Y-57450175D01*
X150922554Y-57544684D01*
X151049530Y-57619039D01*
X151099470Y-57646263D01*
X151138348Y-57665572D01*
X151164643Y-57676009D01*
X151172597Y-57677600D01*
X151176834Y-57676614D01*
X151171569Y-57666860D01*
X151153407Y-57642652D01*
X151084009Y-57557386D01*
X150852278Y-57285031D01*
X150571599Y-56963727D01*
X150441016Y-56817276D01*
X150331931Y-56697656D01*
X150279014Y-56641211D01*
X150328403Y-56560072D01*
X150333257Y-56551563D01*
X150337887Y-56543260D01*
X150342274Y-56535205D01*
X150346400Y-56527440D01*
X150350247Y-56520006D01*
X150353797Y-56512943D01*
X150357031Y-56506294D01*
X150359932Y-56500100D01*
X150362482Y-56494402D01*
X150364662Y-56489241D01*
X150366455Y-56484659D01*
X150367842Y-56480697D01*
X150368806Y-56477397D01*
X150369327Y-56474799D01*
X150369416Y-56473777D01*
X150369389Y-56472946D01*
X150369241Y-56472311D01*
X150368972Y-56471878D01*
X150356192Y-56462787D01*
X150334445Y-56450994D01*
X150268375Y-56420890D01*
X150179402Y-56384751D01*
X150076167Y-56345760D01*
X149967309Y-56307099D01*
X149861468Y-56271952D01*
X149767286Y-56243502D01*
X149727267Y-56232784D01*
X149693403Y-56224933D01*
X149630550Y-56212276D01*
X149605176Y-56207454D01*
X149583491Y-56203712D01*
X149573951Y-56202263D01*
X149565237Y-56201106D01*
X149557316Y-56200248D01*
X149550156Y-56199695D01*
X149543724Y-56199454D01*
X149537989Y-56199534D01*
X149532918Y-56199940D01*
X149528479Y-56200680D01*
X149524639Y-56201761D01*
X149521367Y-56203191D01*
X149518629Y-56204975D01*
X149516394Y-56207122D01*
X149514629Y-56209639D01*
X149513302Y-56212532D01*
X149512381Y-56215809D01*
X149511833Y-56219476D01*
X149511626Y-56223542D01*
X148150000Y-56223542D01*
X148150000Y-55626624D01*
X150767479Y-55626624D01*
X150767748Y-55629553D01*
X150768386Y-55632008D01*
X150769375Y-55634031D01*
X150771002Y-55635973D01*
X150773216Y-55637827D01*
X150775983Y-55639588D01*
X150779269Y-55641252D01*
X150783041Y-55642811D01*
X150787265Y-55644263D01*
X150791908Y-55645600D01*
X150796936Y-55646819D01*
X150802315Y-55647913D01*
X150808012Y-55648879D01*
X150813993Y-55649710D01*
X150820225Y-55650402D01*
X150826673Y-55650949D01*
X150833306Y-55651346D01*
X150840088Y-55651588D01*
X150846986Y-55651669D01*
X150861621Y-55651907D01*
X150877413Y-55652579D01*
X150893867Y-55653623D01*
X150910486Y-55654977D01*
X150926775Y-55656579D01*
X150942236Y-55658367D01*
X150956375Y-55660279D01*
X150968694Y-55662253D01*
X150977430Y-55664201D01*
X150985169Y-55666177D01*
X150991988Y-55668334D01*
X150997964Y-55670824D01*
X151003176Y-55673800D01*
X151005519Y-55675518D01*
X151007700Y-55677415D01*
X151009729Y-55679509D01*
X151011614Y-55681820D01*
X151013367Y-55684366D01*
X151014997Y-55687168D01*
X151017924Y-55693611D01*
X151020474Y-55701303D01*
X151022725Y-55710395D01*
X151024753Y-55721040D01*
X151026637Y-55733390D01*
X151028453Y-55747598D01*
X151032195Y-55782197D01*
X151084753Y-56184584D01*
X151169557Y-56774826D01*
X151252708Y-57322072D01*
X151283070Y-57507432D01*
X151300306Y-57595475D01*
X151301659Y-57599775D01*
X151303070Y-57603745D01*
X151304533Y-57607388D01*
X151306045Y-57610706D01*
X151307601Y-57613699D01*
X151309197Y-57616369D01*
X151310827Y-57618718D01*
X151312488Y-57620748D01*
X151314174Y-57622460D01*
X151315882Y-57623856D01*
X151317606Y-57624937D01*
X151319343Y-57625706D01*
X151321088Y-57626163D01*
X151322836Y-57626310D01*
X151324582Y-57626149D01*
X151326323Y-57625681D01*
X151328053Y-57624909D01*
X151329769Y-57623834D01*
X151331465Y-57622456D01*
X151333137Y-57620779D01*
X151334781Y-57618803D01*
X151336392Y-57616531D01*
X151337966Y-57613963D01*
X151339497Y-57611102D01*
X151340982Y-57607949D01*
X151342416Y-57604505D01*
X151343794Y-57600773D01*
X151345113Y-57596753D01*
X151346366Y-57592448D01*
X151347551Y-57587859D01*
X151348662Y-57582988D01*
X151349695Y-57577836D01*
X151397457Y-57291562D01*
X151472505Y-56798418D01*
X151547884Y-56277823D01*
X151596639Y-55909197D01*
X151602572Y-55863302D01*
X151608380Y-55820176D01*
X151613940Y-55780771D01*
X151619129Y-55746037D01*
X151623821Y-55716926D01*
X151627893Y-55694389D01*
X151629658Y-55685882D01*
X151631221Y-55679375D01*
X151632567Y-55674986D01*
X151633681Y-55672836D01*
X151635222Y-55671804D01*
X151637822Y-55670703D01*
X151645973Y-55668344D01*
X151657679Y-55665860D01*
X151672486Y-55663355D01*
X151689939Y-55660933D01*
X151709583Y-55658697D01*
X151730963Y-55656751D01*
X151753625Y-55655197D01*
X151764817Y-55654455D01*
X151775860Y-55653564D01*
X151786685Y-55652538D01*
X151797226Y-55651394D01*
X151807416Y-55650146D01*
X151817187Y-55648810D01*
X151826472Y-55647402D01*
X151835205Y-55645937D01*
X151843317Y-55644430D01*
X151850742Y-55642898D01*
X151857413Y-55641356D01*
X151863262Y-55639818D01*
X151868222Y-55638302D01*
X151872226Y-55636821D01*
X151875207Y-55635392D01*
X151876293Y-55634702D01*
X151877097Y-55634031D01*
X151879179Y-55630179D01*
X151879285Y-55623561D01*
X151877132Y-55613640D01*
X151872439Y-55599883D01*
X151854308Y-55558717D01*
X151822637Y-55495786D01*
X151775174Y-55406809D01*
X151709665Y-55287509D01*
X151515500Y-54940822D01*
X151479747Y-54878283D01*
X151445771Y-54819858D01*
X151414359Y-54766848D01*
X151386295Y-54720557D01*
X151362366Y-54682285D01*
X151343356Y-54653336D01*
X151335941Y-54642764D01*
X151330051Y-54635011D01*
X151325783Y-54630240D01*
X151324288Y-54629024D01*
X151323236Y-54628614D01*
X151319788Y-54629711D01*
X151315244Y-54633258D01*
X151301959Y-54649229D01*
X151281564Y-54679588D01*
X151252240Y-54727392D01*
X151159525Y-54887575D01*
X151009264Y-55154253D01*
X150938691Y-55281435D01*
X150882236Y-55384247D01*
X150858909Y-55427322D01*
X150838639Y-55465272D01*
X150821267Y-55498422D01*
X150806637Y-55527095D01*
X150794591Y-55551612D01*
X150784971Y-55572298D01*
X150777620Y-55589475D01*
X150772379Y-55603466D01*
X150770501Y-55609367D01*
X150769092Y-55614594D01*
X150768132Y-55619185D01*
X150767601Y-55623182D01*
X150767479Y-55626624D01*
X148150000Y-55626624D01*
X148150000Y-54134725D01*
X154500000Y-54134725D01*
X154500000Y-60484725D01*
G37*
D13*
X118966190Y-92890508D02*
X119933810Y-92890508D01*
X119450000Y-93374318D02*
X119450000Y-92406699D01*
X176413842Y-96815476D02*
X176474318Y-96634047D01*
X176474318Y-96634047D02*
X176474318Y-96331666D01*
X176474318Y-96331666D02*
X176413842Y-96210714D01*
X176413842Y-96210714D02*
X176353365Y-96150238D01*
X176353365Y-96150238D02*
X176232413Y-96089761D01*
X176232413Y-96089761D02*
X176111461Y-96089761D01*
X176111461Y-96089761D02*
X175990508Y-96150238D01*
X175990508Y-96150238D02*
X175930032Y-96210714D01*
X175930032Y-96210714D02*
X175869556Y-96331666D01*
X175869556Y-96331666D02*
X175809080Y-96573571D01*
X175809080Y-96573571D02*
X175748603Y-96694523D01*
X175748603Y-96694523D02*
X175688127Y-96755000D01*
X175688127Y-96755000D02*
X175567175Y-96815476D01*
X175567175Y-96815476D02*
X175446222Y-96815476D01*
X175446222Y-96815476D02*
X175325270Y-96755000D01*
X175325270Y-96755000D02*
X175264794Y-96694523D01*
X175264794Y-96694523D02*
X175204318Y-96573571D01*
X175204318Y-96573571D02*
X175204318Y-96271190D01*
X175204318Y-96271190D02*
X175264794Y-96089761D01*
X175204318Y-95666428D02*
X176474318Y-95364047D01*
X176474318Y-95364047D02*
X175567175Y-95122142D01*
X175567175Y-95122142D02*
X176474318Y-94880237D01*
X176474318Y-94880237D02*
X175204318Y-94577857D01*
X176474318Y-94094047D02*
X175204318Y-94094047D01*
X175627651Y-93489285D02*
X176474318Y-93489285D01*
X175748603Y-93489285D02*
X175688127Y-93428808D01*
X175688127Y-93428808D02*
X175627651Y-93307856D01*
X175627651Y-93307856D02*
X175627651Y-93126427D01*
X175627651Y-93126427D02*
X175688127Y-93005475D01*
X175688127Y-93005475D02*
X175809080Y-92944999D01*
X175809080Y-92944999D02*
X176474318Y-92944999D01*
X149616190Y-70440508D02*
X150583810Y-70440508D01*
X150100000Y-70924318D02*
X150100000Y-69956699D01*
X119459491Y-94866190D02*
X119459491Y-95833810D01*
X128683809Y-103059491D02*
X127716190Y-103059491D01*
X175466190Y-70240508D02*
X176433810Y-70240508D01*
X175950000Y-70724318D02*
X175950000Y-69756699D01*
D14*
G36*
X161007556Y-57111439D02*
G01*
X161079624Y-57132138D01*
X161096477Y-57194787D01*
X161096477Y-57437320D01*
X161067939Y-57502497D01*
X160995361Y-57520851D01*
X160714359Y-57520851D01*
X160658672Y-57511692D01*
X160649146Y-57457103D01*
X160649146Y-57133604D01*
X160692253Y-57128234D01*
X160766017Y-57119682D01*
X160818825Y-57115238D01*
X160897684Y-57112078D01*
X160976310Y-57111256D01*
X160995361Y-57111256D01*
X161007556Y-57111439D01*
G37*
G36*
X156931282Y-57473956D02*
G01*
X156922855Y-57519752D01*
X156867901Y-57527079D01*
X156576641Y-57527079D01*
X156517290Y-57517187D01*
X156498606Y-57472124D01*
X156517290Y-57422665D01*
X156576641Y-57409842D01*
X156931282Y-57409842D01*
X156931282Y-57473956D01*
G37*
G36*
X159557097Y-57111276D02*
G01*
X159630287Y-57132138D01*
X159652636Y-57194787D01*
X159652636Y-57437320D01*
X159625813Y-57502497D01*
X159553717Y-57520851D01*
X159302391Y-57520851D01*
X159233619Y-57504862D01*
X159203107Y-57437320D01*
X159203107Y-57194787D01*
X159226188Y-57132138D01*
X159232542Y-57127244D01*
X159304589Y-57111256D01*
X159553717Y-57111256D01*
X159557097Y-57111276D01*
G37*
G36*
X163896316Y-57111276D02*
G01*
X163969506Y-57132138D01*
X163991854Y-57194787D01*
X163991854Y-57437320D01*
X163965031Y-57502497D01*
X163892936Y-57520851D01*
X163641610Y-57520851D01*
X163572838Y-57504862D01*
X163542325Y-57437320D01*
X163542325Y-57194787D01*
X163565406Y-57132138D01*
X163571760Y-57127244D01*
X163643808Y-57111256D01*
X163892936Y-57111256D01*
X163896316Y-57111276D01*
G37*
G36*
X167416598Y-60471667D02*
G01*
X154367493Y-60471667D01*
X154367493Y-59062292D01*
X161889656Y-59062292D01*
X162459352Y-60305000D01*
X162967866Y-60305000D01*
X163497628Y-59189420D01*
X163514821Y-59124574D01*
X163606438Y-59124574D01*
X163627688Y-59389455D01*
X163634691Y-59388449D01*
X163714327Y-59377571D01*
X163790856Y-59367983D01*
X163871320Y-59358681D01*
X163905466Y-59355160D01*
X163980800Y-59349527D01*
X164054418Y-59346139D01*
X164135224Y-59344188D01*
X164210207Y-59343660D01*
X164315720Y-59343660D01*
X164336363Y-59344089D01*
X164409509Y-59361245D01*
X164433689Y-59419863D01*
X164433689Y-59448806D01*
X164433467Y-59456468D01*
X164408410Y-59527208D01*
X164372048Y-59566775D01*
X164313522Y-59611472D01*
X164306562Y-59616412D01*
X164244395Y-59658819D01*
X164180531Y-59700132D01*
X164145987Y-59721963D01*
X164079695Y-59763530D01*
X164016034Y-59803080D01*
X163978399Y-59826289D01*
X163914781Y-59865178D01*
X163847140Y-59906029D01*
X163831851Y-59915203D01*
X163764933Y-59955374D01*
X163701327Y-59993590D01*
X163671766Y-60011542D01*
X163606438Y-60052208D01*
X163606438Y-60305000D01*
X164908497Y-60305000D01*
X164908497Y-60128046D01*
X165112562Y-60128046D01*
X165125888Y-60205463D01*
X165172739Y-60266118D01*
X165242704Y-60296532D01*
X165325786Y-60305000D01*
X165409582Y-60296532D01*
X165480147Y-60266118D01*
X165516359Y-60219637D01*
X165789970Y-60219637D01*
X165842726Y-60248579D01*
X165908388Y-60270669D01*
X165984143Y-60287048D01*
X166031314Y-60294043D01*
X166111656Y-60301055D01*
X166186904Y-60304140D01*
X166260748Y-60305000D01*
X166695256Y-60305000D01*
X166772056Y-60302576D01*
X166854488Y-60293268D01*
X166926307Y-60276979D01*
X166996682Y-60249152D01*
X167059422Y-60205715D01*
X167100963Y-60158824D01*
X167139381Y-60088387D01*
X167159370Y-60016190D01*
X167166034Y-59934972D01*
X167166034Y-59906029D01*
X167163034Y-59853295D01*
X167143349Y-59773464D01*
X167105292Y-59709480D01*
X167048862Y-59661345D01*
X166974059Y-59629057D01*
X167024617Y-59596451D01*
X167033730Y-59588403D01*
X167077374Y-59527941D01*
X167091439Y-59491482D01*
X167100455Y-59417665D01*
X167100455Y-59380662D01*
X167099372Y-59348722D01*
X167086428Y-59272123D01*
X167056124Y-59200045D01*
X167033960Y-59168319D01*
X166978100Y-59117956D01*
X166909579Y-59081343D01*
X166853777Y-59062750D01*
X166779778Y-59048183D01*
X166704027Y-59040878D01*
X166630043Y-59038845D01*
X166572890Y-59038845D01*
X166535720Y-59038970D01*
X166452147Y-59040240D01*
X166372992Y-59042877D01*
X166298254Y-59046882D01*
X166218249Y-59053133D01*
X166208693Y-59054005D01*
X166128125Y-59062084D01*
X166050094Y-59071537D01*
X165972419Y-59083541D01*
X165940777Y-59089174D01*
X165866173Y-59104057D01*
X165887056Y-59381395D01*
X165957909Y-59366609D01*
X166031770Y-59355750D01*
X166099887Y-59348866D01*
X166175276Y-59344840D01*
X166250123Y-59343660D01*
X166281430Y-59343660D01*
X166361150Y-59343660D01*
X166434672Y-59343660D01*
X166509875Y-59343660D01*
X166591941Y-59343660D01*
X166603042Y-59343875D01*
X166672175Y-59368206D01*
X166691226Y-59437449D01*
X166691226Y-59460896D01*
X166691097Y-59467671D01*
X166658253Y-59535635D01*
X166642830Y-59543058D01*
X166568860Y-59554685D01*
X166058148Y-59554685D01*
X166058148Y-59812606D01*
X166632241Y-59812606D01*
X166658156Y-59813495D01*
X166731159Y-59837885D01*
X166756438Y-59903831D01*
X166756438Y-59910792D01*
X166731159Y-59972707D01*
X166689027Y-59993315D01*
X166613190Y-60000184D01*
X166558482Y-60000184D01*
X166481120Y-60000184D01*
X166397995Y-60000184D01*
X166322549Y-60000184D01*
X166245727Y-60000184D01*
X166177903Y-60000184D01*
X166097059Y-60000184D01*
X166020046Y-60000184D01*
X165972619Y-59999791D01*
X165895482Y-59996154D01*
X165789970Y-60219637D01*
X165516359Y-60219637D01*
X165527401Y-60205463D01*
X165540842Y-60128046D01*
X165530954Y-60053383D01*
X165489184Y-59991392D01*
X165471575Y-59980415D01*
X165401143Y-59958648D01*
X165325786Y-59953290D01*
X165312799Y-59953439D01*
X165238218Y-59961662D01*
X165166418Y-59991392D01*
X165122870Y-60053383D01*
X165112562Y-60128046D01*
X164908497Y-60128046D01*
X164908497Y-60000184D01*
X164212405Y-60000184D01*
X164215732Y-59998364D01*
X164281377Y-59963798D01*
X164348326Y-59930209D01*
X164402680Y-59902545D01*
X164467427Y-59867983D01*
X164537370Y-59829092D01*
X164570320Y-59809818D01*
X164638932Y-59764819D01*
X164699893Y-59717559D01*
X164758654Y-59662397D01*
X164774171Y-59644891D01*
X164814872Y-59579746D01*
X164838614Y-59504155D01*
X164845482Y-59427191D01*
X164845482Y-59383960D01*
X164844818Y-59360077D01*
X164832036Y-59282620D01*
X164802984Y-59214699D01*
X164785034Y-59188768D01*
X164726420Y-59137076D01*
X164657538Y-59102592D01*
X164600980Y-59084961D01*
X164525639Y-59071147D01*
X164448256Y-59064220D01*
X164372506Y-59062292D01*
X164357852Y-59062292D01*
X164307780Y-59062504D01*
X164222937Y-59063894D01*
X164141635Y-59066581D01*
X164063875Y-59070566D01*
X163989656Y-59075847D01*
X163949258Y-59079185D01*
X163874474Y-59086100D01*
X163799921Y-59094263D01*
X163722576Y-59104790D01*
X163682457Y-59110996D01*
X163606438Y-59124574D01*
X163514821Y-59124574D01*
X163531334Y-59062292D01*
X163096826Y-59062292D01*
X162778089Y-59804912D01*
X162723134Y-59976737D01*
X162704083Y-59976737D01*
X162647297Y-59804912D01*
X162334788Y-59062292D01*
X161889656Y-59062292D01*
X154367493Y-59062292D01*
X154367493Y-56978998D01*
X154534160Y-56978998D01*
X154534160Y-57365146D01*
X154534555Y-57392374D01*
X154540480Y-57468323D01*
X154556378Y-57546056D01*
X154586397Y-57620554D01*
X154635277Y-57686081D01*
X154662588Y-57709265D01*
X154728854Y-57746360D01*
X154799572Y-57768674D01*
X154882176Y-57781522D01*
X154962440Y-57785000D01*
X155507224Y-57785000D01*
X155551325Y-57784736D01*
X155632108Y-57782630D01*
X155711166Y-57777742D01*
X155790790Y-57768147D01*
X155864342Y-57753491D01*
X155936603Y-57729678D01*
X155979834Y-57697438D01*
X155857572Y-57483482D01*
X156108061Y-57483482D01*
X156108375Y-57503407D01*
X156117542Y-57584110D01*
X156142615Y-57656581D01*
X156188295Y-57715390D01*
X156228446Y-57742513D01*
X156303322Y-57769705D01*
X156378060Y-57781669D01*
X156454275Y-57785000D01*
X156517656Y-57785000D01*
X156535435Y-57784937D01*
X156612287Y-57783095D01*
X156691628Y-57778057D01*
X156771547Y-57768879D01*
X156778426Y-57767854D01*
X156857109Y-57755506D01*
X156933114Y-57741402D01*
X157015546Y-57785000D01*
X157315231Y-57785000D01*
X157315231Y-57157051D01*
X157529921Y-57157051D01*
X157529921Y-57473224D01*
X157530162Y-57490276D01*
X157537676Y-57564828D01*
X157557398Y-57635523D01*
X157559162Y-57639867D01*
X157599931Y-57701393D01*
X157659614Y-57745432D01*
X157724958Y-57769544D01*
X157800698Y-57781870D01*
X157873937Y-57785000D01*
X158274740Y-57785000D01*
X158360391Y-57783685D01*
X158436226Y-57779740D01*
X158510873Y-57772012D01*
X158586149Y-57757522D01*
X158626834Y-57745448D01*
X158690563Y-57701468D01*
X158563801Y-57514623D01*
X158549673Y-57516082D01*
X158474385Y-57519975D01*
X158398204Y-57520851D01*
X158361886Y-57520851D01*
X158282918Y-57520851D01*
X158204627Y-57520851D01*
X158129293Y-57520851D01*
X158021582Y-57520851D01*
X158014356Y-57520769D01*
X157941348Y-57499968D01*
X157920465Y-57437320D01*
X157920465Y-57194787D01*
X157934368Y-57157051D01*
X158810730Y-57157051D01*
X158810730Y-57194787D01*
X158810730Y-57437320D01*
X158810730Y-57473224D01*
X158810816Y-57484634D01*
X158816226Y-57559777D01*
X158832712Y-57635523D01*
X158866876Y-57697988D01*
X158924670Y-57745432D01*
X158980751Y-57767959D01*
X159053284Y-57781136D01*
X159133497Y-57785000D01*
X159720413Y-57785000D01*
X159777937Y-57783106D01*
X159854661Y-57772480D01*
X159928141Y-57745432D01*
X159982146Y-57701393D01*
X160018633Y-57635523D01*
X160022627Y-57622144D01*
X160036704Y-57549549D01*
X160040982Y-57473224D01*
X160040982Y-57157051D01*
X160040960Y-57151573D01*
X160039677Y-57133604D01*
X160265197Y-57133604D01*
X160265197Y-57457103D01*
X160265197Y-58160157D01*
X160649146Y-58160157D01*
X160649146Y-58126085D01*
X165852984Y-58126085D01*
X165912039Y-58149513D01*
X165983776Y-58168217D01*
X166038832Y-58178665D01*
X166117469Y-58187278D01*
X166194802Y-58189832D01*
X166251589Y-58189832D01*
X166287475Y-58188953D01*
X166367151Y-58180065D01*
X166441147Y-58161604D01*
X166509463Y-58133572D01*
X166580584Y-58089815D01*
X166638221Y-58040868D01*
X166692843Y-57981542D01*
X166737262Y-57922432D01*
X166779465Y-57855696D01*
X166819453Y-57781336D01*
X166842843Y-57733789D01*
X166876915Y-57664804D01*
X166911044Y-57595956D01*
X166917515Y-57582872D01*
X166950251Y-57516512D01*
X166983632Y-57448577D01*
X167017656Y-57379068D01*
X167024513Y-57364993D01*
X167058409Y-57295520D01*
X167091661Y-57227549D01*
X167124268Y-57161081D01*
X167146325Y-57116076D01*
X167181608Y-57044309D01*
X167216226Y-56974235D01*
X167249931Y-56847107D01*
X166831910Y-56847107D01*
X166648361Y-57403981D01*
X166616854Y-57531475D01*
X166595605Y-57531475D01*
X166564097Y-57403981D01*
X166382381Y-56847107D01*
X165958497Y-56847107D01*
X166372123Y-57785000D01*
X166500716Y-57785000D01*
X166495466Y-57793655D01*
X166446350Y-57853006D01*
X166384595Y-57894771D01*
X166310200Y-57918951D01*
X166234736Y-57925683D01*
X166211655Y-57925683D01*
X166148565Y-57922624D01*
X166073169Y-57911762D01*
X166007176Y-57896053D01*
X165937248Y-57871828D01*
X165852984Y-58126085D01*
X160649146Y-58126085D01*
X160649146Y-57759720D01*
X160676770Y-57762172D01*
X160753045Y-57768794D01*
X160831596Y-57775474D01*
X160902228Y-57780497D01*
X160980172Y-57783874D01*
X161058375Y-57785000D01*
X161121756Y-57785000D01*
X161711603Y-57785000D01*
X162101781Y-57785000D01*
X162101781Y-57157418D01*
X162113504Y-57118583D01*
X162165162Y-57111256D01*
X162447995Y-57111256D01*
X162517118Y-57127244D01*
X162549111Y-57194787D01*
X162549111Y-57785000D01*
X162935259Y-57785000D01*
X162935259Y-57157051D01*
X163149949Y-57157051D01*
X163149949Y-57194787D01*
X163149949Y-57437320D01*
X163149949Y-57473224D01*
X163150035Y-57484634D01*
X163155444Y-57559777D01*
X163171931Y-57635523D01*
X163206094Y-57697988D01*
X163263888Y-57745432D01*
X163319970Y-57767959D01*
X163392502Y-57781136D01*
X163472716Y-57785000D01*
X164059631Y-57785000D01*
X164604415Y-57785000D01*
X164994593Y-57785000D01*
X164994593Y-57157418D01*
X165006317Y-57118583D01*
X165057974Y-57111256D01*
X165340807Y-57111256D01*
X165409930Y-57127244D01*
X165441924Y-57194787D01*
X165441924Y-57785000D01*
X165828072Y-57785000D01*
X165828072Y-57114919D01*
X165828067Y-57112959D01*
X165822943Y-57038715D01*
X165819769Y-57019053D01*
X165793267Y-56949689D01*
X165772747Y-56921196D01*
X165711934Y-56876416D01*
X165700858Y-56871178D01*
X165627322Y-56851944D01*
X165549635Y-56847107D01*
X165444122Y-56847107D01*
X165437260Y-56847119D01*
X165359698Y-56848910D01*
X165285881Y-56853168D01*
X165208916Y-56859930D01*
X165148397Y-56866593D01*
X165072736Y-56876577D01*
X164994593Y-56889605D01*
X164910329Y-56847107D01*
X164604415Y-56847107D01*
X164604415Y-57785000D01*
X164059631Y-57785000D01*
X164117156Y-57783106D01*
X164193880Y-57772480D01*
X164267360Y-57745432D01*
X164321365Y-57701393D01*
X164357852Y-57635523D01*
X164361846Y-57622144D01*
X164375922Y-57549549D01*
X164380200Y-57473224D01*
X164380200Y-57157051D01*
X164380178Y-57151573D01*
X164374613Y-57073612D01*
X164357852Y-56999148D01*
X164324238Y-56936225D01*
X164267360Y-56888140D01*
X164211904Y-56864778D01*
X164139738Y-56851114D01*
X164059631Y-56847107D01*
X163472716Y-56847107D01*
X163415191Y-56849070D01*
X163338468Y-56860090D01*
X163264987Y-56888140D01*
X163210660Y-56932785D01*
X163173030Y-56999148D01*
X163170235Y-57007965D01*
X163154367Y-57083551D01*
X163149949Y-57157051D01*
X162935259Y-57157051D01*
X162935259Y-57114919D01*
X162935254Y-57112959D01*
X162930130Y-57038715D01*
X162926957Y-57019053D01*
X162900455Y-56949689D01*
X162879935Y-56921196D01*
X162819122Y-56876416D01*
X162808046Y-56871178D01*
X162734510Y-56851944D01*
X162656823Y-56847107D01*
X162551310Y-56847107D01*
X162544449Y-56847119D01*
X162467040Y-56848910D01*
X162393588Y-56853168D01*
X162317203Y-56859930D01*
X162249802Y-56867461D01*
X162174664Y-56877532D01*
X162101781Y-56889605D01*
X162101781Y-56425055D01*
X161711603Y-56425055D01*
X161711603Y-57785000D01*
X161121756Y-57785000D01*
X161187679Y-57782595D01*
X161266284Y-57771438D01*
X161341208Y-57746531D01*
X161346177Y-57744073D01*
X161409535Y-57699637D01*
X161454049Y-57636622D01*
X161459941Y-57623046D01*
X161480710Y-57549759D01*
X161487021Y-57473224D01*
X161487021Y-57157051D01*
X161487000Y-57151956D01*
X161481434Y-57078283D01*
X161464673Y-57005376D01*
X161430968Y-56941629D01*
X161373815Y-56891071D01*
X161312180Y-56864280D01*
X161237668Y-56850585D01*
X161163888Y-56847107D01*
X161100873Y-56847107D01*
X161049534Y-56847313D01*
X160973382Y-56848498D01*
X160896524Y-56851090D01*
X160822070Y-56855533D01*
X160768215Y-56859884D01*
X160690866Y-56866925D01*
X160617639Y-56874584D01*
X160564883Y-56847107D01*
X160265197Y-56847107D01*
X160265197Y-57133604D01*
X160039677Y-57133604D01*
X160035395Y-57073612D01*
X160018633Y-56999148D01*
X159985020Y-56936225D01*
X159928141Y-56888140D01*
X159872686Y-56864778D01*
X159800519Y-56851114D01*
X159720413Y-56847107D01*
X159133497Y-56847107D01*
X159075973Y-56849070D01*
X158999249Y-56860090D01*
X158925769Y-56888140D01*
X158871442Y-56932785D01*
X158833811Y-56999148D01*
X158831016Y-57007965D01*
X158815148Y-57083551D01*
X158810730Y-57157051D01*
X157934368Y-57157051D01*
X157943546Y-57132138D01*
X157949814Y-57127244D01*
X158021582Y-57111256D01*
X158150176Y-57111256D01*
X158176139Y-57111333D01*
X158251515Y-57112492D01*
X158330849Y-57115412D01*
X158405532Y-57120048D01*
X158412720Y-57120571D01*
X158488042Y-57126230D01*
X158565999Y-57132871D01*
X158629380Y-56910122D01*
X158576976Y-56885323D01*
X158500786Y-56868356D01*
X158462032Y-56862235D01*
X158386927Y-56854598D01*
X158307987Y-56850095D01*
X158230501Y-56847854D01*
X158143947Y-56847107D01*
X157873937Y-56847107D01*
X157808404Y-56849786D01*
X157731605Y-56862218D01*
X157660713Y-56889972D01*
X157656155Y-56892677D01*
X157598339Y-56939706D01*
X157558497Y-57003178D01*
X157556739Y-57007565D01*
X157536200Y-57081456D01*
X157529921Y-57157051D01*
X157315231Y-57157051D01*
X157315124Y-57145868D01*
X157308362Y-57072238D01*
X157287754Y-56998049D01*
X157285991Y-56993749D01*
X157245428Y-56932544D01*
X157186271Y-56888140D01*
X157127895Y-56864778D01*
X157054021Y-56851114D01*
X156973414Y-56847107D01*
X156762388Y-56847107D01*
X156701951Y-56847107D01*
X156625255Y-56847107D01*
X156544281Y-56847107D01*
X156468930Y-56847107D01*
X156415282Y-56847861D01*
X156341534Y-56852092D01*
X156266331Y-56862861D01*
X156257413Y-56864818D01*
X156192691Y-56902428D01*
X156215772Y-57117484D01*
X156222167Y-57116371D01*
X156295429Y-57111992D01*
X156369645Y-57111256D01*
X156411148Y-57111256D01*
X156488267Y-57111256D01*
X156566566Y-57111256D01*
X156641717Y-57111256D01*
X156724286Y-57111256D01*
X156829799Y-57111256D01*
X156847774Y-57111668D01*
X156918459Y-57137634D01*
X156931282Y-57192588D01*
X156931282Y-57225195D01*
X156895578Y-57221348D01*
X156821830Y-57214204D01*
X156745169Y-57207609D01*
X156677005Y-57202973D01*
X156599545Y-57199856D01*
X156519488Y-57198817D01*
X156454275Y-57198817D01*
X156410896Y-57199870D01*
X156333135Y-57208296D01*
X156259996Y-57227848D01*
X156191226Y-57266228D01*
X156181155Y-57274976D01*
X156137380Y-57334604D01*
X156114640Y-57405716D01*
X156109022Y-57472124D01*
X156108061Y-57483482D01*
X155857572Y-57483482D01*
X155850873Y-57471758D01*
X155814233Y-57476555D01*
X155740096Y-57479518D01*
X155661097Y-57480184D01*
X155619285Y-57480184D01*
X155535317Y-57480184D01*
X155452404Y-57480184D01*
X155375596Y-57480184D01*
X155291776Y-57480184D01*
X155200943Y-57480184D01*
X155114481Y-57480184D01*
X155044517Y-57474929D01*
X154975996Y-57442815D01*
X154957466Y-57410358D01*
X154945587Y-57336570D01*
X154945587Y-56990722D01*
X154948340Y-56952697D01*
X154980392Y-56882644D01*
X155039949Y-56853909D01*
X155114481Y-56847107D01*
X155222192Y-56847107D01*
X155292837Y-56847107D01*
X155372487Y-56847107D01*
X155446547Y-56847107D01*
X155525885Y-56847107D01*
X155607241Y-56847107D01*
X155661140Y-56847326D01*
X155735286Y-56848664D01*
X155813138Y-56853335D01*
X155878351Y-56590652D01*
X155872265Y-56581259D01*
X155801414Y-56558046D01*
X155734026Y-56548446D01*
X155655236Y-56543538D01*
X155578665Y-56542292D01*
X154962440Y-56542292D01*
X154937247Y-56542700D01*
X154854751Y-56550551D01*
X154781090Y-56568395D01*
X154707725Y-56601025D01*
X154645901Y-56646706D01*
X154613710Y-56682349D01*
X154573553Y-56751918D01*
X154549874Y-56825451D01*
X154538089Y-56897884D01*
X154534160Y-56978998D01*
X154367493Y-56978998D01*
X154367493Y-56258388D01*
X167416598Y-56258388D01*
X167416598Y-60471667D01*
G37*
D13*
X165986190Y-100490508D02*
X166953810Y-100490508D01*
X166470000Y-100974318D02*
X166470000Y-100006699D01*
X131233809Y-59809491D02*
X130266190Y-59809491D01*
X130316190Y-103190508D02*
X131283810Y-103190508D01*
X130800000Y-103674318D02*
X130800000Y-102706699D01*
X176213842Y-90391190D02*
X176274318Y-90209761D01*
X176274318Y-90209761D02*
X176274318Y-89907380D01*
X176274318Y-89907380D02*
X176213842Y-89786428D01*
X176213842Y-89786428D02*
X176153365Y-89725952D01*
X176153365Y-89725952D02*
X176032413Y-89665475D01*
X176032413Y-89665475D02*
X175911461Y-89665475D01*
X175911461Y-89665475D02*
X175790508Y-89725952D01*
X175790508Y-89725952D02*
X175730032Y-89786428D01*
X175730032Y-89786428D02*
X175669556Y-89907380D01*
X175669556Y-89907380D02*
X175609080Y-90149285D01*
X175609080Y-90149285D02*
X175548603Y-90270237D01*
X175548603Y-90270237D02*
X175488127Y-90330714D01*
X175488127Y-90330714D02*
X175367175Y-90391190D01*
X175367175Y-90391190D02*
X175246222Y-90391190D01*
X175246222Y-90391190D02*
X175125270Y-90330714D01*
X175125270Y-90330714D02*
X175064794Y-90270237D01*
X175064794Y-90270237D02*
X175004318Y-90149285D01*
X175004318Y-90149285D02*
X175004318Y-89846904D01*
X175004318Y-89846904D02*
X175064794Y-89665475D01*
X175004318Y-89242142D02*
X176274318Y-88939761D01*
X176274318Y-88939761D02*
X175367175Y-88697856D01*
X175367175Y-88697856D02*
X176274318Y-88455951D01*
X176274318Y-88455951D02*
X175004318Y-88153571D01*
X175004318Y-87427856D02*
X175004318Y-87185951D01*
X175004318Y-87185951D02*
X175064794Y-87064999D01*
X175064794Y-87064999D02*
X175185746Y-86944046D01*
X175185746Y-86944046D02*
X175427651Y-86883570D01*
X175427651Y-86883570D02*
X175850984Y-86883570D01*
X175850984Y-86883570D02*
X176092889Y-86944046D01*
X176092889Y-86944046D02*
X176213842Y-87064999D01*
X176213842Y-87064999D02*
X176274318Y-87185951D01*
X176274318Y-87185951D02*
X176274318Y-87427856D01*
X176274318Y-87427856D02*
X176213842Y-87548808D01*
X176213842Y-87548808D02*
X176092889Y-87669761D01*
X176092889Y-87669761D02*
X175850984Y-87730237D01*
X175850984Y-87730237D02*
X175427651Y-87730237D01*
X175427651Y-87730237D02*
X175185746Y-87669761D01*
X175185746Y-87669761D02*
X175064794Y-87548808D01*
X175064794Y-87548808D02*
X175004318Y-87427856D01*
X175427651Y-85794999D02*
X176274318Y-85794999D01*
X175427651Y-86339285D02*
X176092889Y-86339285D01*
X176092889Y-86339285D02*
X176213842Y-86278808D01*
X176213842Y-86278808D02*
X176274318Y-86157856D01*
X176274318Y-86157856D02*
X176274318Y-85976427D01*
X176274318Y-85976427D02*
X176213842Y-85855475D01*
X176213842Y-85855475D02*
X176153365Y-85794999D01*
X175427651Y-85371665D02*
X175427651Y-84887856D01*
X175004318Y-85190237D02*
X176092889Y-85190237D01*
X176092889Y-85190237D02*
X176213842Y-85129760D01*
X176213842Y-85129760D02*
X176274318Y-85008808D01*
X176274318Y-85008808D02*
X176274318Y-84887856D01*
X175486158Y-67287142D02*
X175425681Y-67468571D01*
X175425681Y-67468571D02*
X175425681Y-67770952D01*
X175425681Y-67770952D02*
X175486158Y-67891904D01*
X175486158Y-67891904D02*
X175546634Y-67952380D01*
X175546634Y-67952380D02*
X175667586Y-68012857D01*
X175667586Y-68012857D02*
X175788538Y-68012857D01*
X175788538Y-68012857D02*
X175909491Y-67952380D01*
X175909491Y-67952380D02*
X175969967Y-67891904D01*
X175969967Y-67891904D02*
X176030443Y-67770952D01*
X176030443Y-67770952D02*
X176090919Y-67529047D01*
X176090919Y-67529047D02*
X176151396Y-67408095D01*
X176151396Y-67408095D02*
X176211872Y-67347618D01*
X176211872Y-67347618D02*
X176332824Y-67287142D01*
X176332824Y-67287142D02*
X176453777Y-67287142D01*
X176453777Y-67287142D02*
X176574729Y-67347618D01*
X176574729Y-67347618D02*
X176635205Y-67408095D01*
X176635205Y-67408095D02*
X176695681Y-67529047D01*
X176695681Y-67529047D02*
X176695681Y-67831428D01*
X176695681Y-67831428D02*
X176635205Y-68012857D01*
X149516190Y-90340508D02*
X150483810Y-90340508D01*
X150000000Y-90824318D02*
X150000000Y-89856699D01*
X173616190Y-96490508D02*
X174583810Y-96490508D01*
X174100000Y-96974318D02*
X174100000Y-96006699D01*
D15*
G36*
X144657597Y-86995842D02*
G01*
X144812386Y-87056842D01*
X144908757Y-87176935D01*
X144962338Y-87329434D01*
X144986523Y-87491464D01*
X144989273Y-87561898D01*
X144992477Y-87643963D01*
X144992438Y-87660104D01*
X144988080Y-87808827D01*
X144925867Y-87808916D01*
X144753241Y-87810247D01*
X144601635Y-87813175D01*
X144432191Y-87819563D01*
X144272937Y-87831542D01*
X144260946Y-87757170D01*
X144246490Y-87607144D01*
X144242163Y-87454919D01*
X144242523Y-87426519D01*
X144259834Y-87275050D01*
X144323307Y-87123581D01*
X144449891Y-87022151D01*
X144611458Y-86993300D01*
X144657597Y-86995842D01*
G37*
G36*
X145844334Y-86848592D02*
G01*
X145981904Y-86904871D01*
X146076182Y-87019678D01*
X146114971Y-87121116D01*
X146145361Y-87265777D01*
X146160600Y-87421516D01*
X146164842Y-87578750D01*
X146164071Y-87636648D01*
X146148722Y-87789043D01*
X146014238Y-87795269D01*
X145851479Y-87800904D01*
X145682409Y-87804786D01*
X145532469Y-87806718D01*
X145377892Y-87807362D01*
X145370880Y-87709528D01*
X145367634Y-87561898D01*
X145371137Y-87433308D01*
X145386708Y-87281530D01*
X145423688Y-87123428D01*
X145493755Y-86980083D01*
X145610923Y-86876789D01*
X145766238Y-86842358D01*
X145844334Y-86848592D01*
G37*
G36*
X147717436Y-88686577D02*
G01*
X143299200Y-88686577D01*
X143299200Y-87351605D01*
X143867006Y-87351605D01*
X143867167Y-87393175D01*
X143868137Y-87454919D01*
X143869582Y-87546865D01*
X143873600Y-87701116D01*
X143873961Y-87714958D01*
X143877607Y-87871979D01*
X143879462Y-88019120D01*
X143879462Y-88353244D01*
X143979338Y-88348399D01*
X144154327Y-88341383D01*
X144301995Y-88336724D01*
X144456486Y-88332911D01*
X144617801Y-88329946D01*
X144785939Y-88327828D01*
X144960901Y-88326557D01*
X145142686Y-88326133D01*
X145332944Y-88326557D01*
X145518301Y-88327828D01*
X145698758Y-88329946D01*
X145874316Y-88332911D01*
X146044973Y-88336724D01*
X146210730Y-88341383D01*
X146371586Y-88346890D01*
X146527543Y-88353244D01*
X146529769Y-88263076D01*
X146533565Y-88096495D01*
X146536484Y-87948254D01*
X146539014Y-87779132D01*
X146540000Y-87627843D01*
X146536851Y-87465381D01*
X146527406Y-87313400D01*
X146501431Y-87105081D01*
X146461288Y-86920345D01*
X146406978Y-86759193D01*
X146338499Y-86621624D01*
X146225155Y-86474883D01*
X146086624Y-86370069D01*
X145922905Y-86307180D01*
X145733998Y-86286217D01*
X145678840Y-86287853D01*
X145529052Y-86312389D01*
X145390220Y-86374185D01*
X145280439Y-86472330D01*
X145261743Y-86495752D01*
X145181658Y-86620330D01*
X145123899Y-86757359D01*
X145088464Y-86906838D01*
X145056224Y-86906838D01*
X144990227Y-86747719D01*
X144902695Y-86621521D01*
X144773355Y-86515898D01*
X144614704Y-86455085D01*
X144455387Y-86438625D01*
X144350237Y-86446649D01*
X144197970Y-86495686D01*
X144074433Y-86589302D01*
X143979626Y-86727497D01*
X143924465Y-86870150D01*
X143887691Y-87041334D01*
X143872177Y-87188445D01*
X143867006Y-87351605D01*
X143299200Y-87351605D01*
X143299200Y-84104884D01*
X144570425Y-84104884D01*
X144588743Y-84661758D01*
X144695722Y-84655919D01*
X144859842Y-84649715D01*
X145015455Y-84645628D01*
X145192683Y-84642319D01*
X145339790Y-84640349D01*
X145499056Y-84638816D01*
X145670480Y-84637721D01*
X145854063Y-84637064D01*
X146049804Y-84636845D01*
X146110469Y-84752737D01*
X146151249Y-84895093D01*
X146164842Y-85053035D01*
X146162129Y-85105906D01*
X146109896Y-85255251D01*
X145991186Y-85349057D01*
X145928711Y-85370588D01*
X145776044Y-85400148D01*
X145621560Y-85414964D01*
X145464252Y-85421971D01*
X145315610Y-85423796D01*
X145226870Y-85423281D01*
X145068544Y-85419900D01*
X144906361Y-85413363D01*
X144740322Y-85403671D01*
X144570425Y-85390823D01*
X144590942Y-85966015D01*
X144682250Y-85958944D01*
X144850531Y-85946888D01*
X144999699Y-85937614D01*
X145168856Y-85929577D01*
X145318541Y-85926448D01*
X145369436Y-85926737D01*
X145520041Y-85930111D01*
X145548000Y-85930798D01*
X145698827Y-85933042D01*
X145795590Y-85931529D01*
X145970415Y-85919421D01*
X146120303Y-85895207D01*
X146281366Y-85844088D01*
X146409574Y-85760851D01*
X146460657Y-85702945D01*
X146536850Y-85562553D01*
X146575812Y-85408179D01*
X146586894Y-85248674D01*
X146583334Y-85159968D01*
X146559967Y-85011564D01*
X146514792Y-84871857D01*
X146447808Y-84740844D01*
X146359016Y-84618527D01*
X146359016Y-84585554D01*
X146410135Y-84582334D01*
X146556852Y-84552581D01*
X146540000Y-84069713D01*
X146509210Y-84073139D01*
X146356185Y-84088638D01*
X146204698Y-84101418D01*
X146054750Y-84111479D01*
X145906340Y-84118821D01*
X145759469Y-84123443D01*
X145585254Y-84125401D01*
X145546509Y-84125381D01*
X145396065Y-84124900D01*
X145218217Y-84123397D01*
X145051711Y-84120893D01*
X144896547Y-84117387D01*
X144725320Y-84111857D01*
X144570425Y-84104884D01*
X143299200Y-84104884D01*
X143299200Y-82613782D01*
X144523531Y-82613782D01*
X144526332Y-82709119D01*
X144543452Y-82859429D01*
X144584539Y-83025632D01*
X144648037Y-83176380D01*
X144733947Y-83311671D01*
X144842267Y-83431507D01*
X144882536Y-83467708D01*
X145008459Y-83562299D01*
X145142059Y-83635869D01*
X145283336Y-83688420D01*
X145432289Y-83719950D01*
X145588918Y-83730460D01*
X145714512Y-83723501D01*
X145880727Y-83690378D01*
X146035722Y-83629975D01*
X146179497Y-83542295D01*
X146293803Y-83445429D01*
X146362496Y-83370141D01*
X146448363Y-83242783D01*
X146513621Y-83098115D01*
X146558272Y-82936137D01*
X146579739Y-82787931D01*
X146586894Y-82627704D01*
X146586491Y-82588108D01*
X146574686Y-82422819D01*
X146542400Y-82263908D01*
X146483579Y-82119190D01*
X146071053Y-82084019D01*
X146076823Y-82100923D01*
X146120512Y-82245334D01*
X146151653Y-82389475D01*
X146164842Y-82539776D01*
X146163220Y-82597197D01*
X146138876Y-82754546D01*
X146077568Y-82903138D01*
X145980195Y-83024110D01*
X145956702Y-83044784D01*
X145829619Y-83128146D01*
X145686508Y-83178163D01*
X145527369Y-83194836D01*
X145381539Y-83180739D01*
X145238646Y-83132670D01*
X145114110Y-83050488D01*
X145025238Y-82950038D01*
X144965496Y-82815907D01*
X144945582Y-82657013D01*
X144953001Y-82528361D01*
X144982219Y-82381037D01*
X145039371Y-82232763D01*
X144585812Y-82162421D01*
X144550353Y-82305014D01*
X144529613Y-82460767D01*
X144523531Y-82613782D01*
X143299200Y-82613782D01*
X143299200Y-81227459D01*
X143632533Y-81227459D01*
X143665505Y-81812909D01*
X143812349Y-81797969D01*
X143965649Y-81785020D01*
X144125407Y-81774063D01*
X144291622Y-81765099D01*
X144464294Y-81758127D01*
X144643423Y-81753146D01*
X144829010Y-81750158D01*
X145021053Y-81749162D01*
X145056697Y-81749186D01*
X145206901Y-81749770D01*
X145369309Y-81751133D01*
X145543922Y-81753274D01*
X145730739Y-81756193D01*
X145878861Y-81758894D01*
X146033848Y-81762032D01*
X146195700Y-81765608D01*
X146364417Y-81769623D01*
X146540000Y-81774075D01*
X146540000Y-81227459D01*
X146410902Y-81233298D01*
X146254295Y-81239502D01*
X146102984Y-81244490D01*
X145928400Y-81248869D01*
X145761441Y-81251496D01*
X145602107Y-81252372D01*
X145602107Y-81225261D01*
X145673334Y-81117644D01*
X145787972Y-81014272D01*
X145909353Y-80918170D01*
X146033684Y-80825924D01*
X146111469Y-80770010D01*
X146248220Y-80674681D01*
X146391525Y-80581796D01*
X146540000Y-80513049D01*
X146540000Y-79882170D01*
X146528221Y-79883486D01*
X146393720Y-79946684D01*
X146264726Y-80027327D01*
X146124523Y-80122124D01*
X145986789Y-80219225D01*
X145847821Y-80320802D01*
X145725383Y-80415330D01*
X145600275Y-80519460D01*
X145484400Y-80628118D01*
X145383021Y-80747522D01*
X145350781Y-80747522D01*
X145343455Y-80736610D01*
X145250204Y-80615996D01*
X145149431Y-80504461D01*
X145042171Y-80395898D01*
X144936057Y-80294696D01*
X144831669Y-80199324D01*
X144706095Y-80093264D01*
X144570425Y-80014061D01*
X144570425Y-80628087D01*
X144605339Y-80637593D01*
X144732971Y-80713636D01*
X144860878Y-80806578D01*
X144979288Y-80898464D01*
X145112334Y-81006301D01*
X145224373Y-81104727D01*
X145320739Y-81225994D01*
X145320739Y-81254570D01*
X145173186Y-81255910D01*
X145018855Y-81256769D01*
X144863677Y-81256311D01*
X144703324Y-81254937D01*
X144537796Y-81252647D01*
X144367093Y-81249441D01*
X144191215Y-81245320D01*
X144010163Y-81240282D01*
X143823935Y-81234329D01*
X143632533Y-81227459D01*
X143299200Y-81227459D01*
X143299200Y-78088450D01*
X144335952Y-78088450D01*
X144337186Y-78220105D01*
X144343062Y-78379779D01*
X144355701Y-78527057D01*
X144386510Y-78677564D01*
X144758004Y-78714933D01*
X144735335Y-78609897D01*
X144716650Y-78457226D01*
X144711109Y-78304605D01*
X144714213Y-78212550D01*
X144739046Y-78055603D01*
X144799403Y-77918274D01*
X144909770Y-77821691D01*
X145064284Y-77789497D01*
X145157066Y-77802961D01*
X145289474Y-77882272D01*
X145383754Y-78004919D01*
X145432290Y-78105127D01*
X145477177Y-78251482D01*
X145500532Y-78398120D01*
X145508318Y-78560327D01*
X145836580Y-78603558D01*
X145840959Y-78439220D01*
X145854097Y-78291047D01*
X145885238Y-78118627D01*
X145946060Y-77943512D01*
X146031211Y-77813299D01*
X146165507Y-77716313D01*
X146334836Y-77683984D01*
X146479916Y-77704455D01*
X146626490Y-77776422D01*
X146741986Y-77883892D01*
X146831625Y-78011514D01*
X146876322Y-78093831D01*
X146934436Y-78230617D01*
X146981835Y-78383374D01*
X147018517Y-78552101D01*
X147040900Y-78704908D01*
X147055840Y-78868806D01*
X147384103Y-78813119D01*
X147372494Y-78664424D01*
X147348680Y-78475860D01*
X147315341Y-78298380D01*
X147272476Y-78131982D01*
X147220086Y-77976666D01*
X147158171Y-77832433D01*
X147086729Y-77699283D01*
X146984033Y-77548429D01*
X146945218Y-77500250D01*
X146823520Y-77374361D01*
X146693938Y-77276447D01*
X146556474Y-77206508D01*
X146411128Y-77164545D01*
X146257899Y-77150558D01*
X146206458Y-77152071D01*
X146061333Y-77174772D01*
X145916261Y-77231945D01*
X145788220Y-77322749D01*
X145753513Y-77355930D01*
X145656426Y-77479463D01*
X145587962Y-77622889D01*
X145550816Y-77768981D01*
X145520774Y-77768981D01*
X145482947Y-77675970D01*
X145403881Y-77550364D01*
X145298025Y-77441451D01*
X145209090Y-77377337D01*
X145067788Y-77315513D01*
X144917006Y-77294905D01*
X144900671Y-77295094D01*
X144748973Y-77317763D01*
X144606569Y-77386336D01*
X144499351Y-77488346D01*
X144489298Y-77501664D01*
X144413183Y-77637310D01*
X144367228Y-77781726D01*
X144343771Y-77926498D01*
X144335952Y-78088450D01*
X143299200Y-78088450D01*
X143299200Y-75158269D01*
X143867006Y-75158269D01*
X143994803Y-75171557D01*
X144154686Y-75204101D01*
X144323421Y-75246136D01*
X144481645Y-75289527D01*
X144660522Y-75341597D01*
X144808234Y-75386344D01*
X144967564Y-75435973D01*
X145021866Y-75453013D01*
X145175842Y-75500888D01*
X145316423Y-75543894D01*
X145483027Y-75593663D01*
X145657794Y-75643702D01*
X145818399Y-75685896D01*
X145967006Y-75712944D01*
X145967006Y-75748115D01*
X145893075Y-75757827D01*
X145736627Y-75793706D01*
X145578597Y-75835519D01*
X145424403Y-75878681D01*
X145245526Y-75930476D01*
X145095169Y-75974987D01*
X144930928Y-76024354D01*
X144819696Y-76057716D01*
X144664033Y-76103723D01*
X144521790Y-76144888D01*
X144353011Y-76192240D01*
X144208091Y-76230983D01*
X144035447Y-76272955D01*
X143867006Y-76299860D01*
X143867006Y-76953454D01*
X143889815Y-76951759D01*
X144033164Y-76919141D01*
X144196050Y-76870426D01*
X144362654Y-76816205D01*
X144508779Y-76766642D01*
X144673053Y-76709455D01*
X144855474Y-76644643D01*
X145056044Y-76572206D01*
X145199839Y-76519678D01*
X145343577Y-76467151D01*
X145544189Y-76394714D01*
X145726808Y-76329902D01*
X145891434Y-76272715D01*
X146038066Y-76223152D01*
X146205586Y-76168931D01*
X146370003Y-76120216D01*
X146540000Y-76085903D01*
X146540000Y-75519504D01*
X146515553Y-75517664D01*
X146368097Y-75482236D01*
X146203823Y-75429324D01*
X146037036Y-75370431D01*
X145891314Y-75316599D01*
X145727907Y-75254485D01*
X145546817Y-75184090D01*
X145348042Y-75105412D01*
X145205701Y-75048360D01*
X145133544Y-75019373D01*
X144995098Y-74964161D01*
X144802102Y-74888244D01*
X144626713Y-74820609D01*
X144468931Y-74761256D01*
X144328756Y-74710185D01*
X144169244Y-74654972D01*
X144013872Y-74606662D01*
X143867006Y-74577215D01*
X143867006Y-75158269D01*
X143299200Y-75158269D01*
X143299200Y-73703803D01*
X144335952Y-73703803D01*
X144337186Y-73835458D01*
X144343062Y-73995131D01*
X144355701Y-74142409D01*
X144386510Y-74292916D01*
X144758004Y-74330286D01*
X144735335Y-74225249D01*
X144716650Y-74072578D01*
X144711109Y-73919958D01*
X144714213Y-73827902D01*
X144739046Y-73670955D01*
X144799403Y-73533627D01*
X144909770Y-73437044D01*
X145064284Y-73404849D01*
X145157066Y-73418313D01*
X145289474Y-73497624D01*
X145383754Y-73620272D01*
X145432290Y-73720479D01*
X145477177Y-73866835D01*
X145500532Y-74013472D01*
X145508318Y-74175680D01*
X145836580Y-74218911D01*
X145840959Y-74054573D01*
X145854097Y-73906399D01*
X145885238Y-73733979D01*
X145946060Y-73558865D01*
X146031211Y-73428652D01*
X146165507Y-73331665D01*
X146334836Y-73299337D01*
X146479916Y-73319807D01*
X146626490Y-73391774D01*
X146741986Y-73499245D01*
X146831625Y-73626866D01*
X146876322Y-73709184D01*
X146934436Y-73845969D01*
X146981835Y-73998726D01*
X147018517Y-74167454D01*
X147040900Y-74320261D01*
X147055840Y-74484159D01*
X147384103Y-74428471D01*
X147372494Y-74279776D01*
X147348680Y-74091213D01*
X147315341Y-73913732D01*
X147272476Y-73747334D01*
X147220086Y-73592019D01*
X147158171Y-73447786D01*
X147086729Y-73314635D01*
X146984033Y-73163782D01*
X146945218Y-73115602D01*
X146823520Y-72989713D01*
X146693938Y-72891799D01*
X146556474Y-72821861D01*
X146411128Y-72779898D01*
X146257899Y-72765910D01*
X146206458Y-72767424D01*
X146061333Y-72790125D01*
X145916261Y-72847297D01*
X145788220Y-72938101D01*
X145753513Y-72971282D01*
X145656426Y-73094816D01*
X145587962Y-73238242D01*
X145550816Y-73384333D01*
X145520774Y-73384333D01*
X145482947Y-73291322D01*
X145403881Y-73165717D01*
X145298025Y-73056803D01*
X145209090Y-72992690D01*
X145067788Y-72930866D01*
X144917006Y-72910258D01*
X144900671Y-72910447D01*
X144748973Y-72933115D01*
X144606569Y-73001688D01*
X144499351Y-73103698D01*
X144489298Y-73117017D01*
X144413183Y-73252662D01*
X144367228Y-73397079D01*
X144343771Y-73541850D01*
X144335952Y-73703803D01*
X143299200Y-73703803D01*
X143299200Y-72432577D01*
X147717436Y-72432577D01*
X147717436Y-88686577D01*
G37*
D13*
X167166190Y-77090508D02*
X168133810Y-77090508D01*
X167650000Y-77574318D02*
X167650000Y-76606699D01*
X175959491Y-72516190D02*
X175959491Y-73483810D01*
X160333571Y-103109080D02*
X160514999Y-103169556D01*
X160514999Y-103169556D02*
X160575476Y-103230032D01*
X160575476Y-103230032D02*
X160635952Y-103350984D01*
X160635952Y-103350984D02*
X160635952Y-103532413D01*
X160635952Y-103532413D02*
X160575476Y-103653365D01*
X160575476Y-103653365D02*
X160514999Y-103713842D01*
X160514999Y-103713842D02*
X160394047Y-103774318D01*
X160394047Y-103774318D02*
X159910237Y-103774318D01*
X159910237Y-103774318D02*
X159910237Y-102504318D01*
X159910237Y-102504318D02*
X160333571Y-102504318D01*
X160333571Y-102504318D02*
X160454523Y-102564794D01*
X160454523Y-102564794D02*
X160514999Y-102625270D01*
X160514999Y-102625270D02*
X160575476Y-102746222D01*
X160575476Y-102746222D02*
X160575476Y-102867175D01*
X160575476Y-102867175D02*
X160514999Y-102988127D01*
X160514999Y-102988127D02*
X160454523Y-103048603D01*
X160454523Y-103048603D02*
X160333571Y-103109080D01*
X160333571Y-103109080D02*
X159910237Y-103109080D01*
X161724523Y-103774318D02*
X161724523Y-103109080D01*
X161724523Y-103109080D02*
X161664047Y-102988127D01*
X161664047Y-102988127D02*
X161543095Y-102927651D01*
X161543095Y-102927651D02*
X161301190Y-102927651D01*
X161301190Y-102927651D02*
X161180237Y-102988127D01*
X161724523Y-103713842D02*
X161603571Y-103774318D01*
X161603571Y-103774318D02*
X161301190Y-103774318D01*
X161301190Y-103774318D02*
X161180237Y-103713842D01*
X161180237Y-103713842D02*
X161119761Y-103592889D01*
X161119761Y-103592889D02*
X161119761Y-103471937D01*
X161119761Y-103471937D02*
X161180237Y-103350984D01*
X161180237Y-103350984D02*
X161301190Y-103290508D01*
X161301190Y-103290508D02*
X161603571Y-103290508D01*
X161603571Y-103290508D02*
X161724523Y-103230032D01*
X162147857Y-102927651D02*
X162631666Y-102927651D01*
X162329285Y-102504318D02*
X162329285Y-103592889D01*
X162329285Y-103592889D02*
X162389762Y-103713842D01*
X162389762Y-103713842D02*
X162510714Y-103774318D01*
X162510714Y-103774318D02*
X162631666Y-103774318D01*
X162873571Y-102927651D02*
X163357380Y-102927651D01*
X163054999Y-102504318D02*
X163054999Y-103592889D01*
X163054999Y-103592889D02*
X163115476Y-103713842D01*
X163115476Y-103713842D02*
X163236428Y-103774318D01*
X163236428Y-103774318D02*
X163357380Y-103774318D01*
X163780713Y-103774318D02*
X163780713Y-102504318D01*
X164385475Y-102927651D02*
X164385475Y-103774318D01*
X164385475Y-103048603D02*
X164445952Y-102988127D01*
X164445952Y-102988127D02*
X164566904Y-102927651D01*
X164566904Y-102927651D02*
X164748333Y-102927651D01*
X164748333Y-102927651D02*
X164869285Y-102988127D01*
X164869285Y-102988127D02*
X164929761Y-103109080D01*
X164929761Y-103109080D02*
X164929761Y-103774318D01*
X173616190Y-89240508D02*
X174583810Y-89240508D01*
X174100000Y-89724318D02*
X174100000Y-88756699D01*
X141233809Y-90609491D02*
X140266190Y-90609491D01*
X127716190Y-59790508D02*
X128683810Y-59790508D01*
X128200000Y-60274318D02*
X128200000Y-59306699D01*
X174190508Y-94183809D02*
X174190508Y-93216190D01*
X157536190Y-100590508D02*
X158503810Y-100590508D01*
D15*
G36*
X162957597Y-93045842D02*
G01*
X163112386Y-93106842D01*
X163208757Y-93226935D01*
X163262338Y-93379434D01*
X163286523Y-93541464D01*
X163289273Y-93611898D01*
X163292477Y-93693963D01*
X163292438Y-93710104D01*
X163288080Y-93858827D01*
X163225867Y-93858916D01*
X163053241Y-93860247D01*
X162901635Y-93863175D01*
X162732191Y-93869563D01*
X162572937Y-93881542D01*
X162560946Y-93807170D01*
X162546490Y-93657144D01*
X162542163Y-93504919D01*
X162542523Y-93476519D01*
X162559834Y-93325050D01*
X162623307Y-93173581D01*
X162749891Y-93072151D01*
X162911458Y-93043300D01*
X162957597Y-93045842D01*
G37*
G36*
X164144334Y-92898592D02*
G01*
X164281904Y-92954871D01*
X164376182Y-93069678D01*
X164414971Y-93171116D01*
X164445361Y-93315777D01*
X164460600Y-93471516D01*
X164464842Y-93628750D01*
X164464071Y-93686648D01*
X164448722Y-93839043D01*
X164314238Y-93845269D01*
X164151479Y-93850904D01*
X163982409Y-93854786D01*
X163832469Y-93856718D01*
X163677892Y-93857362D01*
X163670880Y-93759528D01*
X163667634Y-93611898D01*
X163671137Y-93483308D01*
X163686708Y-93331530D01*
X163723688Y-93173428D01*
X163793755Y-93030083D01*
X163910923Y-92926789D01*
X164066238Y-92892358D01*
X164144334Y-92898592D01*
G37*
G36*
X164038589Y-83447693D02*
G01*
X164189156Y-83479870D01*
X164317564Y-83553000D01*
X164359993Y-83592184D01*
X164440536Y-83721694D01*
X164464842Y-83868073D01*
X164461663Y-83922464D01*
X164413964Y-84064582D01*
X164309026Y-84175118D01*
X164177854Y-84243107D01*
X164006933Y-84289163D01*
X163841577Y-84310218D01*
X163650781Y-84317236D01*
X163568253Y-84226368D01*
X163500229Y-84085375D01*
X163480055Y-83936217D01*
X163490130Y-83823331D01*
X163543024Y-83678560D01*
X163641256Y-83563258D01*
X163706351Y-83517577D01*
X163844359Y-83462508D01*
X163991500Y-83446022D01*
X164038589Y-83447693D01*
G37*
G36*
X165220227Y-94736577D02*
G01*
X161599200Y-94736577D01*
X161599200Y-93401605D01*
X162167006Y-93401605D01*
X162167167Y-93443175D01*
X162168137Y-93504919D01*
X162169582Y-93596865D01*
X162173600Y-93751116D01*
X162173961Y-93764958D01*
X162177607Y-93921979D01*
X162179462Y-94069120D01*
X162179462Y-94403244D01*
X162279338Y-94398399D01*
X162454327Y-94391383D01*
X162601995Y-94386724D01*
X162756486Y-94382911D01*
X162917801Y-94379946D01*
X163085939Y-94377828D01*
X163260901Y-94376557D01*
X163442686Y-94376133D01*
X163632944Y-94376557D01*
X163818301Y-94377828D01*
X163998758Y-94379946D01*
X164174316Y-94382911D01*
X164344973Y-94386724D01*
X164510730Y-94391383D01*
X164671586Y-94396890D01*
X164827543Y-94403244D01*
X164829769Y-94313076D01*
X164833565Y-94146495D01*
X164836484Y-93998254D01*
X164839014Y-93829132D01*
X164840000Y-93677843D01*
X164836851Y-93515381D01*
X164827406Y-93363400D01*
X164801431Y-93155081D01*
X164761288Y-92970345D01*
X164706978Y-92809193D01*
X164638499Y-92671624D01*
X164525155Y-92524883D01*
X164386624Y-92420069D01*
X164222905Y-92357180D01*
X164033998Y-92336217D01*
X163978840Y-92337853D01*
X163829052Y-92362389D01*
X163690220Y-92424185D01*
X163580439Y-92522330D01*
X163561743Y-92545752D01*
X163481658Y-92670330D01*
X163423899Y-92807359D01*
X163388464Y-92956838D01*
X163356224Y-92956838D01*
X163290227Y-92797719D01*
X163202695Y-92671521D01*
X163073355Y-92565898D01*
X162914704Y-92505085D01*
X162755387Y-92488625D01*
X162650237Y-92496649D01*
X162497970Y-92545686D01*
X162374433Y-92639302D01*
X162279626Y-92777497D01*
X162224465Y-92920150D01*
X162187691Y-93091334D01*
X162172177Y-93238445D01*
X162167006Y-93401605D01*
X161599200Y-93401605D01*
X161599200Y-90154884D01*
X162870425Y-90154884D01*
X162888743Y-90711758D01*
X162995722Y-90705919D01*
X163159842Y-90699715D01*
X163315455Y-90695628D01*
X163492683Y-90692319D01*
X163639790Y-90690349D01*
X163799056Y-90688816D01*
X163970480Y-90687721D01*
X164154063Y-90687064D01*
X164349804Y-90686845D01*
X164410469Y-90802737D01*
X164451249Y-90945093D01*
X164464842Y-91103035D01*
X164462129Y-91155906D01*
X164409896Y-91305251D01*
X164291186Y-91399057D01*
X164228711Y-91420588D01*
X164076044Y-91450148D01*
X163921560Y-91464964D01*
X163764252Y-91471971D01*
X163615610Y-91473796D01*
X163526870Y-91473281D01*
X163368544Y-91469900D01*
X163206361Y-91463363D01*
X163040322Y-91453671D01*
X162870425Y-91440823D01*
X162890942Y-92016015D01*
X162982250Y-92008944D01*
X163150531Y-91996888D01*
X163299699Y-91987614D01*
X163468856Y-91979577D01*
X163618541Y-91976448D01*
X163669436Y-91976737D01*
X163820041Y-91980111D01*
X163848000Y-91980798D01*
X163998827Y-91983042D01*
X164095590Y-91981529D01*
X164270415Y-91969421D01*
X164420303Y-91945207D01*
X164581366Y-91894088D01*
X164709574Y-91810851D01*
X164760657Y-91752945D01*
X164836850Y-91612553D01*
X164875812Y-91458179D01*
X164886894Y-91298674D01*
X164883334Y-91209968D01*
X164859967Y-91061564D01*
X164814792Y-90921857D01*
X164747808Y-90790844D01*
X164659016Y-90668527D01*
X164659016Y-90635554D01*
X164710135Y-90632334D01*
X164856852Y-90602581D01*
X164840000Y-90119713D01*
X164809210Y-90123139D01*
X164656185Y-90138638D01*
X164504698Y-90151418D01*
X164354750Y-90161479D01*
X164206340Y-90168821D01*
X164059469Y-90173443D01*
X163885254Y-90175401D01*
X163846509Y-90175381D01*
X163696065Y-90174900D01*
X163518217Y-90173397D01*
X163351711Y-90170893D01*
X163196547Y-90167387D01*
X163025320Y-90161857D01*
X162870425Y-90154884D01*
X161599200Y-90154884D01*
X161599200Y-88663782D01*
X162823531Y-88663782D01*
X162826332Y-88759119D01*
X162843452Y-88909429D01*
X162884539Y-89075632D01*
X162948037Y-89226380D01*
X163033947Y-89361671D01*
X163142267Y-89481507D01*
X163182536Y-89517708D01*
X163308459Y-89612299D01*
X163442059Y-89685869D01*
X163583336Y-89738420D01*
X163732289Y-89769950D01*
X163888918Y-89780460D01*
X164014512Y-89773501D01*
X164180727Y-89740378D01*
X164335722Y-89679975D01*
X164479497Y-89592295D01*
X164593803Y-89495429D01*
X164662496Y-89420141D01*
X164748363Y-89292783D01*
X164813621Y-89148115D01*
X164858272Y-88986137D01*
X164879739Y-88837931D01*
X164886894Y-88677704D01*
X164886491Y-88638108D01*
X164874686Y-88472819D01*
X164842400Y-88313908D01*
X164783579Y-88169190D01*
X164371053Y-88134019D01*
X164376823Y-88150923D01*
X164420512Y-88295334D01*
X164451653Y-88439475D01*
X164464842Y-88589776D01*
X164463220Y-88647197D01*
X164438876Y-88804546D01*
X164377568Y-88953138D01*
X164280195Y-89074110D01*
X164256702Y-89094784D01*
X164129619Y-89178146D01*
X163986508Y-89228163D01*
X163827369Y-89244836D01*
X163681539Y-89230739D01*
X163538646Y-89182670D01*
X163414110Y-89100488D01*
X163325238Y-89000038D01*
X163265496Y-88865907D01*
X163245582Y-88707013D01*
X163253001Y-88578361D01*
X163282219Y-88431037D01*
X163339371Y-88282763D01*
X162885812Y-88212421D01*
X162850353Y-88355014D01*
X162829613Y-88510767D01*
X162823531Y-88663782D01*
X161599200Y-88663782D01*
X161599200Y-87277459D01*
X161932533Y-87277459D01*
X161965505Y-87862909D01*
X162112349Y-87847969D01*
X162265649Y-87835020D01*
X162425407Y-87824063D01*
X162591622Y-87815099D01*
X162764294Y-87808127D01*
X162943423Y-87803146D01*
X163129010Y-87800158D01*
X163321053Y-87799162D01*
X163356697Y-87799186D01*
X163506901Y-87799770D01*
X163669309Y-87801133D01*
X163843922Y-87803274D01*
X164030739Y-87806193D01*
X164178861Y-87808894D01*
X164333848Y-87812032D01*
X164495700Y-87815608D01*
X164664417Y-87819623D01*
X164840000Y-87824075D01*
X164840000Y-87277459D01*
X164710902Y-87283298D01*
X164554295Y-87289502D01*
X164402984Y-87294490D01*
X164228400Y-87298869D01*
X164061441Y-87301496D01*
X163902107Y-87302372D01*
X163902107Y-87275261D01*
X163973334Y-87167644D01*
X164087972Y-87064272D01*
X164209353Y-86968170D01*
X164333684Y-86875924D01*
X164411469Y-86820010D01*
X164548220Y-86724681D01*
X164691525Y-86631796D01*
X164840000Y-86563049D01*
X164840000Y-85932170D01*
X164828221Y-85933486D01*
X164693720Y-85996684D01*
X164564726Y-86077327D01*
X164424523Y-86172124D01*
X164286789Y-86269225D01*
X164147821Y-86370802D01*
X164025383Y-86465330D01*
X163900275Y-86569460D01*
X163784400Y-86678118D01*
X163683021Y-86797522D01*
X163650781Y-86797522D01*
X163643455Y-86786610D01*
X163550204Y-86665996D01*
X163449431Y-86554461D01*
X163342171Y-86445898D01*
X163236057Y-86344696D01*
X163131669Y-86249324D01*
X163006095Y-86143264D01*
X162870425Y-86064061D01*
X162870425Y-86678087D01*
X162905339Y-86687593D01*
X163032971Y-86763636D01*
X163160878Y-86856578D01*
X163279288Y-86948464D01*
X163412334Y-87056301D01*
X163524373Y-87154727D01*
X163620739Y-87275994D01*
X163620739Y-87304570D01*
X163473186Y-87305910D01*
X163318855Y-87306769D01*
X163163677Y-87306311D01*
X163003324Y-87304937D01*
X162837796Y-87302647D01*
X162667093Y-87299441D01*
X162491215Y-87295320D01*
X162310163Y-87290282D01*
X162123935Y-87284329D01*
X161932533Y-87277459D01*
X161599200Y-87277459D01*
X161599200Y-83305338D01*
X162120111Y-83305338D01*
X162125905Y-83398293D01*
X162146427Y-83575350D01*
X162178862Y-83740603D01*
X162223209Y-83894052D01*
X162279469Y-84035698D01*
X162347641Y-84165540D01*
X162472236Y-84338170D01*
X162623634Y-84484242D01*
X162801835Y-84603756D01*
X162935526Y-84668677D01*
X163081130Y-84721794D01*
X163238647Y-84763107D01*
X163408076Y-84792617D01*
X163589418Y-84810322D01*
X163782672Y-84816224D01*
X163880998Y-84813655D01*
X164034914Y-84797952D01*
X164203178Y-84760265D01*
X164353514Y-84702022D01*
X164485920Y-84623222D01*
X164600397Y-84523866D01*
X164656554Y-84458744D01*
X164736811Y-84334644D01*
X164794138Y-84197641D01*
X164828534Y-84047735D01*
X164840000Y-83884926D01*
X164832969Y-83753786D01*
X164805973Y-83607470D01*
X164748886Y-83452004D01*
X164664241Y-83312947D01*
X164552037Y-83190300D01*
X164502900Y-83148266D01*
X164381134Y-83066265D01*
X164229780Y-83000114D01*
X164086676Y-82966349D01*
X163933614Y-82955094D01*
X163815925Y-82961972D01*
X163670708Y-82992540D01*
X163523322Y-83056161D01*
X163392861Y-83150732D01*
X163378029Y-83164397D01*
X163276329Y-83284897D01*
X163204762Y-83425271D01*
X163163328Y-83585521D01*
X163151793Y-83742044D01*
X163158851Y-83870063D01*
X163172677Y-83936217D01*
X163190221Y-84020158D01*
X163255510Y-84160878D01*
X163352561Y-84271807D01*
X163352561Y-84304780D01*
X163207034Y-84278472D01*
X163032553Y-84220535D01*
X162880420Y-84136472D01*
X162750636Y-84026282D01*
X162643199Y-83889966D01*
X162558111Y-83727523D01*
X162508961Y-83588546D01*
X162472382Y-83434873D01*
X162448374Y-83266503D01*
X162120111Y-83305338D01*
X161599200Y-83305338D01*
X161599200Y-80965003D01*
X162167006Y-80965003D01*
X162294803Y-80978292D01*
X162454686Y-81010835D01*
X162623421Y-81052870D01*
X162781645Y-81096262D01*
X162960522Y-81148331D01*
X163108234Y-81193078D01*
X163267564Y-81242707D01*
X163321866Y-81259747D01*
X163475842Y-81307622D01*
X163616423Y-81350629D01*
X163783027Y-81400397D01*
X163957794Y-81450436D01*
X164118399Y-81492631D01*
X164267006Y-81519678D01*
X164267006Y-81554849D01*
X164193075Y-81564561D01*
X164036627Y-81600440D01*
X163878597Y-81642253D01*
X163724403Y-81685415D01*
X163545526Y-81737210D01*
X163395169Y-81781721D01*
X163230928Y-81831088D01*
X163119696Y-81864450D01*
X162964033Y-81910458D01*
X162821790Y-81951622D01*
X162653011Y-81998975D01*
X162508091Y-82037718D01*
X162335447Y-82079689D01*
X162167006Y-82106594D01*
X162167006Y-82760188D01*
X162189815Y-82758493D01*
X162333164Y-82725876D01*
X162496050Y-82677161D01*
X162662654Y-82622939D01*
X162808779Y-82573376D01*
X162973053Y-82516189D01*
X163155474Y-82451377D01*
X163356044Y-82378940D01*
X163499839Y-82326413D01*
X163643577Y-82273885D01*
X163844189Y-82201448D01*
X164026808Y-82136636D01*
X164191434Y-82079449D01*
X164338066Y-82029887D01*
X164505586Y-81975665D01*
X164670003Y-81926950D01*
X164840000Y-81892637D01*
X164840000Y-81326238D01*
X164815553Y-81324398D01*
X164668097Y-81288970D01*
X164503823Y-81236058D01*
X164337036Y-81177165D01*
X164191314Y-81123333D01*
X164027907Y-81061219D01*
X163846817Y-80990824D01*
X163648042Y-80912146D01*
X163505701Y-80855094D01*
X163433544Y-80826107D01*
X163295098Y-80770895D01*
X163102102Y-80694978D01*
X162926713Y-80627343D01*
X162768931Y-80567990D01*
X162628756Y-80516919D01*
X162469244Y-80461706D01*
X162313872Y-80413396D01*
X162167006Y-80383949D01*
X162167006Y-80965003D01*
X161599200Y-80965003D01*
X161599200Y-80050616D01*
X165220227Y-80050616D01*
X165220227Y-94736577D01*
G37*
D13*
X158983809Y-97359491D02*
X158016190Y-97359491D01*
X174140508Y-86983809D02*
X174140508Y-86016190D01*
X158883809Y-77359491D02*
X157916190Y-77359491D01*
X141383809Y-70459491D02*
X140416190Y-70459491D01*
X167166190Y-97540508D02*
X168133810Y-97540508D01*
X167650000Y-98024318D02*
X167650000Y-97056699D01*
X133388333Y-93224318D02*
X132964999Y-92619556D01*
X132662618Y-93224318D02*
X132662618Y-91954318D01*
X132662618Y-91954318D02*
X133146428Y-91954318D01*
X133146428Y-91954318D02*
X133267380Y-92014794D01*
X133267380Y-92014794D02*
X133327857Y-92075270D01*
X133327857Y-92075270D02*
X133388333Y-92196222D01*
X133388333Y-92196222D02*
X133388333Y-92377651D01*
X133388333Y-92377651D02*
X133327857Y-92498603D01*
X133327857Y-92498603D02*
X133267380Y-92559080D01*
X133267380Y-92559080D02*
X133146428Y-92619556D01*
X133146428Y-92619556D02*
X132662618Y-92619556D01*
X133811666Y-91954318D02*
X134597857Y-91954318D01*
X134597857Y-91954318D02*
X134174523Y-92438127D01*
X134174523Y-92438127D02*
X134355952Y-92438127D01*
X134355952Y-92438127D02*
X134476904Y-92498603D01*
X134476904Y-92498603D02*
X134537380Y-92559080D01*
X134537380Y-92559080D02*
X134597857Y-92680032D01*
X134597857Y-92680032D02*
X134597857Y-92982413D01*
X134597857Y-92982413D02*
X134537380Y-93103365D01*
X134537380Y-93103365D02*
X134476904Y-93163842D01*
X134476904Y-93163842D02*
X134355952Y-93224318D01*
X134355952Y-93224318D02*
X133993095Y-93224318D01*
X133993095Y-93224318D02*
X133872142Y-93163842D01*
X133872142Y-93163842D02*
X133811666Y-93103365D01*
D11*
X127938095Y-81397419D02*
X127938095Y-82206942D01*
X127938095Y-82206942D02*
X127985714Y-82302180D01*
X127985714Y-82302180D02*
X128033333Y-82349800D01*
X128033333Y-82349800D02*
X128128571Y-82397419D01*
X128128571Y-82397419D02*
X128319047Y-82397419D01*
X128319047Y-82397419D02*
X128414285Y-82349800D01*
X128414285Y-82349800D02*
X128461904Y-82302180D01*
X128461904Y-82302180D02*
X128509523Y-82206942D01*
X128509523Y-82206942D02*
X128509523Y-81397419D01*
X129509523Y-82397419D02*
X128938095Y-82397419D01*
X129223809Y-82397419D02*
X129223809Y-81397419D01*
X129223809Y-81397419D02*
X129128571Y-81540276D01*
X129128571Y-81540276D02*
X129033333Y-81635514D01*
X129033333Y-81635514D02*
X128938095Y-81683133D01*
X136640476Y-97857419D02*
X136640476Y-98571704D01*
X136640476Y-98571704D02*
X136592857Y-98714561D01*
X136592857Y-98714561D02*
X136497619Y-98809800D01*
X136497619Y-98809800D02*
X136354762Y-98857419D01*
X136354762Y-98857419D02*
X136259524Y-98857419D01*
X137069048Y-98809800D02*
X137211905Y-98857419D01*
X137211905Y-98857419D02*
X137450000Y-98857419D01*
X137450000Y-98857419D02*
X137545238Y-98809800D01*
X137545238Y-98809800D02*
X137592857Y-98762180D01*
X137592857Y-98762180D02*
X137640476Y-98666942D01*
X137640476Y-98666942D02*
X137640476Y-98571704D01*
X137640476Y-98571704D02*
X137592857Y-98476466D01*
X137592857Y-98476466D02*
X137545238Y-98428847D01*
X137545238Y-98428847D02*
X137450000Y-98381228D01*
X137450000Y-98381228D02*
X137259524Y-98333609D01*
X137259524Y-98333609D02*
X137164286Y-98285990D01*
X137164286Y-98285990D02*
X137116667Y-98238371D01*
X137116667Y-98238371D02*
X137069048Y-98143133D01*
X137069048Y-98143133D02*
X137069048Y-98047895D01*
X137069048Y-98047895D02*
X137116667Y-97952657D01*
X137116667Y-97952657D02*
X137164286Y-97905038D01*
X137164286Y-97905038D02*
X137259524Y-97857419D01*
X137259524Y-97857419D02*
X137497619Y-97857419D01*
X137497619Y-97857419D02*
X137640476Y-97905038D01*
X138592857Y-98857419D02*
X138021429Y-98857419D01*
X138307143Y-98857419D02*
X138307143Y-97857419D01*
X138307143Y-97857419D02*
X138211905Y-98000276D01*
X138211905Y-98000276D02*
X138116667Y-98095514D01*
X138116667Y-98095514D02*
X138021429Y-98143133D01*
D13*
X145138333Y-68524318D02*
X144714999Y-67919556D01*
X144412618Y-68524318D02*
X144412618Y-67254318D01*
X144412618Y-67254318D02*
X144896428Y-67254318D01*
X144896428Y-67254318D02*
X145017380Y-67314794D01*
X145017380Y-67314794D02*
X145077857Y-67375270D01*
X145077857Y-67375270D02*
X145138333Y-67496222D01*
X145138333Y-67496222D02*
X145138333Y-67677651D01*
X145138333Y-67677651D02*
X145077857Y-67798603D01*
X145077857Y-67798603D02*
X145017380Y-67859080D01*
X145017380Y-67859080D02*
X144896428Y-67919556D01*
X144896428Y-67919556D02*
X144412618Y-67919556D01*
X146287380Y-67254318D02*
X145682618Y-67254318D01*
X145682618Y-67254318D02*
X145622142Y-67859080D01*
X145622142Y-67859080D02*
X145682618Y-67798603D01*
X145682618Y-67798603D02*
X145803571Y-67738127D01*
X145803571Y-67738127D02*
X146105952Y-67738127D01*
X146105952Y-67738127D02*
X146226904Y-67798603D01*
X146226904Y-67798603D02*
X146287380Y-67859080D01*
X146287380Y-67859080D02*
X146347857Y-67980032D01*
X146347857Y-67980032D02*
X146347857Y-68282413D01*
X146347857Y-68282413D02*
X146287380Y-68403365D01*
X146287380Y-68403365D02*
X146226904Y-68463842D01*
X146226904Y-68463842D02*
X146105952Y-68524318D01*
X146105952Y-68524318D02*
X145803571Y-68524318D01*
X145803571Y-68524318D02*
X145682618Y-68463842D01*
X145682618Y-68463842D02*
X145622142Y-68403365D01*
D16*
X158259580Y-71841666D02*
X158307200Y-71889285D01*
X158307200Y-71889285D02*
X158354819Y-72032142D01*
X158354819Y-72032142D02*
X158354819Y-72127380D01*
X158354819Y-72127380D02*
X158307200Y-72270237D01*
X158307200Y-72270237D02*
X158211961Y-72365475D01*
X158211961Y-72365475D02*
X158116723Y-72413094D01*
X158116723Y-72413094D02*
X157926247Y-72460713D01*
X157926247Y-72460713D02*
X157783390Y-72460713D01*
X157783390Y-72460713D02*
X157592914Y-72413094D01*
X157592914Y-72413094D02*
X157497676Y-72365475D01*
X157497676Y-72365475D02*
X157402438Y-72270237D01*
X157402438Y-72270237D02*
X157354819Y-72127380D01*
X157354819Y-72127380D02*
X157354819Y-72032142D01*
X157354819Y-72032142D02*
X157402438Y-71889285D01*
X157402438Y-71889285D02*
X157450057Y-71841666D01*
X157354819Y-71508332D02*
X157354819Y-70889285D01*
X157354819Y-70889285D02*
X157735771Y-71222618D01*
X157735771Y-71222618D02*
X157735771Y-71079761D01*
X157735771Y-71079761D02*
X157783390Y-70984523D01*
X157783390Y-70984523D02*
X157831009Y-70936904D01*
X157831009Y-70936904D02*
X157926247Y-70889285D01*
X157926247Y-70889285D02*
X158164342Y-70889285D01*
X158164342Y-70889285D02*
X158259580Y-70936904D01*
X158259580Y-70936904D02*
X158307200Y-70984523D01*
X158307200Y-70984523D02*
X158354819Y-71079761D01*
X158354819Y-71079761D02*
X158354819Y-71365475D01*
X158354819Y-71365475D02*
X158307200Y-71460713D01*
X158307200Y-71460713D02*
X158259580Y-71508332D01*
D11*
X162595238Y-95383609D02*
X162738095Y-95431228D01*
X162738095Y-95431228D02*
X162785714Y-95478847D01*
X162785714Y-95478847D02*
X162833333Y-95574085D01*
X162833333Y-95574085D02*
X162833333Y-95716942D01*
X162833333Y-95716942D02*
X162785714Y-95812180D01*
X162785714Y-95812180D02*
X162738095Y-95859800D01*
X162738095Y-95859800D02*
X162642857Y-95907419D01*
X162642857Y-95907419D02*
X162261905Y-95907419D01*
X162261905Y-95907419D02*
X162261905Y-94907419D01*
X162261905Y-94907419D02*
X162595238Y-94907419D01*
X162595238Y-94907419D02*
X162690476Y-94955038D01*
X162690476Y-94955038D02*
X162738095Y-95002657D01*
X162738095Y-95002657D02*
X162785714Y-95097895D01*
X162785714Y-95097895D02*
X162785714Y-95193133D01*
X162785714Y-95193133D02*
X162738095Y-95288371D01*
X162738095Y-95288371D02*
X162690476Y-95335990D01*
X162690476Y-95335990D02*
X162595238Y-95383609D01*
X162595238Y-95383609D02*
X162261905Y-95383609D01*
X163785714Y-95907419D02*
X163214286Y-95907419D01*
X163500000Y-95907419D02*
X163500000Y-94907419D01*
X163500000Y-94907419D02*
X163404762Y-95050276D01*
X163404762Y-95050276D02*
X163309524Y-95145514D01*
X163309524Y-95145514D02*
X163214286Y-95193133D01*
D13*
X154924318Y-97661666D02*
X154319556Y-98085000D01*
X154924318Y-98387381D02*
X153654318Y-98387381D01*
X153654318Y-98387381D02*
X153654318Y-97903571D01*
X153654318Y-97903571D02*
X153714794Y-97782619D01*
X153714794Y-97782619D02*
X153775270Y-97722142D01*
X153775270Y-97722142D02*
X153896222Y-97661666D01*
X153896222Y-97661666D02*
X154077651Y-97661666D01*
X154077651Y-97661666D02*
X154198603Y-97722142D01*
X154198603Y-97722142D02*
X154259080Y-97782619D01*
X154259080Y-97782619D02*
X154319556Y-97903571D01*
X154319556Y-97903571D02*
X154319556Y-98387381D01*
X153775270Y-97177857D02*
X153714794Y-97117381D01*
X153714794Y-97117381D02*
X153654318Y-96996428D01*
X153654318Y-96996428D02*
X153654318Y-96694047D01*
X153654318Y-96694047D02*
X153714794Y-96573095D01*
X153714794Y-96573095D02*
X153775270Y-96512619D01*
X153775270Y-96512619D02*
X153896222Y-96452142D01*
X153896222Y-96452142D02*
X154017175Y-96452142D01*
X154017175Y-96452142D02*
X154198603Y-96512619D01*
X154198603Y-96512619D02*
X154924318Y-97238333D01*
X154924318Y-97238333D02*
X154924318Y-96452142D01*
D16*
X161459580Y-66516666D02*
X161507200Y-66564285D01*
X161507200Y-66564285D02*
X161554819Y-66707142D01*
X161554819Y-66707142D02*
X161554819Y-66802380D01*
X161554819Y-66802380D02*
X161507200Y-66945237D01*
X161507200Y-66945237D02*
X161411961Y-67040475D01*
X161411961Y-67040475D02*
X161316723Y-67088094D01*
X161316723Y-67088094D02*
X161126247Y-67135713D01*
X161126247Y-67135713D02*
X160983390Y-67135713D01*
X160983390Y-67135713D02*
X160792914Y-67088094D01*
X160792914Y-67088094D02*
X160697676Y-67040475D01*
X160697676Y-67040475D02*
X160602438Y-66945237D01*
X160602438Y-66945237D02*
X160554819Y-66802380D01*
X160554819Y-66802380D02*
X160554819Y-66707142D01*
X160554819Y-66707142D02*
X160602438Y-66564285D01*
X160602438Y-66564285D02*
X160650057Y-66516666D01*
X161554819Y-65564285D02*
X161554819Y-66135713D01*
X161554819Y-65849999D02*
X160554819Y-65849999D01*
X160554819Y-65849999D02*
X160697676Y-65945237D01*
X160697676Y-65945237D02*
X160792914Y-66040475D01*
X160792914Y-66040475D02*
X160840533Y-66135713D01*
X158309580Y-66566666D02*
X158357200Y-66614285D01*
X158357200Y-66614285D02*
X158404819Y-66757142D01*
X158404819Y-66757142D02*
X158404819Y-66852380D01*
X158404819Y-66852380D02*
X158357200Y-66995237D01*
X158357200Y-66995237D02*
X158261961Y-67090475D01*
X158261961Y-67090475D02*
X158166723Y-67138094D01*
X158166723Y-67138094D02*
X157976247Y-67185713D01*
X157976247Y-67185713D02*
X157833390Y-67185713D01*
X157833390Y-67185713D02*
X157642914Y-67138094D01*
X157642914Y-67138094D02*
X157547676Y-67090475D01*
X157547676Y-67090475D02*
X157452438Y-66995237D01*
X157452438Y-66995237D02*
X157404819Y-66852380D01*
X157404819Y-66852380D02*
X157404819Y-66757142D01*
X157404819Y-66757142D02*
X157452438Y-66614285D01*
X157452438Y-66614285D02*
X157500057Y-66566666D01*
X157500057Y-66185713D02*
X157452438Y-66138094D01*
X157452438Y-66138094D02*
X157404819Y-66042856D01*
X157404819Y-66042856D02*
X157404819Y-65804761D01*
X157404819Y-65804761D02*
X157452438Y-65709523D01*
X157452438Y-65709523D02*
X157500057Y-65661904D01*
X157500057Y-65661904D02*
X157595295Y-65614285D01*
X157595295Y-65614285D02*
X157690533Y-65614285D01*
X157690533Y-65614285D02*
X157833390Y-65661904D01*
X157833390Y-65661904D02*
X158404819Y-66233332D01*
X158404819Y-66233332D02*
X158404819Y-65614285D01*
D11*
X166188095Y-65149800D02*
X166330952Y-65197419D01*
X166330952Y-65197419D02*
X166569047Y-65197419D01*
X166569047Y-65197419D02*
X166664285Y-65149800D01*
X166664285Y-65149800D02*
X166711904Y-65102180D01*
X166711904Y-65102180D02*
X166759523Y-65006942D01*
X166759523Y-65006942D02*
X166759523Y-64911704D01*
X166759523Y-64911704D02*
X166711904Y-64816466D01*
X166711904Y-64816466D02*
X166664285Y-64768847D01*
X166664285Y-64768847D02*
X166569047Y-64721228D01*
X166569047Y-64721228D02*
X166378571Y-64673609D01*
X166378571Y-64673609D02*
X166283333Y-64625990D01*
X166283333Y-64625990D02*
X166235714Y-64578371D01*
X166235714Y-64578371D02*
X166188095Y-64483133D01*
X166188095Y-64483133D02*
X166188095Y-64387895D01*
X166188095Y-64387895D02*
X166235714Y-64292657D01*
X166235714Y-64292657D02*
X166283333Y-64245038D01*
X166283333Y-64245038D02*
X166378571Y-64197419D01*
X166378571Y-64197419D02*
X166616666Y-64197419D01*
X166616666Y-64197419D02*
X166759523Y-64245038D01*
X167711904Y-65197419D02*
X167140476Y-65197419D01*
X167426190Y-65197419D02*
X167426190Y-64197419D01*
X167426190Y-64197419D02*
X167330952Y-64340276D01*
X167330952Y-64340276D02*
X167235714Y-64435514D01*
X167235714Y-64435514D02*
X167140476Y-64483133D01*
D13*
X153774318Y-66186666D02*
X153169556Y-66610000D01*
X153774318Y-66912381D02*
X152504318Y-66912381D01*
X152504318Y-66912381D02*
X152504318Y-66428571D01*
X152504318Y-66428571D02*
X152564794Y-66307619D01*
X152564794Y-66307619D02*
X152625270Y-66247142D01*
X152625270Y-66247142D02*
X152746222Y-66186666D01*
X152746222Y-66186666D02*
X152927651Y-66186666D01*
X152927651Y-66186666D02*
X153048603Y-66247142D01*
X153048603Y-66247142D02*
X153109080Y-66307619D01*
X153109080Y-66307619D02*
X153169556Y-66428571D01*
X153169556Y-66428571D02*
X153169556Y-66912381D01*
X152927651Y-65098095D02*
X153774318Y-65098095D01*
X152443842Y-65400476D02*
X153350984Y-65702857D01*
X153350984Y-65702857D02*
X153350984Y-64916666D01*
D11*
X172338095Y-65209800D02*
X172480952Y-65257419D01*
X172480952Y-65257419D02*
X172719047Y-65257419D01*
X172719047Y-65257419D02*
X172814285Y-65209800D01*
X172814285Y-65209800D02*
X172861904Y-65162180D01*
X172861904Y-65162180D02*
X172909523Y-65066942D01*
X172909523Y-65066942D02*
X172909523Y-64971704D01*
X172909523Y-64971704D02*
X172861904Y-64876466D01*
X172861904Y-64876466D02*
X172814285Y-64828847D01*
X172814285Y-64828847D02*
X172719047Y-64781228D01*
X172719047Y-64781228D02*
X172528571Y-64733609D01*
X172528571Y-64733609D02*
X172433333Y-64685990D01*
X172433333Y-64685990D02*
X172385714Y-64638371D01*
X172385714Y-64638371D02*
X172338095Y-64543133D01*
X172338095Y-64543133D02*
X172338095Y-64447895D01*
X172338095Y-64447895D02*
X172385714Y-64352657D01*
X172385714Y-64352657D02*
X172433333Y-64305038D01*
X172433333Y-64305038D02*
X172528571Y-64257419D01*
X172528571Y-64257419D02*
X172766666Y-64257419D01*
X172766666Y-64257419D02*
X172909523Y-64305038D01*
X173290476Y-64352657D02*
X173338095Y-64305038D01*
X173338095Y-64305038D02*
X173433333Y-64257419D01*
X173433333Y-64257419D02*
X173671428Y-64257419D01*
X173671428Y-64257419D02*
X173766666Y-64305038D01*
X173766666Y-64305038D02*
X173814285Y-64352657D01*
X173814285Y-64352657D02*
X173861904Y-64447895D01*
X173861904Y-64447895D02*
X173861904Y-64543133D01*
X173861904Y-64543133D02*
X173814285Y-64685990D01*
X173814285Y-64685990D02*
X173242857Y-65257419D01*
X173242857Y-65257419D02*
X173861904Y-65257419D01*
X109142580Y-78338810D02*
X110142580Y-78338810D01*
X109237819Y-79386428D02*
X109190200Y-79338809D01*
X109190200Y-79338809D02*
X109142580Y-79195952D01*
X109142580Y-79195952D02*
X109142580Y-79100714D01*
X109142580Y-79100714D02*
X109190200Y-78957857D01*
X109190200Y-78957857D02*
X109285438Y-78862619D01*
X109285438Y-78862619D02*
X109380676Y-78815000D01*
X109380676Y-78815000D02*
X109571152Y-78767381D01*
X109571152Y-78767381D02*
X109714009Y-78767381D01*
X109714009Y-78767381D02*
X109904485Y-78815000D01*
X109904485Y-78815000D02*
X109999723Y-78862619D01*
X109999723Y-78862619D02*
X110094961Y-78957857D01*
X110094961Y-78957857D02*
X110142580Y-79100714D01*
X110142580Y-79100714D02*
X110142580Y-79195952D01*
X110142580Y-79195952D02*
X110094961Y-79338809D01*
X110094961Y-79338809D02*
X110047342Y-79386428D01*
X109142580Y-80338809D02*
X109142580Y-79767381D01*
X109142580Y-80053095D02*
X110142580Y-80053095D01*
X110142580Y-80053095D02*
X109999723Y-79957857D01*
X109999723Y-79957857D02*
X109904485Y-79862619D01*
X109904485Y-79862619D02*
X109856866Y-79767381D01*
D13*
X149524318Y-97661666D02*
X148919556Y-98085000D01*
X149524318Y-98387381D02*
X148254318Y-98387381D01*
X148254318Y-98387381D02*
X148254318Y-97903571D01*
X148254318Y-97903571D02*
X148314794Y-97782619D01*
X148314794Y-97782619D02*
X148375270Y-97722142D01*
X148375270Y-97722142D02*
X148496222Y-97661666D01*
X148496222Y-97661666D02*
X148677651Y-97661666D01*
X148677651Y-97661666D02*
X148798603Y-97722142D01*
X148798603Y-97722142D02*
X148859080Y-97782619D01*
X148859080Y-97782619D02*
X148919556Y-97903571D01*
X148919556Y-97903571D02*
X148919556Y-98387381D01*
X149524318Y-96452142D02*
X149524318Y-97177857D01*
X149524318Y-96815000D02*
X148254318Y-96815000D01*
X148254318Y-96815000D02*
X148435746Y-96935952D01*
X148435746Y-96935952D02*
X148556699Y-97056904D01*
X148556699Y-97056904D02*
X148617175Y-97177857D01*
D16*
X161459580Y-71866666D02*
X161507200Y-71914285D01*
X161507200Y-71914285D02*
X161554819Y-72057142D01*
X161554819Y-72057142D02*
X161554819Y-72152380D01*
X161554819Y-72152380D02*
X161507200Y-72295237D01*
X161507200Y-72295237D02*
X161411961Y-72390475D01*
X161411961Y-72390475D02*
X161316723Y-72438094D01*
X161316723Y-72438094D02*
X161126247Y-72485713D01*
X161126247Y-72485713D02*
X160983390Y-72485713D01*
X160983390Y-72485713D02*
X160792914Y-72438094D01*
X160792914Y-72438094D02*
X160697676Y-72390475D01*
X160697676Y-72390475D02*
X160602438Y-72295237D01*
X160602438Y-72295237D02*
X160554819Y-72152380D01*
X160554819Y-72152380D02*
X160554819Y-72057142D01*
X160554819Y-72057142D02*
X160602438Y-71914285D01*
X160602438Y-71914285D02*
X160650057Y-71866666D01*
X160888152Y-71009523D02*
X161554819Y-71009523D01*
X160507200Y-71247618D02*
X161221485Y-71485713D01*
X161221485Y-71485713D02*
X161221485Y-70866666D01*
D10*
%TO.C,R3*%
X138325000Y-92650000D02*
G75*
G02*
X138225000Y-92650000I-50000J0D01*
G01*
X138225000Y-92650000D02*
G75*
G02*
X138325000Y-92650000I50000J0D01*
G01*
%TO.C,U1*%
D11*
X119700000Y-66100000D02*
X137700000Y-66100000D01*
X137700000Y-89600000D01*
X119700000Y-89600000D01*
X119700000Y-66100000D01*
D17*
X129475000Y-68600000D02*
G75*
G02*
X127925000Y-68600000I-775000J0D01*
G01*
X127925000Y-68600000D02*
G75*
G02*
X129475000Y-68600000I775000J0D01*
G01*
%TO.C,JS1*%
D11*
X120100000Y-101900000D02*
X146100000Y-101900000D01*
X146100000Y-95400000D01*
X120100000Y-95400000D01*
X120100000Y-101900000D01*
D10*
%TO.C,R5*%
X140725000Y-67950000D02*
G75*
G02*
X140625000Y-67950000I-50000J0D01*
G01*
X140625000Y-67950000D02*
G75*
G02*
X140725000Y-67950000I50000J0D01*
G01*
%TO.C,T2*%
D11*
X170200000Y-91830000D02*
X173200000Y-91830000D01*
X173200000Y-98165000D01*
X170200000Y-98165000D01*
X170200000Y-91830000D01*
D18*
%TO.C,C3*%
X156990000Y-70963748D02*
X156990000Y-72386252D01*
X158810000Y-70963748D02*
X158810000Y-72386252D01*
%TO.C,B1*%
D11*
X157000000Y-78450000D02*
X169000000Y-78450000D01*
X169000000Y-96450000D01*
X157000000Y-96450000D01*
X157000000Y-78450000D01*
D10*
%TO.C,R2*%
X154400000Y-92775000D02*
G75*
G02*
X154300000Y-92775000I-50000J0D01*
G01*
X154300000Y-92775000D02*
G75*
G02*
X154400000Y-92775000I50000J0D01*
G01*
D18*
%TO.C,C1*%
X160190000Y-67061252D02*
X160190000Y-65638748D01*
X162010000Y-67061252D02*
X162010000Y-65638748D01*
%TO.C,C2*%
X156990000Y-67086252D02*
X156990000Y-65663748D01*
X158810000Y-67086252D02*
X158810000Y-65663748D01*
%TO.C,S1*%
D11*
X165350000Y-65700000D02*
X168350000Y-65700000D01*
X168350000Y-74780000D01*
X165350000Y-74780000D01*
X165350000Y-65700000D01*
D10*
%TO.C,R4*%
X153250000Y-61300000D02*
G75*
G02*
X153150000Y-61300000I-50000J0D01*
G01*
X153150000Y-61300000D02*
G75*
G02*
X153250000Y-61300000I50000J0D01*
G01*
%TO.C,S2*%
D11*
X171550000Y-65710000D02*
X174550000Y-65710000D01*
X174550000Y-74790000D01*
X171550000Y-74790000D01*
X171550000Y-65710000D01*
%TO.C,IC1*%
X108700000Y-66040000D02*
X114200000Y-66040000D01*
X114200000Y-96790000D01*
X108700000Y-96790000D01*
X108700000Y-66040000D01*
%TO.C,B2*%
X139500000Y-71550000D02*
X151500000Y-71550000D01*
X151500000Y-89550000D01*
X139500000Y-89550000D01*
X139500000Y-71550000D01*
D10*
%TO.C,R1*%
X149000000Y-92775000D02*
G75*
G02*
X148900000Y-92775000I-50000J0D01*
G01*
X148900000Y-92775000D02*
G75*
G02*
X149000000Y-92775000I50000J0D01*
G01*
D18*
%TO.C,C4*%
X160190000Y-70988748D02*
X160190000Y-72411252D01*
X162010000Y-70988748D02*
X162010000Y-72411252D01*
%TO.C,D1*%
D11*
X126860000Y-65050000D02*
X137860000Y-65050000D01*
X137860000Y-60800000D01*
X126860000Y-60800000D01*
X126860000Y-65050000D01*
%TO.C,T3*%
X170200000Y-84630000D02*
X173200000Y-84630000D01*
X173200000Y-90965000D01*
X170200000Y-90965000D01*
X170200000Y-84630000D01*
%TO.C,T1*%
X159210000Y-102000000D02*
X165545000Y-102000000D01*
X165545000Y-99000000D01*
X159210000Y-99000000D01*
X159210000Y-102000000D01*
%TD*%
%LPC*%
D19*
%TO.C,R3*%
X136925000Y-92650000D03*
X130275000Y-92650000D03*
%TD*%
D20*
%TO.C,U1*%
X121050000Y-67690000D03*
X121050000Y-70230000D03*
X121050000Y-72770000D03*
X121050000Y-75310000D03*
X121050000Y-77850000D03*
X121050000Y-80390000D03*
X121050000Y-82930000D03*
X121080000Y-85470000D03*
X121080000Y-88010000D03*
X136350000Y-67690000D03*
X136350000Y-70230000D03*
X136350000Y-72770000D03*
X136350000Y-75310000D03*
X136350000Y-77850000D03*
X136350000Y-80390000D03*
X136350000Y-82930000D03*
X136320000Y-85470000D03*
X136320000Y-88010000D03*
%TD*%
%TO.C,JS1*%
X128150000Y-100400000D03*
X130690000Y-100400000D03*
X133230000Y-100400000D03*
X135770000Y-100400000D03*
X138310000Y-100400000D03*
%TD*%
D19*
%TO.C,R5*%
X142025000Y-67950000D03*
X148675000Y-67950000D03*
%TD*%
D20*
%TO.C,T2*%
X171700000Y-96290000D03*
X171700000Y-93750000D03*
%TD*%
D21*
%TO.C,C3*%
X157900000Y-70112500D03*
X157900000Y-73237500D03*
%TD*%
D22*
%TO.C,B1*%
X167600000Y-94950000D03*
X158400000Y-94950000D03*
X167600000Y-79750000D03*
X158400000Y-79750000D03*
%TD*%
D23*
%TO.C,R2*%
X154350000Y-94125000D03*
X154350000Y-100775000D03*
%TD*%
D24*
%TO.C,C1*%
X161100000Y-67912500D03*
X161100000Y-64787500D03*
%TD*%
%TO.C,C2*%
X157900000Y-67937500D03*
X157900000Y-64812500D03*
%TD*%
D20*
%TO.C,S1*%
X166850000Y-67700000D03*
X166850000Y-70240000D03*
X166850000Y-72780000D03*
%TD*%
D23*
%TO.C,R4*%
X153200000Y-62650000D03*
X153200000Y-69300000D03*
%TD*%
D20*
%TO.C,S2*%
X173050000Y-67710000D03*
X173050000Y-70250000D03*
X173050000Y-72790000D03*
%TD*%
%TO.C,IC1*%
X112700000Y-69890000D03*
X112700000Y-72430000D03*
X112700000Y-74970000D03*
X112700000Y-77510000D03*
X112700000Y-80050000D03*
X112700000Y-82590000D03*
X112700000Y-85130000D03*
X112700000Y-95290000D03*
X112700000Y-92750000D03*
X112700000Y-90210000D03*
X112700000Y-87670000D03*
X112700000Y-67350000D03*
%TD*%
D22*
%TO.C,B2*%
X150100000Y-88050000D03*
X140900000Y-88050000D03*
X150100000Y-72850000D03*
X140900000Y-72850000D03*
%TD*%
D23*
%TO.C,R1*%
X148950000Y-94125000D03*
X148950000Y-100775000D03*
%TD*%
D21*
%TO.C,C4*%
X161100000Y-70137500D03*
X161100000Y-73262500D03*
%TD*%
D20*
%TO.C,D1*%
X128370000Y-62050000D03*
X130910000Y-62050000D03*
X133450000Y-62050000D03*
X135990000Y-62050000D03*
%TD*%
%TO.C,T3*%
X171700000Y-89090000D03*
X171700000Y-86550000D03*
%TD*%
%TO.C,T1*%
X163670000Y-100500000D03*
X161130000Y-100500000D03*
%TD*%
%LPD*%
M02*
