M48
; DRILL file {KiCad 8.0.8} date 2025-02-11T23:20:21+0000
; FORMAT={-:-/ absolute / metric / decimal}
; #@! TF.CreationDate,2025-02-11T23:20:21+00:00
; #@! TF.GenerationSoftware,Kicad,Pcbnew,8.0.8
; #@! TF.FileFunction,Plated,1,2,PTH
FMAT,2
METRIC
; #@! TA.AperFunction,Plated,PTH,ViaDrill
T1C0.500
; #@! TA.AperFunction,Plated,PTH,ComponentDrill
T2C1.000
; #@! TA.AperFunction,Plated,PTH,ComponentDrill
T3C1.500
; #@! TA.AperFunction,Plated,PTH,ViaDrill
T4C3.000
; #@! TA.AperFunction,Plated,PTH,ComponentDrill
T5C3.000
%
G90
G05
T1
X133.1Y-82.6
T2
X112.7Y-67.35
X112.7Y-69.89
X112.7Y-72.43
X112.7Y-74.97
X112.7Y-77.51
X112.7Y-80.05
X112.7Y-82.59
X112.7Y-85.13
X112.7Y-87.67
X112.7Y-90.21
X112.7Y-92.75
X112.7Y-95.29
X121.05Y-67.69
X121.05Y-70.23
X121.05Y-72.77
X121.05Y-75.31
X121.05Y-77.85
X121.05Y-80.39
X121.05Y-82.93
X121.08Y-85.47
X121.08Y-88.01
X128.15Y-100.4
X128.37Y-62.05
X130.69Y-100.4
X130.91Y-62.05
X133.23Y-100.4
X133.45Y-62.05
X135.77Y-100.4
X135.99Y-62.05
X136.32Y-85.47
X136.32Y-88.01
X136.35Y-67.69
X136.35Y-70.23
X136.35Y-72.77
X136.35Y-75.31
X136.35Y-77.85
X136.35Y-80.39
X136.35Y-82.93
X138.31Y-100.4
X166.85Y-67.7
X166.85Y-70.24
X166.85Y-72.78
X173.05Y-67.71
X173.05Y-70.25
X173.05Y-72.79
T3
X140.9Y-72.85
X140.9Y-88.05
X150.1Y-72.85
X150.1Y-88.05
X158.4Y-79.75
X158.4Y-94.95
X161.13Y-100.5
X163.67Y-100.5
X167.6Y-79.75
X167.6Y-94.95
X171.7Y-86.55
X171.7Y-89.09
X171.7Y-93.75
X171.7Y-96.29
T4
X170.0Y-58.7
X170.0Y-101.05
T5
X111.7Y-63.79
X111.7Y-98.29
M30
