%TF.GenerationSoftware,KiCad,Pcbnew,8.0.8*%
%TF.CreationDate,2025-02-11T23:20:20+00:00*%
%TF.ProjectId,Cacophony,4361636f-7068-46f6-9e79-2e6b69636164,rev?*%
%TF.SameCoordinates,Original*%
%TF.FileFunction,Drillmap*%
%TF.FilePolarity,Positive*%
%FSLAX45Y45*%
G04 Gerber Fmt 4.5, Leading zero omitted, Abs format (unit mm)*
G04 Created by KiCad (PCBNEW 8.0.8) date 2025-02-11 23:20:20*
%MOMM*%
%LPD*%
G01*
G04 APERTURE LIST*
%ADD10C,0.050000*%
%ADD11C,0.200000*%
G04 APERTURE END LIST*
D10*
X17160000Y-10525000D02*
X11290000Y-10525000D01*
X11290000Y-10525000D02*
G75*
G02*
X10690000Y-9925000I0J600000D01*
G01*
X10690000Y-5865000D02*
G75*
G02*
X11290000Y-5265000I600000J0D01*
G01*
X11290000Y-5265000D02*
X17160000Y-5265000D01*
X17760000Y-5865000D02*
X17760000Y-9925000D01*
X17160000Y-5265000D02*
G75*
G02*
X17760000Y-5865000I0J-600000D01*
G01*
X17760000Y-9925000D02*
G75*
G02*
X17160000Y-10525000I-600000J0D01*
G01*
X10690000Y-9925000D02*
X10690000Y-5865000D01*
D11*
X10948277Y-10838984D02*
X10948277Y-10638984D01*
X10948277Y-10638984D02*
X10995896Y-10638984D01*
X10995896Y-10638984D02*
X11024467Y-10648508D01*
X11024467Y-10648508D02*
X11043515Y-10667555D01*
X11043515Y-10667555D02*
X11053039Y-10686603D01*
X11053039Y-10686603D02*
X11062563Y-10724698D01*
X11062563Y-10724698D02*
X11062563Y-10753270D01*
X11062563Y-10753270D02*
X11053039Y-10791365D01*
X11053039Y-10791365D02*
X11043515Y-10810412D01*
X11043515Y-10810412D02*
X11024467Y-10829460D01*
X11024467Y-10829460D02*
X10995896Y-10838984D01*
X10995896Y-10838984D02*
X10948277Y-10838984D01*
X11148277Y-10838984D02*
X11148277Y-10705650D01*
X11148277Y-10743746D02*
X11157801Y-10724698D01*
X11157801Y-10724698D02*
X11167324Y-10715174D01*
X11167324Y-10715174D02*
X11186372Y-10705650D01*
X11186372Y-10705650D02*
X11205420Y-10705650D01*
X11272086Y-10838984D02*
X11272086Y-10705650D01*
X11272086Y-10638984D02*
X11262562Y-10648508D01*
X11262562Y-10648508D02*
X11272086Y-10658031D01*
X11272086Y-10658031D02*
X11281610Y-10648508D01*
X11281610Y-10648508D02*
X11272086Y-10638984D01*
X11272086Y-10638984D02*
X11272086Y-10658031D01*
X11395896Y-10838984D02*
X11376848Y-10829460D01*
X11376848Y-10829460D02*
X11367324Y-10810412D01*
X11367324Y-10810412D02*
X11367324Y-10638984D01*
X11500658Y-10838984D02*
X11481610Y-10829460D01*
X11481610Y-10829460D02*
X11472086Y-10810412D01*
X11472086Y-10810412D02*
X11472086Y-10638984D01*
X11729229Y-10838984D02*
X11729229Y-10638984D01*
X11729229Y-10638984D02*
X11795896Y-10781841D01*
X11795896Y-10781841D02*
X11862562Y-10638984D01*
X11862562Y-10638984D02*
X11862562Y-10838984D01*
X12043515Y-10838984D02*
X12043515Y-10734222D01*
X12043515Y-10734222D02*
X12033991Y-10715174D01*
X12033991Y-10715174D02*
X12014943Y-10705650D01*
X12014943Y-10705650D02*
X11976848Y-10705650D01*
X11976848Y-10705650D02*
X11957801Y-10715174D01*
X12043515Y-10829460D02*
X12024467Y-10838984D01*
X12024467Y-10838984D02*
X11976848Y-10838984D01*
X11976848Y-10838984D02*
X11957801Y-10829460D01*
X11957801Y-10829460D02*
X11948277Y-10810412D01*
X11948277Y-10810412D02*
X11948277Y-10791365D01*
X11948277Y-10791365D02*
X11957801Y-10772317D01*
X11957801Y-10772317D02*
X11976848Y-10762793D01*
X11976848Y-10762793D02*
X12024467Y-10762793D01*
X12024467Y-10762793D02*
X12043515Y-10753270D01*
X12138753Y-10705650D02*
X12138753Y-10905650D01*
X12138753Y-10715174D02*
X12157801Y-10705650D01*
X12157801Y-10705650D02*
X12195896Y-10705650D01*
X12195896Y-10705650D02*
X12214943Y-10715174D01*
X12214943Y-10715174D02*
X12224467Y-10724698D01*
X12224467Y-10724698D02*
X12233991Y-10743746D01*
X12233991Y-10743746D02*
X12233991Y-10800889D01*
X12233991Y-10800889D02*
X12224467Y-10819936D01*
X12224467Y-10819936D02*
X12214943Y-10829460D01*
X12214943Y-10829460D02*
X12195896Y-10838984D01*
X12195896Y-10838984D02*
X12157801Y-10838984D01*
X12157801Y-10838984D02*
X12138753Y-10829460D01*
X12319705Y-10819936D02*
X12329229Y-10829460D01*
X12329229Y-10829460D02*
X12319705Y-10838984D01*
X12319705Y-10838984D02*
X12310182Y-10829460D01*
X12310182Y-10829460D02*
X12319705Y-10819936D01*
X12319705Y-10819936D02*
X12319705Y-10838984D01*
X12319705Y-10715174D02*
X12329229Y-10724698D01*
X12329229Y-10724698D02*
X12319705Y-10734222D01*
X12319705Y-10734222D02*
X12310182Y-10724698D01*
X12310182Y-10724698D02*
X12319705Y-10715174D01*
X12319705Y-10715174D02*
X12319705Y-10734222D01*
M02*
