%TF.GenerationSoftware,KiCad,Pcbnew,8.0.8*%
%TF.CreationDate,2025-02-11T23:20:18+00:00*%
%TF.ProjectId,Cacophony,4361636f-7068-46f6-9e79-2e6b69636164,rev?*%
%TF.SameCoordinates,Original*%
%TF.FileFunction,Copper,L2,Bot*%
%TF.FilePolarity,Positive*%
%FSLAX46Y46*%
G04 Gerber Fmt 4.6, Leading zero omitted, Abs format (unit mm)*
G04 Created by KiCad (PCBNEW 8.0.8) date 2025-02-11 23:20:18*
%MOMM*%
%LPD*%
G01*
G04 APERTURE LIST*
%TA.AperFunction,ComponentPad*%
%ADD10C,2.000000*%
%TD*%
%TA.AperFunction,ComponentPad*%
%ADD11C,2.500000*%
%TD*%
%TA.AperFunction,ComponentPad*%
%ADD12C,1.000000*%
%TD*%
%TA.AperFunction,ViaPad*%
%ADD13C,3.400000*%
%TD*%
%TA.AperFunction,ViaPad*%
%ADD14C,0.700000*%
%TD*%
%TA.AperFunction,Conductor*%
%ADD15C,0.254000*%
%TD*%
%TA.AperFunction,Conductor*%
%ADD16C,0.504000*%
%TD*%
%TA.AperFunction,Conductor*%
%ADD17C,0.200000*%
%TD*%
G04 APERTURE END LIST*
D10*
%TO.P,U1,1,5V*%
%TO.N,+5V*%
X121050000Y-67690000D03*
%TO.P,U1,2,GND*%
%TO.N,GND*%
X121050000Y-70230000D03*
%TO.P,U1,3,3V3*%
%TO.N,+3.3V*%
X121050000Y-72770000D03*
%TO.P,U1,4,IO1*%
%TO.N,unconnected-(U1-IO1-Pad4)*%
X121050000Y-75310000D03*
%TO.P,U1,5,IO2*%
%TO.N,unconnected-(U1-IO2-Pad5)*%
X121050000Y-77850000D03*
%TO.P,U1,6,IO3*%
%TO.N,unconnected-(U1-IO3-Pad6)*%
X121050000Y-80390000D03*
%TO.P,U1,7,IO4*%
%TO.N,/JOYX*%
X121050000Y-82930000D03*
%TO.P,U1,8,IO5*%
%TO.N,/JOYY*%
X121080000Y-85470000D03*
%TO.P,U1,9,IO6*%
%TO.N,/JOYSW*%
X121080000Y-88010000D03*
%TO.P,U1,10,TX*%
%TO.N,Net-(U1-TX)*%
X136350000Y-67690000D03*
%TO.P,U1,11,RX*%
%TO.N,Net-(U1-RX)*%
X136350000Y-70230000D03*
%TO.P,U1,12,IO13*%
%TO.N,unconnected-(U1-IO13-Pad12)*%
X136350000Y-72770000D03*
%TO.P,U1,13,IO12*%
%TO.N,/PWM_R*%
X136350000Y-75310000D03*
%TO.P,U1,14,IO11*%
%TO.N,/PWM_L*%
X136350000Y-77850000D03*
%TO.P,U1,15,IO10*%
%TO.N,unconnected-(U1-IO10-Pad15)*%
X136350000Y-80390000D03*
%TO.P,U1,16,IO9*%
%TO.N,/SCL*%
X136350000Y-82930000D03*
%TO.P,U1,17,IO8*%
%TO.N,/SDA*%
X136320000Y-85470000D03*
%TO.P,U1,18,IO7*%
%TO.N,unconnected-(U1-IO7-Pad18)*%
X136320000Y-88010000D03*
%TD*%
%TO.P,JS1,1,GND*%
%TO.N,GND*%
X128150000Y-100400000D03*
%TO.P,JS1,2,+5*%
%TO.N,+3.3V*%
X130690000Y-100400000D03*
%TO.P,JS1,3,VRX*%
%TO.N,/JOYX*%
X133230000Y-100400000D03*
%TO.P,JS1,4,VRY*%
%TO.N,/JOYY*%
X135770000Y-100400000D03*
%TO.P,JS1,5,SW*%
%TO.N,/JOYSW*%
X138310000Y-100400000D03*
%TD*%
%TO.P,T2,1,1*%
%TO.N,+BATT*%
X171700000Y-96290000D03*
%TO.P,T2,2,2*%
%TO.N,GND*%
X171700000Y-93750000D03*
%TD*%
D11*
%TO.P,B1,1,In+*%
%TO.N,+9V*%
X167600000Y-94950000D03*
%TO.P,B1,2,In-*%
%TO.N,GND*%
X158400000Y-94950000D03*
%TO.P,B1,3,Out+*%
%TO.N,+6V*%
X167600000Y-79750000D03*
%TO.P,B1,4,Out-*%
%TO.N,GND*%
X158400000Y-79750000D03*
%TD*%
D10*
%TO.P,S1,1,PWM*%
%TO.N,/PWM_R*%
X166850000Y-67700000D03*
%TO.P,S1,2,6V*%
%TO.N,+6V*%
X166850000Y-70240000D03*
%TO.P,S1,3,GND*%
%TO.N,GND*%
X166850000Y-72780000D03*
%TD*%
%TO.P,S2,1,PWM*%
%TO.N,/PWM_L*%
X173050000Y-67710000D03*
%TO.P,S2,2,6V*%
%TO.N,+6V*%
X173050000Y-70250000D03*
%TO.P,S2,3,GND*%
%TO.N,GND*%
X173050000Y-72790000D03*
%TD*%
D12*
%TO.P,IC1,*%
%TO.N,*%
X111700000Y-63790000D03*
X111700000Y-98290000D03*
D10*
X112700000Y-69890000D03*
X112700000Y-72430000D03*
X112700000Y-74970000D03*
X112700000Y-77510000D03*
X112700000Y-80050000D03*
X112700000Y-82590000D03*
X112700000Y-85130000D03*
%TO.P,IC1,1,GND*%
%TO.N,GND*%
X112700000Y-95290000D03*
%TO.P,IC1,2,+5*%
%TO.N,+5V*%
X112700000Y-92750000D03*
%TO.P,IC1,3,TX*%
%TO.N,Net-(IC1-TX)*%
X112700000Y-90210000D03*
%TO.P,IC1,4,RX*%
%TO.N,Net-(IC1-RX)*%
X112700000Y-87670000D03*
%TO.P,IC1,5,GND*%
%TO.N,GND*%
X112700000Y-67350000D03*
%TD*%
D11*
%TO.P,B2,1,In+*%
%TO.N,+9V*%
X150100000Y-88050000D03*
%TO.P,B2,2,In-*%
%TO.N,GND*%
X140900000Y-88050000D03*
%TO.P,B2,3,Out+*%
%TO.N,+3.3V*%
X150100000Y-72850000D03*
%TO.P,B2,4,Out-*%
%TO.N,GND*%
X140900000Y-72850000D03*
%TD*%
D10*
%TO.P,D1,1,Vcc*%
%TO.N,+3.3V*%
X128370000Y-62050000D03*
%TO.P,D1,2,GND*%
%TO.N,GND*%
X130910000Y-62050000D03*
%TO.P,D1,3,SCK*%
%TO.N,/SCL*%
X133450000Y-62050000D03*
%TO.P,D1,4,SDA*%
%TO.N,/SDA*%
X135990000Y-62050000D03*
%TD*%
%TO.P,T3,1,1*%
%TO.N,+9V*%
X171700000Y-89090000D03*
%TO.P,T3,2,2*%
%TO.N,GND*%
X171700000Y-86550000D03*
%TD*%
%TO.P,T1,1,1*%
%TO.N,+BATT*%
X163670000Y-100500000D03*
%TO.P,T1,2,2*%
%TO.N,GND*%
X161130000Y-100500000D03*
%TD*%
D13*
%TO.N,*%
X170000000Y-58700000D03*
X170000000Y-101050000D03*
D14*
%TO.N,/SCL*%
X133100000Y-82600000D03*
%TD*%
D15*
%TO.N,/SDA*%
X134000000Y-83250000D02*
X134100000Y-83250000D01*
X134100000Y-83250000D02*
X136320000Y-85470000D01*
X135990000Y-62050000D02*
X134000000Y-64040000D01*
X134000000Y-64040000D02*
X134000000Y-83250000D01*
D16*
%TO.N,+5V*%
X120990000Y-67750000D02*
X121050000Y-67690000D01*
X113250000Y-92750000D02*
X116400000Y-89600000D01*
X119050000Y-67750000D02*
X120990000Y-67750000D01*
X116400000Y-89600000D02*
X116350000Y-89550000D01*
X116350000Y-70450000D02*
X119050000Y-67750000D01*
X112700000Y-92750000D02*
X113250000Y-92750000D01*
X116350000Y-89550000D02*
X116350000Y-70450000D01*
D15*
%TO.N,/SCL*%
X133100000Y-82600000D02*
X133100000Y-62400000D01*
D17*
X133100000Y-62400000D02*
X133450000Y-62050000D01*
D15*
%TO.N,/PWM_R*%
X164350000Y-74200000D02*
X164350000Y-68900000D01*
X163240000Y-75310000D02*
X164350000Y-74200000D01*
X164350000Y-68900000D02*
X165550000Y-67700000D01*
X165550000Y-67700000D02*
X166850000Y-67700000D01*
X136350000Y-75310000D02*
X163240000Y-75310000D01*
%TO.N,Net-(U1-TX)*%
X135990000Y-67040000D02*
X135990000Y-66900000D01*
%TO.N,/PWM_L*%
X155450000Y-77850000D02*
X136350000Y-77850000D01*
X173050000Y-67710000D02*
X175300000Y-69960000D01*
X157050000Y-76250000D02*
X155450000Y-77850000D01*
X175300000Y-69960000D02*
X175300000Y-75750000D01*
X174800000Y-76250000D02*
X157050000Y-76250000D01*
X175300000Y-75750000D02*
X174800000Y-76250000D01*
%TO.N,/JOYX*%
X118770000Y-82930000D02*
X121050000Y-82930000D01*
X133230000Y-100400000D02*
X124130000Y-91300000D01*
X117700000Y-84000000D02*
X118770000Y-82930000D01*
X124130000Y-91300000D02*
X118450000Y-91300000D01*
X117700000Y-90550000D02*
X117700000Y-84000000D01*
X118450000Y-91300000D02*
X117700000Y-90550000D01*
D17*
%TO.N,/JOYSW*%
X133450000Y-95540000D02*
X138310000Y-100400000D01*
X133450000Y-91000000D02*
X133450000Y-95540000D01*
X130460000Y-88010000D02*
X133450000Y-91000000D01*
X121080000Y-88010000D02*
X130460000Y-88010000D01*
D15*
%TO.N,/JOYY*%
X134557000Y-99850338D02*
X133779662Y-99073000D01*
X118900000Y-90400000D02*
X118850000Y-90450000D01*
X134557000Y-99907000D02*
X134557000Y-99850338D01*
X118850000Y-90450000D02*
X118650000Y-90250000D01*
X118650000Y-90250000D02*
X118650000Y-85560000D01*
X118740000Y-85470000D02*
X121080000Y-85470000D01*
X135050000Y-100400000D02*
X134557000Y-99907000D01*
X133723000Y-99073000D02*
X125050000Y-90400000D01*
X135770000Y-100400000D02*
X135050000Y-100400000D01*
X118650000Y-85560000D02*
X118740000Y-85470000D01*
X133779662Y-99073000D02*
X133723000Y-99073000D01*
X125050000Y-90400000D02*
X118900000Y-90400000D01*
%TD*%
%TA.AperFunction,Conductor*%
%TO.N,GND*%
G36*
X174613964Y-70772562D02*
G01*
X174660507Y-70824672D01*
X174672500Y-70877873D01*
X174672500Y-72163372D01*
X174652815Y-72230411D01*
X174600011Y-72276166D01*
X174530853Y-72286110D01*
X174467297Y-72257085D01*
X174434944Y-72213182D01*
X174373732Y-72073632D01*
X174273435Y-71920116D01*
X173532962Y-72660590D01*
X173515925Y-72597007D01*
X173450099Y-72482993D01*
X173357007Y-72389901D01*
X173242993Y-72324075D01*
X173179409Y-72307037D01*
X173920055Y-71566389D01*
X173918654Y-71543825D01*
X173934146Y-71475694D01*
X173966249Y-71438290D01*
X174069744Y-71357738D01*
X174238164Y-71174785D01*
X174374173Y-70966607D01*
X174434944Y-70828062D01*
X174479900Y-70774577D01*
X174546636Y-70753887D01*
X174613964Y-70772562D01*
G37*
%TD.AperFunction*%
%TA.AperFunction,Conductor*%
G36*
X167824084Y-59219685D02*
G01*
X167869839Y-59272489D01*
X167874464Y-59284141D01*
X167962642Y-59543905D01*
X168090219Y-59802606D01*
X168090223Y-59802613D01*
X168250478Y-60042452D01*
X168440672Y-60259327D01*
X168657547Y-60449521D01*
X168807925Y-60550000D01*
X168897389Y-60609778D01*
X169156098Y-60737359D01*
X169429247Y-60830081D01*
X169712161Y-60886356D01*
X170000000Y-60905222D01*
X170287839Y-60886356D01*
X170570753Y-60830081D01*
X170843902Y-60737359D01*
X171102611Y-60609778D01*
X171342454Y-60449520D01*
X171559327Y-60259327D01*
X171749520Y-60042454D01*
X171909778Y-59802611D01*
X172037359Y-59543902D01*
X172125536Y-59284139D01*
X172165725Y-59226987D01*
X172230434Y-59200634D01*
X172242955Y-59200000D01*
X176082601Y-59200000D01*
X176149640Y-59219685D01*
X176195395Y-59272489D01*
X176206601Y-59323687D01*
X176314465Y-102038093D01*
X176296988Y-102101879D01*
X176206620Y-102253538D01*
X176201014Y-102262118D01*
X175942859Y-102623687D01*
X175936564Y-102631775D01*
X175649428Y-102970796D01*
X175642487Y-102978336D01*
X175328336Y-103292487D01*
X175320796Y-103299428D01*
X174981775Y-103586564D01*
X174973687Y-103592859D01*
X174612123Y-103851010D01*
X174603544Y-103856616D01*
X174221877Y-104084041D01*
X174212863Y-104088919D01*
X173813724Y-104284045D01*
X173804339Y-104288161D01*
X173390466Y-104449656D01*
X173380773Y-104452984D01*
X172954963Y-104579753D01*
X172945028Y-104582269D01*
X172510208Y-104673441D01*
X172500099Y-104675128D01*
X172059230Y-104730082D01*
X172049016Y-104730928D01*
X171602563Y-104749394D01*
X171597439Y-104749500D01*
X164459152Y-104749500D01*
X164457012Y-104749482D01*
X160150335Y-104675128D01*
X109971430Y-103808798D01*
X109904741Y-103787959D01*
X109859904Y-103734373D01*
X109849576Y-103685916D01*
X109812365Y-99482548D01*
X109831455Y-99415340D01*
X109883852Y-99369119D01*
X109952920Y-99358564D01*
X110016730Y-99387025D01*
X110034735Y-99405966D01*
X110192718Y-99611851D01*
X110192726Y-99611860D01*
X110378140Y-99797274D01*
X110378148Y-99797281D01*
X110586196Y-99956924D01*
X110813299Y-100088041D01*
X110813309Y-100088046D01*
X111055571Y-100188394D01*
X111055581Y-100188398D01*
X111308884Y-100256270D01*
X111568880Y-100290500D01*
X111568887Y-100290500D01*
X111831113Y-100290500D01*
X111831120Y-100290500D01*
X112091116Y-100256270D01*
X112344419Y-100188398D01*
X112586697Y-100088043D01*
X112813803Y-99956924D01*
X113021851Y-99797282D01*
X113021855Y-99797277D01*
X113021860Y-99797274D01*
X113207274Y-99611860D01*
X113207277Y-99611855D01*
X113207282Y-99611851D01*
X113366924Y-99403803D01*
X113498043Y-99176697D01*
X113513152Y-99140222D01*
X113571233Y-99000000D01*
X113598398Y-98934419D01*
X113666270Y-98681116D01*
X113700500Y-98421120D01*
X113700500Y-98158880D01*
X113666270Y-97898884D01*
X113598398Y-97645581D01*
X113559004Y-97550475D01*
X113498046Y-97403309D01*
X113498041Y-97403299D01*
X113366924Y-97176196D01*
X113207281Y-96968148D01*
X113207274Y-96968140D01*
X113149451Y-96910317D01*
X113115966Y-96848994D01*
X113120950Y-96779302D01*
X113162822Y-96723369D01*
X113196869Y-96705355D01*
X113304603Y-96668369D01*
X113304614Y-96668364D01*
X113523230Y-96550056D01*
X113523236Y-96550051D01*
X113570055Y-96513610D01*
X113570056Y-96513609D01*
X112829408Y-95772962D01*
X112892993Y-95755925D01*
X113007007Y-95690099D01*
X113100099Y-95597007D01*
X113165925Y-95482993D01*
X113182962Y-95419409D01*
X113923435Y-96159882D01*
X114023733Y-96006364D01*
X114123587Y-95778717D01*
X114184612Y-95537738D01*
X114184614Y-95537729D01*
X114205141Y-95290005D01*
X114205141Y-95289994D01*
X114184614Y-95042270D01*
X114184612Y-95042261D01*
X114123587Y-94801282D01*
X114023732Y-94573632D01*
X113923435Y-94420116D01*
X113182962Y-95160590D01*
X113165925Y-95097007D01*
X113100099Y-94982993D01*
X113007007Y-94889901D01*
X112892993Y-94824075D01*
X112829409Y-94807037D01*
X113570055Y-94066389D01*
X113568654Y-94043825D01*
X113584146Y-93975694D01*
X113616249Y-93938290D01*
X113719744Y-93857738D01*
X113888164Y-93674785D01*
X114024173Y-93466607D01*
X114124063Y-93238881D01*
X114185108Y-92997821D01*
X114192081Y-92913657D01*
X114217235Y-92848474D01*
X114227969Y-92836224D01*
X116860819Y-90203374D01*
X116922142Y-90169890D01*
X116991834Y-90174874D01*
X117047767Y-90216746D01*
X117072184Y-90282210D01*
X117072500Y-90291056D01*
X117072500Y-90611807D01*
X117096612Y-90733028D01*
X117096614Y-90733035D01*
X117111187Y-90768216D01*
X117143915Y-90847230D01*
X117143920Y-90847238D01*
X117196953Y-90926607D01*
X117196954Y-90926608D01*
X117212590Y-90950010D01*
X117212591Y-90950011D01*
X117962589Y-91700008D01*
X118049992Y-91787411D01*
X118049993Y-91787412D01*
X118152760Y-91856079D01*
X118152773Y-91856086D01*
X118266960Y-91903383D01*
X118266965Y-91903385D01*
X118266969Y-91903385D01*
X118266970Y-91903386D01*
X118388194Y-91927500D01*
X118388197Y-91927500D01*
X118511803Y-91927500D01*
X123818719Y-91927500D01*
X123885758Y-91947185D01*
X123906400Y-91963819D01*
X130632211Y-98689630D01*
X130665696Y-98750953D01*
X130660712Y-98820645D01*
X130618840Y-98876578D01*
X130564940Y-98899620D01*
X130320382Y-98940429D01*
X130085197Y-99021169D01*
X130085188Y-99021172D01*
X129866493Y-99139524D01*
X129670257Y-99292261D01*
X129501837Y-99475213D01*
X129501829Y-99475224D01*
X129501455Y-99475797D01*
X129501242Y-99475978D01*
X129498690Y-99479258D01*
X129498014Y-99478732D01*
X129448304Y-99521147D01*
X129384865Y-99531302D01*
X129373435Y-99530116D01*
X128632962Y-100270590D01*
X128615925Y-100207007D01*
X128550099Y-100092993D01*
X128457007Y-99999901D01*
X128342993Y-99934075D01*
X128279409Y-99917037D01*
X129020055Y-99176389D01*
X129020055Y-99176388D01*
X128973236Y-99139947D01*
X128973231Y-99139944D01*
X128754614Y-99021635D01*
X128754603Y-99021630D01*
X128519493Y-98940916D01*
X128274293Y-98900000D01*
X128025707Y-98900000D01*
X127780506Y-98940916D01*
X127545396Y-99021630D01*
X127545385Y-99021635D01*
X127326770Y-99139943D01*
X127279943Y-99176389D01*
X128020591Y-99917037D01*
X127957007Y-99934075D01*
X127842993Y-99999901D01*
X127749901Y-100092993D01*
X127684075Y-100207007D01*
X127667037Y-100270591D01*
X126926563Y-99530117D01*
X126826267Y-99683633D01*
X126826265Y-99683637D01*
X126726412Y-99911282D01*
X126665387Y-100152261D01*
X126665385Y-100152270D01*
X126644859Y-100399994D01*
X126644859Y-100400005D01*
X126665385Y-100647729D01*
X126665387Y-100647738D01*
X126726412Y-100888717D01*
X126826267Y-101116367D01*
X126926562Y-101269881D01*
X127667037Y-100529408D01*
X127684075Y-100592993D01*
X127749901Y-100707007D01*
X127842993Y-100800099D01*
X127957007Y-100865925D01*
X128020591Y-100882962D01*
X127279943Y-101623609D01*
X127326768Y-101660055D01*
X127326771Y-101660057D01*
X127545385Y-101778364D01*
X127545396Y-101778369D01*
X127780506Y-101859083D01*
X128025707Y-101900000D01*
X128274293Y-101900000D01*
X128519493Y-101859083D01*
X128754603Y-101778369D01*
X128754614Y-101778364D01*
X128973230Y-101660056D01*
X128973236Y-101660051D01*
X129020055Y-101623610D01*
X129020056Y-101623609D01*
X128279408Y-100882962D01*
X128342993Y-100865925D01*
X128457007Y-100800099D01*
X128550099Y-100707007D01*
X128615925Y-100592993D01*
X128632962Y-100529409D01*
X129373434Y-101269881D01*
X129384860Y-101268697D01*
X129453573Y-101281360D01*
X129498092Y-101321194D01*
X129498683Y-101320735D01*
X129501218Y-101323992D01*
X129501456Y-101324205D01*
X129501831Y-101324780D01*
X129501836Y-101324785D01*
X129670256Y-101507738D01*
X129866491Y-101660474D01*
X129866493Y-101660475D01*
X130084332Y-101778364D01*
X130085190Y-101778828D01*
X130296343Y-101851317D01*
X130318964Y-101859083D01*
X130320386Y-101859571D01*
X130565665Y-101900500D01*
X130814335Y-101900500D01*
X131059614Y-101859571D01*
X131294810Y-101778828D01*
X131513509Y-101660474D01*
X131709744Y-101507738D01*
X131868771Y-101334988D01*
X131928657Y-101298999D01*
X131998495Y-101301099D01*
X132051228Y-101334988D01*
X132210256Y-101507738D01*
X132406491Y-101660474D01*
X132406493Y-101660475D01*
X132624332Y-101778364D01*
X132625190Y-101778828D01*
X132836343Y-101851317D01*
X132858964Y-101859083D01*
X132860386Y-101859571D01*
X133105665Y-101900500D01*
X133354335Y-101900500D01*
X133599614Y-101859571D01*
X133834810Y-101778828D01*
X134053509Y-101660474D01*
X134249744Y-101507738D01*
X134408771Y-101334988D01*
X134468657Y-101298999D01*
X134538495Y-101301099D01*
X134591228Y-101334988D01*
X134750256Y-101507738D01*
X134946491Y-101660474D01*
X134946493Y-101660475D01*
X135164332Y-101778364D01*
X135165190Y-101778828D01*
X135376343Y-101851317D01*
X135398964Y-101859083D01*
X135400386Y-101859571D01*
X135645665Y-101900500D01*
X135894335Y-101900500D01*
X136139614Y-101859571D01*
X136374810Y-101778828D01*
X136593509Y-101660474D01*
X136789744Y-101507738D01*
X136948771Y-101334988D01*
X137008657Y-101298999D01*
X137078495Y-101301099D01*
X137131228Y-101334988D01*
X137290256Y-101507738D01*
X137486491Y-101660474D01*
X137486493Y-101660475D01*
X137704332Y-101778364D01*
X137705190Y-101778828D01*
X137916343Y-101851317D01*
X137938964Y-101859083D01*
X137940386Y-101859571D01*
X138185665Y-101900500D01*
X138434335Y-101900500D01*
X138679614Y-101859571D01*
X138914810Y-101778828D01*
X139133509Y-101660474D01*
X139329744Y-101507738D01*
X139498164Y-101324785D01*
X139634173Y-101116607D01*
X139734063Y-100888881D01*
X139795108Y-100647821D01*
X139801236Y-100573869D01*
X139807358Y-100499994D01*
X159624859Y-100499994D01*
X159624859Y-100500005D01*
X159645385Y-100747729D01*
X159645387Y-100747738D01*
X159706412Y-100988717D01*
X159806267Y-101216367D01*
X159906562Y-101369881D01*
X160452421Y-100824023D01*
X160465359Y-100855258D01*
X160547437Y-100978097D01*
X160651903Y-101082563D01*
X160774742Y-101164641D01*
X160805974Y-101177578D01*
X160259943Y-101723609D01*
X160306768Y-101760055D01*
X160306771Y-101760057D01*
X160525385Y-101878364D01*
X160525396Y-101878369D01*
X160760506Y-101959083D01*
X161005707Y-102000000D01*
X161254293Y-102000000D01*
X161499493Y-101959083D01*
X161734603Y-101878369D01*
X161734614Y-101878364D01*
X161953230Y-101760056D01*
X161953236Y-101760051D01*
X162000055Y-101723610D01*
X162000056Y-101723609D01*
X161454024Y-101177578D01*
X161485258Y-101164641D01*
X161608097Y-101082563D01*
X161712563Y-100978097D01*
X161794641Y-100855258D01*
X161807578Y-100824025D01*
X162353434Y-101369881D01*
X162364860Y-101368697D01*
X162433573Y-101381360D01*
X162478092Y-101421194D01*
X162478683Y-101420735D01*
X162481218Y-101423992D01*
X162481456Y-101424205D01*
X162481831Y-101424780D01*
X162481836Y-101424785D01*
X162650256Y-101607738D01*
X162846491Y-101760474D01*
X162846493Y-101760475D01*
X163064332Y-101878364D01*
X163065190Y-101878828D01*
X163284141Y-101953994D01*
X163298964Y-101959083D01*
X163300386Y-101959571D01*
X163545665Y-102000500D01*
X163794335Y-102000500D01*
X164039614Y-101959571D01*
X164274810Y-101878828D01*
X164493509Y-101760474D01*
X164689744Y-101607738D01*
X164858164Y-101424785D01*
X164994173Y-101216607D01*
X165067254Y-101050000D01*
X167794778Y-101050000D01*
X167812788Y-101324785D01*
X167813644Y-101337837D01*
X167813646Y-101337849D01*
X167869917Y-101620745D01*
X167869921Y-101620760D01*
X167962642Y-101893905D01*
X168090219Y-102152606D01*
X168090223Y-102152613D01*
X168250478Y-102392452D01*
X168440672Y-102609327D01*
X168657546Y-102799520D01*
X168897389Y-102959778D01*
X169156098Y-103087359D01*
X169429247Y-103180081D01*
X169712161Y-103236356D01*
X170000000Y-103255222D01*
X170287839Y-103236356D01*
X170570753Y-103180081D01*
X170843902Y-103087359D01*
X171102611Y-102959778D01*
X171342454Y-102799520D01*
X171559327Y-102609327D01*
X171749520Y-102392454D01*
X171909778Y-102152611D01*
X172037359Y-101893902D01*
X172130081Y-101620753D01*
X172186356Y-101337839D01*
X172205222Y-101050000D01*
X172186356Y-100762161D01*
X172130081Y-100479247D01*
X172037359Y-100206098D01*
X171909778Y-99947389D01*
X171885543Y-99911119D01*
X171749521Y-99707547D01*
X171559327Y-99490672D01*
X171342452Y-99300478D01*
X171102613Y-99140223D01*
X171102606Y-99140219D01*
X170843905Y-99012642D01*
X170570760Y-98919921D01*
X170570754Y-98919919D01*
X170570753Y-98919919D01*
X170570751Y-98919918D01*
X170570745Y-98919917D01*
X170287849Y-98863646D01*
X170287839Y-98863644D01*
X170000000Y-98844778D01*
X169712161Y-98863644D01*
X169712155Y-98863645D01*
X169712150Y-98863646D01*
X169429254Y-98919917D01*
X169429239Y-98919921D01*
X169156094Y-99012642D01*
X168897393Y-99140219D01*
X168897386Y-99140223D01*
X168657547Y-99300478D01*
X168440672Y-99490672D01*
X168250478Y-99707547D01*
X168090223Y-99947386D01*
X168090219Y-99947393D01*
X167962642Y-100206094D01*
X167869921Y-100479239D01*
X167869917Y-100479254D01*
X167816513Y-100747738D01*
X167813644Y-100762161D01*
X167794778Y-101050000D01*
X165067254Y-101050000D01*
X165094063Y-100988881D01*
X165155108Y-100747821D01*
X165155116Y-100747729D01*
X165175643Y-100500005D01*
X165175643Y-100499994D01*
X165155109Y-100252187D01*
X165155107Y-100252175D01*
X165094063Y-100011118D01*
X164994173Y-99783393D01*
X164858166Y-99575217D01*
X164782693Y-99493232D01*
X164689744Y-99392262D01*
X164493509Y-99239526D01*
X164493507Y-99239525D01*
X164493506Y-99239524D01*
X164274811Y-99121172D01*
X164274802Y-99121169D01*
X164039616Y-99040429D01*
X163794335Y-98999500D01*
X163545665Y-98999500D01*
X163300383Y-99040429D01*
X163065197Y-99121169D01*
X163065188Y-99121172D01*
X162846493Y-99239524D01*
X162650257Y-99392261D01*
X162481837Y-99575213D01*
X162481829Y-99575224D01*
X162481455Y-99575797D01*
X162481242Y-99575978D01*
X162478690Y-99579258D01*
X162478014Y-99578732D01*
X162428304Y-99621147D01*
X162364865Y-99631302D01*
X162353435Y-99630116D01*
X161807577Y-100175974D01*
X161794641Y-100144742D01*
X161712563Y-100021903D01*
X161608097Y-99917437D01*
X161485258Y-99835359D01*
X161454024Y-99822421D01*
X162000055Y-99276389D01*
X162000055Y-99276388D01*
X161953236Y-99239947D01*
X161953231Y-99239944D01*
X161734614Y-99121635D01*
X161734603Y-99121630D01*
X161499493Y-99040916D01*
X161254293Y-99000000D01*
X161005707Y-99000000D01*
X160760506Y-99040916D01*
X160525396Y-99121630D01*
X160525385Y-99121635D01*
X160306770Y-99239943D01*
X160259943Y-99276389D01*
X160805975Y-99822421D01*
X160774742Y-99835359D01*
X160651903Y-99917437D01*
X160547437Y-100021903D01*
X160465359Y-100144742D01*
X160452421Y-100175975D01*
X159906563Y-99630117D01*
X159806267Y-99783633D01*
X159806265Y-99783637D01*
X159706412Y-100011282D01*
X159645387Y-100252261D01*
X159645385Y-100252270D01*
X159624859Y-100499994D01*
X139807358Y-100499994D01*
X139815643Y-100400005D01*
X139815643Y-100399994D01*
X139795109Y-100152187D01*
X139795107Y-100152175D01*
X139734063Y-99911118D01*
X139634173Y-99683393D01*
X139498166Y-99475217D01*
X139434416Y-99405966D01*
X139329744Y-99292262D01*
X139133509Y-99139526D01*
X139133507Y-99139525D01*
X139133506Y-99139524D01*
X138914811Y-99021172D01*
X138914802Y-99021169D01*
X138679616Y-98940429D01*
X138434335Y-98899500D01*
X138185665Y-98899500D01*
X137940382Y-98940429D01*
X137940380Y-98940429D01*
X137834393Y-98976815D01*
X137764595Y-98979965D01*
X137706450Y-98947215D01*
X134086819Y-95327584D01*
X134053334Y-95266261D01*
X134050500Y-95239903D01*
X134050500Y-94949995D01*
X156645093Y-94949995D01*
X156645093Y-94950004D01*
X156664692Y-95211545D01*
X156664693Y-95211550D01*
X156723058Y-95467270D01*
X156818883Y-95711426D01*
X156818882Y-95711426D01*
X156950029Y-95938576D01*
X156997873Y-95998572D01*
X157722421Y-95274024D01*
X157735359Y-95305258D01*
X157817437Y-95428097D01*
X157921903Y-95532563D01*
X158044742Y-95614641D01*
X158075974Y-95627577D01*
X157350830Y-96352720D01*
X157522546Y-96469793D01*
X157522550Y-96469795D01*
X157758854Y-96583594D01*
X157758858Y-96583595D01*
X158009494Y-96660907D01*
X158009500Y-96660909D01*
X158268848Y-96699999D01*
X158268857Y-96700000D01*
X158531143Y-96700000D01*
X158531151Y-96699999D01*
X158790499Y-96660909D01*
X158790505Y-96660907D01*
X159041143Y-96583595D01*
X159277445Y-96469798D01*
X159277447Y-96469797D01*
X159449168Y-96352720D01*
X158724025Y-95627578D01*
X158755258Y-95614641D01*
X158878097Y-95532563D01*
X158982563Y-95428097D01*
X159064641Y-95305258D01*
X159077578Y-95274025D01*
X159802125Y-95998572D01*
X159849971Y-95938573D01*
X159981116Y-95711426D01*
X160076941Y-95467270D01*
X160135306Y-95211550D01*
X160135307Y-95211545D01*
X160154907Y-94950004D01*
X160154907Y-94949995D01*
X165844592Y-94949995D01*
X165844592Y-94950004D01*
X165864196Y-95211620D01*
X165864197Y-95211625D01*
X165922576Y-95467402D01*
X165922578Y-95467411D01*
X165922580Y-95467416D01*
X166018432Y-95711643D01*
X166149614Y-95938857D01*
X166232011Y-96042179D01*
X166313198Y-96143985D01*
X166470560Y-96289994D01*
X166505521Y-96322433D01*
X166722296Y-96470228D01*
X166722301Y-96470230D01*
X166722302Y-96470231D01*
X166722303Y-96470232D01*
X166847843Y-96530688D01*
X166958673Y-96584061D01*
X166958674Y-96584061D01*
X166958677Y-96584063D01*
X167209385Y-96661396D01*
X167468818Y-96700500D01*
X167731182Y-96700500D01*
X167990615Y-96661396D01*
X168241323Y-96584063D01*
X168477704Y-96470228D01*
X168694479Y-96322433D01*
X168729440Y-96289994D01*
X170194357Y-96289994D01*
X170194357Y-96290005D01*
X170214890Y-96537812D01*
X170214892Y-96537824D01*
X170275936Y-96778881D01*
X170375826Y-97006606D01*
X170511833Y-97214782D01*
X170511836Y-97214785D01*
X170680256Y-97397738D01*
X170876491Y-97550474D01*
X171095190Y-97668828D01*
X171330386Y-97749571D01*
X171575665Y-97790500D01*
X171824335Y-97790500D01*
X172069614Y-97749571D01*
X172304810Y-97668828D01*
X172523509Y-97550474D01*
X172719744Y-97397738D01*
X172888164Y-97214785D01*
X173024173Y-97006607D01*
X173124063Y-96778881D01*
X173185108Y-96537821D01*
X173187114Y-96513610D01*
X173205643Y-96290005D01*
X173205643Y-96289994D01*
X173185109Y-96042187D01*
X173185107Y-96042175D01*
X173124063Y-95801118D01*
X173024173Y-95573393D01*
X172888166Y-95365217D01*
X172853522Y-95327584D01*
X172719744Y-95182262D01*
X172673255Y-95146078D01*
X172616254Y-95101712D01*
X172575441Y-95045002D01*
X172568655Y-94996176D01*
X172570055Y-94973608D01*
X172024024Y-94427578D01*
X172055258Y-94414641D01*
X172178097Y-94332563D01*
X172282563Y-94228097D01*
X172364641Y-94105258D01*
X172377578Y-94074025D01*
X172923435Y-94619882D01*
X173023733Y-94466364D01*
X173123587Y-94238717D01*
X173184612Y-93997738D01*
X173184614Y-93997729D01*
X173205141Y-93750005D01*
X173205141Y-93749994D01*
X173184614Y-93502270D01*
X173184612Y-93502261D01*
X173123587Y-93261282D01*
X173023732Y-93033632D01*
X172923435Y-92880116D01*
X172377577Y-93425974D01*
X172364641Y-93394742D01*
X172282563Y-93271903D01*
X172178097Y-93167437D01*
X172055258Y-93085359D01*
X172024024Y-93072421D01*
X172570055Y-92526389D01*
X172570055Y-92526388D01*
X172523236Y-92489947D01*
X172523231Y-92489944D01*
X172304614Y-92371635D01*
X172304603Y-92371630D01*
X172069493Y-92290916D01*
X171824293Y-92250000D01*
X171575707Y-92250000D01*
X171330506Y-92290916D01*
X171095396Y-92371630D01*
X171095385Y-92371635D01*
X170876770Y-92489943D01*
X170829943Y-92526389D01*
X171375975Y-93072421D01*
X171344742Y-93085359D01*
X171221903Y-93167437D01*
X171117437Y-93271903D01*
X171035359Y-93394742D01*
X171022421Y-93425975D01*
X170476563Y-92880117D01*
X170376267Y-93033633D01*
X170376265Y-93033637D01*
X170276412Y-93261282D01*
X170215387Y-93502261D01*
X170215385Y-93502270D01*
X170194859Y-93749994D01*
X170194859Y-93750005D01*
X170215385Y-93997729D01*
X170215387Y-93997738D01*
X170276412Y-94238717D01*
X170376267Y-94466367D01*
X170476562Y-94619881D01*
X171022421Y-94074023D01*
X171035359Y-94105258D01*
X171117437Y-94228097D01*
X171221903Y-94332563D01*
X171344742Y-94414641D01*
X171375974Y-94427578D01*
X170829943Y-94973609D01*
X170831344Y-94996176D01*
X170815851Y-95064306D01*
X170783745Y-95101712D01*
X170680258Y-95182260D01*
X170511833Y-95365217D01*
X170375826Y-95573393D01*
X170275936Y-95801118D01*
X170214892Y-96042175D01*
X170214890Y-96042187D01*
X170194357Y-96289994D01*
X168729440Y-96289994D01*
X168886805Y-96143981D01*
X169050386Y-95938857D01*
X169181568Y-95711643D01*
X169277420Y-95467416D01*
X169335802Y-95211630D01*
X169335808Y-95211550D01*
X169355408Y-94950004D01*
X169355408Y-94949995D01*
X169335803Y-94688379D01*
X169335802Y-94688374D01*
X169335802Y-94688370D01*
X169277420Y-94432584D01*
X169181568Y-94188357D01*
X169050386Y-93961143D01*
X168886805Y-93756019D01*
X168886804Y-93756018D01*
X168886801Y-93756014D01*
X168694479Y-93577567D01*
X168650052Y-93547277D01*
X168477704Y-93429772D01*
X168477700Y-93429770D01*
X168477697Y-93429768D01*
X168477696Y-93429767D01*
X168241325Y-93315938D01*
X168241327Y-93315938D01*
X167990623Y-93238606D01*
X167990619Y-93238605D01*
X167990615Y-93238604D01*
X167865823Y-93219794D01*
X167731187Y-93199500D01*
X167731182Y-93199500D01*
X167468818Y-93199500D01*
X167468812Y-93199500D01*
X167307247Y-93223853D01*
X167209385Y-93238604D01*
X167209382Y-93238605D01*
X167209376Y-93238606D01*
X166958673Y-93315938D01*
X166722303Y-93429767D01*
X166722302Y-93429768D01*
X166722296Y-93429771D01*
X166722296Y-93429772D01*
X166721654Y-93430210D01*
X166505520Y-93577567D01*
X166313198Y-93756014D01*
X166149614Y-93961143D01*
X166018432Y-94188356D01*
X165922582Y-94432578D01*
X165922576Y-94432597D01*
X165864197Y-94688374D01*
X165864196Y-94688379D01*
X165844592Y-94949995D01*
X160154907Y-94949995D01*
X160135307Y-94688454D01*
X160135306Y-94688449D01*
X160076941Y-94432729D01*
X159981116Y-94188573D01*
X159981117Y-94188573D01*
X159849972Y-93961426D01*
X159802124Y-93901427D01*
X159077577Y-94625973D01*
X159064641Y-94594742D01*
X158982563Y-94471903D01*
X158878097Y-94367437D01*
X158755258Y-94285359D01*
X158724024Y-94272421D01*
X159449168Y-93547278D01*
X159277454Y-93430206D01*
X159277445Y-93430201D01*
X159041142Y-93316404D01*
X159041144Y-93316404D01*
X158790505Y-93239092D01*
X158790499Y-93239090D01*
X158531151Y-93200000D01*
X158268848Y-93200000D01*
X158009500Y-93239090D01*
X158009494Y-93239092D01*
X157758858Y-93316404D01*
X157758854Y-93316405D01*
X157522547Y-93430205D01*
X157522539Y-93430210D01*
X157350830Y-93547277D01*
X158075975Y-94272421D01*
X158044742Y-94285359D01*
X157921903Y-94367437D01*
X157817437Y-94471903D01*
X157735359Y-94594742D01*
X157722421Y-94625974D01*
X156997874Y-93901427D01*
X156950028Y-93961425D01*
X156818883Y-94188573D01*
X156723058Y-94432729D01*
X156664693Y-94688449D01*
X156664692Y-94688454D01*
X156645093Y-94949995D01*
X134050500Y-94949995D01*
X134050500Y-91089060D01*
X134050501Y-91089047D01*
X134050501Y-90920944D01*
X134030751Y-90847238D01*
X134009577Y-90768216D01*
X134009573Y-90768209D01*
X133930524Y-90631290D01*
X133930518Y-90631282D01*
X130947590Y-87648355D01*
X130947588Y-87648352D01*
X130828717Y-87529481D01*
X130828716Y-87529480D01*
X130741904Y-87479360D01*
X130741904Y-87479359D01*
X130741900Y-87479358D01*
X130691785Y-87450423D01*
X130539057Y-87409499D01*
X130380943Y-87409499D01*
X130373347Y-87409499D01*
X130373331Y-87409500D01*
X122536116Y-87409500D01*
X122469077Y-87389815D01*
X122423322Y-87337011D01*
X122422560Y-87335311D01*
X122404172Y-87293391D01*
X122268166Y-87085217D01*
X122246004Y-87061143D01*
X122099744Y-86902262D01*
X122016991Y-86837852D01*
X121976179Y-86781143D01*
X121972504Y-86711370D01*
X122007136Y-86650687D01*
X122016985Y-86642151D01*
X122099744Y-86577738D01*
X122268164Y-86394785D01*
X122404173Y-86186607D01*
X122504063Y-85958881D01*
X122565108Y-85717821D01*
X122565109Y-85717812D01*
X122585643Y-85470005D01*
X122585643Y-85469994D01*
X122565109Y-85222187D01*
X122565107Y-85222175D01*
X122504063Y-84981118D01*
X122404173Y-84753393D01*
X122268166Y-84545217D01*
X122146813Y-84413393D01*
X122099744Y-84362262D01*
X122001988Y-84286176D01*
X121961178Y-84229469D01*
X121957503Y-84159696D01*
X121992134Y-84099012D01*
X122001975Y-84090484D01*
X122069744Y-84037738D01*
X122238164Y-83854785D01*
X122374173Y-83646607D01*
X122474063Y-83418881D01*
X122535108Y-83177821D01*
X122541336Y-83102663D01*
X122555643Y-82930005D01*
X122555643Y-82929994D01*
X122535109Y-82682187D01*
X122535107Y-82682175D01*
X122474063Y-82441118D01*
X122374173Y-82213393D01*
X122238166Y-82005217D01*
X122116813Y-81873393D01*
X122069744Y-81822262D01*
X121986991Y-81757852D01*
X121946179Y-81701143D01*
X121942504Y-81631370D01*
X121977136Y-81570687D01*
X121986985Y-81562151D01*
X122069744Y-81497738D01*
X122238164Y-81314785D01*
X122374173Y-81106607D01*
X122474063Y-80878881D01*
X122535108Y-80637821D01*
X122535911Y-80628130D01*
X122555643Y-80390005D01*
X122555643Y-80389994D01*
X122535109Y-80142187D01*
X122535107Y-80142175D01*
X122474063Y-79901118D01*
X122374173Y-79673393D01*
X122238166Y-79465217D01*
X122216557Y-79441744D01*
X122069744Y-79282262D01*
X121986991Y-79217852D01*
X121946179Y-79161143D01*
X121942504Y-79091370D01*
X121977136Y-79030687D01*
X121986985Y-79022151D01*
X122069744Y-78957738D01*
X122238164Y-78774785D01*
X122374173Y-78566607D01*
X122474063Y-78338881D01*
X122535108Y-78097821D01*
X122535911Y-78088130D01*
X122555643Y-77850005D01*
X122555643Y-77849994D01*
X122535109Y-77602187D01*
X122535107Y-77602175D01*
X122474063Y-77361118D01*
X122374173Y-77133393D01*
X122238166Y-76925217D01*
X122194238Y-76877499D01*
X122069744Y-76742262D01*
X121986991Y-76677852D01*
X121946179Y-76621143D01*
X121942504Y-76551370D01*
X121977136Y-76490687D01*
X121986985Y-76482151D01*
X122069744Y-76417738D01*
X122238164Y-76234785D01*
X122374173Y-76026607D01*
X122474063Y-75798881D01*
X122535108Y-75557821D01*
X122537712Y-75526400D01*
X122555643Y-75310005D01*
X122555643Y-75309994D01*
X122535109Y-75062187D01*
X122535107Y-75062175D01*
X122474063Y-74821118D01*
X122374173Y-74593393D01*
X122238166Y-74385217D01*
X122150512Y-74290000D01*
X122069744Y-74202262D01*
X121986991Y-74137852D01*
X121946179Y-74081143D01*
X121942504Y-74011370D01*
X121977136Y-73950687D01*
X121986985Y-73942151D01*
X122069744Y-73877738D01*
X122238164Y-73694785D01*
X122374173Y-73486607D01*
X122474063Y-73258881D01*
X122535108Y-73017821D01*
X122537994Y-72982993D01*
X122555643Y-72770005D01*
X122555643Y-72769994D01*
X122535109Y-72522187D01*
X122535107Y-72522175D01*
X122474063Y-72281118D01*
X122374173Y-72053393D01*
X122238166Y-71845217D01*
X122197854Y-71801427D01*
X122069744Y-71662262D01*
X121986993Y-71597854D01*
X121966254Y-71581712D01*
X121925441Y-71525002D01*
X121918655Y-71476176D01*
X121920055Y-71453608D01*
X121179408Y-70712962D01*
X121242993Y-70695925D01*
X121357007Y-70630099D01*
X121450099Y-70537007D01*
X121515925Y-70422993D01*
X121532962Y-70359409D01*
X122273435Y-71099882D01*
X122373733Y-70946364D01*
X122473587Y-70718717D01*
X122534612Y-70477738D01*
X122534614Y-70477729D01*
X122555141Y-70230005D01*
X122555141Y-70229993D01*
X122534614Y-69982270D01*
X122534612Y-69982261D01*
X122473587Y-69741282D01*
X122373732Y-69513632D01*
X122273435Y-69360116D01*
X121532962Y-70100590D01*
X121515925Y-70037007D01*
X121450099Y-69922993D01*
X121357007Y-69829901D01*
X121242993Y-69764075D01*
X121179409Y-69747037D01*
X121920055Y-69006389D01*
X121918654Y-68983825D01*
X121934146Y-68915694D01*
X121966249Y-68878290D01*
X122069744Y-68797738D01*
X122238164Y-68614785D01*
X122374173Y-68406607D01*
X122474063Y-68178881D01*
X122535108Y-67937821D01*
X122535911Y-67928130D01*
X122555643Y-67690005D01*
X122555643Y-67689994D01*
X122535109Y-67442187D01*
X122535107Y-67442175D01*
X122474063Y-67201118D01*
X122374173Y-66973393D01*
X122238166Y-66765217D01*
X122216557Y-66741744D01*
X122069744Y-66582262D01*
X121873509Y-66429526D01*
X121873507Y-66429525D01*
X121873506Y-66429524D01*
X121654811Y-66311172D01*
X121654802Y-66311169D01*
X121419616Y-66230429D01*
X121174335Y-66189500D01*
X120925665Y-66189500D01*
X120680383Y-66230429D01*
X120445197Y-66311169D01*
X120445188Y-66311172D01*
X120226493Y-66429524D01*
X120030257Y-66582261D01*
X119861833Y-66765217D01*
X119746780Y-66941321D01*
X119693633Y-66986678D01*
X119642971Y-66997500D01*
X118975880Y-66997500D01*
X118830511Y-67026416D01*
X118830503Y-67026418D01*
X118693555Y-67083143D01*
X118570313Y-67165491D01*
X118570311Y-67165493D01*
X118570309Y-67165494D01*
X118570309Y-67165495D01*
X118465495Y-67270309D01*
X118465493Y-67270311D01*
X115765497Y-69970305D01*
X115765494Y-69970309D01*
X115683146Y-70093550D01*
X115683139Y-70093563D01*
X115626646Y-70229953D01*
X115626627Y-70230000D01*
X115626416Y-70230508D01*
X115597500Y-70375880D01*
X115597500Y-89286941D01*
X115577815Y-89353980D01*
X115561181Y-89374622D01*
X114397838Y-90537964D01*
X114336515Y-90571449D01*
X114266823Y-90566465D01*
X114210890Y-90524593D01*
X114186473Y-90459129D01*
X114186581Y-90440043D01*
X114205643Y-90210005D01*
X114205643Y-90209994D01*
X114185109Y-89962187D01*
X114185107Y-89962175D01*
X114124063Y-89721118D01*
X114024173Y-89493393D01*
X113888166Y-89285217D01*
X113850205Y-89243981D01*
X113719744Y-89102262D01*
X113636991Y-89037852D01*
X113596179Y-88981143D01*
X113592504Y-88911370D01*
X113627136Y-88850687D01*
X113636985Y-88842151D01*
X113719744Y-88777738D01*
X113888164Y-88594785D01*
X114024173Y-88386607D01*
X114124063Y-88158881D01*
X114185108Y-87917821D01*
X114186443Y-87901712D01*
X114205643Y-87670005D01*
X114205643Y-87669994D01*
X114185109Y-87422187D01*
X114185107Y-87422175D01*
X114124063Y-87181118D01*
X114024173Y-86953393D01*
X113888166Y-86745217D01*
X113866557Y-86721744D01*
X113719744Y-86562262D01*
X113636991Y-86497852D01*
X113596179Y-86441143D01*
X113592504Y-86371370D01*
X113627136Y-86310687D01*
X113636985Y-86302151D01*
X113719744Y-86237738D01*
X113888164Y-86054785D01*
X114024173Y-85846607D01*
X114124063Y-85618881D01*
X114185108Y-85377821D01*
X114189370Y-85326388D01*
X114205643Y-85130005D01*
X114205643Y-85129994D01*
X114185109Y-84882187D01*
X114185107Y-84882175D01*
X114124063Y-84641118D01*
X114024173Y-84413393D01*
X113888166Y-84205217D01*
X113846261Y-84159696D01*
X113719744Y-84022262D01*
X113636991Y-83957852D01*
X113596179Y-83901143D01*
X113592504Y-83831370D01*
X113627136Y-83770687D01*
X113636985Y-83762151D01*
X113719744Y-83697738D01*
X113888164Y-83514785D01*
X114024173Y-83306607D01*
X114124063Y-83078881D01*
X114185108Y-82837821D01*
X114190081Y-82777805D01*
X114205643Y-82590005D01*
X114205643Y-82589994D01*
X114185109Y-82342187D01*
X114185107Y-82342175D01*
X114124063Y-82101118D01*
X114024173Y-81873393D01*
X113888166Y-81665217D01*
X113866557Y-81641744D01*
X113719744Y-81482262D01*
X113636991Y-81417852D01*
X113596179Y-81361143D01*
X113592504Y-81291370D01*
X113627136Y-81230687D01*
X113636985Y-81222151D01*
X113719744Y-81157738D01*
X113888164Y-80974785D01*
X114024173Y-80766607D01*
X114124063Y-80538881D01*
X114185108Y-80297821D01*
X114187627Y-80267421D01*
X114205643Y-80050005D01*
X114205643Y-80049994D01*
X114185109Y-79802187D01*
X114185107Y-79802175D01*
X114124063Y-79561118D01*
X114024173Y-79333393D01*
X113888166Y-79125217D01*
X113866557Y-79101744D01*
X113719744Y-78942262D01*
X113636991Y-78877852D01*
X113596179Y-78821143D01*
X113592504Y-78751370D01*
X113627136Y-78690687D01*
X113636985Y-78682151D01*
X113719744Y-78617738D01*
X113888164Y-78434785D01*
X114024173Y-78226607D01*
X114124063Y-77998881D01*
X114185108Y-77757821D01*
X114196881Y-77615741D01*
X114205643Y-77510005D01*
X114205643Y-77509994D01*
X114185109Y-77262187D01*
X114185107Y-77262175D01*
X114124063Y-77021118D01*
X114024173Y-76793393D01*
X113888166Y-76585217D01*
X113866557Y-76561744D01*
X113719744Y-76402262D01*
X113636991Y-76337852D01*
X113596179Y-76281143D01*
X113592504Y-76211370D01*
X113627136Y-76150687D01*
X113636985Y-76142151D01*
X113719744Y-76077738D01*
X113888164Y-75894785D01*
X114024173Y-75686607D01*
X114124063Y-75458881D01*
X114185108Y-75217821D01*
X114196881Y-75075741D01*
X114205643Y-74970005D01*
X114205643Y-74969994D01*
X114185109Y-74722187D01*
X114185107Y-74722175D01*
X114124063Y-74481118D01*
X114024173Y-74253393D01*
X113888166Y-74045217D01*
X113859069Y-74013609D01*
X113719744Y-73862262D01*
X113636991Y-73797852D01*
X113596179Y-73741143D01*
X113592504Y-73671370D01*
X113627136Y-73610687D01*
X113636985Y-73602151D01*
X113719744Y-73537738D01*
X113888164Y-73354785D01*
X114024173Y-73146607D01*
X114124063Y-72918881D01*
X114185108Y-72677821D01*
X114185109Y-72677812D01*
X114205643Y-72430005D01*
X114205643Y-72429994D01*
X114185109Y-72182187D01*
X114185107Y-72182175D01*
X114124063Y-71941118D01*
X114024173Y-71713393D01*
X113888166Y-71505217D01*
X113860988Y-71475694D01*
X113719744Y-71322262D01*
X113636991Y-71257852D01*
X113596179Y-71201143D01*
X113592504Y-71131370D01*
X113627136Y-71070687D01*
X113636985Y-71062151D01*
X113719744Y-70997738D01*
X113888164Y-70814785D01*
X114024173Y-70606607D01*
X114124063Y-70378881D01*
X114185108Y-70137821D01*
X114185109Y-70137812D01*
X114205643Y-69890005D01*
X114205643Y-69889994D01*
X114185109Y-69642187D01*
X114185107Y-69642175D01*
X114124063Y-69401118D01*
X114024173Y-69173393D01*
X113888166Y-68965217D01*
X113860346Y-68934997D01*
X113719744Y-68782262D01*
X113673255Y-68746078D01*
X113616254Y-68701712D01*
X113575441Y-68645002D01*
X113568655Y-68596176D01*
X113570055Y-68573608D01*
X112829408Y-67832962D01*
X112892993Y-67815925D01*
X113007007Y-67750099D01*
X113100099Y-67657007D01*
X113165925Y-67542993D01*
X113182962Y-67479409D01*
X113923435Y-68219882D01*
X114023733Y-68066364D01*
X114123587Y-67838717D01*
X114184612Y-67597738D01*
X114184614Y-67597729D01*
X114205141Y-67350005D01*
X114205141Y-67349994D01*
X114184614Y-67102270D01*
X114184612Y-67102261D01*
X114123587Y-66861282D01*
X114023732Y-66633632D01*
X113923435Y-66480116D01*
X113182962Y-67220590D01*
X113165925Y-67157007D01*
X113100099Y-67042993D01*
X113007007Y-66949901D01*
X112892993Y-66884075D01*
X112829409Y-66867037D01*
X113570055Y-66126389D01*
X113570055Y-66126388D01*
X113523236Y-66089947D01*
X113523231Y-66089944D01*
X113304614Y-65971635D01*
X113304603Y-65971630D01*
X113069493Y-65890916D01*
X112824293Y-65850000D01*
X112577668Y-65850000D01*
X112510629Y-65830315D01*
X112464874Y-65777511D01*
X112454930Y-65708353D01*
X112483955Y-65644797D01*
X112530215Y-65611439D01*
X112586690Y-65588046D01*
X112586691Y-65588045D01*
X112586697Y-65588043D01*
X112813803Y-65456924D01*
X113021851Y-65297282D01*
X113021855Y-65297277D01*
X113021860Y-65297274D01*
X113207274Y-65111860D01*
X113207277Y-65111855D01*
X113207282Y-65111851D01*
X113366924Y-64903803D01*
X113498043Y-64676697D01*
X113598398Y-64434419D01*
X113666270Y-64181116D01*
X113700500Y-63921120D01*
X113700500Y-63658880D01*
X113666270Y-63398884D01*
X113598398Y-63145581D01*
X113527412Y-62974205D01*
X113498046Y-62903309D01*
X113498041Y-62903299D01*
X113366924Y-62676196D01*
X113207281Y-62468148D01*
X113207274Y-62468140D01*
X113021860Y-62282726D01*
X113021851Y-62282718D01*
X112813803Y-62123075D01*
X112687222Y-62049994D01*
X126864357Y-62049994D01*
X126864357Y-62050005D01*
X126884890Y-62297812D01*
X126884892Y-62297824D01*
X126945936Y-62538881D01*
X127045826Y-62766606D01*
X127181833Y-62974782D01*
X127181836Y-62974785D01*
X127350256Y-63157738D01*
X127546491Y-63310474D01*
X127546493Y-63310475D01*
X127764332Y-63428364D01*
X127765190Y-63428828D01*
X127984141Y-63503994D01*
X127998964Y-63509083D01*
X128000386Y-63509571D01*
X128245665Y-63550500D01*
X128494335Y-63550500D01*
X128739614Y-63509571D01*
X128974810Y-63428828D01*
X129193509Y-63310474D01*
X129389744Y-63157738D01*
X129558164Y-62974785D01*
X129558533Y-62974219D01*
X129558745Y-62974038D01*
X129561322Y-62970729D01*
X129562002Y-62971258D01*
X129611676Y-62928860D01*
X129675139Y-62918697D01*
X129686563Y-62919881D01*
X130427037Y-62179408D01*
X130444075Y-62242993D01*
X130509901Y-62357007D01*
X130602993Y-62450099D01*
X130717007Y-62515925D01*
X130780591Y-62532962D01*
X130039943Y-63273609D01*
X130086768Y-63310055D01*
X130086771Y-63310057D01*
X130305385Y-63428364D01*
X130305396Y-63428369D01*
X130540506Y-63509083D01*
X130785707Y-63550000D01*
X131034293Y-63550000D01*
X131279493Y-63509083D01*
X131514603Y-63428369D01*
X131514614Y-63428364D01*
X131733230Y-63310056D01*
X131733236Y-63310051D01*
X131780055Y-63273610D01*
X131780056Y-63273609D01*
X131039408Y-62532962D01*
X131102993Y-62515925D01*
X131217007Y-62450099D01*
X131310099Y-62357007D01*
X131375925Y-62242993D01*
X131392962Y-62179409D01*
X132133434Y-62919881D01*
X132144860Y-62918697D01*
X132213573Y-62931360D01*
X132258092Y-62971194D01*
X132258683Y-62970735D01*
X132261218Y-62973992D01*
X132261456Y-62974205D01*
X132261831Y-62974780D01*
X132261836Y-62974785D01*
X132430256Y-63157738D01*
X132430264Y-63157744D01*
X132432480Y-63159784D01*
X132433119Y-63160847D01*
X132433730Y-63161511D01*
X132433593Y-63161636D01*
X132468472Y-63219670D01*
X132472500Y-63251017D01*
X132472500Y-81978258D01*
X132452815Y-82045297D01*
X132440650Y-82061230D01*
X132408140Y-82097336D01*
X132318750Y-82252164D01*
X132318747Y-82252170D01*
X132263504Y-82422192D01*
X132263503Y-82422194D01*
X132244815Y-82600000D01*
X132263503Y-82777805D01*
X132263504Y-82777807D01*
X132318747Y-82947829D01*
X132318750Y-82947835D01*
X132408141Y-83102665D01*
X132449812Y-83148946D01*
X132527764Y-83235521D01*
X132527767Y-83235523D01*
X132527770Y-83235526D01*
X132672407Y-83340612D01*
X132835733Y-83413329D01*
X133010609Y-83450500D01*
X133010610Y-83450500D01*
X133189389Y-83450500D01*
X133189391Y-83450500D01*
X133285619Y-83430046D01*
X133355286Y-83435362D01*
X133411020Y-83477499D01*
X133425961Y-83503884D01*
X133443913Y-83547226D01*
X133443920Y-83547239D01*
X133512588Y-83650007D01*
X133512591Y-83650011D01*
X133599988Y-83737408D01*
X133599996Y-83737414D01*
X133702756Y-83806076D01*
X133702759Y-83806077D01*
X133702767Y-83806083D01*
X133702773Y-83806085D01*
X133702774Y-83806086D01*
X133792471Y-83843239D01*
X133832700Y-83870119D01*
X134855767Y-84893186D01*
X134889252Y-84954509D01*
X134888292Y-85011307D01*
X134834892Y-85222175D01*
X134834890Y-85222187D01*
X134814357Y-85469994D01*
X134814357Y-85470005D01*
X134834890Y-85717812D01*
X134834892Y-85717824D01*
X134895936Y-85958881D01*
X134995826Y-86186606D01*
X135131833Y-86394782D01*
X135131836Y-86394785D01*
X135300256Y-86577738D01*
X135383008Y-86642147D01*
X135423821Y-86698857D01*
X135427496Y-86768630D01*
X135392864Y-86829313D01*
X135383014Y-86837848D01*
X135359669Y-86856019D01*
X135300257Y-86902261D01*
X135131833Y-87085217D01*
X134995826Y-87293393D01*
X134895936Y-87521118D01*
X134834892Y-87762175D01*
X134834890Y-87762187D01*
X134814357Y-88009994D01*
X134814357Y-88010005D01*
X134834890Y-88257812D01*
X134834892Y-88257824D01*
X134895936Y-88498881D01*
X134995826Y-88726606D01*
X135131833Y-88934782D01*
X135131836Y-88934785D01*
X135300256Y-89117738D01*
X135496491Y-89270474D01*
X135496493Y-89270475D01*
X135688939Y-89374622D01*
X135715190Y-89388828D01*
X135950386Y-89469571D01*
X136195665Y-89510500D01*
X136444335Y-89510500D01*
X136689614Y-89469571D01*
X136924810Y-89388828D01*
X137143509Y-89270474D01*
X137339744Y-89117738D01*
X137508164Y-88934785D01*
X137644173Y-88726607D01*
X137744063Y-88498881D01*
X137805108Y-88257821D01*
X137805109Y-88257812D01*
X137822329Y-88049995D01*
X139145093Y-88049995D01*
X139145093Y-88050004D01*
X139164692Y-88311545D01*
X139164693Y-88311550D01*
X139223058Y-88567270D01*
X139318883Y-88811426D01*
X139318882Y-88811426D01*
X139450029Y-89038576D01*
X139497873Y-89098572D01*
X140222421Y-88374024D01*
X140235359Y-88405258D01*
X140317437Y-88528097D01*
X140421903Y-88632563D01*
X140544742Y-88714641D01*
X140575974Y-88727577D01*
X139850830Y-89452720D01*
X140022546Y-89569793D01*
X140022550Y-89569795D01*
X140258854Y-89683594D01*
X140258858Y-89683595D01*
X140509494Y-89760907D01*
X140509500Y-89760909D01*
X140768848Y-89799999D01*
X140768857Y-89800000D01*
X141031143Y-89800000D01*
X141031151Y-89799999D01*
X141290499Y-89760909D01*
X141290505Y-89760907D01*
X141541143Y-89683595D01*
X141777445Y-89569798D01*
X141777447Y-89569797D01*
X141949168Y-89452720D01*
X141224025Y-88727578D01*
X141255258Y-88714641D01*
X141378097Y-88632563D01*
X141482563Y-88528097D01*
X141564641Y-88405258D01*
X141577578Y-88374025D01*
X142302125Y-89098572D01*
X142349971Y-89038573D01*
X142481116Y-88811426D01*
X142576941Y-88567270D01*
X142635306Y-88311550D01*
X142635307Y-88311545D01*
X142654907Y-88050004D01*
X142654907Y-88049995D01*
X148344592Y-88049995D01*
X148344592Y-88050004D01*
X148364196Y-88311620D01*
X148364197Y-88311625D01*
X148422576Y-88567402D01*
X148422578Y-88567411D01*
X148422580Y-88567416D01*
X148518432Y-88811643D01*
X148649614Y-89038857D01*
X148700178Y-89102262D01*
X148813198Y-89243985D01*
X148914851Y-89338304D01*
X149005521Y-89422433D01*
X149222296Y-89570228D01*
X149222301Y-89570230D01*
X149222302Y-89570231D01*
X149222303Y-89570232D01*
X149347843Y-89630688D01*
X149458673Y-89684061D01*
X149458674Y-89684061D01*
X149458677Y-89684063D01*
X149709385Y-89761396D01*
X149968818Y-89800500D01*
X150231182Y-89800500D01*
X150490615Y-89761396D01*
X150741323Y-89684063D01*
X150977704Y-89570228D01*
X151194479Y-89422433D01*
X151386805Y-89243981D01*
X151509606Y-89089994D01*
X170194357Y-89089994D01*
X170194357Y-89090005D01*
X170214890Y-89337812D01*
X170214892Y-89337824D01*
X170275936Y-89578881D01*
X170375826Y-89806606D01*
X170511833Y-90014782D01*
X170511836Y-90014785D01*
X170680256Y-90197738D01*
X170876491Y-90350474D01*
X171095190Y-90468828D01*
X171330386Y-90549571D01*
X171575665Y-90590500D01*
X171824335Y-90590500D01*
X172069614Y-90549571D01*
X172304810Y-90468828D01*
X172523509Y-90350474D01*
X172719744Y-90197738D01*
X172888164Y-90014785D01*
X173024173Y-89806607D01*
X173124063Y-89578881D01*
X173185108Y-89337821D01*
X173189467Y-89285215D01*
X173205643Y-89090005D01*
X173205643Y-89089994D01*
X173185109Y-88842187D01*
X173185107Y-88842175D01*
X173124063Y-88601118D01*
X173024173Y-88373393D01*
X172888166Y-88165217D01*
X172850102Y-88123869D01*
X172719744Y-87982262D01*
X172636954Y-87917824D01*
X172616254Y-87901712D01*
X172575441Y-87845002D01*
X172568655Y-87796176D01*
X172570055Y-87773608D01*
X172024024Y-87227578D01*
X172055258Y-87214641D01*
X172178097Y-87132563D01*
X172282563Y-87028097D01*
X172364641Y-86905258D01*
X172377578Y-86874025D01*
X172923435Y-87419882D01*
X173023733Y-87266364D01*
X173123587Y-87038717D01*
X173184612Y-86797738D01*
X173184614Y-86797729D01*
X173205141Y-86550005D01*
X173205141Y-86549994D01*
X173184614Y-86302270D01*
X173184612Y-86302261D01*
X173123587Y-86061282D01*
X173023732Y-85833632D01*
X172923435Y-85680116D01*
X172377577Y-86225974D01*
X172364641Y-86194742D01*
X172282563Y-86071903D01*
X172178097Y-85967437D01*
X172055258Y-85885359D01*
X172024024Y-85872421D01*
X172570055Y-85326389D01*
X172570055Y-85326388D01*
X172523236Y-85289947D01*
X172523231Y-85289944D01*
X172304614Y-85171635D01*
X172304603Y-85171630D01*
X172069493Y-85090916D01*
X171824293Y-85050000D01*
X171575707Y-85050000D01*
X171330506Y-85090916D01*
X171095396Y-85171630D01*
X171095385Y-85171635D01*
X170876770Y-85289943D01*
X170829943Y-85326389D01*
X171375975Y-85872421D01*
X171344742Y-85885359D01*
X171221903Y-85967437D01*
X171117437Y-86071903D01*
X171035359Y-86194742D01*
X171022421Y-86225975D01*
X170476563Y-85680117D01*
X170376267Y-85833633D01*
X170376265Y-85833637D01*
X170276412Y-86061282D01*
X170215387Y-86302261D01*
X170215385Y-86302270D01*
X170194859Y-86549994D01*
X170194859Y-86550005D01*
X170215385Y-86797729D01*
X170215387Y-86797738D01*
X170276412Y-87038717D01*
X170376267Y-87266367D01*
X170476562Y-87419881D01*
X171022421Y-86874023D01*
X171035359Y-86905258D01*
X171117437Y-87028097D01*
X171221903Y-87132563D01*
X171344742Y-87214641D01*
X171375974Y-87227578D01*
X170829943Y-87773609D01*
X170831344Y-87796176D01*
X170815851Y-87864306D01*
X170783745Y-87901712D01*
X170680258Y-87982260D01*
X170511833Y-88165217D01*
X170375826Y-88373393D01*
X170275936Y-88601118D01*
X170214892Y-88842175D01*
X170214890Y-88842187D01*
X170194357Y-89089994D01*
X151509606Y-89089994D01*
X151550386Y-89038857D01*
X151681568Y-88811643D01*
X151777420Y-88567416D01*
X151835802Y-88311630D01*
X151835808Y-88311550D01*
X151855408Y-88050004D01*
X151855408Y-88049995D01*
X151835803Y-87788379D01*
X151835802Y-87788374D01*
X151835802Y-87788370D01*
X151777420Y-87532584D01*
X151681568Y-87288357D01*
X151550386Y-87061143D01*
X151386805Y-86856019D01*
X151386804Y-86856018D01*
X151386801Y-86856014D01*
X151194479Y-86677567D01*
X151142526Y-86642146D01*
X150977704Y-86529772D01*
X150977700Y-86529770D01*
X150977697Y-86529768D01*
X150977696Y-86529767D01*
X150741325Y-86415938D01*
X150741327Y-86415938D01*
X150490623Y-86338606D01*
X150490619Y-86338605D01*
X150490615Y-86338604D01*
X150365823Y-86319794D01*
X150231187Y-86299500D01*
X150231182Y-86299500D01*
X149968818Y-86299500D01*
X149968812Y-86299500D01*
X149807247Y-86323853D01*
X149709385Y-86338604D01*
X149709382Y-86338605D01*
X149709376Y-86338606D01*
X149458673Y-86415938D01*
X149222303Y-86529767D01*
X149222302Y-86529768D01*
X149222296Y-86529771D01*
X149222296Y-86529772D01*
X149221654Y-86530210D01*
X149005520Y-86677567D01*
X148813198Y-86856014D01*
X148649614Y-87061143D01*
X148518432Y-87288356D01*
X148422582Y-87532578D01*
X148422576Y-87532597D01*
X148364197Y-87788374D01*
X148364196Y-87788379D01*
X148344592Y-88049995D01*
X142654907Y-88049995D01*
X142635307Y-87788454D01*
X142635306Y-87788449D01*
X142576941Y-87532729D01*
X142481116Y-87288573D01*
X142481117Y-87288573D01*
X142349972Y-87061426D01*
X142302124Y-87001427D01*
X141577577Y-87725973D01*
X141564641Y-87694742D01*
X141482563Y-87571903D01*
X141378097Y-87467437D01*
X141255258Y-87385359D01*
X141224024Y-87372421D01*
X141949168Y-86647278D01*
X141777454Y-86530206D01*
X141777445Y-86530201D01*
X141541142Y-86416404D01*
X141541144Y-86416404D01*
X141290505Y-86339092D01*
X141290499Y-86339090D01*
X141031151Y-86300000D01*
X140768848Y-86300000D01*
X140509500Y-86339090D01*
X140509494Y-86339092D01*
X140258858Y-86416404D01*
X140258854Y-86416405D01*
X140022547Y-86530205D01*
X140022539Y-86530210D01*
X139850830Y-86647277D01*
X140575975Y-87372421D01*
X140544742Y-87385359D01*
X140421903Y-87467437D01*
X140317437Y-87571903D01*
X140235359Y-87694742D01*
X140222421Y-87725974D01*
X139497874Y-87001427D01*
X139450028Y-87061425D01*
X139318883Y-87288573D01*
X139223058Y-87532729D01*
X139164693Y-87788449D01*
X139164692Y-87788454D01*
X139145093Y-88049995D01*
X137822329Y-88049995D01*
X137825643Y-88010005D01*
X137825643Y-88009994D01*
X137805109Y-87762187D01*
X137805107Y-87762175D01*
X137744063Y-87521118D01*
X137644173Y-87293393D01*
X137508166Y-87085217D01*
X137486004Y-87061143D01*
X137339744Y-86902262D01*
X137256991Y-86837852D01*
X137216179Y-86781143D01*
X137212504Y-86711370D01*
X137247136Y-86650687D01*
X137256985Y-86642151D01*
X137339744Y-86577738D01*
X137508164Y-86394785D01*
X137644173Y-86186607D01*
X137744063Y-85958881D01*
X137805108Y-85717821D01*
X137805109Y-85717812D01*
X137825643Y-85470005D01*
X137825643Y-85469994D01*
X137805109Y-85222187D01*
X137805107Y-85222175D01*
X137744063Y-84981118D01*
X137644173Y-84753393D01*
X137508166Y-84545217D01*
X137386813Y-84413393D01*
X137339744Y-84362262D01*
X137274244Y-84311281D01*
X137271991Y-84309527D01*
X137231178Y-84252816D01*
X137227505Y-84183043D01*
X137262136Y-84122360D01*
X137271974Y-84113834D01*
X137369744Y-84037738D01*
X137538164Y-83854785D01*
X137674173Y-83646607D01*
X137774063Y-83418881D01*
X137835108Y-83177821D01*
X137841336Y-83102663D01*
X137855643Y-82930005D01*
X137855643Y-82929994D01*
X137835109Y-82682187D01*
X137835107Y-82682175D01*
X137774063Y-82441118D01*
X137674173Y-82213393D01*
X137538166Y-82005217D01*
X137416813Y-81873393D01*
X137369744Y-81822262D01*
X137286991Y-81757852D01*
X137246179Y-81701143D01*
X137242504Y-81631370D01*
X137277136Y-81570687D01*
X137286985Y-81562151D01*
X137369744Y-81497738D01*
X137538164Y-81314785D01*
X137674173Y-81106607D01*
X137774063Y-80878881D01*
X137835108Y-80637821D01*
X137835911Y-80628130D01*
X137855643Y-80390005D01*
X137855643Y-80389994D01*
X137835109Y-80142187D01*
X137835107Y-80142175D01*
X137774063Y-79901118D01*
X137707774Y-79749995D01*
X156645093Y-79749995D01*
X156645093Y-79750004D01*
X156664692Y-80011545D01*
X156664693Y-80011550D01*
X156723058Y-80267270D01*
X156818883Y-80511426D01*
X156818882Y-80511426D01*
X156950029Y-80738576D01*
X156997873Y-80798572D01*
X157722421Y-80074024D01*
X157735359Y-80105258D01*
X157817437Y-80228097D01*
X157921903Y-80332563D01*
X158044742Y-80414641D01*
X158075974Y-80427577D01*
X157350830Y-81152720D01*
X157522546Y-81269793D01*
X157522550Y-81269795D01*
X157758854Y-81383594D01*
X157758858Y-81383595D01*
X158009494Y-81460907D01*
X158009500Y-81460909D01*
X158268848Y-81499999D01*
X158268857Y-81500000D01*
X158531143Y-81500000D01*
X158531151Y-81499999D01*
X158790499Y-81460909D01*
X158790505Y-81460907D01*
X159041143Y-81383595D01*
X159277445Y-81269798D01*
X159277447Y-81269797D01*
X159449168Y-81152720D01*
X158724025Y-80427578D01*
X158755258Y-80414641D01*
X158878097Y-80332563D01*
X158982563Y-80228097D01*
X159064641Y-80105258D01*
X159077578Y-80074025D01*
X159802125Y-80798572D01*
X159849971Y-80738573D01*
X159981116Y-80511426D01*
X160076941Y-80267270D01*
X160135306Y-80011550D01*
X160135307Y-80011545D01*
X160154907Y-79750004D01*
X160154907Y-79749995D01*
X165844592Y-79749995D01*
X165844592Y-79750004D01*
X165864196Y-80011620D01*
X165864197Y-80011625D01*
X165922576Y-80267402D01*
X165922578Y-80267411D01*
X165922580Y-80267416D01*
X166018432Y-80511643D01*
X166149614Y-80738857D01*
X166281736Y-80904533D01*
X166313198Y-80943985D01*
X166488465Y-81106607D01*
X166505521Y-81122433D01*
X166722296Y-81270228D01*
X166722301Y-81270230D01*
X166722302Y-81270231D01*
X166722303Y-81270232D01*
X166845430Y-81329526D01*
X166958673Y-81384061D01*
X166958674Y-81384061D01*
X166958677Y-81384063D01*
X167209385Y-81461396D01*
X167468818Y-81500500D01*
X167731182Y-81500500D01*
X167990615Y-81461396D01*
X168241323Y-81384063D01*
X168477704Y-81270228D01*
X168694479Y-81122433D01*
X168886805Y-80943981D01*
X169050386Y-80738857D01*
X169181568Y-80511643D01*
X169277420Y-80267416D01*
X169335802Y-80011630D01*
X169335808Y-80011550D01*
X169355408Y-79750004D01*
X169355408Y-79749995D01*
X169335803Y-79488379D01*
X169335802Y-79488374D01*
X169335802Y-79488370D01*
X169277420Y-79232584D01*
X169181568Y-78988357D01*
X169050386Y-78761143D01*
X168886805Y-78556019D01*
X168886804Y-78556018D01*
X168886801Y-78556014D01*
X168694479Y-78377567D01*
X168635581Y-78337411D01*
X168477704Y-78229772D01*
X168477700Y-78229770D01*
X168477697Y-78229768D01*
X168477696Y-78229767D01*
X168241325Y-78115938D01*
X168241327Y-78115938D01*
X167990623Y-78038606D01*
X167990619Y-78038605D01*
X167990615Y-78038604D01*
X167865823Y-78019794D01*
X167731187Y-77999500D01*
X167731182Y-77999500D01*
X167468818Y-77999500D01*
X167468812Y-77999500D01*
X167307247Y-78023853D01*
X167209385Y-78038604D01*
X167209382Y-78038605D01*
X167209376Y-78038606D01*
X166958673Y-78115938D01*
X166722303Y-78229767D01*
X166722302Y-78229768D01*
X166722296Y-78229771D01*
X166722296Y-78229772D01*
X166721654Y-78230210D01*
X166505520Y-78377567D01*
X166313198Y-78556014D01*
X166149614Y-78761143D01*
X166018432Y-78988356D01*
X165922582Y-79232578D01*
X165922576Y-79232597D01*
X165864197Y-79488374D01*
X165864196Y-79488379D01*
X165844592Y-79749995D01*
X160154907Y-79749995D01*
X160135307Y-79488454D01*
X160135306Y-79488449D01*
X160076941Y-79232729D01*
X159981116Y-78988573D01*
X159981117Y-78988573D01*
X159849972Y-78761426D01*
X159802124Y-78701427D01*
X159077577Y-79425973D01*
X159064641Y-79394742D01*
X158982563Y-79271903D01*
X158878097Y-79167437D01*
X158755258Y-79085359D01*
X158724024Y-79072421D01*
X159449168Y-78347278D01*
X159277454Y-78230206D01*
X159277445Y-78230201D01*
X159041142Y-78116404D01*
X159041144Y-78116404D01*
X158790505Y-78039092D01*
X158790499Y-78039090D01*
X158531151Y-78000000D01*
X158268848Y-78000000D01*
X158009500Y-78039090D01*
X158009494Y-78039092D01*
X157758858Y-78116404D01*
X157758854Y-78116405D01*
X157522547Y-78230205D01*
X157522539Y-78230210D01*
X157350830Y-78347277D01*
X158075975Y-79072421D01*
X158044742Y-79085359D01*
X157921903Y-79167437D01*
X157817437Y-79271903D01*
X157735359Y-79394742D01*
X157722421Y-79425974D01*
X156997874Y-78701427D01*
X156950028Y-78761425D01*
X156818883Y-78988573D01*
X156723058Y-79232729D01*
X156664693Y-79488449D01*
X156664692Y-79488454D01*
X156645093Y-79749995D01*
X137707774Y-79749995D01*
X137674173Y-79673393D01*
X137538166Y-79465217D01*
X137516557Y-79441744D01*
X137369744Y-79282262D01*
X137286991Y-79217852D01*
X137246179Y-79161143D01*
X137242504Y-79091370D01*
X137277136Y-79030687D01*
X137286985Y-79022151D01*
X137369744Y-78957738D01*
X137538164Y-78774785D01*
X137674173Y-78566607D01*
X137680715Y-78551691D01*
X137725670Y-78498205D01*
X137792406Y-78477514D01*
X137794272Y-78477500D01*
X155511804Y-78477500D01*
X155511805Y-78477499D01*
X155633035Y-78453386D01*
X155713784Y-78419937D01*
X155747233Y-78406083D01*
X155850008Y-78337411D01*
X155937411Y-78250008D01*
X157273600Y-76913819D01*
X157334923Y-76880334D01*
X157361281Y-76877500D01*
X174861804Y-76877500D01*
X174861805Y-76877499D01*
X174983035Y-76853386D01*
X175056244Y-76823060D01*
X175086570Y-76810500D01*
X175086572Y-76810498D01*
X175097233Y-76806083D01*
X175200008Y-76737411D01*
X175287411Y-76650008D01*
X175787411Y-76150008D01*
X175799997Y-76131172D01*
X175856083Y-76047233D01*
X175887867Y-75970500D01*
X175903386Y-75933034D01*
X175927500Y-75811803D01*
X175927500Y-75688197D01*
X175927500Y-69898197D01*
X175903386Y-69776966D01*
X175858407Y-69668379D01*
X175856763Y-69663784D01*
X175787414Y-69559996D01*
X175787413Y-69559994D01*
X175750812Y-69523393D01*
X175700008Y-69472589D01*
X174514232Y-68286813D01*
X174480747Y-68225490D01*
X174481708Y-68168691D01*
X174535105Y-67957833D01*
X174535107Y-67957824D01*
X174535108Y-67957821D01*
X174535109Y-67957812D01*
X174555643Y-67710005D01*
X174555643Y-67709994D01*
X174535109Y-67462187D01*
X174535107Y-67462175D01*
X174474063Y-67221118D01*
X174374173Y-66993393D01*
X174238166Y-66785217D01*
X174216557Y-66761744D01*
X174069744Y-66602262D01*
X173873509Y-66449526D01*
X173873507Y-66449525D01*
X173873506Y-66449524D01*
X173654811Y-66331172D01*
X173654802Y-66331169D01*
X173419616Y-66250429D01*
X173174335Y-66209500D01*
X172925665Y-66209500D01*
X172680383Y-66250429D01*
X172445197Y-66331169D01*
X172445188Y-66331172D01*
X172226493Y-66449524D01*
X172030257Y-66602261D01*
X171861833Y-66785217D01*
X171725826Y-66993393D01*
X171625936Y-67221118D01*
X171564892Y-67462175D01*
X171564890Y-67462187D01*
X171544357Y-67709994D01*
X171544357Y-67710005D01*
X171564890Y-67957812D01*
X171564892Y-67957824D01*
X171625936Y-68198881D01*
X171725826Y-68426606D01*
X171861833Y-68634782D01*
X171861836Y-68634785D01*
X172030256Y-68817738D01*
X172113008Y-68882147D01*
X172153821Y-68938857D01*
X172157496Y-69008630D01*
X172122864Y-69069313D01*
X172113014Y-69077848D01*
X172055953Y-69122261D01*
X172030257Y-69142261D01*
X171861833Y-69325217D01*
X171725826Y-69533393D01*
X171625936Y-69761118D01*
X171564892Y-70002175D01*
X171564890Y-70002187D01*
X171544357Y-70249994D01*
X171544357Y-70250005D01*
X171564890Y-70497812D01*
X171564892Y-70497824D01*
X171625936Y-70738881D01*
X171725826Y-70966606D01*
X171861833Y-71174782D01*
X171861836Y-71174785D01*
X172030256Y-71357738D01*
X172098285Y-71410687D01*
X172133745Y-71438287D01*
X172174558Y-71494997D01*
X172181344Y-71543823D01*
X172179943Y-71566389D01*
X172920591Y-72307037D01*
X172857007Y-72324075D01*
X172742993Y-72389901D01*
X172649901Y-72482993D01*
X172584075Y-72597007D01*
X172567037Y-72660590D01*
X171826563Y-71920117D01*
X171726267Y-72073633D01*
X171726265Y-72073637D01*
X171626412Y-72301282D01*
X171565387Y-72542261D01*
X171565385Y-72542270D01*
X171544859Y-72789994D01*
X171544859Y-72790005D01*
X171565385Y-73037729D01*
X171565387Y-73037738D01*
X171626412Y-73278717D01*
X171726267Y-73506367D01*
X171826562Y-73659881D01*
X172567037Y-72919408D01*
X172584075Y-72982993D01*
X172649901Y-73097007D01*
X172742993Y-73190099D01*
X172857007Y-73255925D01*
X172920591Y-73272962D01*
X172179943Y-74013609D01*
X172226768Y-74050055D01*
X172226771Y-74050057D01*
X172445385Y-74168364D01*
X172445396Y-74168369D01*
X172680506Y-74249083D01*
X172925707Y-74290000D01*
X173174293Y-74290000D01*
X173419493Y-74249083D01*
X173654603Y-74168369D01*
X173654614Y-74168364D01*
X173873230Y-74050056D01*
X173873236Y-74050051D01*
X173920055Y-74013610D01*
X173920056Y-74013609D01*
X173179408Y-73272962D01*
X173242993Y-73255925D01*
X173357007Y-73190099D01*
X173450099Y-73097007D01*
X173515925Y-72982993D01*
X173532962Y-72919408D01*
X174273435Y-73659882D01*
X174373733Y-73506364D01*
X174434944Y-73366817D01*
X174479900Y-73313331D01*
X174546635Y-73292641D01*
X174613963Y-73311315D01*
X174660507Y-73363425D01*
X174672500Y-73416627D01*
X174672500Y-75438719D01*
X174652815Y-75505758D01*
X174636181Y-75526400D01*
X174576400Y-75586181D01*
X174515077Y-75619666D01*
X174488719Y-75622500D01*
X164114281Y-75622500D01*
X164047242Y-75602815D01*
X164001487Y-75550011D01*
X163991543Y-75480853D01*
X164020568Y-75417297D01*
X164026600Y-75410819D01*
X164837407Y-74600012D01*
X164837411Y-74600008D01*
X164841831Y-74593393D01*
X164906083Y-74497233D01*
X164953385Y-74383035D01*
X164971891Y-74290000D01*
X164977500Y-74261805D01*
X164977500Y-69211280D01*
X164997185Y-69144241D01*
X165013815Y-69123603D01*
X165498939Y-68638478D01*
X165560260Y-68604995D01*
X165629951Y-68609979D01*
X165677846Y-68642176D01*
X165830256Y-68807738D01*
X165913008Y-68872147D01*
X165953821Y-68928857D01*
X165957496Y-68998630D01*
X165922864Y-69059313D01*
X165913014Y-69067848D01*
X165854400Y-69113469D01*
X165830257Y-69132261D01*
X165661833Y-69315217D01*
X165525826Y-69523393D01*
X165425936Y-69751118D01*
X165364892Y-69992175D01*
X165364890Y-69992187D01*
X165344357Y-70239994D01*
X165344357Y-70240005D01*
X165364890Y-70487812D01*
X165364892Y-70487824D01*
X165425936Y-70728881D01*
X165525826Y-70956606D01*
X165661833Y-71164782D01*
X165683787Y-71188630D01*
X165830256Y-71347738D01*
X165886060Y-71391172D01*
X165933745Y-71428287D01*
X165974558Y-71484997D01*
X165981344Y-71533823D01*
X165979943Y-71556389D01*
X166720591Y-72297037D01*
X166657007Y-72314075D01*
X166542993Y-72379901D01*
X166449901Y-72472993D01*
X166384075Y-72587007D01*
X166367037Y-72650590D01*
X165626563Y-71910117D01*
X165526267Y-72063633D01*
X165526265Y-72063637D01*
X165426412Y-72291282D01*
X165365387Y-72532261D01*
X165365385Y-72532270D01*
X165344859Y-72779994D01*
X165344859Y-72780005D01*
X165365385Y-73027729D01*
X165365387Y-73027738D01*
X165426412Y-73268717D01*
X165526267Y-73496367D01*
X165626562Y-73649881D01*
X166367037Y-72909408D01*
X166384075Y-72972993D01*
X166449901Y-73087007D01*
X166542993Y-73180099D01*
X166657007Y-73245925D01*
X166720591Y-73262962D01*
X165979943Y-74003609D01*
X166026768Y-74040055D01*
X166026771Y-74040057D01*
X166245385Y-74158364D01*
X166245396Y-74158369D01*
X166480506Y-74239083D01*
X166725707Y-74280000D01*
X166974293Y-74280000D01*
X167219493Y-74239083D01*
X167454603Y-74158369D01*
X167454614Y-74158364D01*
X167673230Y-74040056D01*
X167673236Y-74040051D01*
X167720055Y-74003610D01*
X167720056Y-74003609D01*
X166979408Y-73262962D01*
X167042993Y-73245925D01*
X167157007Y-73180099D01*
X167250099Y-73087007D01*
X167315925Y-72972993D01*
X167332962Y-72909409D01*
X168073435Y-73649882D01*
X168173733Y-73496364D01*
X168273587Y-73268717D01*
X168334612Y-73027738D01*
X168334614Y-73027729D01*
X168355141Y-72780005D01*
X168355141Y-72779994D01*
X168334614Y-72532270D01*
X168334612Y-72532261D01*
X168273587Y-72291282D01*
X168173732Y-72063632D01*
X168073435Y-71910116D01*
X167332962Y-72650590D01*
X167315925Y-72587007D01*
X167250099Y-72472993D01*
X167157007Y-72379901D01*
X167042993Y-72314075D01*
X166979409Y-72297037D01*
X167720055Y-71556389D01*
X167718654Y-71533825D01*
X167734146Y-71465694D01*
X167766249Y-71428290D01*
X167869744Y-71347738D01*
X168038164Y-71164785D01*
X168174173Y-70956607D01*
X168274063Y-70728881D01*
X168335108Y-70487821D01*
X168335109Y-70487812D01*
X168355643Y-70240005D01*
X168355643Y-70239994D01*
X168335109Y-69992187D01*
X168335107Y-69992175D01*
X168274063Y-69751118D01*
X168174173Y-69523393D01*
X168038166Y-69315217D01*
X167942485Y-69211280D01*
X167869744Y-69132262D01*
X167786991Y-69067852D01*
X167746179Y-69011143D01*
X167742504Y-68941370D01*
X167777136Y-68880687D01*
X167786985Y-68872151D01*
X167869744Y-68807738D01*
X168038164Y-68624785D01*
X168174173Y-68416607D01*
X168274063Y-68188881D01*
X168335108Y-67947821D01*
X168335109Y-67947812D01*
X168355643Y-67700005D01*
X168355643Y-67699994D01*
X168335109Y-67452187D01*
X168335107Y-67452175D01*
X168274063Y-67211118D01*
X168174173Y-66983393D01*
X168038166Y-66775217D01*
X167907832Y-66633637D01*
X167869744Y-66592262D01*
X167673509Y-66439526D01*
X167673507Y-66439525D01*
X167673506Y-66439524D01*
X167454811Y-66321172D01*
X167454802Y-66321169D01*
X167219616Y-66240429D01*
X166974335Y-66199500D01*
X166725665Y-66199500D01*
X166480383Y-66240429D01*
X166245197Y-66321169D01*
X166245188Y-66321172D01*
X166026493Y-66439524D01*
X165830257Y-66592261D01*
X165661833Y-66775217D01*
X165525830Y-66983387D01*
X165525824Y-66983398D01*
X165512565Y-67013624D01*
X165467607Y-67067108D01*
X165423205Y-67085427D01*
X165366967Y-67096614D01*
X165366960Y-67096616D01*
X165252773Y-67143913D01*
X165252760Y-67143920D01*
X165149992Y-67212588D01*
X165149988Y-67212591D01*
X164193890Y-68168691D01*
X163949992Y-68412589D01*
X163906289Y-68456292D01*
X163862586Y-68499994D01*
X163862585Y-68499996D01*
X163793233Y-68603789D01*
X163791586Y-68608393D01*
X163746614Y-68716964D01*
X163746612Y-68716972D01*
X163722500Y-68838192D01*
X163722500Y-73888719D01*
X163702815Y-73955758D01*
X163686181Y-73976400D01*
X163016400Y-74646181D01*
X162955077Y-74679666D01*
X162928719Y-74682500D01*
X150872543Y-74682500D01*
X150805504Y-74662815D01*
X150759749Y-74610011D01*
X150749805Y-74540853D01*
X150778830Y-74477297D01*
X150818742Y-74446780D01*
X150977696Y-74370232D01*
X150977696Y-74370231D01*
X150977704Y-74370228D01*
X151194479Y-74222433D01*
X151386805Y-74043981D01*
X151550386Y-73838857D01*
X151681568Y-73611643D01*
X151777420Y-73367416D01*
X151835802Y-73111630D01*
X151835808Y-73111550D01*
X151855408Y-72850004D01*
X151855408Y-72849995D01*
X151835803Y-72588379D01*
X151835802Y-72588374D01*
X151835802Y-72588370D01*
X151777420Y-72332584D01*
X151681568Y-72088357D01*
X151550386Y-71861143D01*
X151386805Y-71656019D01*
X151386804Y-71656018D01*
X151386801Y-71656014D01*
X151194479Y-71477567D01*
X151185390Y-71471370D01*
X150977704Y-71329772D01*
X150977700Y-71329770D01*
X150977697Y-71329768D01*
X150977696Y-71329767D01*
X150741325Y-71215938D01*
X150741327Y-71215938D01*
X150490623Y-71138606D01*
X150490619Y-71138605D01*
X150490615Y-71138604D01*
X150359605Y-71118857D01*
X150231187Y-71099500D01*
X150231182Y-71099500D01*
X149968818Y-71099500D01*
X149968812Y-71099500D01*
X149807247Y-71123853D01*
X149709385Y-71138604D01*
X149709382Y-71138605D01*
X149709376Y-71138606D01*
X149458673Y-71215938D01*
X149222303Y-71329767D01*
X149222302Y-71329768D01*
X149222296Y-71329771D01*
X149222296Y-71329772D01*
X149221654Y-71330210D01*
X149005520Y-71477567D01*
X148813198Y-71656014D01*
X148649614Y-71861143D01*
X148518432Y-72088356D01*
X148422582Y-72332578D01*
X148422576Y-72332597D01*
X148364197Y-72588374D01*
X148364196Y-72588379D01*
X148344592Y-72849995D01*
X148344592Y-72850004D01*
X148364196Y-73111620D01*
X148364197Y-73111625D01*
X148422576Y-73367402D01*
X148422578Y-73367411D01*
X148422580Y-73367416D01*
X148518432Y-73611643D01*
X148649614Y-73838857D01*
X148759301Y-73976400D01*
X148813198Y-74043985D01*
X148983781Y-74202261D01*
X149005521Y-74222433D01*
X149222296Y-74370228D01*
X149222301Y-74370230D01*
X149222302Y-74370231D01*
X149222303Y-74370232D01*
X149381258Y-74446780D01*
X149433118Y-74493602D01*
X149451431Y-74561029D01*
X149430383Y-74627653D01*
X149376657Y-74672322D01*
X149327457Y-74682500D01*
X141671393Y-74682500D01*
X141604354Y-74662815D01*
X141558599Y-74610011D01*
X141548655Y-74540853D01*
X141577680Y-74477297D01*
X141617591Y-74446780D01*
X141777449Y-74369796D01*
X141949168Y-74252720D01*
X141224025Y-73527578D01*
X141255258Y-73514641D01*
X141378097Y-73432563D01*
X141482563Y-73328097D01*
X141564641Y-73205258D01*
X141577578Y-73174025D01*
X142302125Y-73898572D01*
X142349971Y-73838573D01*
X142481116Y-73611426D01*
X142576941Y-73367270D01*
X142635306Y-73111550D01*
X142635307Y-73111545D01*
X142654907Y-72850004D01*
X142654907Y-72849995D01*
X142635307Y-72588454D01*
X142635306Y-72588449D01*
X142576941Y-72332729D01*
X142481116Y-72088573D01*
X142481117Y-72088573D01*
X142349972Y-71861426D01*
X142302124Y-71801427D01*
X141577577Y-72525973D01*
X141564641Y-72494742D01*
X141482563Y-72371903D01*
X141378097Y-72267437D01*
X141255258Y-72185359D01*
X141224024Y-72172421D01*
X141949168Y-71447278D01*
X141777454Y-71330206D01*
X141777445Y-71330201D01*
X141541142Y-71216404D01*
X141541144Y-71216404D01*
X141290505Y-71139092D01*
X141290499Y-71139090D01*
X141031151Y-71100000D01*
X140768848Y-71100000D01*
X140509500Y-71139090D01*
X140509494Y-71139092D01*
X140258858Y-71216404D01*
X140258854Y-71216405D01*
X140022547Y-71330205D01*
X140022539Y-71330210D01*
X139850830Y-71447277D01*
X140575975Y-72172421D01*
X140544742Y-72185359D01*
X140421903Y-72267437D01*
X140317437Y-72371903D01*
X140235359Y-72494742D01*
X140222421Y-72525974D01*
X139497874Y-71801427D01*
X139450028Y-71861425D01*
X139318883Y-72088573D01*
X139223058Y-72332729D01*
X139164693Y-72588449D01*
X139164692Y-72588454D01*
X139145093Y-72849995D01*
X139145093Y-72850004D01*
X139164692Y-73111545D01*
X139164693Y-73111550D01*
X139223058Y-73367270D01*
X139318883Y-73611426D01*
X139318882Y-73611426D01*
X139450029Y-73838576D01*
X139497873Y-73898572D01*
X140222421Y-73174024D01*
X140235359Y-73205258D01*
X140317437Y-73328097D01*
X140421903Y-73432563D01*
X140544742Y-73514641D01*
X140575974Y-73527577D01*
X139850830Y-74252720D01*
X140022546Y-74369793D01*
X140022550Y-74369795D01*
X140182409Y-74446780D01*
X140234268Y-74493603D01*
X140252581Y-74561030D01*
X140231533Y-74627654D01*
X140177807Y-74672322D01*
X140128607Y-74682500D01*
X137794272Y-74682500D01*
X137727233Y-74662815D01*
X137681478Y-74610011D01*
X137680715Y-74608308D01*
X137677076Y-74600012D01*
X137674173Y-74593393D01*
X137608977Y-74493602D01*
X137538166Y-74385217D01*
X137450512Y-74290000D01*
X137369744Y-74202262D01*
X137286991Y-74137852D01*
X137246179Y-74081143D01*
X137242504Y-74011370D01*
X137277136Y-73950687D01*
X137286985Y-73942151D01*
X137369744Y-73877738D01*
X137538164Y-73694785D01*
X137674173Y-73486607D01*
X137774063Y-73258881D01*
X137835108Y-73017821D01*
X137837994Y-72982993D01*
X137855643Y-72770005D01*
X137855643Y-72769994D01*
X137835109Y-72522187D01*
X137835107Y-72522175D01*
X137774063Y-72281118D01*
X137674173Y-72053393D01*
X137538166Y-71845217D01*
X137497854Y-71801427D01*
X137369744Y-71662262D01*
X137286991Y-71597852D01*
X137246179Y-71541143D01*
X137242504Y-71471370D01*
X137277136Y-71410687D01*
X137286985Y-71402151D01*
X137369744Y-71337738D01*
X137538164Y-71154785D01*
X137674173Y-70946607D01*
X137774063Y-70718881D01*
X137835108Y-70477821D01*
X137835911Y-70468130D01*
X137855643Y-70230005D01*
X137855643Y-70229993D01*
X137835109Y-69982187D01*
X137835107Y-69982175D01*
X137774063Y-69741118D01*
X137674173Y-69513393D01*
X137538166Y-69305217D01*
X137516557Y-69281744D01*
X137369744Y-69122262D01*
X137286991Y-69057852D01*
X137246179Y-69001143D01*
X137242504Y-68931370D01*
X137277136Y-68870687D01*
X137286985Y-68862151D01*
X137369744Y-68797738D01*
X137538164Y-68614785D01*
X137674173Y-68406607D01*
X137774063Y-68178881D01*
X137835108Y-67937821D01*
X137835911Y-67928130D01*
X137855643Y-67690005D01*
X137855643Y-67689994D01*
X137835109Y-67442187D01*
X137835107Y-67442175D01*
X137774063Y-67201118D01*
X137674173Y-66973393D01*
X137538166Y-66765217D01*
X137516557Y-66741744D01*
X137369744Y-66582262D01*
X137173509Y-66429526D01*
X137173507Y-66429525D01*
X137173506Y-66429524D01*
X136954811Y-66311172D01*
X136954802Y-66311169D01*
X136719616Y-66230429D01*
X136474335Y-66189500D01*
X136225665Y-66189500D01*
X135980383Y-66230429D01*
X135745197Y-66311169D01*
X135745188Y-66311172D01*
X135526493Y-66429524D01*
X135330257Y-66582261D01*
X135161833Y-66765217D01*
X135025826Y-66973393D01*
X134925936Y-67201118D01*
X134871706Y-67415270D01*
X134836166Y-67475426D01*
X134773746Y-67506818D01*
X134704262Y-67499480D01*
X134649777Y-67455741D01*
X134627588Y-67389488D01*
X134627500Y-67384830D01*
X134627500Y-64351280D01*
X134647185Y-64284241D01*
X134663815Y-64263603D01*
X135414877Y-63512540D01*
X135476198Y-63479057D01*
X135542818Y-63482941D01*
X135587259Y-63498198D01*
X135620385Y-63509571D01*
X135865665Y-63550500D01*
X136114335Y-63550500D01*
X136359614Y-63509571D01*
X136594810Y-63428828D01*
X136813509Y-63310474D01*
X137009744Y-63157738D01*
X137178164Y-62974785D01*
X137314173Y-62766607D01*
X137414063Y-62538881D01*
X137475108Y-62297821D01*
X137476359Y-62282726D01*
X137495643Y-62050005D01*
X137495643Y-62049994D01*
X137475109Y-61802187D01*
X137475107Y-61802175D01*
X137414063Y-61561118D01*
X137314173Y-61333393D01*
X137178166Y-61125217D01*
X137156557Y-61101744D01*
X137009744Y-60942262D01*
X136813509Y-60789526D01*
X136813507Y-60789525D01*
X136813506Y-60789524D01*
X136594811Y-60671172D01*
X136594802Y-60671169D01*
X136359616Y-60590429D01*
X136114335Y-60549500D01*
X135865665Y-60549500D01*
X135620383Y-60590429D01*
X135385197Y-60671169D01*
X135385188Y-60671172D01*
X135166493Y-60789524D01*
X134970257Y-60942261D01*
X134811230Y-61115010D01*
X134751342Y-61151001D01*
X134681504Y-61148900D01*
X134628770Y-61115010D01*
X134589108Y-61071926D01*
X134469744Y-60942262D01*
X134273509Y-60789526D01*
X134273507Y-60789525D01*
X134273506Y-60789524D01*
X134054811Y-60671172D01*
X134054802Y-60671169D01*
X133819616Y-60590429D01*
X133574335Y-60549500D01*
X133325665Y-60549500D01*
X133080383Y-60590429D01*
X132845197Y-60671169D01*
X132845188Y-60671172D01*
X132626493Y-60789524D01*
X132430257Y-60942261D01*
X132261837Y-61125213D01*
X132261829Y-61125224D01*
X132261455Y-61125797D01*
X132261242Y-61125978D01*
X132258690Y-61129258D01*
X132258014Y-61128732D01*
X132208304Y-61171147D01*
X132144865Y-61181302D01*
X132133435Y-61180116D01*
X131392962Y-61920590D01*
X131375925Y-61857007D01*
X131310099Y-61742993D01*
X131217007Y-61649901D01*
X131102993Y-61584075D01*
X131039409Y-61567037D01*
X131780055Y-60826389D01*
X131780055Y-60826388D01*
X131733236Y-60789947D01*
X131733231Y-60789944D01*
X131514614Y-60671635D01*
X131514603Y-60671630D01*
X131279493Y-60590916D01*
X131034293Y-60550000D01*
X130785707Y-60550000D01*
X130540506Y-60590916D01*
X130305396Y-60671630D01*
X130305385Y-60671635D01*
X130086770Y-60789943D01*
X130039943Y-60826389D01*
X130780591Y-61567037D01*
X130717007Y-61584075D01*
X130602993Y-61649901D01*
X130509901Y-61742993D01*
X130444075Y-61857007D01*
X130427037Y-61920590D01*
X129686563Y-61180116D01*
X129675136Y-61181302D01*
X129606423Y-61168637D01*
X129561910Y-61128802D01*
X129561317Y-61129265D01*
X129558768Y-61125991D01*
X129558535Y-61125782D01*
X129558166Y-61125218D01*
X129558165Y-61125217D01*
X129558164Y-61125215D01*
X129389744Y-60942262D01*
X129193509Y-60789526D01*
X129193507Y-60789525D01*
X129193506Y-60789524D01*
X128974811Y-60671172D01*
X128974802Y-60671169D01*
X128739616Y-60590429D01*
X128494335Y-60549500D01*
X128245665Y-60549500D01*
X128000383Y-60590429D01*
X127765197Y-60671169D01*
X127765188Y-60671172D01*
X127546493Y-60789524D01*
X127350257Y-60942261D01*
X127181833Y-61125217D01*
X127045826Y-61333393D01*
X126945936Y-61561118D01*
X126884892Y-61802175D01*
X126884890Y-61802187D01*
X126864357Y-62049994D01*
X112687222Y-62049994D01*
X112586700Y-61991958D01*
X112586690Y-61991953D01*
X112344428Y-61891605D01*
X112344421Y-61891603D01*
X112344419Y-61891602D01*
X112091116Y-61823730D01*
X112033339Y-61816123D01*
X111831127Y-61789500D01*
X111831120Y-61789500D01*
X111568880Y-61789500D01*
X111568872Y-61789500D01*
X111337772Y-61819926D01*
X111308884Y-61823730D01*
X111184692Y-61857007D01*
X111055581Y-61891602D01*
X111055571Y-61891605D01*
X110813309Y-61991953D01*
X110813299Y-61991958D01*
X110586196Y-62123075D01*
X110378148Y-62282718D01*
X110192718Y-62468148D01*
X110033075Y-62676196D01*
X109901958Y-62903299D01*
X109901953Y-62903309D01*
X109801605Y-63145571D01*
X109801603Y-63145578D01*
X109801602Y-63145581D01*
X109797512Y-63160847D01*
X109736339Y-63389147D01*
X109699974Y-63448807D01*
X109637127Y-63479336D01*
X109567751Y-63471041D01*
X109513873Y-63426556D01*
X109492599Y-63360004D01*
X109492570Y-63358232D01*
X109456866Y-59325096D01*
X109475956Y-59257887D01*
X109528353Y-59211666D01*
X109580861Y-59200000D01*
X167757045Y-59200000D01*
X167824084Y-59219685D01*
G37*
%TD.AperFunction*%
%TA.AperFunction,Conductor*%
G36*
X109704861Y-64158103D02*
G01*
X109743154Y-64216544D01*
X109744266Y-64220437D01*
X109801603Y-64434421D01*
X109801605Y-64434428D01*
X109901953Y-64676690D01*
X109901958Y-64676700D01*
X110033075Y-64903803D01*
X110192718Y-65111851D01*
X110192726Y-65111860D01*
X110378140Y-65297274D01*
X110378148Y-65297281D01*
X110586196Y-65456924D01*
X110813299Y-65588041D01*
X110813309Y-65588046D01*
X111055571Y-65688394D01*
X111055581Y-65688398D01*
X111308884Y-65756270D01*
X111568880Y-65790500D01*
X111568887Y-65790500D01*
X111831113Y-65790500D01*
X111831120Y-65790500D01*
X111956772Y-65773957D01*
X112025807Y-65784722D01*
X112078063Y-65831102D01*
X112096949Y-65898371D01*
X112076469Y-65965171D01*
X112031975Y-66005951D01*
X111876770Y-66089943D01*
X111829943Y-66126389D01*
X112570591Y-66867037D01*
X112507007Y-66884075D01*
X112392993Y-66949901D01*
X112299901Y-67042993D01*
X112234075Y-67157007D01*
X112217037Y-67220591D01*
X111476563Y-66480117D01*
X111376267Y-66633633D01*
X111376265Y-66633637D01*
X111276412Y-66861282D01*
X111215387Y-67102261D01*
X111215385Y-67102270D01*
X111194859Y-67349994D01*
X111194859Y-67350005D01*
X111215385Y-67597729D01*
X111215387Y-67597738D01*
X111276412Y-67838717D01*
X111376267Y-68066367D01*
X111476562Y-68219881D01*
X112217037Y-67479408D01*
X112234075Y-67542993D01*
X112299901Y-67657007D01*
X112392993Y-67750099D01*
X112507007Y-67815925D01*
X112570591Y-67832962D01*
X111829943Y-68573609D01*
X111831344Y-68596176D01*
X111815851Y-68664306D01*
X111783745Y-68701712D01*
X111680258Y-68782260D01*
X111511833Y-68965217D01*
X111375826Y-69173393D01*
X111275936Y-69401118D01*
X111214892Y-69642175D01*
X111214890Y-69642187D01*
X111194357Y-69889994D01*
X111194357Y-69890005D01*
X111214890Y-70137812D01*
X111214892Y-70137824D01*
X111275936Y-70378881D01*
X111375826Y-70606606D01*
X111511833Y-70814782D01*
X111524059Y-70828063D01*
X111680256Y-70997738D01*
X111763008Y-71062147D01*
X111803821Y-71118857D01*
X111807496Y-71188630D01*
X111772864Y-71249313D01*
X111763014Y-71257848D01*
X111748045Y-71269500D01*
X111680257Y-71322261D01*
X111511833Y-71505217D01*
X111375826Y-71713393D01*
X111275936Y-71941118D01*
X111214892Y-72182175D01*
X111214890Y-72182187D01*
X111194357Y-72429994D01*
X111194357Y-72430005D01*
X111214890Y-72677812D01*
X111214892Y-72677824D01*
X111275936Y-72918881D01*
X111375826Y-73146606D01*
X111511833Y-73354782D01*
X111523468Y-73367421D01*
X111680256Y-73537738D01*
X111763008Y-73602147D01*
X111803821Y-73658857D01*
X111807496Y-73728630D01*
X111772864Y-73789313D01*
X111763014Y-73797848D01*
X111710692Y-73838573D01*
X111680257Y-73862261D01*
X111511833Y-74045217D01*
X111375826Y-74253393D01*
X111275936Y-74481118D01*
X111214892Y-74722175D01*
X111214890Y-74722187D01*
X111194357Y-74969994D01*
X111194357Y-74970005D01*
X111214890Y-75217812D01*
X111214892Y-75217824D01*
X111275936Y-75458881D01*
X111375826Y-75686606D01*
X111511833Y-75894782D01*
X111511836Y-75894785D01*
X111680256Y-76077738D01*
X111763008Y-76142147D01*
X111803821Y-76198857D01*
X111807496Y-76268630D01*
X111772864Y-76329313D01*
X111763014Y-76337848D01*
X111704400Y-76383469D01*
X111680257Y-76402261D01*
X111511833Y-76585217D01*
X111375826Y-76793393D01*
X111275936Y-77021118D01*
X111214892Y-77262175D01*
X111214890Y-77262187D01*
X111194357Y-77509994D01*
X111194357Y-77510005D01*
X111214890Y-77757812D01*
X111214892Y-77757824D01*
X111275936Y-77998881D01*
X111375826Y-78226606D01*
X111511833Y-78434782D01*
X111528959Y-78453386D01*
X111680256Y-78617738D01*
X111763008Y-78682147D01*
X111803821Y-78738857D01*
X111807496Y-78808630D01*
X111772864Y-78869313D01*
X111763014Y-78877848D01*
X111704400Y-78923469D01*
X111680257Y-78942261D01*
X111511833Y-79125217D01*
X111375826Y-79333393D01*
X111275936Y-79561118D01*
X111214892Y-79802175D01*
X111214890Y-79802187D01*
X111194357Y-80049994D01*
X111194357Y-80050005D01*
X111214890Y-80297812D01*
X111214892Y-80297824D01*
X111275936Y-80538881D01*
X111375826Y-80766606D01*
X111511833Y-80974782D01*
X111511836Y-80974785D01*
X111680256Y-81157738D01*
X111763008Y-81222147D01*
X111803821Y-81278857D01*
X111807496Y-81348630D01*
X111772864Y-81409313D01*
X111763014Y-81417848D01*
X111707693Y-81460907D01*
X111680257Y-81482261D01*
X111511833Y-81665217D01*
X111375826Y-81873393D01*
X111275936Y-82101118D01*
X111214892Y-82342175D01*
X111214890Y-82342187D01*
X111194357Y-82589994D01*
X111194357Y-82590005D01*
X111214890Y-82837812D01*
X111214892Y-82837824D01*
X111275936Y-83078881D01*
X111375826Y-83306606D01*
X111511833Y-83514782D01*
X111527577Y-83531884D01*
X111680256Y-83697738D01*
X111763008Y-83762147D01*
X111803821Y-83818857D01*
X111807496Y-83888630D01*
X111772864Y-83949313D01*
X111763014Y-83957848D01*
X111704400Y-84003469D01*
X111680257Y-84022261D01*
X111511833Y-84205217D01*
X111375826Y-84413393D01*
X111275936Y-84641118D01*
X111214892Y-84882175D01*
X111214890Y-84882187D01*
X111194357Y-85129994D01*
X111194357Y-85130005D01*
X111214890Y-85377812D01*
X111214892Y-85377824D01*
X111275936Y-85618881D01*
X111375826Y-85846606D01*
X111511833Y-86054782D01*
X111511836Y-86054785D01*
X111680256Y-86237738D01*
X111763008Y-86302147D01*
X111803821Y-86358857D01*
X111807496Y-86428630D01*
X111772864Y-86489313D01*
X111763014Y-86497848D01*
X111704400Y-86543469D01*
X111680257Y-86562261D01*
X111511833Y-86745217D01*
X111375826Y-86953393D01*
X111275936Y-87181118D01*
X111214892Y-87422175D01*
X111214890Y-87422187D01*
X111194357Y-87669994D01*
X111194357Y-87670005D01*
X111214890Y-87917812D01*
X111214892Y-87917824D01*
X111275936Y-88158881D01*
X111375826Y-88386606D01*
X111511833Y-88594782D01*
X111544245Y-88629991D01*
X111680256Y-88777738D01*
X111763008Y-88842147D01*
X111803821Y-88898857D01*
X111807496Y-88968630D01*
X111772864Y-89029313D01*
X111763014Y-89037848D01*
X111761719Y-89038857D01*
X111680257Y-89102261D01*
X111511833Y-89285217D01*
X111375826Y-89493393D01*
X111275936Y-89721118D01*
X111214892Y-89962175D01*
X111214890Y-89962187D01*
X111194357Y-90209994D01*
X111194357Y-90210005D01*
X111214890Y-90457812D01*
X111214892Y-90457824D01*
X111275936Y-90698881D01*
X111375826Y-90926606D01*
X111511833Y-91134782D01*
X111511836Y-91134785D01*
X111680256Y-91317738D01*
X111763008Y-91382147D01*
X111803821Y-91438857D01*
X111807496Y-91508630D01*
X111772864Y-91569313D01*
X111763014Y-91577848D01*
X111704400Y-91623469D01*
X111680257Y-91642261D01*
X111511833Y-91825217D01*
X111375826Y-92033393D01*
X111275936Y-92261118D01*
X111214892Y-92502175D01*
X111214890Y-92502187D01*
X111194357Y-92749994D01*
X111194357Y-92750005D01*
X111214890Y-92997812D01*
X111214892Y-92997824D01*
X111275936Y-93238881D01*
X111375826Y-93466606D01*
X111511833Y-93674782D01*
X111511836Y-93674785D01*
X111680256Y-93857738D01*
X111736388Y-93901427D01*
X111783745Y-93938287D01*
X111824558Y-93994997D01*
X111831344Y-94043823D01*
X111829943Y-94066389D01*
X112570591Y-94807037D01*
X112507007Y-94824075D01*
X112392993Y-94889901D01*
X112299901Y-94982993D01*
X112234075Y-95097007D01*
X112217037Y-95160591D01*
X111476563Y-94420117D01*
X111376267Y-94573633D01*
X111376265Y-94573637D01*
X111276412Y-94801282D01*
X111215387Y-95042261D01*
X111215385Y-95042270D01*
X111194859Y-95289994D01*
X111194859Y-95290005D01*
X111215385Y-95537729D01*
X111215387Y-95537738D01*
X111276412Y-95778717D01*
X111376267Y-96006367D01*
X111454032Y-96125396D01*
X111474220Y-96192285D01*
X111455039Y-96259471D01*
X111402580Y-96305621D01*
X111366410Y-96316156D01*
X111308884Y-96323730D01*
X111055581Y-96391602D01*
X111055571Y-96391605D01*
X110813309Y-96491953D01*
X110813299Y-96491958D01*
X110586196Y-96623075D01*
X110378148Y-96782718D01*
X110192718Y-96968148D01*
X110033075Y-97176196D01*
X110022946Y-97193742D01*
X109972379Y-97241958D01*
X109903772Y-97255181D01*
X109838907Y-97229213D01*
X109798379Y-97172298D01*
X109791564Y-97132843D01*
X109500496Y-64253625D01*
X109519586Y-64186418D01*
X109571983Y-64140197D01*
X109641051Y-64129642D01*
X109704861Y-64158103D01*
G37*
%TD.AperFunction*%
%TA.AperFunction,Conductor*%
G36*
X119788410Y-68522185D02*
G01*
X119825180Y-68558679D01*
X119861833Y-68614782D01*
X119880247Y-68634785D01*
X120030256Y-68797738D01*
X120055952Y-68817738D01*
X120133745Y-68878287D01*
X120174558Y-68934997D01*
X120181344Y-68983823D01*
X120179943Y-69006389D01*
X120920591Y-69747037D01*
X120857007Y-69764075D01*
X120742993Y-69829901D01*
X120649901Y-69922993D01*
X120584075Y-70037007D01*
X120567037Y-70100591D01*
X119826563Y-69360117D01*
X119726267Y-69513633D01*
X119726265Y-69513637D01*
X119626412Y-69741282D01*
X119565387Y-69982261D01*
X119565385Y-69982270D01*
X119544859Y-70229993D01*
X119544859Y-70230005D01*
X119565385Y-70477729D01*
X119565387Y-70477738D01*
X119626412Y-70718717D01*
X119726267Y-70946367D01*
X119826562Y-71099881D01*
X120567037Y-70359408D01*
X120584075Y-70422993D01*
X120649901Y-70537007D01*
X120742993Y-70630099D01*
X120857007Y-70695925D01*
X120920591Y-70712962D01*
X120179943Y-71453609D01*
X120181344Y-71476176D01*
X120165851Y-71544306D01*
X120133745Y-71581712D01*
X120030258Y-71662260D01*
X119861833Y-71845217D01*
X119725826Y-72053393D01*
X119625936Y-72281118D01*
X119564892Y-72522175D01*
X119564890Y-72522187D01*
X119544357Y-72769994D01*
X119544357Y-72770005D01*
X119564890Y-73017812D01*
X119564892Y-73017824D01*
X119625936Y-73258881D01*
X119725826Y-73486606D01*
X119861833Y-73694782D01*
X119861836Y-73694785D01*
X120030256Y-73877738D01*
X120113008Y-73942147D01*
X120153821Y-73998857D01*
X120157496Y-74068630D01*
X120122864Y-74129313D01*
X120113014Y-74137848D01*
X120086656Y-74158364D01*
X120030257Y-74202261D01*
X119861833Y-74385217D01*
X119725826Y-74593393D01*
X119625936Y-74821118D01*
X119564892Y-75062175D01*
X119564890Y-75062187D01*
X119544357Y-75309994D01*
X119544357Y-75310005D01*
X119564890Y-75557812D01*
X119564892Y-75557824D01*
X119625936Y-75798881D01*
X119725826Y-76026606D01*
X119861833Y-76234782D01*
X119861836Y-76234785D01*
X120030256Y-76417738D01*
X120113008Y-76482147D01*
X120153821Y-76538857D01*
X120157496Y-76608630D01*
X120122864Y-76669313D01*
X120113014Y-76677848D01*
X120054400Y-76723469D01*
X120030257Y-76742261D01*
X119861833Y-76925217D01*
X119725826Y-77133393D01*
X119625936Y-77361118D01*
X119564892Y-77602175D01*
X119564890Y-77602187D01*
X119544357Y-77849994D01*
X119544357Y-77850005D01*
X119564890Y-78097812D01*
X119564892Y-78097824D01*
X119625936Y-78338881D01*
X119725826Y-78566606D01*
X119861833Y-78774782D01*
X119861836Y-78774785D01*
X120030256Y-78957738D01*
X120113008Y-79022147D01*
X120153821Y-79078857D01*
X120157496Y-79148630D01*
X120122864Y-79209313D01*
X120113014Y-79217848D01*
X120094066Y-79232597D01*
X120030257Y-79282261D01*
X119861833Y-79465217D01*
X119725826Y-79673393D01*
X119625936Y-79901118D01*
X119564892Y-80142175D01*
X119564890Y-80142187D01*
X119544357Y-80389994D01*
X119544357Y-80390005D01*
X119564890Y-80637812D01*
X119564892Y-80637824D01*
X119625936Y-80878881D01*
X119725826Y-81106606D01*
X119861833Y-81314782D01*
X119861836Y-81314785D01*
X120030256Y-81497738D01*
X120113008Y-81562147D01*
X120153821Y-81618857D01*
X120157496Y-81688630D01*
X120122864Y-81749313D01*
X120113014Y-81757848D01*
X120054400Y-81803469D01*
X120030257Y-81822261D01*
X119861833Y-82005217D01*
X119725827Y-82213392D01*
X119719285Y-82228308D01*
X119674330Y-82281795D01*
X119607594Y-82302486D01*
X119605728Y-82302500D01*
X118708192Y-82302500D01*
X118586973Y-82326611D01*
X118586973Y-82326612D01*
X118586970Y-82326613D01*
X118586966Y-82326614D01*
X118520070Y-82354323D01*
X118520068Y-82354323D01*
X118472768Y-82373916D01*
X118472764Y-82373918D01*
X118400510Y-82422197D01*
X118400510Y-82422198D01*
X118369989Y-82442590D01*
X118369988Y-82442591D01*
X117314181Y-83498399D01*
X117252858Y-83531884D01*
X117183166Y-83526900D01*
X117127233Y-83485028D01*
X117102816Y-83419564D01*
X117102500Y-83410718D01*
X117102500Y-70813057D01*
X117122185Y-70746018D01*
X117138819Y-70725376D01*
X119325376Y-68538819D01*
X119386699Y-68505334D01*
X119413057Y-68502500D01*
X119721371Y-68502500D01*
X119788410Y-68522185D01*
G37*
%TD.AperFunction*%
%TD*%
M02*
